%TF.GenerationSoftware,KiCad,Pcbnew,8.0.1*%
%TF.CreationDate,2024-09-28T14:19:56-03:00*%
%TF.ProjectId,AdeJiga,4164654a-6967-4612-9e6b-696361645f70,rev?*%
%TF.SameCoordinates,Original*%
%TF.FileFunction,Paste,Bot*%
%TF.FilePolarity,Positive*%
%FSLAX46Y46*%
G04 Gerber Fmt 4.6, Leading zero omitted, Abs format (unit mm)*
G04 Created by KiCad (PCBNEW 8.0.1) date 2024-09-28 14:19:56*
%MOMM*%
%LPD*%
G01*
G04 APERTURE LIST*
G04 Aperture macros list*
%AMRoundRect*
0 Rectangle with rounded corners*
0 $1 Rounding radius*
0 $2 $3 $4 $5 $6 $7 $8 $9 X,Y pos of 4 corners*
0 Add a 4 corners polygon primitive as box body*
4,1,4,$2,$3,$4,$5,$6,$7,$8,$9,$2,$3,0*
0 Add four circle primitives for the rounded corners*
1,1,$1+$1,$2,$3*
1,1,$1+$1,$4,$5*
1,1,$1+$1,$6,$7*
1,1,$1+$1,$8,$9*
0 Add four rect primitives between the rounded corners*
20,1,$1+$1,$2,$3,$4,$5,0*
20,1,$1+$1,$4,$5,$6,$7,0*
20,1,$1+$1,$6,$7,$8,$9,0*
20,1,$1+$1,$8,$9,$2,$3,0*%
G04 Aperture macros list end*
%ADD10RoundRect,0.375000X0.625000X0.375000X-0.625000X0.375000X-0.625000X-0.375000X0.625000X-0.375000X0*%
%ADD11RoundRect,0.500000X0.500000X1.400000X-0.500000X1.400000X-0.500000X-1.400000X0.500000X-1.400000X0*%
%ADD12R,1.500000X0.900000*%
%ADD13R,0.900000X1.500000*%
G04 APERTURE END LIST*
D10*
%TO.C,U4*%
X175650000Y-32000000D03*
X175650000Y-34300000D03*
D11*
X169350000Y-34300000D03*
D10*
X175650000Y-36600000D03*
%TD*%
D12*
%TO.C,U2*%
X165095000Y-30997500D03*
X165095000Y-32267500D03*
X165095000Y-33537500D03*
X165095000Y-34807500D03*
X165095000Y-36077500D03*
X165095000Y-37347500D03*
X165095000Y-38617500D03*
X165095000Y-39887500D03*
X165095000Y-41157500D03*
X165095000Y-42427500D03*
X165095000Y-43697500D03*
X165095000Y-44967500D03*
X165095000Y-46237500D03*
X165095000Y-47507500D03*
D13*
X162055000Y-48757500D03*
X160785000Y-48757500D03*
X159515000Y-48757500D03*
X158245000Y-48757500D03*
X156975000Y-48757500D03*
X155705000Y-48757500D03*
X154435000Y-48757500D03*
X153165000Y-48757500D03*
X151895000Y-48757500D03*
X150625000Y-48757500D03*
D12*
X147595000Y-47507500D03*
X147595000Y-46237500D03*
X147595000Y-44967500D03*
X147595000Y-43697500D03*
X147595000Y-42427500D03*
X147595000Y-41157500D03*
X147595000Y-39887500D03*
X147595000Y-38617500D03*
X147595000Y-37347500D03*
X147595000Y-36077500D03*
X147595000Y-34807500D03*
X147595000Y-33537500D03*
X147595000Y-32267500D03*
X147595000Y-30997500D03*
%TD*%
M02*
