%TF.GenerationSoftware,KiCad,Pcbnew,8.0.1*%
%TF.CreationDate,2024-09-28T14:19:56-03:00*%
%TF.ProjectId,AdeJiga,4164654a-6967-4612-9e6b-696361645f70,rev?*%
%TF.SameCoordinates,Original*%
%TF.FileFunction,Profile,NP*%
%FSLAX46Y46*%
G04 Gerber Fmt 4.6, Leading zero omitted, Abs format (unit mm)*
G04 Created by KiCad (PCBNEW 8.0.1) date 2024-09-28 14:19:56*
%MOMM*%
%LPD*%
G01*
G04 APERTURE LIST*
%ADD10C,0.100000*%
%ADD11C,0.200000*%
%TA.AperFunction,Profile*%
%ADD12C,0.200000*%
%TD*%
%ADD13C,0.300000*%
G04 APERTURE END LIST*
D10*
G36*
X123973845Y-32892882D02*
G01*
X123973845Y-34636043D01*
X123254305Y-34636043D01*
X123254305Y-32892882D01*
X123973845Y-32892882D01*
G37*
G36*
X123973845Y-43142882D02*
G01*
X123973845Y-44886043D01*
X123254305Y-44886043D01*
X123254305Y-43142882D01*
X123973845Y-43142882D01*
G37*
D11*
G36*
X123318528Y-37445108D02*
G01*
X123318528Y-36427348D01*
X123711124Y-36427348D01*
X123711124Y-36881493D01*
X123808259Y-36860663D01*
X123888381Y-36809074D01*
X123949876Y-36730464D01*
X123985725Y-36647011D01*
X124006579Y-36549554D01*
X124011836Y-36462958D01*
X124005022Y-36363703D01*
X123985418Y-36272438D01*
X123954286Y-36189552D01*
X123897023Y-36092738D01*
X123824495Y-36012423D01*
X123739690Y-35949525D01*
X123645595Y-35904960D01*
X123545199Y-35879646D01*
X123467565Y-35873845D01*
X123354769Y-35885567D01*
X123249959Y-35918990D01*
X123155308Y-35971496D01*
X123072991Y-36040467D01*
X123005182Y-36123287D01*
X122954056Y-36217339D01*
X122921785Y-36320004D01*
X122910545Y-36428667D01*
X122919952Y-36525878D01*
X122946919Y-36622840D01*
X122989569Y-36715772D01*
X123046026Y-36800889D01*
X123083762Y-36844563D01*
X122680615Y-37136043D01*
X122613023Y-37050648D01*
X122564572Y-36971409D01*
X122521855Y-36884581D01*
X122485552Y-36792122D01*
X122456343Y-36695989D01*
X122434909Y-36598141D01*
X122421929Y-36500535D01*
X122418152Y-36428667D01*
X122423644Y-36314962D01*
X122439751Y-36204991D01*
X122465916Y-36099249D01*
X122501587Y-35998234D01*
X122546206Y-35902444D01*
X122599219Y-35812374D01*
X122660070Y-35728523D01*
X122728206Y-35651388D01*
X122803070Y-35581466D01*
X122884107Y-35519253D01*
X122970762Y-35465248D01*
X123062481Y-35419947D01*
X123158708Y-35383847D01*
X123258887Y-35357446D01*
X123362464Y-35341241D01*
X123468884Y-35335729D01*
X123572986Y-35341235D01*
X123674390Y-35357437D01*
X123772541Y-35383862D01*
X123866886Y-35420036D01*
X123956870Y-35465487D01*
X124041938Y-35519740D01*
X124121537Y-35582323D01*
X124195110Y-35652762D01*
X124262104Y-35730584D01*
X124321965Y-35815315D01*
X124374138Y-35906483D01*
X124418068Y-36003613D01*
X124453201Y-36106233D01*
X124478982Y-36213869D01*
X124494858Y-36326047D01*
X124500273Y-36442295D01*
X124495748Y-36546544D01*
X124482348Y-36647758D01*
X124460342Y-36745429D01*
X124429993Y-36839047D01*
X124391569Y-36928104D01*
X124345334Y-37012088D01*
X124291557Y-37090492D01*
X124230501Y-37162806D01*
X124162433Y-37228520D01*
X124087620Y-37287124D01*
X124006326Y-37338110D01*
X123918819Y-37380969D01*
X123825363Y-37415190D01*
X123726226Y-37440264D01*
X123621672Y-37455682D01*
X123511969Y-37460935D01*
X123422755Y-37457149D01*
X123331023Y-37446879D01*
X123318528Y-37445108D01*
G37*
D12*
X194000000Y-23000000D02*
X194000000Y-95000000D01*
X194000000Y-95000000D02*
X122000000Y-95000000D01*
X122000000Y-95000000D02*
X122000000Y-23000000D01*
X122000000Y-23000000D02*
X194000000Y-23000000D01*
D13*
G36*
X157863834Y-90800401D02*
G01*
X157863834Y-92151064D01*
X159274947Y-90776587D01*
X159511252Y-90776587D01*
X159511252Y-93575000D01*
X158779745Y-93575000D01*
X158779745Y-92221284D01*
X157363136Y-93614078D01*
X157130495Y-93614078D01*
X157130495Y-90800401D01*
X157863834Y-90800401D01*
G37*
G36*
X156856943Y-93575000D02*
G01*
X156057048Y-93575000D01*
X155916608Y-93250767D01*
X154887735Y-93250767D01*
X154749738Y-93575000D01*
X153948011Y-93575000D01*
X154342628Y-92715265D01*
X155120376Y-92715265D01*
X155686409Y-92715265D01*
X155402477Y-92062526D01*
X155120376Y-92715265D01*
X154342628Y-92715265D01*
X155229675Y-90782693D01*
X155576500Y-90782693D01*
X156856943Y-93575000D01*
G37*
D11*
G36*
X124750273Y-57168555D02*
G01*
X124744817Y-57279317D01*
X124728964Y-57385303D01*
X124703488Y-57486353D01*
X124669160Y-57582308D01*
X124626754Y-57673009D01*
X124577042Y-57758294D01*
X124520798Y-57838005D01*
X124458794Y-57911981D01*
X124057405Y-57611709D01*
X124118314Y-57537547D01*
X124169840Y-57459089D01*
X124210295Y-57376493D01*
X124237993Y-57289915D01*
X124251247Y-57199512D01*
X124252164Y-57168555D01*
X124241755Y-57063817D01*
X124211676Y-56963567D01*
X124163648Y-56870726D01*
X124099390Y-56788214D01*
X124020625Y-56718953D01*
X123929072Y-56665864D01*
X123826453Y-56631869D01*
X123714488Y-56619888D01*
X123603420Y-56631422D01*
X123500975Y-56664435D01*
X123409062Y-56716542D01*
X123329586Y-56785356D01*
X123264452Y-56868493D01*
X123215569Y-56963567D01*
X123184840Y-57068193D01*
X123174174Y-57179986D01*
X123184292Y-57277581D01*
X123213209Y-57375974D01*
X123251325Y-57458391D01*
X123300315Y-57536797D01*
X123358822Y-57609071D01*
X122977656Y-57911981D01*
X122908981Y-57832651D01*
X122848245Y-57747694D01*
X122795762Y-57658163D01*
X122751848Y-57565108D01*
X122716815Y-57469579D01*
X122690978Y-57372629D01*
X122674653Y-57275308D01*
X122668152Y-57178667D01*
X122673371Y-57064600D01*
X122688724Y-56954360D01*
X122713752Y-56848433D01*
X122747994Y-56747307D01*
X122790992Y-56651470D01*
X122842287Y-56561408D01*
X122901419Y-56477611D01*
X122967929Y-56400564D01*
X123041359Y-56330756D01*
X123121248Y-56268674D01*
X123207139Y-56214805D01*
X123298571Y-56169638D01*
X123395085Y-56133659D01*
X123496223Y-56107356D01*
X123601525Y-56091217D01*
X123710531Y-56085729D01*
X123825449Y-56091741D01*
X123935077Y-56109302D01*
X124039121Y-56137699D01*
X124137288Y-56176218D01*
X124229286Y-56224148D01*
X124314822Y-56280776D01*
X124393602Y-56345387D01*
X124465333Y-56417270D01*
X124529723Y-56495712D01*
X124586478Y-56579999D01*
X124635306Y-56669418D01*
X124675913Y-56763258D01*
X124708006Y-56860804D01*
X124731292Y-56961344D01*
X124745479Y-57064166D01*
X124750273Y-57168555D01*
G37*
D10*
G36*
X123596081Y-66787316D02*
G01*
X123601133Y-66709254D01*
X123617870Y-66630921D01*
X123645540Y-66562735D01*
X123472250Y-66589480D01*
X123472250Y-67187386D01*
X123080240Y-67187386D01*
X123080240Y-66280635D01*
X123948890Y-66152773D01*
X124060631Y-66350610D01*
X124015053Y-66410018D01*
X123981222Y-66485707D01*
X123962065Y-66558431D01*
X123953036Y-66641131D01*
X123952920Y-66651029D01*
X123962298Y-66732171D01*
X123996345Y-66807621D01*
X124055868Y-66859007D01*
X124129336Y-66879612D01*
X124154054Y-66880739D01*
X124237103Y-66866926D01*
X124306582Y-66822100D01*
X124349291Y-66754133D01*
X124365000Y-66682106D01*
X124365812Y-66660188D01*
X124355483Y-66586816D01*
X124319857Y-66514214D01*
X124266166Y-66454653D01*
X124235753Y-66429378D01*
X124398419Y-66071441D01*
X124467057Y-66111154D01*
X124528207Y-66155996D01*
X124598367Y-66222942D01*
X124655881Y-66297037D01*
X124701132Y-66377155D01*
X124734500Y-66462172D01*
X124756369Y-66550963D01*
X124767121Y-66642403D01*
X124768447Y-66688764D01*
X124762269Y-66789834D01*
X124744099Y-66885299D01*
X124714484Y-66974214D01*
X124673972Y-67055632D01*
X124623109Y-67128604D01*
X124562443Y-67192183D01*
X124492519Y-67245422D01*
X124413886Y-67287375D01*
X124327091Y-67317093D01*
X124232679Y-67333629D01*
X124165778Y-67336863D01*
X124076717Y-67331166D01*
X123992667Y-67314435D01*
X123914447Y-67287206D01*
X123842876Y-67250019D01*
X123778772Y-67203411D01*
X123722954Y-67147920D01*
X123676240Y-67084084D01*
X123639450Y-67012441D01*
X123613401Y-66933529D01*
X123598913Y-66847886D01*
X123596081Y-66787316D01*
G37*
G36*
X123103688Y-68668230D02*
G01*
X123996151Y-68285746D01*
X123103688Y-67904361D01*
X123103688Y-67429553D01*
X124768447Y-68188293D01*
X124768447Y-68387229D01*
X123103688Y-69149267D01*
X123103688Y-68668230D01*
G37*
D13*
G36*
X167113834Y-90800401D02*
G01*
X167113834Y-92151064D01*
X168524947Y-90776587D01*
X168761252Y-90776587D01*
X168761252Y-93575000D01*
X168029745Y-93575000D01*
X168029745Y-92221284D01*
X166613136Y-93614078D01*
X166380495Y-93614078D01*
X166380495Y-90800401D01*
X167113834Y-90800401D01*
G37*
G36*
X164117585Y-91487944D02*
G01*
X164117585Y-90800401D01*
X165903611Y-90800401D01*
X165903611Y-93575000D01*
X165180652Y-93575000D01*
X165180652Y-92545516D01*
X164305652Y-92545516D01*
X164305652Y-91933688D01*
X165180652Y-91933688D01*
X165180652Y-91487944D01*
X164117585Y-91487944D01*
G37*
G36*
X150613834Y-90800401D02*
G01*
X150613834Y-92151064D01*
X152024947Y-90776587D01*
X152261252Y-90776587D01*
X152261252Y-93575000D01*
X151529745Y-93575000D01*
X151529745Y-92221284D01*
X150113136Y-93614078D01*
X149880495Y-93614078D01*
X149880495Y-90800401D01*
X150613834Y-90800401D01*
G37*
G36*
X147617585Y-91487944D02*
G01*
X147617585Y-90800401D01*
X149403611Y-90800401D01*
X149403611Y-93575000D01*
X148680652Y-93575000D01*
X148680652Y-92545516D01*
X147805652Y-92545516D01*
X147805652Y-91933688D01*
X148680652Y-91933688D01*
X148680652Y-91487944D01*
X147617585Y-91487944D01*
G37*
D11*
G36*
X124694000Y-59768639D02*
G01*
X124686539Y-59876774D01*
X124665054Y-59977200D01*
X124630894Y-60069276D01*
X124585406Y-60152365D01*
X124529937Y-60225826D01*
X124465834Y-60289021D01*
X124394446Y-60341311D01*
X124290259Y-60392962D01*
X124178709Y-60422576D01*
X124092136Y-60429413D01*
X123986492Y-60418798D01*
X123889869Y-60389008D01*
X123803828Y-60343123D01*
X123729930Y-60284223D01*
X123669737Y-60215391D01*
X123624809Y-60139706D01*
X123592494Y-60040158D01*
X123586993Y-59980104D01*
X123546995Y-60066414D01*
X123476991Y-60127103D01*
X123394412Y-60168928D01*
X123294775Y-60193431D01*
X123239680Y-60196845D01*
X123139281Y-60184828D01*
X123044179Y-60150086D01*
X122956866Y-60094581D01*
X122879837Y-60020276D01*
X122815585Y-59929135D01*
X122766603Y-59823119D01*
X122741388Y-59735028D01*
X122727217Y-59640502D01*
X122724425Y-59574319D01*
X122724425Y-59428799D01*
X123182527Y-59428799D01*
X123182527Y-59558053D01*
X123195395Y-59645468D01*
X123243771Y-59722599D01*
X123332883Y-59755010D01*
X123420363Y-59726821D01*
X123473372Y-59651683D01*
X123489231Y-59565167D01*
X123489394Y-59554535D01*
X123489394Y-59428799D01*
X123849017Y-59428799D01*
X123849896Y-59692142D01*
X123859484Y-59780355D01*
X123898256Y-59864315D01*
X123972518Y-59916019D01*
X124031027Y-59924710D01*
X124122010Y-59899736D01*
X124181610Y-59834675D01*
X124211411Y-59744314D01*
X124215674Y-59688625D01*
X124215674Y-59428799D01*
X123849017Y-59428799D01*
X123489394Y-59428799D01*
X123182527Y-59428799D01*
X122724425Y-59428799D01*
X122724425Y-58921898D01*
X124694000Y-58921898D01*
X124694000Y-59768639D01*
G37*
G36*
X124694000Y-51569483D02*
G01*
X124689653Y-51692749D01*
X124676740Y-51809663D01*
X124655456Y-51920005D01*
X124625993Y-52023553D01*
X124588545Y-52120086D01*
X124543304Y-52209384D01*
X124490463Y-52291226D01*
X124430217Y-52365391D01*
X124362758Y-52431658D01*
X124288280Y-52489806D01*
X124206975Y-52539614D01*
X124119037Y-52580861D01*
X124024658Y-52613327D01*
X123924033Y-52636791D01*
X123817355Y-52651031D01*
X123704816Y-52655826D01*
X123591392Y-52651031D01*
X123483875Y-52636791D01*
X123382465Y-52613327D01*
X123287360Y-52580861D01*
X123198759Y-52539614D01*
X123116862Y-52489806D01*
X123041868Y-52431658D01*
X122973974Y-52365391D01*
X122913381Y-52291226D01*
X122860288Y-52209384D01*
X122814892Y-52120086D01*
X122777395Y-52023553D01*
X122747993Y-51920005D01*
X122726887Y-51809663D01*
X122714275Y-51692749D01*
X122710357Y-51569483D01*
X122710631Y-51434954D01*
X123202750Y-51434954D01*
X123202750Y-51555854D01*
X123207691Y-51652147D01*
X123222289Y-51740711D01*
X123256197Y-51846114D01*
X123305886Y-51936198D01*
X123370562Y-52010061D01*
X123449432Y-52066801D01*
X123541702Y-52105516D01*
X123646579Y-52125306D01*
X123703497Y-52127822D01*
X123813125Y-52117879D01*
X123910676Y-52088667D01*
X123995368Y-52041114D01*
X124066418Y-51976147D01*
X124123041Y-51894694D01*
X124164457Y-51797682D01*
X124189880Y-51686038D01*
X124197982Y-51593261D01*
X124198528Y-51560690D01*
X124198089Y-51560690D01*
X124198089Y-51434954D01*
X123202750Y-51434954D01*
X122710631Y-51434954D01*
X122711676Y-50921898D01*
X124694000Y-50921898D01*
X124694000Y-51569483D01*
G37*
G36*
X122474425Y-39288136D02*
G01*
X123205981Y-39288136D01*
X123205981Y-38698583D01*
X122474425Y-38698583D01*
X122474425Y-38171898D01*
X124444000Y-38171898D01*
X124444000Y-38698583D01*
X123698375Y-38698583D01*
X123698375Y-39288136D01*
X124444000Y-39288136D01*
X124444000Y-39813503D01*
X122474425Y-39813503D01*
X122474425Y-39288136D01*
G37*
G36*
X123214181Y-49707836D02*
G01*
X122724425Y-49707836D01*
X122724425Y-48421898D01*
X124694000Y-48421898D01*
X124694000Y-49707836D01*
X124200727Y-49707836D01*
X124200727Y-48942428D01*
X123923755Y-48942428D01*
X123923755Y-49572428D01*
X123484118Y-49572428D01*
X123484118Y-48942428D01*
X123214181Y-48942428D01*
X123214181Y-49707836D01*
G37*
D13*
G36*
X141363834Y-90800401D02*
G01*
X141363834Y-92151064D01*
X142774947Y-90776587D01*
X143011252Y-90776587D01*
X143011252Y-93575000D01*
X142279745Y-93575000D01*
X142279745Y-92221284D01*
X140863136Y-93614078D01*
X140630495Y-93614078D01*
X140630495Y-90800401D01*
X141363834Y-90800401D01*
G37*
G36*
X140356943Y-93575000D02*
G01*
X139557048Y-93575000D01*
X139416608Y-93250767D01*
X138387735Y-93250767D01*
X138249738Y-93575000D01*
X137448011Y-93575000D01*
X137842628Y-92715265D01*
X138620376Y-92715265D01*
X139186409Y-92715265D01*
X138902477Y-92062526D01*
X138620376Y-92715265D01*
X137842628Y-92715265D01*
X138729675Y-90782693D01*
X139076500Y-90782693D01*
X140356943Y-93575000D01*
G37*
D11*
G36*
X123191320Y-47457836D02*
G01*
X122696288Y-47457836D01*
X122696288Y-46171898D01*
X124694000Y-46171898D01*
X124694000Y-46692428D01*
X123952771Y-46692428D01*
X123952771Y-47322428D01*
X123512255Y-47322428D01*
X123512255Y-46692428D01*
X123191320Y-46692428D01*
X123191320Y-47457836D01*
G37*
D10*
G36*
X124223845Y-63642882D02*
G01*
X124223845Y-65386043D01*
X123504305Y-65386043D01*
X123504305Y-63642882D01*
X124223845Y-63642882D01*
G37*
D11*
G36*
X124694000Y-61601423D02*
G01*
X124460552Y-61702540D01*
X124460552Y-62443328D01*
X124694000Y-62542686D01*
X124694000Y-63119930D01*
X122683539Y-62197131D01*
X122683539Y-62072714D01*
X123605018Y-62072714D01*
X124074990Y-62275826D01*
X124074990Y-61868283D01*
X123605018Y-62072714D01*
X122683539Y-62072714D01*
X122683539Y-61947418D01*
X124694000Y-61025498D01*
X124694000Y-61601423D01*
G37*
M02*
