%TF.GenerationSoftware,KiCad,Pcbnew,8.0.1*%
%TF.CreationDate,2024-12-11T12:45:41-03:00*%
%TF.ProjectId,AdeJiga,4164654a-6967-4612-9e6b-696361645f70,rev?*%
%TF.SameCoordinates,Original*%
%TF.FileFunction,Legend,Top*%
%TF.FilePolarity,Positive*%
%FSLAX46Y46*%
G04 Gerber Fmt 4.6, Leading zero omitted, Abs format (unit mm)*
G04 Created by KiCad (PCBNEW 8.0.1) date 2024-12-11 12:45:41*
%MOMM*%
%LPD*%
G01*
G04 APERTURE LIST*
%ADD10C,0.150000*%
%ADD11C,0.101600*%
%ADD12C,0.152400*%
%ADD13C,0.120000*%
%ADD14C,0.127000*%
%ADD15C,0.254000*%
%ADD16C,0.203200*%
G04 APERTURE END LIST*
D10*
X107214819Y-117313333D02*
X107929104Y-117313333D01*
X107929104Y-117313333D02*
X108071961Y-117360952D01*
X108071961Y-117360952D02*
X108167200Y-117456190D01*
X108167200Y-117456190D02*
X108214819Y-117599047D01*
X108214819Y-117599047D02*
X108214819Y-117694285D01*
X108214819Y-116313333D02*
X108214819Y-116884761D01*
X108214819Y-116599047D02*
X107214819Y-116599047D01*
X107214819Y-116599047D02*
X107357676Y-116694285D01*
X107357676Y-116694285D02*
X107452914Y-116789523D01*
X107452914Y-116789523D02*
X107500533Y-116884761D01*
X139164819Y-134156666D02*
X138688628Y-134489999D01*
X139164819Y-134728094D02*
X138164819Y-134728094D01*
X138164819Y-134728094D02*
X138164819Y-134347142D01*
X138164819Y-134347142D02*
X138212438Y-134251904D01*
X138212438Y-134251904D02*
X138260057Y-134204285D01*
X138260057Y-134204285D02*
X138355295Y-134156666D01*
X138355295Y-134156666D02*
X138498152Y-134156666D01*
X138498152Y-134156666D02*
X138593390Y-134204285D01*
X138593390Y-134204285D02*
X138641009Y-134251904D01*
X138641009Y-134251904D02*
X138688628Y-134347142D01*
X138688628Y-134347142D02*
X138688628Y-134728094D01*
X138164819Y-133823332D02*
X138164819Y-133204285D01*
X138164819Y-133204285D02*
X138545771Y-133537618D01*
X138545771Y-133537618D02*
X138545771Y-133394761D01*
X138545771Y-133394761D02*
X138593390Y-133299523D01*
X138593390Y-133299523D02*
X138641009Y-133251904D01*
X138641009Y-133251904D02*
X138736247Y-133204285D01*
X138736247Y-133204285D02*
X138974342Y-133204285D01*
X138974342Y-133204285D02*
X139069580Y-133251904D01*
X139069580Y-133251904D02*
X139117200Y-133299523D01*
X139117200Y-133299523D02*
X139164819Y-133394761D01*
X139164819Y-133394761D02*
X139164819Y-133680475D01*
X139164819Y-133680475D02*
X139117200Y-133775713D01*
X139117200Y-133775713D02*
X139069580Y-133823332D01*
X107244819Y-134353333D02*
X107959104Y-134353333D01*
X107959104Y-134353333D02*
X108101961Y-134400952D01*
X108101961Y-134400952D02*
X108197200Y-134496190D01*
X108197200Y-134496190D02*
X108244819Y-134639047D01*
X108244819Y-134639047D02*
X108244819Y-134734285D01*
X107244819Y-133972380D02*
X107244819Y-133353333D01*
X107244819Y-133353333D02*
X107625771Y-133686666D01*
X107625771Y-133686666D02*
X107625771Y-133543809D01*
X107625771Y-133543809D02*
X107673390Y-133448571D01*
X107673390Y-133448571D02*
X107721009Y-133400952D01*
X107721009Y-133400952D02*
X107816247Y-133353333D01*
X107816247Y-133353333D02*
X108054342Y-133353333D01*
X108054342Y-133353333D02*
X108149580Y-133400952D01*
X108149580Y-133400952D02*
X108197200Y-133448571D01*
X108197200Y-133448571D02*
X108244819Y-133543809D01*
X108244819Y-133543809D02*
X108244819Y-133829523D01*
X108244819Y-133829523D02*
X108197200Y-133924761D01*
X108197200Y-133924761D02*
X108149580Y-133972380D01*
X158416666Y-132514819D02*
X158416666Y-133229104D01*
X158416666Y-133229104D02*
X158369047Y-133371961D01*
X158369047Y-133371961D02*
X158273809Y-133467200D01*
X158273809Y-133467200D02*
X158130952Y-133514819D01*
X158130952Y-133514819D02*
X158035714Y-133514819D01*
X159369047Y-132514819D02*
X158892857Y-132514819D01*
X158892857Y-132514819D02*
X158845238Y-132991009D01*
X158845238Y-132991009D02*
X158892857Y-132943390D01*
X158892857Y-132943390D02*
X158988095Y-132895771D01*
X158988095Y-132895771D02*
X159226190Y-132895771D01*
X159226190Y-132895771D02*
X159321428Y-132943390D01*
X159321428Y-132943390D02*
X159369047Y-132991009D01*
X159369047Y-132991009D02*
X159416666Y-133086247D01*
X159416666Y-133086247D02*
X159416666Y-133324342D01*
X159416666Y-133324342D02*
X159369047Y-133419580D01*
X159369047Y-133419580D02*
X159321428Y-133467200D01*
X159321428Y-133467200D02*
X159226190Y-133514819D01*
X159226190Y-133514819D02*
X158988095Y-133514819D01*
X158988095Y-133514819D02*
X158892857Y-133467200D01*
X158892857Y-133467200D02*
X158845238Y-133419580D01*
X173916666Y-121824819D02*
X173916666Y-122539104D01*
X173916666Y-122539104D02*
X173869047Y-122681961D01*
X173869047Y-122681961D02*
X173773809Y-122777200D01*
X173773809Y-122777200D02*
X173630952Y-122824819D01*
X173630952Y-122824819D02*
X173535714Y-122824819D01*
X174821428Y-121824819D02*
X174630952Y-121824819D01*
X174630952Y-121824819D02*
X174535714Y-121872438D01*
X174535714Y-121872438D02*
X174488095Y-121920057D01*
X174488095Y-121920057D02*
X174392857Y-122062914D01*
X174392857Y-122062914D02*
X174345238Y-122253390D01*
X174345238Y-122253390D02*
X174345238Y-122634342D01*
X174345238Y-122634342D02*
X174392857Y-122729580D01*
X174392857Y-122729580D02*
X174440476Y-122777200D01*
X174440476Y-122777200D02*
X174535714Y-122824819D01*
X174535714Y-122824819D02*
X174726190Y-122824819D01*
X174726190Y-122824819D02*
X174821428Y-122777200D01*
X174821428Y-122777200D02*
X174869047Y-122729580D01*
X174869047Y-122729580D02*
X174916666Y-122634342D01*
X174916666Y-122634342D02*
X174916666Y-122396247D01*
X174916666Y-122396247D02*
X174869047Y-122301009D01*
X174869047Y-122301009D02*
X174821428Y-122253390D01*
X174821428Y-122253390D02*
X174726190Y-122205771D01*
X174726190Y-122205771D02*
X174535714Y-122205771D01*
X174535714Y-122205771D02*
X174440476Y-122253390D01*
X174440476Y-122253390D02*
X174392857Y-122301009D01*
X174392857Y-122301009D02*
X174345238Y-122396247D01*
X141424819Y-151638094D02*
X140424819Y-151638094D01*
X140424819Y-151638094D02*
X140424819Y-151399999D01*
X140424819Y-151399999D02*
X140472438Y-151257142D01*
X140472438Y-151257142D02*
X140567676Y-151161904D01*
X140567676Y-151161904D02*
X140662914Y-151114285D01*
X140662914Y-151114285D02*
X140853390Y-151066666D01*
X140853390Y-151066666D02*
X140996247Y-151066666D01*
X140996247Y-151066666D02*
X141186723Y-151114285D01*
X141186723Y-151114285D02*
X141281961Y-151161904D01*
X141281961Y-151161904D02*
X141377200Y-151257142D01*
X141377200Y-151257142D02*
X141424819Y-151399999D01*
X141424819Y-151399999D02*
X141424819Y-151638094D01*
X140424819Y-150209523D02*
X140424819Y-150399999D01*
X140424819Y-150399999D02*
X140472438Y-150495237D01*
X140472438Y-150495237D02*
X140520057Y-150542856D01*
X140520057Y-150542856D02*
X140662914Y-150638094D01*
X140662914Y-150638094D02*
X140853390Y-150685713D01*
X140853390Y-150685713D02*
X141234342Y-150685713D01*
X141234342Y-150685713D02*
X141329580Y-150638094D01*
X141329580Y-150638094D02*
X141377200Y-150590475D01*
X141377200Y-150590475D02*
X141424819Y-150495237D01*
X141424819Y-150495237D02*
X141424819Y-150304761D01*
X141424819Y-150304761D02*
X141377200Y-150209523D01*
X141377200Y-150209523D02*
X141329580Y-150161904D01*
X141329580Y-150161904D02*
X141234342Y-150114285D01*
X141234342Y-150114285D02*
X140996247Y-150114285D01*
X140996247Y-150114285D02*
X140901009Y-150161904D01*
X140901009Y-150161904D02*
X140853390Y-150209523D01*
X140853390Y-150209523D02*
X140805771Y-150304761D01*
X140805771Y-150304761D02*
X140805771Y-150495237D01*
X140805771Y-150495237D02*
X140853390Y-150590475D01*
X140853390Y-150590475D02*
X140901009Y-150638094D01*
X140901009Y-150638094D02*
X140996247Y-150685713D01*
X140054819Y-146081904D02*
X139054819Y-146081904D01*
X140054819Y-145510476D02*
X139483390Y-145939047D01*
X139054819Y-145510476D02*
X139626247Y-146081904D01*
D11*
X146929904Y-157631242D02*
X146929904Y-156361242D01*
X146929904Y-156361242D02*
X147353238Y-157268385D01*
X147353238Y-157268385D02*
X147776571Y-156361242D01*
X147776571Y-156361242D02*
X147776571Y-157631242D01*
X149046572Y-157631242D02*
X148320857Y-157631242D01*
X148683714Y-157631242D02*
X148683714Y-156361242D01*
X148683714Y-156361242D02*
X148562762Y-156542670D01*
X148562762Y-156542670D02*
X148441810Y-156663623D01*
X148441810Y-156663623D02*
X148320857Y-156724099D01*
X134177522Y-180841242D02*
X134177522Y-179571242D01*
X134177522Y-179571242D02*
X134479903Y-179571242D01*
X134479903Y-179571242D02*
X134661332Y-179631718D01*
X134661332Y-179631718D02*
X134782284Y-179752670D01*
X134782284Y-179752670D02*
X134842761Y-179873623D01*
X134842761Y-179873623D02*
X134903237Y-180115527D01*
X134903237Y-180115527D02*
X134903237Y-180296956D01*
X134903237Y-180296956D02*
X134842761Y-180538861D01*
X134842761Y-180538861D02*
X134782284Y-180659813D01*
X134782284Y-180659813D02*
X134661332Y-180780766D01*
X134661332Y-180780766D02*
X134479903Y-180841242D01*
X134479903Y-180841242D02*
X134177522Y-180841242D01*
X136173237Y-180720289D02*
X136112761Y-180780766D01*
X136112761Y-180780766D02*
X135931332Y-180841242D01*
X135931332Y-180841242D02*
X135810380Y-180841242D01*
X135810380Y-180841242D02*
X135628951Y-180780766D01*
X135628951Y-180780766D02*
X135507999Y-180659813D01*
X135507999Y-180659813D02*
X135447522Y-180538861D01*
X135447522Y-180538861D02*
X135387046Y-180296956D01*
X135387046Y-180296956D02*
X135387046Y-180115527D01*
X135387046Y-180115527D02*
X135447522Y-179873623D01*
X135447522Y-179873623D02*
X135507999Y-179752670D01*
X135507999Y-179752670D02*
X135628951Y-179631718D01*
X135628951Y-179631718D02*
X135810380Y-179571242D01*
X135810380Y-179571242D02*
X135931332Y-179571242D01*
X135931332Y-179571242D02*
X136112761Y-179631718D01*
X136112761Y-179631718D02*
X136173237Y-179692194D01*
X136717522Y-180357432D02*
X137685142Y-180357432D01*
X138289903Y-180841242D02*
X138289903Y-179571242D01*
X138289903Y-179571242D02*
X138592284Y-179571242D01*
X138592284Y-179571242D02*
X138773713Y-179631718D01*
X138773713Y-179631718D02*
X138894665Y-179752670D01*
X138894665Y-179752670D02*
X138955142Y-179873623D01*
X138955142Y-179873623D02*
X139015618Y-180115527D01*
X139015618Y-180115527D02*
X139015618Y-180296956D01*
X139015618Y-180296956D02*
X138955142Y-180538861D01*
X138955142Y-180538861D02*
X138894665Y-180659813D01*
X138894665Y-180659813D02*
X138773713Y-180780766D01*
X138773713Y-180780766D02*
X138592284Y-180841242D01*
X138592284Y-180841242D02*
X138289903Y-180841242D01*
X140285618Y-180720289D02*
X140225142Y-180780766D01*
X140225142Y-180780766D02*
X140043713Y-180841242D01*
X140043713Y-180841242D02*
X139922761Y-180841242D01*
X139922761Y-180841242D02*
X139741332Y-180780766D01*
X139741332Y-180780766D02*
X139620380Y-180659813D01*
X139620380Y-180659813D02*
X139559903Y-180538861D01*
X139559903Y-180538861D02*
X139499427Y-180296956D01*
X139499427Y-180296956D02*
X139499427Y-180115527D01*
X139499427Y-180115527D02*
X139559903Y-179873623D01*
X139559903Y-179873623D02*
X139620380Y-179752670D01*
X139620380Y-179752670D02*
X139741332Y-179631718D01*
X139741332Y-179631718D02*
X139922761Y-179571242D01*
X139922761Y-179571242D02*
X140043713Y-179571242D01*
X140043713Y-179571242D02*
X140225142Y-179631718D01*
X140225142Y-179631718D02*
X140285618Y-179692194D01*
X140829903Y-180357432D02*
X141797523Y-180357432D01*
X142341808Y-180780766D02*
X142523237Y-180841242D01*
X142523237Y-180841242D02*
X142825618Y-180841242D01*
X142825618Y-180841242D02*
X142946570Y-180780766D01*
X142946570Y-180780766D02*
X143007046Y-180720289D01*
X143007046Y-180720289D02*
X143067523Y-180599337D01*
X143067523Y-180599337D02*
X143067523Y-180478385D01*
X143067523Y-180478385D02*
X143007046Y-180357432D01*
X143007046Y-180357432D02*
X142946570Y-180296956D01*
X142946570Y-180296956D02*
X142825618Y-180236480D01*
X142825618Y-180236480D02*
X142583713Y-180176004D01*
X142583713Y-180176004D02*
X142462761Y-180115527D01*
X142462761Y-180115527D02*
X142402284Y-180055051D01*
X142402284Y-180055051D02*
X142341808Y-179934099D01*
X142341808Y-179934099D02*
X142341808Y-179813146D01*
X142341808Y-179813146D02*
X142402284Y-179692194D01*
X142402284Y-179692194D02*
X142462761Y-179631718D01*
X142462761Y-179631718D02*
X142583713Y-179571242D01*
X142583713Y-179571242D02*
X142886094Y-179571242D01*
X142886094Y-179571242D02*
X143067523Y-179631718D01*
X143430380Y-179571242D02*
X144156094Y-179571242D01*
X143793237Y-180841242D02*
X143793237Y-179571242D01*
X144579427Y-180176004D02*
X145002761Y-180176004D01*
X145184189Y-180841242D02*
X144579427Y-180841242D01*
X144579427Y-180841242D02*
X144579427Y-179571242D01*
X144579427Y-179571242D02*
X145184189Y-179571242D01*
X145728475Y-180841242D02*
X145728475Y-179571242D01*
X145728475Y-179571242D02*
X146212285Y-179571242D01*
X146212285Y-179571242D02*
X146333237Y-179631718D01*
X146333237Y-179631718D02*
X146393714Y-179692194D01*
X146393714Y-179692194D02*
X146454190Y-179813146D01*
X146454190Y-179813146D02*
X146454190Y-179994575D01*
X146454190Y-179994575D02*
X146393714Y-180115527D01*
X146393714Y-180115527D02*
X146333237Y-180176004D01*
X146333237Y-180176004D02*
X146212285Y-180236480D01*
X146212285Y-180236480D02*
X145728475Y-180236480D01*
X146998475Y-180357432D02*
X147966095Y-180357432D01*
X148570856Y-180841242D02*
X148570856Y-179571242D01*
X148570856Y-179571242D02*
X148873237Y-179571242D01*
X148873237Y-179571242D02*
X149054666Y-179631718D01*
X149054666Y-179631718D02*
X149175618Y-179752670D01*
X149175618Y-179752670D02*
X149236095Y-179873623D01*
X149236095Y-179873623D02*
X149296571Y-180115527D01*
X149296571Y-180115527D02*
X149296571Y-180296956D01*
X149296571Y-180296956D02*
X149236095Y-180538861D01*
X149236095Y-180538861D02*
X149175618Y-180659813D01*
X149175618Y-180659813D02*
X149054666Y-180780766D01*
X149054666Y-180780766D02*
X148873237Y-180841242D01*
X148873237Y-180841242D02*
X148570856Y-180841242D01*
X150082761Y-179571242D02*
X150324666Y-179571242D01*
X150324666Y-179571242D02*
X150445618Y-179631718D01*
X150445618Y-179631718D02*
X150566571Y-179752670D01*
X150566571Y-179752670D02*
X150627047Y-179994575D01*
X150627047Y-179994575D02*
X150627047Y-180417908D01*
X150627047Y-180417908D02*
X150566571Y-180659813D01*
X150566571Y-180659813D02*
X150445618Y-180780766D01*
X150445618Y-180780766D02*
X150324666Y-180841242D01*
X150324666Y-180841242D02*
X150082761Y-180841242D01*
X150082761Y-180841242D02*
X149961809Y-180780766D01*
X149961809Y-180780766D02*
X149840856Y-180659813D01*
X149840856Y-180659813D02*
X149780380Y-180417908D01*
X149780380Y-180417908D02*
X149780380Y-179994575D01*
X149780380Y-179994575D02*
X149840856Y-179752670D01*
X149840856Y-179752670D02*
X149961809Y-179631718D01*
X149961809Y-179631718D02*
X150082761Y-179571242D01*
X151050380Y-179571242D02*
X151352761Y-180841242D01*
X151352761Y-180841242D02*
X151594666Y-179934099D01*
X151594666Y-179934099D02*
X151836571Y-180841242D01*
X151836571Y-180841242D02*
X152138952Y-179571242D01*
X152622761Y-180841242D02*
X152622761Y-179571242D01*
X152622761Y-179571242D02*
X153348476Y-180841242D01*
X153348476Y-180841242D02*
X153348476Y-179571242D01*
X153953237Y-180357432D02*
X154920857Y-180357432D01*
X156130380Y-180841242D02*
X155525618Y-180841242D01*
X155525618Y-180841242D02*
X155525618Y-179571242D01*
X156553713Y-180841242D02*
X156553713Y-179571242D01*
X156553713Y-179571242D02*
X156977047Y-180478385D01*
X156977047Y-180478385D02*
X157400380Y-179571242D01*
X157400380Y-179571242D02*
X157400380Y-180841242D01*
X157944666Y-179692194D02*
X158005142Y-179631718D01*
X158005142Y-179631718D02*
X158126095Y-179571242D01*
X158126095Y-179571242D02*
X158428476Y-179571242D01*
X158428476Y-179571242D02*
X158549428Y-179631718D01*
X158549428Y-179631718D02*
X158609904Y-179692194D01*
X158609904Y-179692194D02*
X158670381Y-179813146D01*
X158670381Y-179813146D02*
X158670381Y-179934099D01*
X158670381Y-179934099D02*
X158609904Y-180115527D01*
X158609904Y-180115527D02*
X157884190Y-180841242D01*
X157884190Y-180841242D02*
X158670381Y-180841242D01*
X159819428Y-179571242D02*
X159214666Y-179571242D01*
X159214666Y-179571242D02*
X159154190Y-180176004D01*
X159154190Y-180176004D02*
X159214666Y-180115527D01*
X159214666Y-180115527D02*
X159335619Y-180055051D01*
X159335619Y-180055051D02*
X159638000Y-180055051D01*
X159638000Y-180055051D02*
X159758952Y-180115527D01*
X159758952Y-180115527D02*
X159819428Y-180176004D01*
X159819428Y-180176004D02*
X159879905Y-180296956D01*
X159879905Y-180296956D02*
X159879905Y-180599337D01*
X159879905Y-180599337D02*
X159819428Y-180720289D01*
X159819428Y-180720289D02*
X159758952Y-180780766D01*
X159758952Y-180780766D02*
X159638000Y-180841242D01*
X159638000Y-180841242D02*
X159335619Y-180841242D01*
X159335619Y-180841242D02*
X159214666Y-180780766D01*
X159214666Y-180780766D02*
X159154190Y-180720289D01*
X160484667Y-180841242D02*
X160726571Y-180841242D01*
X160726571Y-180841242D02*
X160847524Y-180780766D01*
X160847524Y-180780766D02*
X160908000Y-180720289D01*
X160908000Y-180720289D02*
X161028952Y-180538861D01*
X161028952Y-180538861D02*
X161089429Y-180296956D01*
X161089429Y-180296956D02*
X161089429Y-179813146D01*
X161089429Y-179813146D02*
X161028952Y-179692194D01*
X161028952Y-179692194D02*
X160968476Y-179631718D01*
X160968476Y-179631718D02*
X160847524Y-179571242D01*
X160847524Y-179571242D02*
X160605619Y-179571242D01*
X160605619Y-179571242D02*
X160484667Y-179631718D01*
X160484667Y-179631718D02*
X160424190Y-179692194D01*
X160424190Y-179692194D02*
X160363714Y-179813146D01*
X160363714Y-179813146D02*
X160363714Y-180115527D01*
X160363714Y-180115527D02*
X160424190Y-180236480D01*
X160424190Y-180236480D02*
X160484667Y-180296956D01*
X160484667Y-180296956D02*
X160605619Y-180357432D01*
X160605619Y-180357432D02*
X160847524Y-180357432D01*
X160847524Y-180357432D02*
X160968476Y-180296956D01*
X160968476Y-180296956D02*
X161028952Y-180236480D01*
X161028952Y-180236480D02*
X161089429Y-180115527D01*
X162178000Y-179571242D02*
X161936095Y-179571242D01*
X161936095Y-179571242D02*
X161815143Y-179631718D01*
X161815143Y-179631718D02*
X161754667Y-179692194D01*
X161754667Y-179692194D02*
X161633714Y-179873623D01*
X161633714Y-179873623D02*
X161573238Y-180115527D01*
X161573238Y-180115527D02*
X161573238Y-180599337D01*
X161573238Y-180599337D02*
X161633714Y-180720289D01*
X161633714Y-180720289D02*
X161694191Y-180780766D01*
X161694191Y-180780766D02*
X161815143Y-180841242D01*
X161815143Y-180841242D02*
X162057048Y-180841242D01*
X162057048Y-180841242D02*
X162178000Y-180780766D01*
X162178000Y-180780766D02*
X162238476Y-180720289D01*
X162238476Y-180720289D02*
X162298953Y-180599337D01*
X162298953Y-180599337D02*
X162298953Y-180296956D01*
X162298953Y-180296956D02*
X162238476Y-180176004D01*
X162238476Y-180176004D02*
X162178000Y-180115527D01*
X162178000Y-180115527D02*
X162057048Y-180055051D01*
X162057048Y-180055051D02*
X161815143Y-180055051D01*
X161815143Y-180055051D02*
X161694191Y-180115527D01*
X161694191Y-180115527D02*
X161633714Y-180176004D01*
X161633714Y-180176004D02*
X161573238Y-180296956D01*
D12*
X166929612Y-169972000D02*
X166929612Y-169633333D01*
X166929612Y-169633333D02*
X167014279Y-169464000D01*
X167014279Y-169464000D02*
X167183612Y-169294666D01*
X167183612Y-169294666D02*
X167522279Y-169210000D01*
X167522279Y-169210000D02*
X168114946Y-169210000D01*
X168114946Y-169210000D02*
X168453612Y-169294666D01*
X168453612Y-169294666D02*
X168622946Y-169464000D01*
X168622946Y-169464000D02*
X168707612Y-169633333D01*
X168707612Y-169633333D02*
X168707612Y-169972000D01*
X168707612Y-169972000D02*
X168622946Y-170141333D01*
X168622946Y-170141333D02*
X168453612Y-170310666D01*
X168453612Y-170310666D02*
X168114946Y-170395333D01*
X168114946Y-170395333D02*
X167522279Y-170395333D01*
X167522279Y-170395333D02*
X167183612Y-170310666D01*
X167183612Y-170310666D02*
X167014279Y-170141333D01*
X167014279Y-170141333D02*
X166929612Y-169972000D01*
X166929612Y-168447999D02*
X168368946Y-168447999D01*
X168368946Y-168447999D02*
X168538279Y-168363333D01*
X168538279Y-168363333D02*
X168622946Y-168278666D01*
X168622946Y-168278666D02*
X168707612Y-168109333D01*
X168707612Y-168109333D02*
X168707612Y-167770666D01*
X168707612Y-167770666D02*
X168622946Y-167601333D01*
X168622946Y-167601333D02*
X168538279Y-167516666D01*
X168538279Y-167516666D02*
X168368946Y-167431999D01*
X168368946Y-167431999D02*
X166929612Y-167431999D01*
X166929612Y-166839332D02*
X166929612Y-165823332D01*
X168707612Y-166331332D02*
X166929612Y-166331332D01*
X129337612Y-169125333D02*
X127559612Y-169125333D01*
X129337612Y-168278666D02*
X127559612Y-168278666D01*
X127559612Y-168278666D02*
X129337612Y-167262666D01*
X129337612Y-167262666D02*
X127559612Y-167262666D01*
D10*
X175293333Y-124104819D02*
X174960000Y-123628628D01*
X174721905Y-124104819D02*
X174721905Y-123104819D01*
X174721905Y-123104819D02*
X175102857Y-123104819D01*
X175102857Y-123104819D02*
X175198095Y-123152438D01*
X175198095Y-123152438D02*
X175245714Y-123200057D01*
X175245714Y-123200057D02*
X175293333Y-123295295D01*
X175293333Y-123295295D02*
X175293333Y-123438152D01*
X175293333Y-123438152D02*
X175245714Y-123533390D01*
X175245714Y-123533390D02*
X175198095Y-123581009D01*
X175198095Y-123581009D02*
X175102857Y-123628628D01*
X175102857Y-123628628D02*
X174721905Y-123628628D01*
X176198095Y-123104819D02*
X175721905Y-123104819D01*
X175721905Y-123104819D02*
X175674286Y-123581009D01*
X175674286Y-123581009D02*
X175721905Y-123533390D01*
X175721905Y-123533390D02*
X175817143Y-123485771D01*
X175817143Y-123485771D02*
X176055238Y-123485771D01*
X176055238Y-123485771D02*
X176150476Y-123533390D01*
X176150476Y-123533390D02*
X176198095Y-123581009D01*
X176198095Y-123581009D02*
X176245714Y-123676247D01*
X176245714Y-123676247D02*
X176245714Y-123914342D01*
X176245714Y-123914342D02*
X176198095Y-124009580D01*
X176198095Y-124009580D02*
X176150476Y-124057200D01*
X176150476Y-124057200D02*
X176055238Y-124104819D01*
X176055238Y-124104819D02*
X175817143Y-124104819D01*
X175817143Y-124104819D02*
X175721905Y-124057200D01*
X175721905Y-124057200D02*
X175674286Y-124009580D01*
X175166666Y-177764819D02*
X175166666Y-178479104D01*
X175166666Y-178479104D02*
X175119047Y-178621961D01*
X175119047Y-178621961D02*
X175023809Y-178717200D01*
X175023809Y-178717200D02*
X174880952Y-178764819D01*
X174880952Y-178764819D02*
X174785714Y-178764819D01*
X175547619Y-177764819D02*
X176214285Y-177764819D01*
X176214285Y-177764819D02*
X175785714Y-178764819D01*
X153884819Y-103313333D02*
X154599104Y-103313333D01*
X154599104Y-103313333D02*
X154741961Y-103360952D01*
X154741961Y-103360952D02*
X154837200Y-103456190D01*
X154837200Y-103456190D02*
X154884819Y-103599047D01*
X154884819Y-103599047D02*
X154884819Y-103694285D01*
X154218152Y-102408571D02*
X154884819Y-102408571D01*
X153837200Y-102646666D02*
X154551485Y-102884761D01*
X154551485Y-102884761D02*
X154551485Y-102265714D01*
X116254819Y-175991904D02*
X115254819Y-175991904D01*
X115731009Y-175991904D02*
X115731009Y-175420476D01*
X116254819Y-175420476D02*
X115254819Y-175420476D01*
X116254819Y-174420476D02*
X116254819Y-174991904D01*
X116254819Y-174706190D02*
X115254819Y-174706190D01*
X115254819Y-174706190D02*
X115397676Y-174801428D01*
X115397676Y-174801428D02*
X115492914Y-174896666D01*
X115492914Y-174896666D02*
X115540533Y-174991904D01*
X140424819Y-118218094D02*
X139424819Y-118218094D01*
X139424819Y-118218094D02*
X139424819Y-117979999D01*
X139424819Y-117979999D02*
X139472438Y-117837142D01*
X139472438Y-117837142D02*
X139567676Y-117741904D01*
X139567676Y-117741904D02*
X139662914Y-117694285D01*
X139662914Y-117694285D02*
X139853390Y-117646666D01*
X139853390Y-117646666D02*
X139996247Y-117646666D01*
X139996247Y-117646666D02*
X140186723Y-117694285D01*
X140186723Y-117694285D02*
X140281961Y-117741904D01*
X140281961Y-117741904D02*
X140377200Y-117837142D01*
X140377200Y-117837142D02*
X140424819Y-117979999D01*
X140424819Y-117979999D02*
X140424819Y-118218094D01*
X140424819Y-116694285D02*
X140424819Y-117265713D01*
X140424819Y-116979999D02*
X139424819Y-116979999D01*
X139424819Y-116979999D02*
X139567676Y-117075237D01*
X139567676Y-117075237D02*
X139662914Y-117170475D01*
X139662914Y-117170475D02*
X139710533Y-117265713D01*
X140054819Y-112661904D02*
X139054819Y-112661904D01*
X140054819Y-112090476D02*
X139483390Y-112519047D01*
X139054819Y-112090476D02*
X139626247Y-112661904D01*
X150125057Y-116365238D02*
X150077438Y-116460476D01*
X150077438Y-116460476D02*
X149982200Y-116555714D01*
X149982200Y-116555714D02*
X149839342Y-116698571D01*
X149839342Y-116698571D02*
X149791723Y-116793809D01*
X149791723Y-116793809D02*
X149791723Y-116889047D01*
X150029819Y-116841428D02*
X149982200Y-116936666D01*
X149982200Y-116936666D02*
X149886961Y-117031904D01*
X149886961Y-117031904D02*
X149696485Y-117079523D01*
X149696485Y-117079523D02*
X149363152Y-117079523D01*
X149363152Y-117079523D02*
X149172676Y-117031904D01*
X149172676Y-117031904D02*
X149077438Y-116936666D01*
X149077438Y-116936666D02*
X149029819Y-116841428D01*
X149029819Y-116841428D02*
X149029819Y-116650952D01*
X149029819Y-116650952D02*
X149077438Y-116555714D01*
X149077438Y-116555714D02*
X149172676Y-116460476D01*
X149172676Y-116460476D02*
X149363152Y-116412857D01*
X149363152Y-116412857D02*
X149696485Y-116412857D01*
X149696485Y-116412857D02*
X149886961Y-116460476D01*
X149886961Y-116460476D02*
X149982200Y-116555714D01*
X149982200Y-116555714D02*
X150029819Y-116650952D01*
X150029819Y-116650952D02*
X150029819Y-116841428D01*
X150029819Y-115460476D02*
X150029819Y-116031904D01*
X150029819Y-115746190D02*
X149029819Y-115746190D01*
X149029819Y-115746190D02*
X149172676Y-115841428D01*
X149172676Y-115841428D02*
X149267914Y-115936666D01*
X149267914Y-115936666D02*
X149315533Y-116031904D01*
X149833333Y-142804819D02*
X149500000Y-142328628D01*
X149261905Y-142804819D02*
X149261905Y-141804819D01*
X149261905Y-141804819D02*
X149642857Y-141804819D01*
X149642857Y-141804819D02*
X149738095Y-141852438D01*
X149738095Y-141852438D02*
X149785714Y-141900057D01*
X149785714Y-141900057D02*
X149833333Y-141995295D01*
X149833333Y-141995295D02*
X149833333Y-142138152D01*
X149833333Y-142138152D02*
X149785714Y-142233390D01*
X149785714Y-142233390D02*
X149738095Y-142281009D01*
X149738095Y-142281009D02*
X149642857Y-142328628D01*
X149642857Y-142328628D02*
X149261905Y-142328628D01*
X150690476Y-142138152D02*
X150690476Y-142804819D01*
X150452381Y-141757200D02*
X150214286Y-142471485D01*
X150214286Y-142471485D02*
X150833333Y-142471485D01*
X149583333Y-126054819D02*
X149250000Y-125578628D01*
X149011905Y-126054819D02*
X149011905Y-125054819D01*
X149011905Y-125054819D02*
X149392857Y-125054819D01*
X149392857Y-125054819D02*
X149488095Y-125102438D01*
X149488095Y-125102438D02*
X149535714Y-125150057D01*
X149535714Y-125150057D02*
X149583333Y-125245295D01*
X149583333Y-125245295D02*
X149583333Y-125388152D01*
X149583333Y-125388152D02*
X149535714Y-125483390D01*
X149535714Y-125483390D02*
X149488095Y-125531009D01*
X149488095Y-125531009D02*
X149392857Y-125578628D01*
X149392857Y-125578628D02*
X149011905Y-125578628D01*
X149964286Y-125150057D02*
X150011905Y-125102438D01*
X150011905Y-125102438D02*
X150107143Y-125054819D01*
X150107143Y-125054819D02*
X150345238Y-125054819D01*
X150345238Y-125054819D02*
X150440476Y-125102438D01*
X150440476Y-125102438D02*
X150488095Y-125150057D01*
X150488095Y-125150057D02*
X150535714Y-125245295D01*
X150535714Y-125245295D02*
X150535714Y-125340533D01*
X150535714Y-125340533D02*
X150488095Y-125483390D01*
X150488095Y-125483390D02*
X149916667Y-126054819D01*
X149916667Y-126054819D02*
X150535714Y-126054819D01*
D11*
X123265032Y-148311726D02*
X123265032Y-147143326D01*
X123932689Y-148311726D02*
X123431946Y-147644068D01*
X123932689Y-147143326D02*
X123265032Y-147810983D01*
X124322156Y-147143326D02*
X125045451Y-147143326D01*
X125045451Y-147143326D02*
X124655984Y-147588430D01*
X124655984Y-147588430D02*
X124822899Y-147588430D01*
X124822899Y-147588430D02*
X124934175Y-147644068D01*
X124934175Y-147644068D02*
X124989813Y-147699707D01*
X124989813Y-147699707D02*
X125045451Y-147810983D01*
X125045451Y-147810983D02*
X125045451Y-148089173D01*
X125045451Y-148089173D02*
X124989813Y-148200449D01*
X124989813Y-148200449D02*
X124934175Y-148256088D01*
X124934175Y-148256088D02*
X124822899Y-148311726D01*
X124822899Y-148311726D02*
X124489070Y-148311726D01*
X124489070Y-148311726D02*
X124377794Y-148256088D01*
X124377794Y-148256088D02*
X124322156Y-148200449D01*
D10*
X164684819Y-103313333D02*
X165399104Y-103313333D01*
X165399104Y-103313333D02*
X165541961Y-103360952D01*
X165541961Y-103360952D02*
X165637200Y-103456190D01*
X165637200Y-103456190D02*
X165684819Y-103599047D01*
X165684819Y-103599047D02*
X165684819Y-103694285D01*
X165684819Y-102789523D02*
X165684819Y-102599047D01*
X165684819Y-102599047D02*
X165637200Y-102503809D01*
X165637200Y-102503809D02*
X165589580Y-102456190D01*
X165589580Y-102456190D02*
X165446723Y-102360952D01*
X165446723Y-102360952D02*
X165256247Y-102313333D01*
X165256247Y-102313333D02*
X164875295Y-102313333D01*
X164875295Y-102313333D02*
X164780057Y-102360952D01*
X164780057Y-102360952D02*
X164732438Y-102408571D01*
X164732438Y-102408571D02*
X164684819Y-102503809D01*
X164684819Y-102503809D02*
X164684819Y-102694285D01*
X164684819Y-102694285D02*
X164732438Y-102789523D01*
X164732438Y-102789523D02*
X164780057Y-102837142D01*
X164780057Y-102837142D02*
X164875295Y-102884761D01*
X164875295Y-102884761D02*
X165113390Y-102884761D01*
X165113390Y-102884761D02*
X165208628Y-102837142D01*
X165208628Y-102837142D02*
X165256247Y-102789523D01*
X165256247Y-102789523D02*
X165303866Y-102694285D01*
X165303866Y-102694285D02*
X165303866Y-102503809D01*
X165303866Y-102503809D02*
X165256247Y-102408571D01*
X165256247Y-102408571D02*
X165208628Y-102360952D01*
X165208628Y-102360952D02*
X165113390Y-102313333D01*
D11*
X123215032Y-115561726D02*
X123215032Y-114393326D01*
X123882689Y-115561726D02*
X123381946Y-114894068D01*
X123882689Y-114393326D02*
X123215032Y-115060983D01*
X124995451Y-115561726D02*
X124327794Y-115561726D01*
X124661622Y-115561726D02*
X124661622Y-114393326D01*
X124661622Y-114393326D02*
X124550346Y-114560240D01*
X124550346Y-114560240D02*
X124439070Y-114671516D01*
X124439070Y-114671516D02*
X124327794Y-114727154D01*
D10*
X115599819Y-163539523D02*
X116314104Y-163539523D01*
X116314104Y-163539523D02*
X116456961Y-163587142D01*
X116456961Y-163587142D02*
X116552200Y-163682380D01*
X116552200Y-163682380D02*
X116599819Y-163825237D01*
X116599819Y-163825237D02*
X116599819Y-163920475D01*
X116599819Y-162539523D02*
X116599819Y-163110951D01*
X116599819Y-162825237D02*
X115599819Y-162825237D01*
X115599819Y-162825237D02*
X115742676Y-162920475D01*
X115742676Y-162920475D02*
X115837914Y-163015713D01*
X115837914Y-163015713D02*
X115885533Y-163110951D01*
X116599819Y-161587142D02*
X116599819Y-162158570D01*
X116599819Y-161872856D02*
X115599819Y-161872856D01*
X115599819Y-161872856D02*
X115742676Y-161968094D01*
X115742676Y-161968094D02*
X115837914Y-162063332D01*
X115837914Y-162063332D02*
X115885533Y-162158570D01*
X156414819Y-117198094D02*
X155414819Y-117198094D01*
X155414819Y-117198094D02*
X155414819Y-116959999D01*
X155414819Y-116959999D02*
X155462438Y-116817142D01*
X155462438Y-116817142D02*
X155557676Y-116721904D01*
X155557676Y-116721904D02*
X155652914Y-116674285D01*
X155652914Y-116674285D02*
X155843390Y-116626666D01*
X155843390Y-116626666D02*
X155986247Y-116626666D01*
X155986247Y-116626666D02*
X156176723Y-116674285D01*
X156176723Y-116674285D02*
X156271961Y-116721904D01*
X156271961Y-116721904D02*
X156367200Y-116817142D01*
X156367200Y-116817142D02*
X156414819Y-116959999D01*
X156414819Y-116959999D02*
X156414819Y-117198094D01*
X155414819Y-116293332D02*
X155414819Y-115674285D01*
X155414819Y-115674285D02*
X155795771Y-116007618D01*
X155795771Y-116007618D02*
X155795771Y-115864761D01*
X155795771Y-115864761D02*
X155843390Y-115769523D01*
X155843390Y-115769523D02*
X155891009Y-115721904D01*
X155891009Y-115721904D02*
X155986247Y-115674285D01*
X155986247Y-115674285D02*
X156224342Y-115674285D01*
X156224342Y-115674285D02*
X156319580Y-115721904D01*
X156319580Y-115721904D02*
X156367200Y-115769523D01*
X156367200Y-115769523D02*
X156414819Y-115864761D01*
X156414819Y-115864761D02*
X156414819Y-116150475D01*
X156414819Y-116150475D02*
X156367200Y-116245713D01*
X156367200Y-116245713D02*
X156319580Y-116293332D01*
X148244819Y-151223094D02*
X147244819Y-151223094D01*
X147244819Y-151223094D02*
X147244819Y-150984999D01*
X147244819Y-150984999D02*
X147292438Y-150842142D01*
X147292438Y-150842142D02*
X147387676Y-150746904D01*
X147387676Y-150746904D02*
X147482914Y-150699285D01*
X147482914Y-150699285D02*
X147673390Y-150651666D01*
X147673390Y-150651666D02*
X147816247Y-150651666D01*
X147816247Y-150651666D02*
X148006723Y-150699285D01*
X148006723Y-150699285D02*
X148101961Y-150746904D01*
X148101961Y-150746904D02*
X148197200Y-150842142D01*
X148197200Y-150842142D02*
X148244819Y-150984999D01*
X148244819Y-150984999D02*
X148244819Y-151223094D01*
X147244819Y-150318332D02*
X147244819Y-149651666D01*
X147244819Y-149651666D02*
X148244819Y-150080237D01*
X120916666Y-166874819D02*
X120916666Y-167589104D01*
X120916666Y-167589104D02*
X120869047Y-167731961D01*
X120869047Y-167731961D02*
X120773809Y-167827200D01*
X120773809Y-167827200D02*
X120630952Y-167874819D01*
X120630952Y-167874819D02*
X120535714Y-167874819D01*
X121345238Y-166970057D02*
X121392857Y-166922438D01*
X121392857Y-166922438D02*
X121488095Y-166874819D01*
X121488095Y-166874819D02*
X121726190Y-166874819D01*
X121726190Y-166874819D02*
X121821428Y-166922438D01*
X121821428Y-166922438D02*
X121869047Y-166970057D01*
X121869047Y-166970057D02*
X121916666Y-167065295D01*
X121916666Y-167065295D02*
X121916666Y-167160533D01*
X121916666Y-167160533D02*
X121869047Y-167303390D01*
X121869047Y-167303390D02*
X121297619Y-167874819D01*
X121297619Y-167874819D02*
X121916666Y-167874819D01*
X141504819Y-140063094D02*
X140504819Y-140063094D01*
X140504819Y-140063094D02*
X140504819Y-139824999D01*
X140504819Y-139824999D02*
X140552438Y-139682142D01*
X140552438Y-139682142D02*
X140647676Y-139586904D01*
X140647676Y-139586904D02*
X140742914Y-139539285D01*
X140742914Y-139539285D02*
X140933390Y-139491666D01*
X140933390Y-139491666D02*
X141076247Y-139491666D01*
X141076247Y-139491666D02*
X141266723Y-139539285D01*
X141266723Y-139539285D02*
X141361961Y-139586904D01*
X141361961Y-139586904D02*
X141457200Y-139682142D01*
X141457200Y-139682142D02*
X141504819Y-139824999D01*
X141504819Y-139824999D02*
X141504819Y-140063094D01*
X140600057Y-139110713D02*
X140552438Y-139063094D01*
X140552438Y-139063094D02*
X140504819Y-138967856D01*
X140504819Y-138967856D02*
X140504819Y-138729761D01*
X140504819Y-138729761D02*
X140552438Y-138634523D01*
X140552438Y-138634523D02*
X140600057Y-138586904D01*
X140600057Y-138586904D02*
X140695295Y-138539285D01*
X140695295Y-138539285D02*
X140790533Y-138539285D01*
X140790533Y-138539285D02*
X140933390Y-138586904D01*
X140933390Y-138586904D02*
X141504819Y-139158332D01*
X141504819Y-139158332D02*
X141504819Y-138539285D01*
X140054819Y-129561904D02*
X139054819Y-129561904D01*
X140054819Y-128990476D02*
X139483390Y-129419047D01*
X139054819Y-128990476D02*
X139626247Y-129561904D01*
X116254819Y-105491904D02*
X115254819Y-105491904D01*
X115731009Y-105491904D02*
X115731009Y-104920476D01*
X116254819Y-104920476D02*
X115254819Y-104920476D01*
X115254819Y-104539523D02*
X115254819Y-103920476D01*
X115254819Y-103920476D02*
X115635771Y-104253809D01*
X115635771Y-104253809D02*
X115635771Y-104110952D01*
X115635771Y-104110952D02*
X115683390Y-104015714D01*
X115683390Y-104015714D02*
X115731009Y-103968095D01*
X115731009Y-103968095D02*
X115826247Y-103920476D01*
X115826247Y-103920476D02*
X116064342Y-103920476D01*
X116064342Y-103920476D02*
X116159580Y-103968095D01*
X116159580Y-103968095D02*
X116207200Y-104015714D01*
X116207200Y-104015714D02*
X116254819Y-104110952D01*
X116254819Y-104110952D02*
X116254819Y-104396666D01*
X116254819Y-104396666D02*
X116207200Y-104491904D01*
X116207200Y-104491904D02*
X116159580Y-104539523D01*
X185254819Y-176491904D02*
X184254819Y-176491904D01*
X184731009Y-176491904D02*
X184731009Y-175920476D01*
X185254819Y-175920476D02*
X184254819Y-175920476D01*
X184350057Y-175491904D02*
X184302438Y-175444285D01*
X184302438Y-175444285D02*
X184254819Y-175349047D01*
X184254819Y-175349047D02*
X184254819Y-175110952D01*
X184254819Y-175110952D02*
X184302438Y-175015714D01*
X184302438Y-175015714D02*
X184350057Y-174968095D01*
X184350057Y-174968095D02*
X184445295Y-174920476D01*
X184445295Y-174920476D02*
X184540533Y-174920476D01*
X184540533Y-174920476D02*
X184683390Y-174968095D01*
X184683390Y-174968095D02*
X185254819Y-175539523D01*
X185254819Y-175539523D02*
X185254819Y-174920476D01*
X149920057Y-133215238D02*
X149872438Y-133310476D01*
X149872438Y-133310476D02*
X149777200Y-133405714D01*
X149777200Y-133405714D02*
X149634342Y-133548571D01*
X149634342Y-133548571D02*
X149586723Y-133643809D01*
X149586723Y-133643809D02*
X149586723Y-133739047D01*
X149824819Y-133691428D02*
X149777200Y-133786666D01*
X149777200Y-133786666D02*
X149681961Y-133881904D01*
X149681961Y-133881904D02*
X149491485Y-133929523D01*
X149491485Y-133929523D02*
X149158152Y-133929523D01*
X149158152Y-133929523D02*
X148967676Y-133881904D01*
X148967676Y-133881904D02*
X148872438Y-133786666D01*
X148872438Y-133786666D02*
X148824819Y-133691428D01*
X148824819Y-133691428D02*
X148824819Y-133500952D01*
X148824819Y-133500952D02*
X148872438Y-133405714D01*
X148872438Y-133405714D02*
X148967676Y-133310476D01*
X148967676Y-133310476D02*
X149158152Y-133262857D01*
X149158152Y-133262857D02*
X149491485Y-133262857D01*
X149491485Y-133262857D02*
X149681961Y-133310476D01*
X149681961Y-133310476D02*
X149777200Y-133405714D01*
X149777200Y-133405714D02*
X149824819Y-133500952D01*
X149824819Y-133500952D02*
X149824819Y-133691428D01*
X148824819Y-132929523D02*
X148824819Y-132310476D01*
X148824819Y-132310476D02*
X149205771Y-132643809D01*
X149205771Y-132643809D02*
X149205771Y-132500952D01*
X149205771Y-132500952D02*
X149253390Y-132405714D01*
X149253390Y-132405714D02*
X149301009Y-132358095D01*
X149301009Y-132358095D02*
X149396247Y-132310476D01*
X149396247Y-132310476D02*
X149634342Y-132310476D01*
X149634342Y-132310476D02*
X149729580Y-132358095D01*
X149729580Y-132358095D02*
X149777200Y-132405714D01*
X149777200Y-132405714D02*
X149824819Y-132500952D01*
X149824819Y-132500952D02*
X149824819Y-132786666D01*
X149824819Y-132786666D02*
X149777200Y-132881904D01*
X149777200Y-132881904D02*
X149729580Y-132929523D01*
X175083333Y-162439580D02*
X175035714Y-162487200D01*
X175035714Y-162487200D02*
X174892857Y-162534819D01*
X174892857Y-162534819D02*
X174797619Y-162534819D01*
X174797619Y-162534819D02*
X174654762Y-162487200D01*
X174654762Y-162487200D02*
X174559524Y-162391961D01*
X174559524Y-162391961D02*
X174511905Y-162296723D01*
X174511905Y-162296723D02*
X174464286Y-162106247D01*
X174464286Y-162106247D02*
X174464286Y-161963390D01*
X174464286Y-161963390D02*
X174511905Y-161772914D01*
X174511905Y-161772914D02*
X174559524Y-161677676D01*
X174559524Y-161677676D02*
X174654762Y-161582438D01*
X174654762Y-161582438D02*
X174797619Y-161534819D01*
X174797619Y-161534819D02*
X174892857Y-161534819D01*
X174892857Y-161534819D02*
X175035714Y-161582438D01*
X175035714Y-161582438D02*
X175083333Y-161630057D01*
X175416667Y-161534819D02*
X176035714Y-161534819D01*
X176035714Y-161534819D02*
X175702381Y-161915771D01*
X175702381Y-161915771D02*
X175845238Y-161915771D01*
X175845238Y-161915771D02*
X175940476Y-161963390D01*
X175940476Y-161963390D02*
X175988095Y-162011009D01*
X175988095Y-162011009D02*
X176035714Y-162106247D01*
X176035714Y-162106247D02*
X176035714Y-162344342D01*
X176035714Y-162344342D02*
X175988095Y-162439580D01*
X175988095Y-162439580D02*
X175940476Y-162487200D01*
X175940476Y-162487200D02*
X175845238Y-162534819D01*
X175845238Y-162534819D02*
X175559524Y-162534819D01*
X175559524Y-162534819D02*
X175464286Y-162487200D01*
X175464286Y-162487200D02*
X175416667Y-162439580D01*
X170940476Y-177789819D02*
X170940476Y-178504104D01*
X170940476Y-178504104D02*
X170892857Y-178646961D01*
X170892857Y-178646961D02*
X170797619Y-178742200D01*
X170797619Y-178742200D02*
X170654762Y-178789819D01*
X170654762Y-178789819D02*
X170559524Y-178789819D01*
X171940476Y-178789819D02*
X171369048Y-178789819D01*
X171654762Y-178789819D02*
X171654762Y-177789819D01*
X171654762Y-177789819D02*
X171559524Y-177932676D01*
X171559524Y-177932676D02*
X171464286Y-178027914D01*
X171464286Y-178027914D02*
X171369048Y-178075533D01*
X172559524Y-177789819D02*
X172654762Y-177789819D01*
X172654762Y-177789819D02*
X172750000Y-177837438D01*
X172750000Y-177837438D02*
X172797619Y-177885057D01*
X172797619Y-177885057D02*
X172845238Y-177980295D01*
X172845238Y-177980295D02*
X172892857Y-178170771D01*
X172892857Y-178170771D02*
X172892857Y-178408866D01*
X172892857Y-178408866D02*
X172845238Y-178599342D01*
X172845238Y-178599342D02*
X172797619Y-178694580D01*
X172797619Y-178694580D02*
X172750000Y-178742200D01*
X172750000Y-178742200D02*
X172654762Y-178789819D01*
X172654762Y-178789819D02*
X172559524Y-178789819D01*
X172559524Y-178789819D02*
X172464286Y-178742200D01*
X172464286Y-178742200D02*
X172416667Y-178694580D01*
X172416667Y-178694580D02*
X172369048Y-178599342D01*
X172369048Y-178599342D02*
X172321429Y-178408866D01*
X172321429Y-178408866D02*
X172321429Y-178170771D01*
X172321429Y-178170771D02*
X172369048Y-177980295D01*
X172369048Y-177980295D02*
X172416667Y-177885057D01*
X172416667Y-177885057D02*
X172464286Y-177837438D01*
X172464286Y-177837438D02*
X172559524Y-177789819D01*
X149820057Y-150115238D02*
X149772438Y-150210476D01*
X149772438Y-150210476D02*
X149677200Y-150305714D01*
X149677200Y-150305714D02*
X149534342Y-150448571D01*
X149534342Y-150448571D02*
X149486723Y-150543809D01*
X149486723Y-150543809D02*
X149486723Y-150639047D01*
X149724819Y-150591428D02*
X149677200Y-150686666D01*
X149677200Y-150686666D02*
X149581961Y-150781904D01*
X149581961Y-150781904D02*
X149391485Y-150829523D01*
X149391485Y-150829523D02*
X149058152Y-150829523D01*
X149058152Y-150829523D02*
X148867676Y-150781904D01*
X148867676Y-150781904D02*
X148772438Y-150686666D01*
X148772438Y-150686666D02*
X148724819Y-150591428D01*
X148724819Y-150591428D02*
X148724819Y-150400952D01*
X148724819Y-150400952D02*
X148772438Y-150305714D01*
X148772438Y-150305714D02*
X148867676Y-150210476D01*
X148867676Y-150210476D02*
X149058152Y-150162857D01*
X149058152Y-150162857D02*
X149391485Y-150162857D01*
X149391485Y-150162857D02*
X149581961Y-150210476D01*
X149581961Y-150210476D02*
X149677200Y-150305714D01*
X149677200Y-150305714D02*
X149724819Y-150400952D01*
X149724819Y-150400952D02*
X149724819Y-150591428D01*
X148820057Y-149781904D02*
X148772438Y-149734285D01*
X148772438Y-149734285D02*
X148724819Y-149639047D01*
X148724819Y-149639047D02*
X148724819Y-149400952D01*
X148724819Y-149400952D02*
X148772438Y-149305714D01*
X148772438Y-149305714D02*
X148820057Y-149258095D01*
X148820057Y-149258095D02*
X148915295Y-149210476D01*
X148915295Y-149210476D02*
X149010533Y-149210476D01*
X149010533Y-149210476D02*
X149153390Y-149258095D01*
X149153390Y-149258095D02*
X149724819Y-149829523D01*
X149724819Y-149829523D02*
X149724819Y-149210476D01*
X107144819Y-151789523D02*
X107859104Y-151789523D01*
X107859104Y-151789523D02*
X108001961Y-151837142D01*
X108001961Y-151837142D02*
X108097200Y-151932380D01*
X108097200Y-151932380D02*
X108144819Y-152075237D01*
X108144819Y-152075237D02*
X108144819Y-152170475D01*
X108144819Y-150789523D02*
X108144819Y-151360951D01*
X108144819Y-151075237D02*
X107144819Y-151075237D01*
X107144819Y-151075237D02*
X107287676Y-151170475D01*
X107287676Y-151170475D02*
X107382914Y-151265713D01*
X107382914Y-151265713D02*
X107430533Y-151360951D01*
X107240057Y-150408570D02*
X107192438Y-150360951D01*
X107192438Y-150360951D02*
X107144819Y-150265713D01*
X107144819Y-150265713D02*
X107144819Y-150027618D01*
X107144819Y-150027618D02*
X107192438Y-149932380D01*
X107192438Y-149932380D02*
X107240057Y-149884761D01*
X107240057Y-149884761D02*
X107335295Y-149837142D01*
X107335295Y-149837142D02*
X107430533Y-149837142D01*
X107430533Y-149837142D02*
X107573390Y-149884761D01*
X107573390Y-149884761D02*
X108144819Y-150456189D01*
X108144819Y-150456189D02*
X108144819Y-149837142D01*
X139139819Y-117316666D02*
X138663628Y-117649999D01*
X139139819Y-117888094D02*
X138139819Y-117888094D01*
X138139819Y-117888094D02*
X138139819Y-117507142D01*
X138139819Y-117507142D02*
X138187438Y-117411904D01*
X138187438Y-117411904D02*
X138235057Y-117364285D01*
X138235057Y-117364285D02*
X138330295Y-117316666D01*
X138330295Y-117316666D02*
X138473152Y-117316666D01*
X138473152Y-117316666D02*
X138568390Y-117364285D01*
X138568390Y-117364285D02*
X138616009Y-117411904D01*
X138616009Y-117411904D02*
X138663628Y-117507142D01*
X138663628Y-117507142D02*
X138663628Y-117888094D01*
X139139819Y-116364285D02*
X139139819Y-116935713D01*
X139139819Y-116649999D02*
X138139819Y-116649999D01*
X138139819Y-116649999D02*
X138282676Y-116745237D01*
X138282676Y-116745237D02*
X138377914Y-116840475D01*
X138377914Y-116840475D02*
X138425533Y-116935713D01*
X173474819Y-103313333D02*
X174189104Y-103313333D01*
X174189104Y-103313333D02*
X174331961Y-103360952D01*
X174331961Y-103360952D02*
X174427200Y-103456190D01*
X174427200Y-103456190D02*
X174474819Y-103599047D01*
X174474819Y-103599047D02*
X174474819Y-103694285D01*
X173903390Y-102694285D02*
X173855771Y-102789523D01*
X173855771Y-102789523D02*
X173808152Y-102837142D01*
X173808152Y-102837142D02*
X173712914Y-102884761D01*
X173712914Y-102884761D02*
X173665295Y-102884761D01*
X173665295Y-102884761D02*
X173570057Y-102837142D01*
X173570057Y-102837142D02*
X173522438Y-102789523D01*
X173522438Y-102789523D02*
X173474819Y-102694285D01*
X173474819Y-102694285D02*
X173474819Y-102503809D01*
X173474819Y-102503809D02*
X173522438Y-102408571D01*
X173522438Y-102408571D02*
X173570057Y-102360952D01*
X173570057Y-102360952D02*
X173665295Y-102313333D01*
X173665295Y-102313333D02*
X173712914Y-102313333D01*
X173712914Y-102313333D02*
X173808152Y-102360952D01*
X173808152Y-102360952D02*
X173855771Y-102408571D01*
X173855771Y-102408571D02*
X173903390Y-102503809D01*
X173903390Y-102503809D02*
X173903390Y-102694285D01*
X173903390Y-102694285D02*
X173951009Y-102789523D01*
X173951009Y-102789523D02*
X173998628Y-102837142D01*
X173998628Y-102837142D02*
X174093866Y-102884761D01*
X174093866Y-102884761D02*
X174284342Y-102884761D01*
X174284342Y-102884761D02*
X174379580Y-102837142D01*
X174379580Y-102837142D02*
X174427200Y-102789523D01*
X174427200Y-102789523D02*
X174474819Y-102694285D01*
X174474819Y-102694285D02*
X174474819Y-102503809D01*
X174474819Y-102503809D02*
X174427200Y-102408571D01*
X174427200Y-102408571D02*
X174379580Y-102360952D01*
X174379580Y-102360952D02*
X174284342Y-102313333D01*
X174284342Y-102313333D02*
X174093866Y-102313333D01*
X174093866Y-102313333D02*
X173998628Y-102360952D01*
X173998628Y-102360952D02*
X173951009Y-102408571D01*
X173951009Y-102408571D02*
X173903390Y-102503809D01*
D11*
X123195032Y-132541726D02*
X123195032Y-131373326D01*
X123862689Y-132541726D02*
X123361946Y-131874068D01*
X123862689Y-131373326D02*
X123195032Y-132040983D01*
X124307794Y-131484602D02*
X124363432Y-131428964D01*
X124363432Y-131428964D02*
X124474708Y-131373326D01*
X124474708Y-131373326D02*
X124752899Y-131373326D01*
X124752899Y-131373326D02*
X124864175Y-131428964D01*
X124864175Y-131428964D02*
X124919813Y-131484602D01*
X124919813Y-131484602D02*
X124975451Y-131595878D01*
X124975451Y-131595878D02*
X124975451Y-131707154D01*
X124975451Y-131707154D02*
X124919813Y-131874068D01*
X124919813Y-131874068D02*
X124252156Y-132541726D01*
X124252156Y-132541726D02*
X124975451Y-132541726D01*
D10*
X156494819Y-134213094D02*
X155494819Y-134213094D01*
X155494819Y-134213094D02*
X155494819Y-133974999D01*
X155494819Y-133974999D02*
X155542438Y-133832142D01*
X155542438Y-133832142D02*
X155637676Y-133736904D01*
X155637676Y-133736904D02*
X155732914Y-133689285D01*
X155732914Y-133689285D02*
X155923390Y-133641666D01*
X155923390Y-133641666D02*
X156066247Y-133641666D01*
X156066247Y-133641666D02*
X156256723Y-133689285D01*
X156256723Y-133689285D02*
X156351961Y-133736904D01*
X156351961Y-133736904D02*
X156447200Y-133832142D01*
X156447200Y-133832142D02*
X156494819Y-133974999D01*
X156494819Y-133974999D02*
X156494819Y-134213094D01*
X155494819Y-132736904D02*
X155494819Y-133213094D01*
X155494819Y-133213094D02*
X155971009Y-133260713D01*
X155971009Y-133260713D02*
X155923390Y-133213094D01*
X155923390Y-133213094D02*
X155875771Y-133117856D01*
X155875771Y-133117856D02*
X155875771Y-132879761D01*
X155875771Y-132879761D02*
X155923390Y-132784523D01*
X155923390Y-132784523D02*
X155971009Y-132736904D01*
X155971009Y-132736904D02*
X156066247Y-132689285D01*
X156066247Y-132689285D02*
X156304342Y-132689285D01*
X156304342Y-132689285D02*
X156399580Y-132736904D01*
X156399580Y-132736904D02*
X156447200Y-132784523D01*
X156447200Y-132784523D02*
X156494819Y-132879761D01*
X156494819Y-132879761D02*
X156494819Y-133117856D01*
X156494819Y-133117856D02*
X156447200Y-133213094D01*
X156447200Y-133213094D02*
X156399580Y-133260713D01*
X139834819Y-151226666D02*
X139358628Y-151559999D01*
X139834819Y-151798094D02*
X138834819Y-151798094D01*
X138834819Y-151798094D02*
X138834819Y-151417142D01*
X138834819Y-151417142D02*
X138882438Y-151321904D01*
X138882438Y-151321904D02*
X138930057Y-151274285D01*
X138930057Y-151274285D02*
X139025295Y-151226666D01*
X139025295Y-151226666D02*
X139168152Y-151226666D01*
X139168152Y-151226666D02*
X139263390Y-151274285D01*
X139263390Y-151274285D02*
X139311009Y-151321904D01*
X139311009Y-151321904D02*
X139358628Y-151417142D01*
X139358628Y-151417142D02*
X139358628Y-151798094D01*
X139263390Y-150655237D02*
X139215771Y-150750475D01*
X139215771Y-150750475D02*
X139168152Y-150798094D01*
X139168152Y-150798094D02*
X139072914Y-150845713D01*
X139072914Y-150845713D02*
X139025295Y-150845713D01*
X139025295Y-150845713D02*
X138930057Y-150798094D01*
X138930057Y-150798094D02*
X138882438Y-150750475D01*
X138882438Y-150750475D02*
X138834819Y-150655237D01*
X138834819Y-150655237D02*
X138834819Y-150464761D01*
X138834819Y-150464761D02*
X138882438Y-150369523D01*
X138882438Y-150369523D02*
X138930057Y-150321904D01*
X138930057Y-150321904D02*
X139025295Y-150274285D01*
X139025295Y-150274285D02*
X139072914Y-150274285D01*
X139072914Y-150274285D02*
X139168152Y-150321904D01*
X139168152Y-150321904D02*
X139215771Y-150369523D01*
X139215771Y-150369523D02*
X139263390Y-150464761D01*
X139263390Y-150464761D02*
X139263390Y-150655237D01*
X139263390Y-150655237D02*
X139311009Y-150750475D01*
X139311009Y-150750475D02*
X139358628Y-150798094D01*
X139358628Y-150798094D02*
X139453866Y-150845713D01*
X139453866Y-150845713D02*
X139644342Y-150845713D01*
X139644342Y-150845713D02*
X139739580Y-150798094D01*
X139739580Y-150798094D02*
X139787200Y-150750475D01*
X139787200Y-150750475D02*
X139834819Y-150655237D01*
X139834819Y-150655237D02*
X139834819Y-150464761D01*
X139834819Y-150464761D02*
X139787200Y-150369523D01*
X139787200Y-150369523D02*
X139739580Y-150321904D01*
X139739580Y-150321904D02*
X139644342Y-150274285D01*
X139644342Y-150274285D02*
X139453866Y-150274285D01*
X139453866Y-150274285D02*
X139358628Y-150321904D01*
X139358628Y-150321904D02*
X139311009Y-150369523D01*
X139311009Y-150369523D02*
X139263390Y-150464761D01*
X119011905Y-169154819D02*
X119011905Y-168154819D01*
X119011905Y-168154819D02*
X119250000Y-168154819D01*
X119250000Y-168154819D02*
X119392857Y-168202438D01*
X119392857Y-168202438D02*
X119488095Y-168297676D01*
X119488095Y-168297676D02*
X119535714Y-168392914D01*
X119535714Y-168392914D02*
X119583333Y-168583390D01*
X119583333Y-168583390D02*
X119583333Y-168726247D01*
X119583333Y-168726247D02*
X119535714Y-168916723D01*
X119535714Y-168916723D02*
X119488095Y-169011961D01*
X119488095Y-169011961D02*
X119392857Y-169107200D01*
X119392857Y-169107200D02*
X119250000Y-169154819D01*
X119250000Y-169154819D02*
X119011905Y-169154819D01*
X120440476Y-168488152D02*
X120440476Y-169154819D01*
X120202381Y-168107200D02*
X119964286Y-168821485D01*
X119964286Y-168821485D02*
X120583333Y-168821485D01*
X124568095Y-168784819D02*
X124568095Y-167784819D01*
X125139523Y-168784819D02*
X124710952Y-168213390D01*
X125139523Y-167784819D02*
X124568095Y-168356247D01*
X185254819Y-105491904D02*
X184254819Y-105491904D01*
X184731009Y-105491904D02*
X184731009Y-104920476D01*
X185254819Y-104920476D02*
X184254819Y-104920476D01*
X184588152Y-104015714D02*
X185254819Y-104015714D01*
X184207200Y-104253809D02*
X184921485Y-104491904D01*
X184921485Y-104491904D02*
X184921485Y-103872857D01*
X149913333Y-155064819D02*
X149580000Y-154588628D01*
X149341905Y-155064819D02*
X149341905Y-154064819D01*
X149341905Y-154064819D02*
X149722857Y-154064819D01*
X149722857Y-154064819D02*
X149818095Y-154112438D01*
X149818095Y-154112438D02*
X149865714Y-154160057D01*
X149865714Y-154160057D02*
X149913333Y-154255295D01*
X149913333Y-154255295D02*
X149913333Y-154398152D01*
X149913333Y-154398152D02*
X149865714Y-154493390D01*
X149865714Y-154493390D02*
X149818095Y-154541009D01*
X149818095Y-154541009D02*
X149722857Y-154588628D01*
X149722857Y-154588628D02*
X149341905Y-154588628D01*
X150246667Y-154064819D02*
X150913333Y-154064819D01*
X150913333Y-154064819D02*
X150484762Y-155064819D01*
X149833333Y-60324819D02*
X149500000Y-59848628D01*
X149261905Y-60324819D02*
X149261905Y-59324819D01*
X149261905Y-59324819D02*
X149642857Y-59324819D01*
X149642857Y-59324819D02*
X149738095Y-59372438D01*
X149738095Y-59372438D02*
X149785714Y-59420057D01*
X149785714Y-59420057D02*
X149833333Y-59515295D01*
X149833333Y-59515295D02*
X149833333Y-59658152D01*
X149833333Y-59658152D02*
X149785714Y-59753390D01*
X149785714Y-59753390D02*
X149738095Y-59801009D01*
X149738095Y-59801009D02*
X149642857Y-59848628D01*
X149642857Y-59848628D02*
X149261905Y-59848628D01*
X150690476Y-59658152D02*
X150690476Y-60324819D01*
X150452381Y-59277200D02*
X150214286Y-59991485D01*
X150214286Y-59991485D02*
X150833333Y-59991485D01*
X158416666Y-50034819D02*
X158416666Y-50749104D01*
X158416666Y-50749104D02*
X158369047Y-50891961D01*
X158369047Y-50891961D02*
X158273809Y-50987200D01*
X158273809Y-50987200D02*
X158130952Y-51034819D01*
X158130952Y-51034819D02*
X158035714Y-51034819D01*
X159369047Y-50034819D02*
X158892857Y-50034819D01*
X158892857Y-50034819D02*
X158845238Y-50511009D01*
X158845238Y-50511009D02*
X158892857Y-50463390D01*
X158892857Y-50463390D02*
X158988095Y-50415771D01*
X158988095Y-50415771D02*
X159226190Y-50415771D01*
X159226190Y-50415771D02*
X159321428Y-50463390D01*
X159321428Y-50463390D02*
X159369047Y-50511009D01*
X159369047Y-50511009D02*
X159416666Y-50606247D01*
X159416666Y-50606247D02*
X159416666Y-50844342D01*
X159416666Y-50844342D02*
X159369047Y-50939580D01*
X159369047Y-50939580D02*
X159321428Y-50987200D01*
X159321428Y-50987200D02*
X159226190Y-51034819D01*
X159226190Y-51034819D02*
X158988095Y-51034819D01*
X158988095Y-51034819D02*
X158892857Y-50987200D01*
X158892857Y-50987200D02*
X158845238Y-50939580D01*
X107214819Y-34833333D02*
X107929104Y-34833333D01*
X107929104Y-34833333D02*
X108071961Y-34880952D01*
X108071961Y-34880952D02*
X108167200Y-34976190D01*
X108167200Y-34976190D02*
X108214819Y-35119047D01*
X108214819Y-35119047D02*
X108214819Y-35214285D01*
X108214819Y-33833333D02*
X108214819Y-34404761D01*
X108214819Y-34119047D02*
X107214819Y-34119047D01*
X107214819Y-34119047D02*
X107357676Y-34214285D01*
X107357676Y-34214285D02*
X107452914Y-34309523D01*
X107452914Y-34309523D02*
X107500533Y-34404761D01*
X141424819Y-69158094D02*
X140424819Y-69158094D01*
X140424819Y-69158094D02*
X140424819Y-68919999D01*
X140424819Y-68919999D02*
X140472438Y-68777142D01*
X140472438Y-68777142D02*
X140567676Y-68681904D01*
X140567676Y-68681904D02*
X140662914Y-68634285D01*
X140662914Y-68634285D02*
X140853390Y-68586666D01*
X140853390Y-68586666D02*
X140996247Y-68586666D01*
X140996247Y-68586666D02*
X141186723Y-68634285D01*
X141186723Y-68634285D02*
X141281961Y-68681904D01*
X141281961Y-68681904D02*
X141377200Y-68777142D01*
X141377200Y-68777142D02*
X141424819Y-68919999D01*
X141424819Y-68919999D02*
X141424819Y-69158094D01*
X140424819Y-67729523D02*
X140424819Y-67919999D01*
X140424819Y-67919999D02*
X140472438Y-68015237D01*
X140472438Y-68015237D02*
X140520057Y-68062856D01*
X140520057Y-68062856D02*
X140662914Y-68158094D01*
X140662914Y-68158094D02*
X140853390Y-68205713D01*
X140853390Y-68205713D02*
X141234342Y-68205713D01*
X141234342Y-68205713D02*
X141329580Y-68158094D01*
X141329580Y-68158094D02*
X141377200Y-68110475D01*
X141377200Y-68110475D02*
X141424819Y-68015237D01*
X141424819Y-68015237D02*
X141424819Y-67824761D01*
X141424819Y-67824761D02*
X141377200Y-67729523D01*
X141377200Y-67729523D02*
X141329580Y-67681904D01*
X141329580Y-67681904D02*
X141234342Y-67634285D01*
X141234342Y-67634285D02*
X140996247Y-67634285D01*
X140996247Y-67634285D02*
X140901009Y-67681904D01*
X140901009Y-67681904D02*
X140853390Y-67729523D01*
X140853390Y-67729523D02*
X140805771Y-67824761D01*
X140805771Y-67824761D02*
X140805771Y-68015237D01*
X140805771Y-68015237D02*
X140853390Y-68110475D01*
X140853390Y-68110475D02*
X140901009Y-68158094D01*
X140901009Y-68158094D02*
X140996247Y-68205713D01*
X140054819Y-63601904D02*
X139054819Y-63601904D01*
X140054819Y-63030476D02*
X139483390Y-63459047D01*
X139054819Y-63030476D02*
X139626247Y-63601904D01*
X173916666Y-39344819D02*
X173916666Y-40059104D01*
X173916666Y-40059104D02*
X173869047Y-40201961D01*
X173869047Y-40201961D02*
X173773809Y-40297200D01*
X173773809Y-40297200D02*
X173630952Y-40344819D01*
X173630952Y-40344819D02*
X173535714Y-40344819D01*
X174821428Y-39344819D02*
X174630952Y-39344819D01*
X174630952Y-39344819D02*
X174535714Y-39392438D01*
X174535714Y-39392438D02*
X174488095Y-39440057D01*
X174488095Y-39440057D02*
X174392857Y-39582914D01*
X174392857Y-39582914D02*
X174345238Y-39773390D01*
X174345238Y-39773390D02*
X174345238Y-40154342D01*
X174345238Y-40154342D02*
X174392857Y-40249580D01*
X174392857Y-40249580D02*
X174440476Y-40297200D01*
X174440476Y-40297200D02*
X174535714Y-40344819D01*
X174535714Y-40344819D02*
X174726190Y-40344819D01*
X174726190Y-40344819D02*
X174821428Y-40297200D01*
X174821428Y-40297200D02*
X174869047Y-40249580D01*
X174869047Y-40249580D02*
X174916666Y-40154342D01*
X174916666Y-40154342D02*
X174916666Y-39916247D01*
X174916666Y-39916247D02*
X174869047Y-39821009D01*
X174869047Y-39821009D02*
X174821428Y-39773390D01*
X174821428Y-39773390D02*
X174726190Y-39725771D01*
X174726190Y-39725771D02*
X174535714Y-39725771D01*
X174535714Y-39725771D02*
X174440476Y-39773390D01*
X174440476Y-39773390D02*
X174392857Y-39821009D01*
X174392857Y-39821009D02*
X174345238Y-39916247D01*
X107244819Y-51873333D02*
X107959104Y-51873333D01*
X107959104Y-51873333D02*
X108101961Y-51920952D01*
X108101961Y-51920952D02*
X108197200Y-52016190D01*
X108197200Y-52016190D02*
X108244819Y-52159047D01*
X108244819Y-52159047D02*
X108244819Y-52254285D01*
X107244819Y-51492380D02*
X107244819Y-50873333D01*
X107244819Y-50873333D02*
X107625771Y-51206666D01*
X107625771Y-51206666D02*
X107625771Y-51063809D01*
X107625771Y-51063809D02*
X107673390Y-50968571D01*
X107673390Y-50968571D02*
X107721009Y-50920952D01*
X107721009Y-50920952D02*
X107816247Y-50873333D01*
X107816247Y-50873333D02*
X108054342Y-50873333D01*
X108054342Y-50873333D02*
X108149580Y-50920952D01*
X108149580Y-50920952D02*
X108197200Y-50968571D01*
X108197200Y-50968571D02*
X108244819Y-51063809D01*
X108244819Y-51063809D02*
X108244819Y-51349523D01*
X108244819Y-51349523D02*
X108197200Y-51444761D01*
X108197200Y-51444761D02*
X108149580Y-51492380D01*
X139164819Y-51676666D02*
X138688628Y-52009999D01*
X139164819Y-52248094D02*
X138164819Y-52248094D01*
X138164819Y-52248094D02*
X138164819Y-51867142D01*
X138164819Y-51867142D02*
X138212438Y-51771904D01*
X138212438Y-51771904D02*
X138260057Y-51724285D01*
X138260057Y-51724285D02*
X138355295Y-51676666D01*
X138355295Y-51676666D02*
X138498152Y-51676666D01*
X138498152Y-51676666D02*
X138593390Y-51724285D01*
X138593390Y-51724285D02*
X138641009Y-51771904D01*
X138641009Y-51771904D02*
X138688628Y-51867142D01*
X138688628Y-51867142D02*
X138688628Y-52248094D01*
X138164819Y-51343332D02*
X138164819Y-50724285D01*
X138164819Y-50724285D02*
X138545771Y-51057618D01*
X138545771Y-51057618D02*
X138545771Y-50914761D01*
X138545771Y-50914761D02*
X138593390Y-50819523D01*
X138593390Y-50819523D02*
X138641009Y-50771904D01*
X138641009Y-50771904D02*
X138736247Y-50724285D01*
X138736247Y-50724285D02*
X138974342Y-50724285D01*
X138974342Y-50724285D02*
X139069580Y-50771904D01*
X139069580Y-50771904D02*
X139117200Y-50819523D01*
X139117200Y-50819523D02*
X139164819Y-50914761D01*
X139164819Y-50914761D02*
X139164819Y-51200475D01*
X139164819Y-51200475D02*
X139117200Y-51295713D01*
X139117200Y-51295713D02*
X139069580Y-51343332D01*
X150125057Y-33885238D02*
X150077438Y-33980476D01*
X150077438Y-33980476D02*
X149982200Y-34075714D01*
X149982200Y-34075714D02*
X149839342Y-34218571D01*
X149839342Y-34218571D02*
X149791723Y-34313809D01*
X149791723Y-34313809D02*
X149791723Y-34409047D01*
X150029819Y-34361428D02*
X149982200Y-34456666D01*
X149982200Y-34456666D02*
X149886961Y-34551904D01*
X149886961Y-34551904D02*
X149696485Y-34599523D01*
X149696485Y-34599523D02*
X149363152Y-34599523D01*
X149363152Y-34599523D02*
X149172676Y-34551904D01*
X149172676Y-34551904D02*
X149077438Y-34456666D01*
X149077438Y-34456666D02*
X149029819Y-34361428D01*
X149029819Y-34361428D02*
X149029819Y-34170952D01*
X149029819Y-34170952D02*
X149077438Y-34075714D01*
X149077438Y-34075714D02*
X149172676Y-33980476D01*
X149172676Y-33980476D02*
X149363152Y-33932857D01*
X149363152Y-33932857D02*
X149696485Y-33932857D01*
X149696485Y-33932857D02*
X149886961Y-33980476D01*
X149886961Y-33980476D02*
X149982200Y-34075714D01*
X149982200Y-34075714D02*
X150029819Y-34170952D01*
X150029819Y-34170952D02*
X150029819Y-34361428D01*
X150029819Y-32980476D02*
X150029819Y-33551904D01*
X150029819Y-33266190D02*
X149029819Y-33266190D01*
X149029819Y-33266190D02*
X149172676Y-33361428D01*
X149172676Y-33361428D02*
X149267914Y-33456666D01*
X149267914Y-33456666D02*
X149315533Y-33551904D01*
X140424819Y-35738094D02*
X139424819Y-35738094D01*
X139424819Y-35738094D02*
X139424819Y-35499999D01*
X139424819Y-35499999D02*
X139472438Y-35357142D01*
X139472438Y-35357142D02*
X139567676Y-35261904D01*
X139567676Y-35261904D02*
X139662914Y-35214285D01*
X139662914Y-35214285D02*
X139853390Y-35166666D01*
X139853390Y-35166666D02*
X139996247Y-35166666D01*
X139996247Y-35166666D02*
X140186723Y-35214285D01*
X140186723Y-35214285D02*
X140281961Y-35261904D01*
X140281961Y-35261904D02*
X140377200Y-35357142D01*
X140377200Y-35357142D02*
X140424819Y-35499999D01*
X140424819Y-35499999D02*
X140424819Y-35738094D01*
X140424819Y-34214285D02*
X140424819Y-34785713D01*
X140424819Y-34499999D02*
X139424819Y-34499999D01*
X139424819Y-34499999D02*
X139567676Y-34595237D01*
X139567676Y-34595237D02*
X139662914Y-34690475D01*
X139662914Y-34690475D02*
X139710533Y-34785713D01*
X140054819Y-30181904D02*
X139054819Y-30181904D01*
X140054819Y-29610476D02*
X139483390Y-30039047D01*
X139054819Y-29610476D02*
X139626247Y-30181904D01*
X116254819Y-93511904D02*
X115254819Y-93511904D01*
X115731009Y-93511904D02*
X115731009Y-92940476D01*
X116254819Y-92940476D02*
X115254819Y-92940476D01*
X116254819Y-91940476D02*
X116254819Y-92511904D01*
X116254819Y-92226190D02*
X115254819Y-92226190D01*
X115254819Y-92226190D02*
X115397676Y-92321428D01*
X115397676Y-92321428D02*
X115492914Y-92416666D01*
X115492914Y-92416666D02*
X115540533Y-92511904D01*
X153884819Y-20833333D02*
X154599104Y-20833333D01*
X154599104Y-20833333D02*
X154741961Y-20880952D01*
X154741961Y-20880952D02*
X154837200Y-20976190D01*
X154837200Y-20976190D02*
X154884819Y-21119047D01*
X154884819Y-21119047D02*
X154884819Y-21214285D01*
X154218152Y-19928571D02*
X154884819Y-19928571D01*
X153837200Y-20166666D02*
X154551485Y-20404761D01*
X154551485Y-20404761D02*
X154551485Y-19785714D01*
X175166666Y-95284819D02*
X175166666Y-95999104D01*
X175166666Y-95999104D02*
X175119047Y-96141961D01*
X175119047Y-96141961D02*
X175023809Y-96237200D01*
X175023809Y-96237200D02*
X174880952Y-96284819D01*
X174880952Y-96284819D02*
X174785714Y-96284819D01*
X175547619Y-95284819D02*
X176214285Y-95284819D01*
X176214285Y-95284819D02*
X175785714Y-96284819D01*
X175293333Y-41624819D02*
X174960000Y-41148628D01*
X174721905Y-41624819D02*
X174721905Y-40624819D01*
X174721905Y-40624819D02*
X175102857Y-40624819D01*
X175102857Y-40624819D02*
X175198095Y-40672438D01*
X175198095Y-40672438D02*
X175245714Y-40720057D01*
X175245714Y-40720057D02*
X175293333Y-40815295D01*
X175293333Y-40815295D02*
X175293333Y-40958152D01*
X175293333Y-40958152D02*
X175245714Y-41053390D01*
X175245714Y-41053390D02*
X175198095Y-41101009D01*
X175198095Y-41101009D02*
X175102857Y-41148628D01*
X175102857Y-41148628D02*
X174721905Y-41148628D01*
X176198095Y-40624819D02*
X175721905Y-40624819D01*
X175721905Y-40624819D02*
X175674286Y-41101009D01*
X175674286Y-41101009D02*
X175721905Y-41053390D01*
X175721905Y-41053390D02*
X175817143Y-41005771D01*
X175817143Y-41005771D02*
X176055238Y-41005771D01*
X176055238Y-41005771D02*
X176150476Y-41053390D01*
X176150476Y-41053390D02*
X176198095Y-41101009D01*
X176198095Y-41101009D02*
X176245714Y-41196247D01*
X176245714Y-41196247D02*
X176245714Y-41434342D01*
X176245714Y-41434342D02*
X176198095Y-41529580D01*
X176198095Y-41529580D02*
X176150476Y-41577200D01*
X176150476Y-41577200D02*
X176055238Y-41624819D01*
X176055238Y-41624819D02*
X175817143Y-41624819D01*
X175817143Y-41624819D02*
X175721905Y-41577200D01*
X175721905Y-41577200D02*
X175674286Y-41529580D01*
D11*
X146929904Y-75151242D02*
X146929904Y-73881242D01*
X146929904Y-73881242D02*
X147353238Y-74788385D01*
X147353238Y-74788385D02*
X147776571Y-73881242D01*
X147776571Y-73881242D02*
X147776571Y-75151242D01*
X149046572Y-75151242D02*
X148320857Y-75151242D01*
X148683714Y-75151242D02*
X148683714Y-73881242D01*
X148683714Y-73881242D02*
X148562762Y-74062670D01*
X148562762Y-74062670D02*
X148441810Y-74183623D01*
X148441810Y-74183623D02*
X148320857Y-74244099D01*
X134177522Y-98361242D02*
X134177522Y-97091242D01*
X134177522Y-97091242D02*
X134479903Y-97091242D01*
X134479903Y-97091242D02*
X134661332Y-97151718D01*
X134661332Y-97151718D02*
X134782284Y-97272670D01*
X134782284Y-97272670D02*
X134842761Y-97393623D01*
X134842761Y-97393623D02*
X134903237Y-97635527D01*
X134903237Y-97635527D02*
X134903237Y-97816956D01*
X134903237Y-97816956D02*
X134842761Y-98058861D01*
X134842761Y-98058861D02*
X134782284Y-98179813D01*
X134782284Y-98179813D02*
X134661332Y-98300766D01*
X134661332Y-98300766D02*
X134479903Y-98361242D01*
X134479903Y-98361242D02*
X134177522Y-98361242D01*
X136173237Y-98240289D02*
X136112761Y-98300766D01*
X136112761Y-98300766D02*
X135931332Y-98361242D01*
X135931332Y-98361242D02*
X135810380Y-98361242D01*
X135810380Y-98361242D02*
X135628951Y-98300766D01*
X135628951Y-98300766D02*
X135507999Y-98179813D01*
X135507999Y-98179813D02*
X135447522Y-98058861D01*
X135447522Y-98058861D02*
X135387046Y-97816956D01*
X135387046Y-97816956D02*
X135387046Y-97635527D01*
X135387046Y-97635527D02*
X135447522Y-97393623D01*
X135447522Y-97393623D02*
X135507999Y-97272670D01*
X135507999Y-97272670D02*
X135628951Y-97151718D01*
X135628951Y-97151718D02*
X135810380Y-97091242D01*
X135810380Y-97091242D02*
X135931332Y-97091242D01*
X135931332Y-97091242D02*
X136112761Y-97151718D01*
X136112761Y-97151718D02*
X136173237Y-97212194D01*
X136717522Y-97877432D02*
X137685142Y-97877432D01*
X138289903Y-98361242D02*
X138289903Y-97091242D01*
X138289903Y-97091242D02*
X138592284Y-97091242D01*
X138592284Y-97091242D02*
X138773713Y-97151718D01*
X138773713Y-97151718D02*
X138894665Y-97272670D01*
X138894665Y-97272670D02*
X138955142Y-97393623D01*
X138955142Y-97393623D02*
X139015618Y-97635527D01*
X139015618Y-97635527D02*
X139015618Y-97816956D01*
X139015618Y-97816956D02*
X138955142Y-98058861D01*
X138955142Y-98058861D02*
X138894665Y-98179813D01*
X138894665Y-98179813D02*
X138773713Y-98300766D01*
X138773713Y-98300766D02*
X138592284Y-98361242D01*
X138592284Y-98361242D02*
X138289903Y-98361242D01*
X140285618Y-98240289D02*
X140225142Y-98300766D01*
X140225142Y-98300766D02*
X140043713Y-98361242D01*
X140043713Y-98361242D02*
X139922761Y-98361242D01*
X139922761Y-98361242D02*
X139741332Y-98300766D01*
X139741332Y-98300766D02*
X139620380Y-98179813D01*
X139620380Y-98179813D02*
X139559903Y-98058861D01*
X139559903Y-98058861D02*
X139499427Y-97816956D01*
X139499427Y-97816956D02*
X139499427Y-97635527D01*
X139499427Y-97635527D02*
X139559903Y-97393623D01*
X139559903Y-97393623D02*
X139620380Y-97272670D01*
X139620380Y-97272670D02*
X139741332Y-97151718D01*
X139741332Y-97151718D02*
X139922761Y-97091242D01*
X139922761Y-97091242D02*
X140043713Y-97091242D01*
X140043713Y-97091242D02*
X140225142Y-97151718D01*
X140225142Y-97151718D02*
X140285618Y-97212194D01*
X140829903Y-97877432D02*
X141797523Y-97877432D01*
X142341808Y-98300766D02*
X142523237Y-98361242D01*
X142523237Y-98361242D02*
X142825618Y-98361242D01*
X142825618Y-98361242D02*
X142946570Y-98300766D01*
X142946570Y-98300766D02*
X143007046Y-98240289D01*
X143007046Y-98240289D02*
X143067523Y-98119337D01*
X143067523Y-98119337D02*
X143067523Y-97998385D01*
X143067523Y-97998385D02*
X143007046Y-97877432D01*
X143007046Y-97877432D02*
X142946570Y-97816956D01*
X142946570Y-97816956D02*
X142825618Y-97756480D01*
X142825618Y-97756480D02*
X142583713Y-97696004D01*
X142583713Y-97696004D02*
X142462761Y-97635527D01*
X142462761Y-97635527D02*
X142402284Y-97575051D01*
X142402284Y-97575051D02*
X142341808Y-97454099D01*
X142341808Y-97454099D02*
X142341808Y-97333146D01*
X142341808Y-97333146D02*
X142402284Y-97212194D01*
X142402284Y-97212194D02*
X142462761Y-97151718D01*
X142462761Y-97151718D02*
X142583713Y-97091242D01*
X142583713Y-97091242D02*
X142886094Y-97091242D01*
X142886094Y-97091242D02*
X143067523Y-97151718D01*
X143430380Y-97091242D02*
X144156094Y-97091242D01*
X143793237Y-98361242D02*
X143793237Y-97091242D01*
X144579427Y-97696004D02*
X145002761Y-97696004D01*
X145184189Y-98361242D02*
X144579427Y-98361242D01*
X144579427Y-98361242D02*
X144579427Y-97091242D01*
X144579427Y-97091242D02*
X145184189Y-97091242D01*
X145728475Y-98361242D02*
X145728475Y-97091242D01*
X145728475Y-97091242D02*
X146212285Y-97091242D01*
X146212285Y-97091242D02*
X146333237Y-97151718D01*
X146333237Y-97151718D02*
X146393714Y-97212194D01*
X146393714Y-97212194D02*
X146454190Y-97333146D01*
X146454190Y-97333146D02*
X146454190Y-97514575D01*
X146454190Y-97514575D02*
X146393714Y-97635527D01*
X146393714Y-97635527D02*
X146333237Y-97696004D01*
X146333237Y-97696004D02*
X146212285Y-97756480D01*
X146212285Y-97756480D02*
X145728475Y-97756480D01*
X146998475Y-97877432D02*
X147966095Y-97877432D01*
X148570856Y-98361242D02*
X148570856Y-97091242D01*
X148570856Y-97091242D02*
X148873237Y-97091242D01*
X148873237Y-97091242D02*
X149054666Y-97151718D01*
X149054666Y-97151718D02*
X149175618Y-97272670D01*
X149175618Y-97272670D02*
X149236095Y-97393623D01*
X149236095Y-97393623D02*
X149296571Y-97635527D01*
X149296571Y-97635527D02*
X149296571Y-97816956D01*
X149296571Y-97816956D02*
X149236095Y-98058861D01*
X149236095Y-98058861D02*
X149175618Y-98179813D01*
X149175618Y-98179813D02*
X149054666Y-98300766D01*
X149054666Y-98300766D02*
X148873237Y-98361242D01*
X148873237Y-98361242D02*
X148570856Y-98361242D01*
X150082761Y-97091242D02*
X150324666Y-97091242D01*
X150324666Y-97091242D02*
X150445618Y-97151718D01*
X150445618Y-97151718D02*
X150566571Y-97272670D01*
X150566571Y-97272670D02*
X150627047Y-97514575D01*
X150627047Y-97514575D02*
X150627047Y-97937908D01*
X150627047Y-97937908D02*
X150566571Y-98179813D01*
X150566571Y-98179813D02*
X150445618Y-98300766D01*
X150445618Y-98300766D02*
X150324666Y-98361242D01*
X150324666Y-98361242D02*
X150082761Y-98361242D01*
X150082761Y-98361242D02*
X149961809Y-98300766D01*
X149961809Y-98300766D02*
X149840856Y-98179813D01*
X149840856Y-98179813D02*
X149780380Y-97937908D01*
X149780380Y-97937908D02*
X149780380Y-97514575D01*
X149780380Y-97514575D02*
X149840856Y-97272670D01*
X149840856Y-97272670D02*
X149961809Y-97151718D01*
X149961809Y-97151718D02*
X150082761Y-97091242D01*
X151050380Y-97091242D02*
X151352761Y-98361242D01*
X151352761Y-98361242D02*
X151594666Y-97454099D01*
X151594666Y-97454099D02*
X151836571Y-98361242D01*
X151836571Y-98361242D02*
X152138952Y-97091242D01*
X152622761Y-98361242D02*
X152622761Y-97091242D01*
X152622761Y-97091242D02*
X153348476Y-98361242D01*
X153348476Y-98361242D02*
X153348476Y-97091242D01*
X153953237Y-97877432D02*
X154920857Y-97877432D01*
X156130380Y-98361242D02*
X155525618Y-98361242D01*
X155525618Y-98361242D02*
X155525618Y-97091242D01*
X156553713Y-98361242D02*
X156553713Y-97091242D01*
X156553713Y-97091242D02*
X156977047Y-97998385D01*
X156977047Y-97998385D02*
X157400380Y-97091242D01*
X157400380Y-97091242D02*
X157400380Y-98361242D01*
X157944666Y-97212194D02*
X158005142Y-97151718D01*
X158005142Y-97151718D02*
X158126095Y-97091242D01*
X158126095Y-97091242D02*
X158428476Y-97091242D01*
X158428476Y-97091242D02*
X158549428Y-97151718D01*
X158549428Y-97151718D02*
X158609904Y-97212194D01*
X158609904Y-97212194D02*
X158670381Y-97333146D01*
X158670381Y-97333146D02*
X158670381Y-97454099D01*
X158670381Y-97454099D02*
X158609904Y-97635527D01*
X158609904Y-97635527D02*
X157884190Y-98361242D01*
X157884190Y-98361242D02*
X158670381Y-98361242D01*
X159819428Y-97091242D02*
X159214666Y-97091242D01*
X159214666Y-97091242D02*
X159154190Y-97696004D01*
X159154190Y-97696004D02*
X159214666Y-97635527D01*
X159214666Y-97635527D02*
X159335619Y-97575051D01*
X159335619Y-97575051D02*
X159638000Y-97575051D01*
X159638000Y-97575051D02*
X159758952Y-97635527D01*
X159758952Y-97635527D02*
X159819428Y-97696004D01*
X159819428Y-97696004D02*
X159879905Y-97816956D01*
X159879905Y-97816956D02*
X159879905Y-98119337D01*
X159879905Y-98119337D02*
X159819428Y-98240289D01*
X159819428Y-98240289D02*
X159758952Y-98300766D01*
X159758952Y-98300766D02*
X159638000Y-98361242D01*
X159638000Y-98361242D02*
X159335619Y-98361242D01*
X159335619Y-98361242D02*
X159214666Y-98300766D01*
X159214666Y-98300766D02*
X159154190Y-98240289D01*
X160484667Y-98361242D02*
X160726571Y-98361242D01*
X160726571Y-98361242D02*
X160847524Y-98300766D01*
X160847524Y-98300766D02*
X160908000Y-98240289D01*
X160908000Y-98240289D02*
X161028952Y-98058861D01*
X161028952Y-98058861D02*
X161089429Y-97816956D01*
X161089429Y-97816956D02*
X161089429Y-97333146D01*
X161089429Y-97333146D02*
X161028952Y-97212194D01*
X161028952Y-97212194D02*
X160968476Y-97151718D01*
X160968476Y-97151718D02*
X160847524Y-97091242D01*
X160847524Y-97091242D02*
X160605619Y-97091242D01*
X160605619Y-97091242D02*
X160484667Y-97151718D01*
X160484667Y-97151718D02*
X160424190Y-97212194D01*
X160424190Y-97212194D02*
X160363714Y-97333146D01*
X160363714Y-97333146D02*
X160363714Y-97635527D01*
X160363714Y-97635527D02*
X160424190Y-97756480D01*
X160424190Y-97756480D02*
X160484667Y-97816956D01*
X160484667Y-97816956D02*
X160605619Y-97877432D01*
X160605619Y-97877432D02*
X160847524Y-97877432D01*
X160847524Y-97877432D02*
X160968476Y-97816956D01*
X160968476Y-97816956D02*
X161028952Y-97756480D01*
X161028952Y-97756480D02*
X161089429Y-97635527D01*
X162178000Y-97091242D02*
X161936095Y-97091242D01*
X161936095Y-97091242D02*
X161815143Y-97151718D01*
X161815143Y-97151718D02*
X161754667Y-97212194D01*
X161754667Y-97212194D02*
X161633714Y-97393623D01*
X161633714Y-97393623D02*
X161573238Y-97635527D01*
X161573238Y-97635527D02*
X161573238Y-98119337D01*
X161573238Y-98119337D02*
X161633714Y-98240289D01*
X161633714Y-98240289D02*
X161694191Y-98300766D01*
X161694191Y-98300766D02*
X161815143Y-98361242D01*
X161815143Y-98361242D02*
X162057048Y-98361242D01*
X162057048Y-98361242D02*
X162178000Y-98300766D01*
X162178000Y-98300766D02*
X162238476Y-98240289D01*
X162238476Y-98240289D02*
X162298953Y-98119337D01*
X162298953Y-98119337D02*
X162298953Y-97816956D01*
X162298953Y-97816956D02*
X162238476Y-97696004D01*
X162238476Y-97696004D02*
X162178000Y-97635527D01*
X162178000Y-97635527D02*
X162057048Y-97575051D01*
X162057048Y-97575051D02*
X161815143Y-97575051D01*
X161815143Y-97575051D02*
X161694191Y-97635527D01*
X161694191Y-97635527D02*
X161633714Y-97696004D01*
X161633714Y-97696004D02*
X161573238Y-97816956D01*
D12*
X129337612Y-86645333D02*
X127559612Y-86645333D01*
X129337612Y-85798666D02*
X127559612Y-85798666D01*
X127559612Y-85798666D02*
X129337612Y-84782666D01*
X129337612Y-84782666D02*
X127559612Y-84782666D01*
X166929612Y-87492000D02*
X166929612Y-87153333D01*
X166929612Y-87153333D02*
X167014279Y-86984000D01*
X167014279Y-86984000D02*
X167183612Y-86814666D01*
X167183612Y-86814666D02*
X167522279Y-86730000D01*
X167522279Y-86730000D02*
X168114946Y-86730000D01*
X168114946Y-86730000D02*
X168453612Y-86814666D01*
X168453612Y-86814666D02*
X168622946Y-86984000D01*
X168622946Y-86984000D02*
X168707612Y-87153333D01*
X168707612Y-87153333D02*
X168707612Y-87492000D01*
X168707612Y-87492000D02*
X168622946Y-87661333D01*
X168622946Y-87661333D02*
X168453612Y-87830666D01*
X168453612Y-87830666D02*
X168114946Y-87915333D01*
X168114946Y-87915333D02*
X167522279Y-87915333D01*
X167522279Y-87915333D02*
X167183612Y-87830666D01*
X167183612Y-87830666D02*
X167014279Y-87661333D01*
X167014279Y-87661333D02*
X166929612Y-87492000D01*
X166929612Y-85967999D02*
X168368946Y-85967999D01*
X168368946Y-85967999D02*
X168538279Y-85883333D01*
X168538279Y-85883333D02*
X168622946Y-85798666D01*
X168622946Y-85798666D02*
X168707612Y-85629333D01*
X168707612Y-85629333D02*
X168707612Y-85290666D01*
X168707612Y-85290666D02*
X168622946Y-85121333D01*
X168622946Y-85121333D02*
X168538279Y-85036666D01*
X168538279Y-85036666D02*
X168368946Y-84951999D01*
X168368946Y-84951999D02*
X166929612Y-84951999D01*
X166929612Y-84359332D02*
X166929612Y-83343332D01*
X168707612Y-83851332D02*
X166929612Y-83851332D01*
D10*
X139139819Y-34836666D02*
X138663628Y-35169999D01*
X139139819Y-35408094D02*
X138139819Y-35408094D01*
X138139819Y-35408094D02*
X138139819Y-35027142D01*
X138139819Y-35027142D02*
X138187438Y-34931904D01*
X138187438Y-34931904D02*
X138235057Y-34884285D01*
X138235057Y-34884285D02*
X138330295Y-34836666D01*
X138330295Y-34836666D02*
X138473152Y-34836666D01*
X138473152Y-34836666D02*
X138568390Y-34884285D01*
X138568390Y-34884285D02*
X138616009Y-34931904D01*
X138616009Y-34931904D02*
X138663628Y-35027142D01*
X138663628Y-35027142D02*
X138663628Y-35408094D01*
X139139819Y-33884285D02*
X139139819Y-34455713D01*
X139139819Y-34169999D02*
X138139819Y-34169999D01*
X138139819Y-34169999D02*
X138282676Y-34265237D01*
X138282676Y-34265237D02*
X138377914Y-34360475D01*
X138377914Y-34360475D02*
X138425533Y-34455713D01*
X107144819Y-69309523D02*
X107859104Y-69309523D01*
X107859104Y-69309523D02*
X108001961Y-69357142D01*
X108001961Y-69357142D02*
X108097200Y-69452380D01*
X108097200Y-69452380D02*
X108144819Y-69595237D01*
X108144819Y-69595237D02*
X108144819Y-69690475D01*
X108144819Y-68309523D02*
X108144819Y-68880951D01*
X108144819Y-68595237D02*
X107144819Y-68595237D01*
X107144819Y-68595237D02*
X107287676Y-68690475D01*
X107287676Y-68690475D02*
X107382914Y-68785713D01*
X107382914Y-68785713D02*
X107430533Y-68880951D01*
X107240057Y-67928570D02*
X107192438Y-67880951D01*
X107192438Y-67880951D02*
X107144819Y-67785713D01*
X107144819Y-67785713D02*
X107144819Y-67547618D01*
X107144819Y-67547618D02*
X107192438Y-67452380D01*
X107192438Y-67452380D02*
X107240057Y-67404761D01*
X107240057Y-67404761D02*
X107335295Y-67357142D01*
X107335295Y-67357142D02*
X107430533Y-67357142D01*
X107430533Y-67357142D02*
X107573390Y-67404761D01*
X107573390Y-67404761D02*
X108144819Y-67976189D01*
X108144819Y-67976189D02*
X108144819Y-67357142D01*
X149820057Y-67635238D02*
X149772438Y-67730476D01*
X149772438Y-67730476D02*
X149677200Y-67825714D01*
X149677200Y-67825714D02*
X149534342Y-67968571D01*
X149534342Y-67968571D02*
X149486723Y-68063809D01*
X149486723Y-68063809D02*
X149486723Y-68159047D01*
X149724819Y-68111428D02*
X149677200Y-68206666D01*
X149677200Y-68206666D02*
X149581961Y-68301904D01*
X149581961Y-68301904D02*
X149391485Y-68349523D01*
X149391485Y-68349523D02*
X149058152Y-68349523D01*
X149058152Y-68349523D02*
X148867676Y-68301904D01*
X148867676Y-68301904D02*
X148772438Y-68206666D01*
X148772438Y-68206666D02*
X148724819Y-68111428D01*
X148724819Y-68111428D02*
X148724819Y-67920952D01*
X148724819Y-67920952D02*
X148772438Y-67825714D01*
X148772438Y-67825714D02*
X148867676Y-67730476D01*
X148867676Y-67730476D02*
X149058152Y-67682857D01*
X149058152Y-67682857D02*
X149391485Y-67682857D01*
X149391485Y-67682857D02*
X149581961Y-67730476D01*
X149581961Y-67730476D02*
X149677200Y-67825714D01*
X149677200Y-67825714D02*
X149724819Y-67920952D01*
X149724819Y-67920952D02*
X149724819Y-68111428D01*
X148820057Y-67301904D02*
X148772438Y-67254285D01*
X148772438Y-67254285D02*
X148724819Y-67159047D01*
X148724819Y-67159047D02*
X148724819Y-66920952D01*
X148724819Y-66920952D02*
X148772438Y-66825714D01*
X148772438Y-66825714D02*
X148820057Y-66778095D01*
X148820057Y-66778095D02*
X148915295Y-66730476D01*
X148915295Y-66730476D02*
X149010533Y-66730476D01*
X149010533Y-66730476D02*
X149153390Y-66778095D01*
X149153390Y-66778095D02*
X149724819Y-67349523D01*
X149724819Y-67349523D02*
X149724819Y-66730476D01*
X149913333Y-72584819D02*
X149580000Y-72108628D01*
X149341905Y-72584819D02*
X149341905Y-71584819D01*
X149341905Y-71584819D02*
X149722857Y-71584819D01*
X149722857Y-71584819D02*
X149818095Y-71632438D01*
X149818095Y-71632438D02*
X149865714Y-71680057D01*
X149865714Y-71680057D02*
X149913333Y-71775295D01*
X149913333Y-71775295D02*
X149913333Y-71918152D01*
X149913333Y-71918152D02*
X149865714Y-72013390D01*
X149865714Y-72013390D02*
X149818095Y-72061009D01*
X149818095Y-72061009D02*
X149722857Y-72108628D01*
X149722857Y-72108628D02*
X149341905Y-72108628D01*
X150246667Y-71584819D02*
X150913333Y-71584819D01*
X150913333Y-71584819D02*
X150484762Y-72584819D01*
D11*
X123195032Y-50061726D02*
X123195032Y-48893326D01*
X123862689Y-50061726D02*
X123361946Y-49394068D01*
X123862689Y-48893326D02*
X123195032Y-49560983D01*
X124307794Y-49004602D02*
X124363432Y-48948964D01*
X124363432Y-48948964D02*
X124474708Y-48893326D01*
X124474708Y-48893326D02*
X124752899Y-48893326D01*
X124752899Y-48893326D02*
X124864175Y-48948964D01*
X124864175Y-48948964D02*
X124919813Y-49004602D01*
X124919813Y-49004602D02*
X124975451Y-49115878D01*
X124975451Y-49115878D02*
X124975451Y-49227154D01*
X124975451Y-49227154D02*
X124919813Y-49394068D01*
X124919813Y-49394068D02*
X124252156Y-50061726D01*
X124252156Y-50061726D02*
X124975451Y-50061726D01*
D10*
X170940476Y-95309819D02*
X170940476Y-96024104D01*
X170940476Y-96024104D02*
X170892857Y-96166961D01*
X170892857Y-96166961D02*
X170797619Y-96262200D01*
X170797619Y-96262200D02*
X170654762Y-96309819D01*
X170654762Y-96309819D02*
X170559524Y-96309819D01*
X171940476Y-96309819D02*
X171369048Y-96309819D01*
X171654762Y-96309819D02*
X171654762Y-95309819D01*
X171654762Y-95309819D02*
X171559524Y-95452676D01*
X171559524Y-95452676D02*
X171464286Y-95547914D01*
X171464286Y-95547914D02*
X171369048Y-95595533D01*
X172559524Y-95309819D02*
X172654762Y-95309819D01*
X172654762Y-95309819D02*
X172750000Y-95357438D01*
X172750000Y-95357438D02*
X172797619Y-95405057D01*
X172797619Y-95405057D02*
X172845238Y-95500295D01*
X172845238Y-95500295D02*
X172892857Y-95690771D01*
X172892857Y-95690771D02*
X172892857Y-95928866D01*
X172892857Y-95928866D02*
X172845238Y-96119342D01*
X172845238Y-96119342D02*
X172797619Y-96214580D01*
X172797619Y-96214580D02*
X172750000Y-96262200D01*
X172750000Y-96262200D02*
X172654762Y-96309819D01*
X172654762Y-96309819D02*
X172559524Y-96309819D01*
X172559524Y-96309819D02*
X172464286Y-96262200D01*
X172464286Y-96262200D02*
X172416667Y-96214580D01*
X172416667Y-96214580D02*
X172369048Y-96119342D01*
X172369048Y-96119342D02*
X172321429Y-95928866D01*
X172321429Y-95928866D02*
X172321429Y-95690771D01*
X172321429Y-95690771D02*
X172369048Y-95500295D01*
X172369048Y-95500295D02*
X172416667Y-95405057D01*
X172416667Y-95405057D02*
X172464286Y-95357438D01*
X172464286Y-95357438D02*
X172559524Y-95309819D01*
X149920057Y-50735238D02*
X149872438Y-50830476D01*
X149872438Y-50830476D02*
X149777200Y-50925714D01*
X149777200Y-50925714D02*
X149634342Y-51068571D01*
X149634342Y-51068571D02*
X149586723Y-51163809D01*
X149586723Y-51163809D02*
X149586723Y-51259047D01*
X149824819Y-51211428D02*
X149777200Y-51306666D01*
X149777200Y-51306666D02*
X149681961Y-51401904D01*
X149681961Y-51401904D02*
X149491485Y-51449523D01*
X149491485Y-51449523D02*
X149158152Y-51449523D01*
X149158152Y-51449523D02*
X148967676Y-51401904D01*
X148967676Y-51401904D02*
X148872438Y-51306666D01*
X148872438Y-51306666D02*
X148824819Y-51211428D01*
X148824819Y-51211428D02*
X148824819Y-51020952D01*
X148824819Y-51020952D02*
X148872438Y-50925714D01*
X148872438Y-50925714D02*
X148967676Y-50830476D01*
X148967676Y-50830476D02*
X149158152Y-50782857D01*
X149158152Y-50782857D02*
X149491485Y-50782857D01*
X149491485Y-50782857D02*
X149681961Y-50830476D01*
X149681961Y-50830476D02*
X149777200Y-50925714D01*
X149777200Y-50925714D02*
X149824819Y-51020952D01*
X149824819Y-51020952D02*
X149824819Y-51211428D01*
X148824819Y-50449523D02*
X148824819Y-49830476D01*
X148824819Y-49830476D02*
X149205771Y-50163809D01*
X149205771Y-50163809D02*
X149205771Y-50020952D01*
X149205771Y-50020952D02*
X149253390Y-49925714D01*
X149253390Y-49925714D02*
X149301009Y-49878095D01*
X149301009Y-49878095D02*
X149396247Y-49830476D01*
X149396247Y-49830476D02*
X149634342Y-49830476D01*
X149634342Y-49830476D02*
X149729580Y-49878095D01*
X149729580Y-49878095D02*
X149777200Y-49925714D01*
X149777200Y-49925714D02*
X149824819Y-50020952D01*
X149824819Y-50020952D02*
X149824819Y-50306666D01*
X149824819Y-50306666D02*
X149777200Y-50401904D01*
X149777200Y-50401904D02*
X149729580Y-50449523D01*
X175083333Y-79959580D02*
X175035714Y-80007200D01*
X175035714Y-80007200D02*
X174892857Y-80054819D01*
X174892857Y-80054819D02*
X174797619Y-80054819D01*
X174797619Y-80054819D02*
X174654762Y-80007200D01*
X174654762Y-80007200D02*
X174559524Y-79911961D01*
X174559524Y-79911961D02*
X174511905Y-79816723D01*
X174511905Y-79816723D02*
X174464286Y-79626247D01*
X174464286Y-79626247D02*
X174464286Y-79483390D01*
X174464286Y-79483390D02*
X174511905Y-79292914D01*
X174511905Y-79292914D02*
X174559524Y-79197676D01*
X174559524Y-79197676D02*
X174654762Y-79102438D01*
X174654762Y-79102438D02*
X174797619Y-79054819D01*
X174797619Y-79054819D02*
X174892857Y-79054819D01*
X174892857Y-79054819D02*
X175035714Y-79102438D01*
X175035714Y-79102438D02*
X175083333Y-79150057D01*
X175416667Y-79054819D02*
X176035714Y-79054819D01*
X176035714Y-79054819D02*
X175702381Y-79435771D01*
X175702381Y-79435771D02*
X175845238Y-79435771D01*
X175845238Y-79435771D02*
X175940476Y-79483390D01*
X175940476Y-79483390D02*
X175988095Y-79531009D01*
X175988095Y-79531009D02*
X176035714Y-79626247D01*
X176035714Y-79626247D02*
X176035714Y-79864342D01*
X176035714Y-79864342D02*
X175988095Y-79959580D01*
X175988095Y-79959580D02*
X175940476Y-80007200D01*
X175940476Y-80007200D02*
X175845238Y-80054819D01*
X175845238Y-80054819D02*
X175559524Y-80054819D01*
X175559524Y-80054819D02*
X175464286Y-80007200D01*
X175464286Y-80007200D02*
X175416667Y-79959580D01*
X185254819Y-23011904D02*
X184254819Y-23011904D01*
X184731009Y-23011904D02*
X184731009Y-22440476D01*
X185254819Y-22440476D02*
X184254819Y-22440476D01*
X184588152Y-21535714D02*
X185254819Y-21535714D01*
X184207200Y-21773809D02*
X184921485Y-22011904D01*
X184921485Y-22011904D02*
X184921485Y-21392857D01*
X185254819Y-94011904D02*
X184254819Y-94011904D01*
X184731009Y-94011904D02*
X184731009Y-93440476D01*
X185254819Y-93440476D02*
X184254819Y-93440476D01*
X184350057Y-93011904D02*
X184302438Y-92964285D01*
X184302438Y-92964285D02*
X184254819Y-92869047D01*
X184254819Y-92869047D02*
X184254819Y-92630952D01*
X184254819Y-92630952D02*
X184302438Y-92535714D01*
X184302438Y-92535714D02*
X184350057Y-92488095D01*
X184350057Y-92488095D02*
X184445295Y-92440476D01*
X184445295Y-92440476D02*
X184540533Y-92440476D01*
X184540533Y-92440476D02*
X184683390Y-92488095D01*
X184683390Y-92488095D02*
X185254819Y-93059523D01*
X185254819Y-93059523D02*
X185254819Y-92440476D01*
X173474819Y-20833333D02*
X174189104Y-20833333D01*
X174189104Y-20833333D02*
X174331961Y-20880952D01*
X174331961Y-20880952D02*
X174427200Y-20976190D01*
X174427200Y-20976190D02*
X174474819Y-21119047D01*
X174474819Y-21119047D02*
X174474819Y-21214285D01*
X173903390Y-20214285D02*
X173855771Y-20309523D01*
X173855771Y-20309523D02*
X173808152Y-20357142D01*
X173808152Y-20357142D02*
X173712914Y-20404761D01*
X173712914Y-20404761D02*
X173665295Y-20404761D01*
X173665295Y-20404761D02*
X173570057Y-20357142D01*
X173570057Y-20357142D02*
X173522438Y-20309523D01*
X173522438Y-20309523D02*
X173474819Y-20214285D01*
X173474819Y-20214285D02*
X173474819Y-20023809D01*
X173474819Y-20023809D02*
X173522438Y-19928571D01*
X173522438Y-19928571D02*
X173570057Y-19880952D01*
X173570057Y-19880952D02*
X173665295Y-19833333D01*
X173665295Y-19833333D02*
X173712914Y-19833333D01*
X173712914Y-19833333D02*
X173808152Y-19880952D01*
X173808152Y-19880952D02*
X173855771Y-19928571D01*
X173855771Y-19928571D02*
X173903390Y-20023809D01*
X173903390Y-20023809D02*
X173903390Y-20214285D01*
X173903390Y-20214285D02*
X173951009Y-20309523D01*
X173951009Y-20309523D02*
X173998628Y-20357142D01*
X173998628Y-20357142D02*
X174093866Y-20404761D01*
X174093866Y-20404761D02*
X174284342Y-20404761D01*
X174284342Y-20404761D02*
X174379580Y-20357142D01*
X174379580Y-20357142D02*
X174427200Y-20309523D01*
X174427200Y-20309523D02*
X174474819Y-20214285D01*
X174474819Y-20214285D02*
X174474819Y-20023809D01*
X174474819Y-20023809D02*
X174427200Y-19928571D01*
X174427200Y-19928571D02*
X174379580Y-19880952D01*
X174379580Y-19880952D02*
X174284342Y-19833333D01*
X174284342Y-19833333D02*
X174093866Y-19833333D01*
X174093866Y-19833333D02*
X173998628Y-19880952D01*
X173998628Y-19880952D02*
X173951009Y-19928571D01*
X173951009Y-19928571D02*
X173903390Y-20023809D01*
X116254819Y-23011904D02*
X115254819Y-23011904D01*
X115731009Y-23011904D02*
X115731009Y-22440476D01*
X116254819Y-22440476D02*
X115254819Y-22440476D01*
X115254819Y-22059523D02*
X115254819Y-21440476D01*
X115254819Y-21440476D02*
X115635771Y-21773809D01*
X115635771Y-21773809D02*
X115635771Y-21630952D01*
X115635771Y-21630952D02*
X115683390Y-21535714D01*
X115683390Y-21535714D02*
X115731009Y-21488095D01*
X115731009Y-21488095D02*
X115826247Y-21440476D01*
X115826247Y-21440476D02*
X116064342Y-21440476D01*
X116064342Y-21440476D02*
X116159580Y-21488095D01*
X116159580Y-21488095D02*
X116207200Y-21535714D01*
X116207200Y-21535714D02*
X116254819Y-21630952D01*
X116254819Y-21630952D02*
X116254819Y-21916666D01*
X116254819Y-21916666D02*
X116207200Y-22011904D01*
X116207200Y-22011904D02*
X116159580Y-22059523D01*
X141504819Y-57583094D02*
X140504819Y-57583094D01*
X140504819Y-57583094D02*
X140504819Y-57344999D01*
X140504819Y-57344999D02*
X140552438Y-57202142D01*
X140552438Y-57202142D02*
X140647676Y-57106904D01*
X140647676Y-57106904D02*
X140742914Y-57059285D01*
X140742914Y-57059285D02*
X140933390Y-57011666D01*
X140933390Y-57011666D02*
X141076247Y-57011666D01*
X141076247Y-57011666D02*
X141266723Y-57059285D01*
X141266723Y-57059285D02*
X141361961Y-57106904D01*
X141361961Y-57106904D02*
X141457200Y-57202142D01*
X141457200Y-57202142D02*
X141504819Y-57344999D01*
X141504819Y-57344999D02*
X141504819Y-57583094D01*
X140600057Y-56630713D02*
X140552438Y-56583094D01*
X140552438Y-56583094D02*
X140504819Y-56487856D01*
X140504819Y-56487856D02*
X140504819Y-56249761D01*
X140504819Y-56249761D02*
X140552438Y-56154523D01*
X140552438Y-56154523D02*
X140600057Y-56106904D01*
X140600057Y-56106904D02*
X140695295Y-56059285D01*
X140695295Y-56059285D02*
X140790533Y-56059285D01*
X140790533Y-56059285D02*
X140933390Y-56106904D01*
X140933390Y-56106904D02*
X141504819Y-56678332D01*
X141504819Y-56678332D02*
X141504819Y-56059285D01*
X140054819Y-47081904D02*
X139054819Y-47081904D01*
X140054819Y-46510476D02*
X139483390Y-46939047D01*
X139054819Y-46510476D02*
X139626247Y-47081904D01*
X119011905Y-86674819D02*
X119011905Y-85674819D01*
X119011905Y-85674819D02*
X119250000Y-85674819D01*
X119250000Y-85674819D02*
X119392857Y-85722438D01*
X119392857Y-85722438D02*
X119488095Y-85817676D01*
X119488095Y-85817676D02*
X119535714Y-85912914D01*
X119535714Y-85912914D02*
X119583333Y-86103390D01*
X119583333Y-86103390D02*
X119583333Y-86246247D01*
X119583333Y-86246247D02*
X119535714Y-86436723D01*
X119535714Y-86436723D02*
X119488095Y-86531961D01*
X119488095Y-86531961D02*
X119392857Y-86627200D01*
X119392857Y-86627200D02*
X119250000Y-86674819D01*
X119250000Y-86674819D02*
X119011905Y-86674819D01*
X120440476Y-86008152D02*
X120440476Y-86674819D01*
X120202381Y-85627200D02*
X119964286Y-86341485D01*
X119964286Y-86341485D02*
X120583333Y-86341485D01*
X124568095Y-86304819D02*
X124568095Y-85304819D01*
X125139523Y-86304819D02*
X124710952Y-85733390D01*
X125139523Y-85304819D02*
X124568095Y-85876247D01*
X120916666Y-84394819D02*
X120916666Y-85109104D01*
X120916666Y-85109104D02*
X120869047Y-85251961D01*
X120869047Y-85251961D02*
X120773809Y-85347200D01*
X120773809Y-85347200D02*
X120630952Y-85394819D01*
X120630952Y-85394819D02*
X120535714Y-85394819D01*
X121345238Y-84490057D02*
X121392857Y-84442438D01*
X121392857Y-84442438D02*
X121488095Y-84394819D01*
X121488095Y-84394819D02*
X121726190Y-84394819D01*
X121726190Y-84394819D02*
X121821428Y-84442438D01*
X121821428Y-84442438D02*
X121869047Y-84490057D01*
X121869047Y-84490057D02*
X121916666Y-84585295D01*
X121916666Y-84585295D02*
X121916666Y-84680533D01*
X121916666Y-84680533D02*
X121869047Y-84823390D01*
X121869047Y-84823390D02*
X121297619Y-85394819D01*
X121297619Y-85394819D02*
X121916666Y-85394819D01*
X139834819Y-68746666D02*
X139358628Y-69079999D01*
X139834819Y-69318094D02*
X138834819Y-69318094D01*
X138834819Y-69318094D02*
X138834819Y-68937142D01*
X138834819Y-68937142D02*
X138882438Y-68841904D01*
X138882438Y-68841904D02*
X138930057Y-68794285D01*
X138930057Y-68794285D02*
X139025295Y-68746666D01*
X139025295Y-68746666D02*
X139168152Y-68746666D01*
X139168152Y-68746666D02*
X139263390Y-68794285D01*
X139263390Y-68794285D02*
X139311009Y-68841904D01*
X139311009Y-68841904D02*
X139358628Y-68937142D01*
X139358628Y-68937142D02*
X139358628Y-69318094D01*
X139263390Y-68175237D02*
X139215771Y-68270475D01*
X139215771Y-68270475D02*
X139168152Y-68318094D01*
X139168152Y-68318094D02*
X139072914Y-68365713D01*
X139072914Y-68365713D02*
X139025295Y-68365713D01*
X139025295Y-68365713D02*
X138930057Y-68318094D01*
X138930057Y-68318094D02*
X138882438Y-68270475D01*
X138882438Y-68270475D02*
X138834819Y-68175237D01*
X138834819Y-68175237D02*
X138834819Y-67984761D01*
X138834819Y-67984761D02*
X138882438Y-67889523D01*
X138882438Y-67889523D02*
X138930057Y-67841904D01*
X138930057Y-67841904D02*
X139025295Y-67794285D01*
X139025295Y-67794285D02*
X139072914Y-67794285D01*
X139072914Y-67794285D02*
X139168152Y-67841904D01*
X139168152Y-67841904D02*
X139215771Y-67889523D01*
X139215771Y-67889523D02*
X139263390Y-67984761D01*
X139263390Y-67984761D02*
X139263390Y-68175237D01*
X139263390Y-68175237D02*
X139311009Y-68270475D01*
X139311009Y-68270475D02*
X139358628Y-68318094D01*
X139358628Y-68318094D02*
X139453866Y-68365713D01*
X139453866Y-68365713D02*
X139644342Y-68365713D01*
X139644342Y-68365713D02*
X139739580Y-68318094D01*
X139739580Y-68318094D02*
X139787200Y-68270475D01*
X139787200Y-68270475D02*
X139834819Y-68175237D01*
X139834819Y-68175237D02*
X139834819Y-67984761D01*
X139834819Y-67984761D02*
X139787200Y-67889523D01*
X139787200Y-67889523D02*
X139739580Y-67841904D01*
X139739580Y-67841904D02*
X139644342Y-67794285D01*
X139644342Y-67794285D02*
X139453866Y-67794285D01*
X139453866Y-67794285D02*
X139358628Y-67841904D01*
X139358628Y-67841904D02*
X139311009Y-67889523D01*
X139311009Y-67889523D02*
X139263390Y-67984761D01*
X148244819Y-68743094D02*
X147244819Y-68743094D01*
X147244819Y-68743094D02*
X147244819Y-68504999D01*
X147244819Y-68504999D02*
X147292438Y-68362142D01*
X147292438Y-68362142D02*
X147387676Y-68266904D01*
X147387676Y-68266904D02*
X147482914Y-68219285D01*
X147482914Y-68219285D02*
X147673390Y-68171666D01*
X147673390Y-68171666D02*
X147816247Y-68171666D01*
X147816247Y-68171666D02*
X148006723Y-68219285D01*
X148006723Y-68219285D02*
X148101961Y-68266904D01*
X148101961Y-68266904D02*
X148197200Y-68362142D01*
X148197200Y-68362142D02*
X148244819Y-68504999D01*
X148244819Y-68504999D02*
X148244819Y-68743094D01*
X147244819Y-67838332D02*
X147244819Y-67171666D01*
X147244819Y-67171666D02*
X148244819Y-67600237D01*
X156494819Y-51733094D02*
X155494819Y-51733094D01*
X155494819Y-51733094D02*
X155494819Y-51494999D01*
X155494819Y-51494999D02*
X155542438Y-51352142D01*
X155542438Y-51352142D02*
X155637676Y-51256904D01*
X155637676Y-51256904D02*
X155732914Y-51209285D01*
X155732914Y-51209285D02*
X155923390Y-51161666D01*
X155923390Y-51161666D02*
X156066247Y-51161666D01*
X156066247Y-51161666D02*
X156256723Y-51209285D01*
X156256723Y-51209285D02*
X156351961Y-51256904D01*
X156351961Y-51256904D02*
X156447200Y-51352142D01*
X156447200Y-51352142D02*
X156494819Y-51494999D01*
X156494819Y-51494999D02*
X156494819Y-51733094D01*
X155494819Y-50256904D02*
X155494819Y-50733094D01*
X155494819Y-50733094D02*
X155971009Y-50780713D01*
X155971009Y-50780713D02*
X155923390Y-50733094D01*
X155923390Y-50733094D02*
X155875771Y-50637856D01*
X155875771Y-50637856D02*
X155875771Y-50399761D01*
X155875771Y-50399761D02*
X155923390Y-50304523D01*
X155923390Y-50304523D02*
X155971009Y-50256904D01*
X155971009Y-50256904D02*
X156066247Y-50209285D01*
X156066247Y-50209285D02*
X156304342Y-50209285D01*
X156304342Y-50209285D02*
X156399580Y-50256904D01*
X156399580Y-50256904D02*
X156447200Y-50304523D01*
X156447200Y-50304523D02*
X156494819Y-50399761D01*
X156494819Y-50399761D02*
X156494819Y-50637856D01*
X156494819Y-50637856D02*
X156447200Y-50733094D01*
X156447200Y-50733094D02*
X156399580Y-50780713D01*
X156414819Y-34718094D02*
X155414819Y-34718094D01*
X155414819Y-34718094D02*
X155414819Y-34479999D01*
X155414819Y-34479999D02*
X155462438Y-34337142D01*
X155462438Y-34337142D02*
X155557676Y-34241904D01*
X155557676Y-34241904D02*
X155652914Y-34194285D01*
X155652914Y-34194285D02*
X155843390Y-34146666D01*
X155843390Y-34146666D02*
X155986247Y-34146666D01*
X155986247Y-34146666D02*
X156176723Y-34194285D01*
X156176723Y-34194285D02*
X156271961Y-34241904D01*
X156271961Y-34241904D02*
X156367200Y-34337142D01*
X156367200Y-34337142D02*
X156414819Y-34479999D01*
X156414819Y-34479999D02*
X156414819Y-34718094D01*
X155414819Y-33813332D02*
X155414819Y-33194285D01*
X155414819Y-33194285D02*
X155795771Y-33527618D01*
X155795771Y-33527618D02*
X155795771Y-33384761D01*
X155795771Y-33384761D02*
X155843390Y-33289523D01*
X155843390Y-33289523D02*
X155891009Y-33241904D01*
X155891009Y-33241904D02*
X155986247Y-33194285D01*
X155986247Y-33194285D02*
X156224342Y-33194285D01*
X156224342Y-33194285D02*
X156319580Y-33241904D01*
X156319580Y-33241904D02*
X156367200Y-33289523D01*
X156367200Y-33289523D02*
X156414819Y-33384761D01*
X156414819Y-33384761D02*
X156414819Y-33670475D01*
X156414819Y-33670475D02*
X156367200Y-33765713D01*
X156367200Y-33765713D02*
X156319580Y-33813332D01*
X115599819Y-81059523D02*
X116314104Y-81059523D01*
X116314104Y-81059523D02*
X116456961Y-81107142D01*
X116456961Y-81107142D02*
X116552200Y-81202380D01*
X116552200Y-81202380D02*
X116599819Y-81345237D01*
X116599819Y-81345237D02*
X116599819Y-81440475D01*
X116599819Y-80059523D02*
X116599819Y-80630951D01*
X116599819Y-80345237D02*
X115599819Y-80345237D01*
X115599819Y-80345237D02*
X115742676Y-80440475D01*
X115742676Y-80440475D02*
X115837914Y-80535713D01*
X115837914Y-80535713D02*
X115885533Y-80630951D01*
X116599819Y-79107142D02*
X116599819Y-79678570D01*
X116599819Y-79392856D02*
X115599819Y-79392856D01*
X115599819Y-79392856D02*
X115742676Y-79488094D01*
X115742676Y-79488094D02*
X115837914Y-79583332D01*
X115837914Y-79583332D02*
X115885533Y-79678570D01*
X164684819Y-20833333D02*
X165399104Y-20833333D01*
X165399104Y-20833333D02*
X165541961Y-20880952D01*
X165541961Y-20880952D02*
X165637200Y-20976190D01*
X165637200Y-20976190D02*
X165684819Y-21119047D01*
X165684819Y-21119047D02*
X165684819Y-21214285D01*
X165684819Y-20309523D02*
X165684819Y-20119047D01*
X165684819Y-20119047D02*
X165637200Y-20023809D01*
X165637200Y-20023809D02*
X165589580Y-19976190D01*
X165589580Y-19976190D02*
X165446723Y-19880952D01*
X165446723Y-19880952D02*
X165256247Y-19833333D01*
X165256247Y-19833333D02*
X164875295Y-19833333D01*
X164875295Y-19833333D02*
X164780057Y-19880952D01*
X164780057Y-19880952D02*
X164732438Y-19928571D01*
X164732438Y-19928571D02*
X164684819Y-20023809D01*
X164684819Y-20023809D02*
X164684819Y-20214285D01*
X164684819Y-20214285D02*
X164732438Y-20309523D01*
X164732438Y-20309523D02*
X164780057Y-20357142D01*
X164780057Y-20357142D02*
X164875295Y-20404761D01*
X164875295Y-20404761D02*
X165113390Y-20404761D01*
X165113390Y-20404761D02*
X165208628Y-20357142D01*
X165208628Y-20357142D02*
X165256247Y-20309523D01*
X165256247Y-20309523D02*
X165303866Y-20214285D01*
X165303866Y-20214285D02*
X165303866Y-20023809D01*
X165303866Y-20023809D02*
X165256247Y-19928571D01*
X165256247Y-19928571D02*
X165208628Y-19880952D01*
X165208628Y-19880952D02*
X165113390Y-19833333D01*
X149583333Y-43574819D02*
X149250000Y-43098628D01*
X149011905Y-43574819D02*
X149011905Y-42574819D01*
X149011905Y-42574819D02*
X149392857Y-42574819D01*
X149392857Y-42574819D02*
X149488095Y-42622438D01*
X149488095Y-42622438D02*
X149535714Y-42670057D01*
X149535714Y-42670057D02*
X149583333Y-42765295D01*
X149583333Y-42765295D02*
X149583333Y-42908152D01*
X149583333Y-42908152D02*
X149535714Y-43003390D01*
X149535714Y-43003390D02*
X149488095Y-43051009D01*
X149488095Y-43051009D02*
X149392857Y-43098628D01*
X149392857Y-43098628D02*
X149011905Y-43098628D01*
X149964286Y-42670057D02*
X150011905Y-42622438D01*
X150011905Y-42622438D02*
X150107143Y-42574819D01*
X150107143Y-42574819D02*
X150345238Y-42574819D01*
X150345238Y-42574819D02*
X150440476Y-42622438D01*
X150440476Y-42622438D02*
X150488095Y-42670057D01*
X150488095Y-42670057D02*
X150535714Y-42765295D01*
X150535714Y-42765295D02*
X150535714Y-42860533D01*
X150535714Y-42860533D02*
X150488095Y-43003390D01*
X150488095Y-43003390D02*
X149916667Y-43574819D01*
X149916667Y-43574819D02*
X150535714Y-43574819D01*
D11*
X123265032Y-65831726D02*
X123265032Y-64663326D01*
X123932689Y-65831726D02*
X123431946Y-65164068D01*
X123932689Y-64663326D02*
X123265032Y-65330983D01*
X124322156Y-64663326D02*
X125045451Y-64663326D01*
X125045451Y-64663326D02*
X124655984Y-65108430D01*
X124655984Y-65108430D02*
X124822899Y-65108430D01*
X124822899Y-65108430D02*
X124934175Y-65164068D01*
X124934175Y-65164068D02*
X124989813Y-65219707D01*
X124989813Y-65219707D02*
X125045451Y-65330983D01*
X125045451Y-65330983D02*
X125045451Y-65609173D01*
X125045451Y-65609173D02*
X124989813Y-65720449D01*
X124989813Y-65720449D02*
X124934175Y-65776088D01*
X124934175Y-65776088D02*
X124822899Y-65831726D01*
X124822899Y-65831726D02*
X124489070Y-65831726D01*
X124489070Y-65831726D02*
X124377794Y-65776088D01*
X124377794Y-65776088D02*
X124322156Y-65720449D01*
X123215032Y-33081726D02*
X123215032Y-31913326D01*
X123882689Y-33081726D02*
X123381946Y-32414068D01*
X123882689Y-31913326D02*
X123215032Y-32580983D01*
X124995451Y-33081726D02*
X124327794Y-33081726D01*
X124661622Y-33081726D02*
X124661622Y-31913326D01*
X124661622Y-31913326D02*
X124550346Y-32080240D01*
X124550346Y-32080240D02*
X124439070Y-32191516D01*
X124439070Y-32191516D02*
X124327794Y-32247154D01*
D13*
%TO.C,J1*%
X108760000Y-109420000D02*
X119380000Y-109420000D01*
X108760000Y-124540000D02*
X108760000Y-109420000D01*
X108760000Y-124540000D02*
X119380000Y-124540000D01*
X112320000Y-124540000D02*
X112320000Y-109420000D01*
X113320000Y-124540000D02*
X113320000Y-109420000D01*
X113970000Y-110847000D02*
X113994000Y-110872000D01*
X113970000Y-115847000D02*
X113994000Y-115872000D01*
X114187000Y-110630000D02*
X114237000Y-110679000D01*
X114187000Y-115630000D02*
X114237000Y-115679000D01*
X116403000Y-113280000D02*
X116453000Y-113330000D01*
X116403000Y-118280000D02*
X116453000Y-118330000D01*
X116645000Y-113088000D02*
X116670000Y-113112000D01*
X116645000Y-118088000D02*
X116670000Y-118112000D01*
X117320000Y-124540000D02*
X117320000Y-109420000D01*
X117380000Y-124780000D02*
X119620000Y-124780000D01*
X119380000Y-124540000D02*
X119380000Y-109420000D01*
X119620000Y-124780000D02*
X119620000Y-122780000D01*
X113680795Y-122675516D02*
G75*
G02*
X113681001Y-121284000I1639200J695515D01*
G01*
X114624484Y-120340795D02*
G75*
G02*
X116016000Y-120341000I695516J-1639205D01*
G01*
X116015516Y-123619205D02*
G75*
G02*
X114624000Y-123618999I-695515J1639200D01*
G01*
X116958499Y-121284499D02*
G75*
G02*
X117100000Y-121980000I-1638501J-695501D01*
G01*
X117100389Y-121949186D02*
G75*
G02*
X116958999Y-122676000I-1780375J-30816D01*
G01*
X117100000Y-111980000D02*
G75*
G02*
X113540000Y-111980000I-1780000J0D01*
G01*
X113540000Y-111980000D02*
G75*
G02*
X117100000Y-111980000I1780000J0D01*
G01*
X117100000Y-116980000D02*
G75*
G02*
X113540000Y-116980000I-1780000J0D01*
G01*
X113540000Y-116980000D02*
G75*
G02*
X117100000Y-116980000I1780000J0D01*
G01*
%TO.C,R3*%
X140460000Y-130800000D02*
X140460000Y-137340000D01*
X140460000Y-137340000D02*
X143200000Y-137340000D01*
X141830000Y-130030000D02*
X141830000Y-130800000D01*
X141830000Y-138110000D02*
X141830000Y-137340000D01*
X143200000Y-130800000D02*
X140460000Y-130800000D01*
X143200000Y-137340000D02*
X143200000Y-130800000D01*
%TO.C,J3*%
X108790000Y-126460000D02*
X119410000Y-126460000D01*
X108790000Y-141580000D02*
X108790000Y-126460000D01*
X108790000Y-141580000D02*
X119410000Y-141580000D01*
X112350000Y-141580000D02*
X112350000Y-126460000D01*
X113350000Y-141580000D02*
X113350000Y-126460000D01*
X114000000Y-127887000D02*
X114024000Y-127912000D01*
X114000000Y-132887000D02*
X114024000Y-132912000D01*
X114217000Y-127670000D02*
X114267000Y-127719000D01*
X114217000Y-132670000D02*
X114267000Y-132719000D01*
X116433000Y-130320000D02*
X116483000Y-130370000D01*
X116433000Y-135320000D02*
X116483000Y-135370000D01*
X116675000Y-130128000D02*
X116700000Y-130152000D01*
X116675000Y-135128000D02*
X116700000Y-135152000D01*
X117350000Y-141580000D02*
X117350000Y-126460000D01*
X117410000Y-141820000D02*
X119650000Y-141820000D01*
X119410000Y-141580000D02*
X119410000Y-126460000D01*
X119650000Y-141820000D02*
X119650000Y-139820000D01*
X113710795Y-139715516D02*
G75*
G02*
X113711001Y-138324000I1639200J695515D01*
G01*
X114654484Y-137380795D02*
G75*
G02*
X116046000Y-137381000I695516J-1639205D01*
G01*
X116045516Y-140659205D02*
G75*
G02*
X114654000Y-140658999I-695515J1639200D01*
G01*
X116988499Y-138324499D02*
G75*
G02*
X117130000Y-139020000I-1638501J-695501D01*
G01*
X117130389Y-138989186D02*
G75*
G02*
X116988999Y-139716000I-1780375J-30816D01*
G01*
X117130000Y-129020000D02*
G75*
G02*
X113570000Y-129020000I-1780000J0D01*
G01*
X113570000Y-129020000D02*
G75*
G02*
X117130000Y-129020000I1780000J0D01*
G01*
X117130000Y-134020000D02*
G75*
G02*
X113570000Y-134020000I-1780000J0D01*
G01*
X113570000Y-134020000D02*
G75*
G02*
X117130000Y-134020000I1780000J0D01*
G01*
%TO.C,J5*%
X157420000Y-129460000D02*
X157420000Y-126860000D01*
X160080000Y-126860000D02*
X157420000Y-126860000D01*
X160080000Y-129460000D02*
X157420000Y-129460000D01*
X160080000Y-129460000D02*
X160080000Y-126860000D01*
X160080000Y-130730000D02*
X160080000Y-132060000D01*
X160080000Y-132060000D02*
X158750000Y-132060000D01*
%TO.C,J6*%
X172920000Y-123370000D02*
X174250000Y-123370000D01*
X172920000Y-124700000D02*
X172920000Y-123370000D01*
X172920000Y-125970000D02*
X172920000Y-131110000D01*
X172920000Y-125970000D02*
X175580000Y-125970000D01*
X172920000Y-131110000D02*
X175580000Y-131110000D01*
X175580000Y-125970000D02*
X175580000Y-131110000D01*
%TO.C,D6*%
X136030000Y-148180000D02*
X136030000Y-153620000D01*
X136030000Y-153620000D02*
X138970000Y-153620000D01*
X137500000Y-147160000D02*
X137500000Y-148180000D01*
X137500000Y-154640000D02*
X137500000Y-153620000D01*
X138970000Y-148180000D02*
X136030000Y-148180000D01*
X138970000Y-148960000D02*
X136030000Y-148960000D01*
X138970000Y-149080000D02*
X136030000Y-149080000D01*
X138970000Y-149200000D02*
X136030000Y-149200000D01*
X138970000Y-153620000D02*
X138970000Y-148180000D01*
D14*
%TO.C,M1*%
X126618000Y-157780000D02*
X169798000Y-157780000D01*
X126618000Y-178608000D02*
X126618000Y-157780000D01*
D15*
X127888000Y-161844000D02*
X129158000Y-161844000D01*
X128523000Y-161209000D02*
X128523000Y-162479000D01*
X128523000Y-175179000D02*
X128523000Y-173909000D01*
X167258000Y-161844000D02*
X168528000Y-161844000D01*
X167893000Y-161209000D02*
X167893000Y-162479000D01*
X167893000Y-175179000D02*
X167893000Y-173909000D01*
D14*
X169798000Y-157780000D02*
X169798000Y-178608000D01*
X169798000Y-178608000D02*
X126618000Y-178608000D01*
D13*
%TO.C,R5*%
X177080000Y-121730000D02*
X173920000Y-121730000D01*
X178920000Y-121730000D02*
G75*
G02*
X177080000Y-121730000I-920000J0D01*
G01*
X177080000Y-121730000D02*
G75*
G02*
X178920000Y-121730000I920000J0D01*
G01*
%TO.C,J7*%
X174170000Y-174710000D02*
X174170000Y-172110000D01*
X176830000Y-172110000D02*
X174170000Y-172110000D01*
X176830000Y-174710000D02*
X174170000Y-174710000D01*
X176830000Y-174710000D02*
X176830000Y-172110000D01*
X176830000Y-175980000D02*
X176830000Y-177310000D01*
X176830000Y-177310000D02*
X175500000Y-177310000D01*
%TO.C,J4*%
X140170000Y-101650000D02*
X140170000Y-104310000D01*
X150390000Y-101650000D02*
X140170000Y-101650000D01*
X150390000Y-101650000D02*
X150390000Y-104310000D01*
X150390000Y-104310000D02*
X140170000Y-104310000D01*
X152990000Y-102980000D02*
X152990000Y-104310000D01*
X152990000Y-104310000D02*
X151660000Y-104310000D01*
%TO.C,D1*%
X136030000Y-114760000D02*
X136030000Y-120200000D01*
X136030000Y-120200000D02*
X138970000Y-120200000D01*
X137500000Y-113740000D02*
X137500000Y-114760000D01*
X137500000Y-121220000D02*
X137500000Y-120200000D01*
X138970000Y-114760000D02*
X136030000Y-114760000D01*
X138970000Y-115540000D02*
X136030000Y-115540000D01*
X138970000Y-115660000D02*
X136030000Y-115660000D01*
X138970000Y-115780000D02*
X136030000Y-115780000D01*
X138970000Y-120200000D02*
X138970000Y-114760000D01*
%TO.C,Q1*%
X143934000Y-111150000D02*
X143934000Y-121390000D01*
X147065000Y-111150000D02*
X147065000Y-121390000D01*
X148575000Y-111150000D02*
X143934000Y-111150000D01*
X148575000Y-111150000D02*
X148575000Y-121390000D01*
X148575000Y-114420000D02*
X147065000Y-114420000D01*
X148575000Y-118121000D02*
X147065000Y-118121000D01*
X148575000Y-121390000D02*
X143934000Y-121390000D01*
%TO.C,R4*%
X145960000Y-139980000D02*
X146730000Y-139980000D01*
X146730000Y-138610000D02*
X146730000Y-141350000D01*
X146730000Y-141350000D02*
X153270000Y-141350000D01*
X153270000Y-138610000D02*
X146730000Y-138610000D01*
X153270000Y-141350000D02*
X153270000Y-138610000D01*
X154040000Y-139980000D02*
X153270000Y-139980000D01*
%TO.C,R2*%
X145710000Y-123230000D02*
X146480000Y-123230000D01*
X146480000Y-121860000D02*
X146480000Y-124600000D01*
X146480000Y-124600000D02*
X153020000Y-124600000D01*
X153020000Y-121860000D02*
X146480000Y-121860000D01*
X153020000Y-124600000D02*
X153020000Y-121860000D01*
X153790000Y-123230000D02*
X153020000Y-123230000D01*
D16*
%TO.C,K3*%
X120350000Y-155020400D02*
X120350000Y-144439600D01*
X122950000Y-143830000D02*
X130950000Y-143830000D01*
X123000000Y-143830000D02*
X130950000Y-143830000D01*
X130950000Y-143830000D02*
X131000000Y-143830000D01*
X131050000Y-155630000D02*
X122900000Y-155630000D01*
X135050000Y-155630000D02*
X133100000Y-155630000D01*
X135650000Y-144480000D02*
X135650000Y-148630000D01*
X135650000Y-150830000D02*
X135650000Y-154980000D01*
X120350000Y-144439600D02*
G75*
G02*
X120959600Y-143830000I609601J-1D01*
G01*
X120959600Y-155630000D02*
G75*
G02*
X120350000Y-155020400I1J609601D01*
G01*
X135040400Y-143830000D02*
G75*
G02*
X135650000Y-144439600I0J-609600D01*
G01*
X135050000Y-155630000D02*
G75*
G02*
X135040400Y-155630000I-4800J606306D01*
G01*
X135650000Y-155020400D02*
G75*
G02*
X135050000Y-155630003I-609710J30D01*
G01*
D13*
%TO.C,J9*%
X153950000Y-101650000D02*
X153950000Y-104310000D01*
X161630000Y-101650000D02*
X153950000Y-101650000D01*
X161630000Y-101650000D02*
X161630000Y-104310000D01*
X161630000Y-104310000D02*
X153950000Y-104310000D01*
X162900000Y-101650000D02*
X164230000Y-101650000D01*
X164230000Y-101650000D02*
X164230000Y-102980000D01*
D16*
%TO.C,K1*%
X120300000Y-122270400D02*
X120300000Y-111689600D01*
X122900000Y-111080000D02*
X130900000Y-111080000D01*
X122950000Y-111080000D02*
X130900000Y-111080000D01*
X130900000Y-111080000D02*
X130950000Y-111080000D01*
X131000000Y-122880000D02*
X122850000Y-122880000D01*
X135000000Y-122880000D02*
X133050000Y-122880000D01*
X135600000Y-111730000D02*
X135600000Y-115880000D01*
X135600000Y-118080000D02*
X135600000Y-122230000D01*
X120300000Y-111689600D02*
G75*
G02*
X120909600Y-111080000I609601J-1D01*
G01*
X120909600Y-122880000D02*
G75*
G02*
X120300000Y-122270400I1J609601D01*
G01*
X134990400Y-111080000D02*
G75*
G02*
X135600000Y-111689600I0J-609600D01*
G01*
X135000000Y-122880000D02*
G75*
G02*
X134990400Y-122880000I-4800J606306D01*
G01*
X135600000Y-122270400D02*
G75*
G02*
X135000000Y-122880003I-609710J30D01*
G01*
D13*
%TO.C,J11*%
X117145000Y-164060000D02*
X117145000Y-162730000D01*
X118475000Y-164060000D02*
X117145000Y-164060000D01*
X119745000Y-161400000D02*
X122345000Y-161400000D01*
X119745000Y-164060000D02*
X119745000Y-161400000D01*
X119745000Y-164060000D02*
X122345000Y-164060000D01*
X122345000Y-164060000D02*
X122345000Y-161400000D01*
%TO.C,D3*%
X153545000Y-113900000D02*
X150455000Y-113900000D01*
X152000462Y-119450000D02*
G75*
G02*
X150455170Y-113900000I-462J2990000D01*
G01*
X153544830Y-113900001D02*
G75*
G02*
X151999538Y-119449999I-1544830J-2559999D01*
G01*
X154500000Y-116460000D02*
G75*
G02*
X149500000Y-116460000I-2500000J0D01*
G01*
X149500000Y-116460000D02*
G75*
G02*
X154500000Y-116460000I2500000J0D01*
G01*
%TO.C,D7*%
X150205000Y-153045000D02*
X153295000Y-153045000D01*
X150205170Y-153044999D02*
G75*
G02*
X151750462Y-147495001I1544830J2559999D01*
G01*
X151749538Y-147495000D02*
G75*
G02*
X153294830Y-153045000I462J-2990000D01*
G01*
X154250000Y-150485000D02*
G75*
G02*
X149250000Y-150485000I-2500000J0D01*
G01*
X149250000Y-150485000D02*
G75*
G02*
X154250000Y-150485000I2500000J0D01*
G01*
%TO.C,J2*%
X115950000Y-177040000D02*
X115950000Y-179280000D01*
X115950000Y-179280000D02*
X117950000Y-179280000D01*
X116190000Y-168420000D02*
X116190000Y-179040000D01*
X116190000Y-168420000D02*
X126310000Y-168420000D01*
X116190000Y-171980000D02*
X126310000Y-171980000D01*
X116190000Y-172980000D02*
X126310000Y-172980000D01*
X116190000Y-176980000D02*
X126310000Y-176980000D01*
X116190000Y-179040000D02*
X126310000Y-179040000D01*
X122450000Y-176063000D02*
X122400000Y-176113000D01*
X122642000Y-176305000D02*
X122618000Y-176330000D01*
X124883000Y-173630000D02*
X124858000Y-173654000D01*
X125100000Y-173847000D02*
X125051000Y-173897000D01*
X126310000Y-168420000D02*
X126310000Y-179040000D01*
X117110795Y-175675516D02*
G75*
G02*
X117111001Y-174284000I1639200J695515D01*
G01*
X118054484Y-173340795D02*
G75*
G02*
X119446000Y-173341001I695515J-1639200D01*
G01*
X118780814Y-176760389D02*
G75*
G02*
X118054000Y-176618999I-30816J1780375D01*
G01*
X119445501Y-176618499D02*
G75*
G02*
X118750000Y-176760000I-695501J1638501D01*
G01*
X120389205Y-174284484D02*
G75*
G02*
X120389000Y-175676000I-1639205J-695516D01*
G01*
X125530000Y-174980000D02*
G75*
G02*
X121970000Y-174980000I-1780000J0D01*
G01*
X121970000Y-174980000D02*
G75*
G02*
X125530000Y-174980000I1780000J0D01*
G01*
%TO.C,D2*%
X136030000Y-131660000D02*
X136030000Y-137100000D01*
X136030000Y-137100000D02*
X138970000Y-137100000D01*
X137500000Y-130640000D02*
X137500000Y-131660000D01*
X137500000Y-138120000D02*
X137500000Y-137100000D01*
X138970000Y-131660000D02*
X136030000Y-131660000D01*
X138970000Y-132440000D02*
X136030000Y-132440000D01*
X138970000Y-132560000D02*
X136030000Y-132560000D01*
X138970000Y-132680000D02*
X136030000Y-132680000D01*
X138970000Y-137100000D02*
X138970000Y-131660000D01*
%TO.C,Q3*%
X143729000Y-128000000D02*
X143729000Y-138240000D01*
X146860000Y-128000000D02*
X146860000Y-138240000D01*
X148370000Y-128000000D02*
X143729000Y-128000000D01*
X148370000Y-128000000D02*
X148370000Y-138240000D01*
X148370000Y-131270000D02*
X146860000Y-131270000D01*
X148370000Y-134971000D02*
X146860000Y-134971000D01*
X148370000Y-138240000D02*
X143729000Y-138240000D01*
%TO.C,C3*%
X171749759Y-164641000D02*
X172379759Y-164641000D01*
X172064759Y-164326000D02*
X172064759Y-164956000D01*
X175250000Y-163250000D02*
X175250000Y-169710000D01*
X175290000Y-163250000D02*
X175290000Y-169710000D01*
X175330000Y-163250000D02*
X175330000Y-169710000D01*
X175370000Y-163252000D02*
X175370000Y-169708000D01*
X175410000Y-163253000D02*
X175410000Y-169707000D01*
X175450000Y-163256000D02*
X175450000Y-169704000D01*
X175490000Y-163258000D02*
X175490000Y-165440000D01*
X175490000Y-167520000D02*
X175490000Y-169702000D01*
X175530000Y-163262000D02*
X175530000Y-165440000D01*
X175530000Y-167520000D02*
X175530000Y-169698000D01*
X175570000Y-163265000D02*
X175570000Y-165440000D01*
X175570000Y-167520000D02*
X175570000Y-169695000D01*
X175610000Y-163269000D02*
X175610000Y-165440000D01*
X175610000Y-167520000D02*
X175610000Y-169691000D01*
X175650000Y-163274000D02*
X175650000Y-165440000D01*
X175650000Y-167520000D02*
X175650000Y-169686000D01*
X175690000Y-163279000D02*
X175690000Y-165440000D01*
X175690000Y-167520000D02*
X175690000Y-169681000D01*
X175730000Y-163285000D02*
X175730000Y-165440000D01*
X175730000Y-167520000D02*
X175730000Y-169675000D01*
X175770000Y-163291000D02*
X175770000Y-165440000D01*
X175770000Y-167520000D02*
X175770000Y-169669000D01*
X175810000Y-163298000D02*
X175810000Y-165440000D01*
X175810000Y-167520000D02*
X175810000Y-169662000D01*
X175850000Y-163305000D02*
X175850000Y-165440000D01*
X175850000Y-167520000D02*
X175850000Y-169655000D01*
X175890000Y-163313000D02*
X175890000Y-165440000D01*
X175890000Y-167520000D02*
X175890000Y-169647000D01*
X175930000Y-163321000D02*
X175930000Y-165440000D01*
X175930000Y-167520000D02*
X175930000Y-169639000D01*
X175971000Y-163330000D02*
X175971000Y-165440000D01*
X175971000Y-167520000D02*
X175971000Y-169630000D01*
X176011000Y-163339000D02*
X176011000Y-165440000D01*
X176011000Y-167520000D02*
X176011000Y-169621000D01*
X176051000Y-163349000D02*
X176051000Y-165440000D01*
X176051000Y-167520000D02*
X176051000Y-169611000D01*
X176091000Y-163359000D02*
X176091000Y-165440000D01*
X176091000Y-167520000D02*
X176091000Y-169601000D01*
X176131000Y-163370000D02*
X176131000Y-165440000D01*
X176131000Y-167520000D02*
X176131000Y-169590000D01*
X176171000Y-163382000D02*
X176171000Y-165440000D01*
X176171000Y-167520000D02*
X176171000Y-169578000D01*
X176211000Y-163394000D02*
X176211000Y-165440000D01*
X176211000Y-167520000D02*
X176211000Y-169566000D01*
X176251000Y-163406000D02*
X176251000Y-165440000D01*
X176251000Y-167520000D02*
X176251000Y-169554000D01*
X176291000Y-163419000D02*
X176291000Y-165440000D01*
X176291000Y-167520000D02*
X176291000Y-169541000D01*
X176331000Y-163433000D02*
X176331000Y-165440000D01*
X176331000Y-167520000D02*
X176331000Y-169527000D01*
X176371000Y-163447000D02*
X176371000Y-165440000D01*
X176371000Y-167520000D02*
X176371000Y-169513000D01*
X176411000Y-163462000D02*
X176411000Y-165440000D01*
X176411000Y-167520000D02*
X176411000Y-169498000D01*
X176451000Y-163478000D02*
X176451000Y-165440000D01*
X176451000Y-167520000D02*
X176451000Y-169482000D01*
X176491000Y-163494000D02*
X176491000Y-165440000D01*
X176491000Y-167520000D02*
X176491000Y-169466000D01*
X176531000Y-163510000D02*
X176531000Y-165440000D01*
X176531000Y-167520000D02*
X176531000Y-169450000D01*
X176571000Y-163528000D02*
X176571000Y-165440000D01*
X176571000Y-167520000D02*
X176571000Y-169432000D01*
X176611000Y-163546000D02*
X176611000Y-165440000D01*
X176611000Y-167520000D02*
X176611000Y-169414000D01*
X176651000Y-163564000D02*
X176651000Y-165440000D01*
X176651000Y-167520000D02*
X176651000Y-169396000D01*
X176691000Y-163584000D02*
X176691000Y-165440000D01*
X176691000Y-167520000D02*
X176691000Y-169376000D01*
X176731000Y-163604000D02*
X176731000Y-165440000D01*
X176731000Y-167520000D02*
X176731000Y-169356000D01*
X176771000Y-163624000D02*
X176771000Y-165440000D01*
X176771000Y-167520000D02*
X176771000Y-169336000D01*
X176811000Y-163646000D02*
X176811000Y-165440000D01*
X176811000Y-167520000D02*
X176811000Y-169314000D01*
X176851000Y-163668000D02*
X176851000Y-165440000D01*
X176851000Y-167520000D02*
X176851000Y-169292000D01*
X176891000Y-163690000D02*
X176891000Y-165440000D01*
X176891000Y-167520000D02*
X176891000Y-169270000D01*
X176931000Y-163714000D02*
X176931000Y-165440000D01*
X176931000Y-167520000D02*
X176931000Y-169246000D01*
X176971000Y-163738000D02*
X176971000Y-165440000D01*
X176971000Y-167520000D02*
X176971000Y-169222000D01*
X177011000Y-163764000D02*
X177011000Y-165440000D01*
X177011000Y-167520000D02*
X177011000Y-169196000D01*
X177051000Y-163790000D02*
X177051000Y-165440000D01*
X177051000Y-167520000D02*
X177051000Y-169170000D01*
X177091000Y-163816000D02*
X177091000Y-165440000D01*
X177091000Y-167520000D02*
X177091000Y-169144000D01*
X177131000Y-163844000D02*
X177131000Y-165440000D01*
X177131000Y-167520000D02*
X177131000Y-169116000D01*
X177171000Y-163873000D02*
X177171000Y-165440000D01*
X177171000Y-167520000D02*
X177171000Y-169087000D01*
X177211000Y-163902000D02*
X177211000Y-165440000D01*
X177211000Y-167520000D02*
X177211000Y-169058000D01*
X177251000Y-163932000D02*
X177251000Y-165440000D01*
X177251000Y-167520000D02*
X177251000Y-169028000D01*
X177291000Y-163964000D02*
X177291000Y-165440000D01*
X177291000Y-167520000D02*
X177291000Y-168996000D01*
X177331000Y-163996000D02*
X177331000Y-165440000D01*
X177331000Y-167520000D02*
X177331000Y-168964000D01*
X177371000Y-164030000D02*
X177371000Y-165440000D01*
X177371000Y-167520000D02*
X177371000Y-168930000D01*
X177411000Y-164064000D02*
X177411000Y-165440000D01*
X177411000Y-167520000D02*
X177411000Y-168896000D01*
X177451000Y-164100000D02*
X177451000Y-165440000D01*
X177451000Y-167520000D02*
X177451000Y-168860000D01*
X177491000Y-164137000D02*
X177491000Y-165440000D01*
X177491000Y-167520000D02*
X177491000Y-168823000D01*
X177531000Y-164175000D02*
X177531000Y-165440000D01*
X177531000Y-167520000D02*
X177531000Y-168785000D01*
X177571000Y-164215000D02*
X177571000Y-168745000D01*
X177611000Y-164256000D02*
X177611000Y-168704000D01*
X177651000Y-164298000D02*
X177651000Y-168662000D01*
X177691000Y-164343000D02*
X177691000Y-168617000D01*
X177731000Y-164388000D02*
X177731000Y-168572000D01*
X177771000Y-164436000D02*
X177771000Y-168524000D01*
X177811000Y-164485000D02*
X177811000Y-168475000D01*
X177851000Y-164536000D02*
X177851000Y-168424000D01*
X177891000Y-164590000D02*
X177891000Y-168370000D01*
X177931000Y-164646000D02*
X177931000Y-168314000D01*
X177971000Y-164704000D02*
X177971000Y-168256000D01*
X178011000Y-164766000D02*
X178011000Y-168194000D01*
X178051000Y-164830000D02*
X178051000Y-168130000D01*
X178091000Y-164899000D02*
X178091000Y-168061000D01*
X178131000Y-164971000D02*
X178131000Y-167989000D01*
X178171000Y-165048000D02*
X178171000Y-167912000D01*
X178211000Y-165130000D02*
X178211000Y-167830000D01*
X178251000Y-165218000D02*
X178251000Y-167742000D01*
X178291000Y-165315000D02*
X178291000Y-167645000D01*
X178331000Y-165421000D02*
X178331000Y-167539000D01*
X178371000Y-165540000D02*
X178371000Y-167420000D01*
X178411000Y-165678000D02*
X178411000Y-167282000D01*
X178451000Y-165847000D02*
X178451000Y-167113000D01*
X178491000Y-166078000D02*
X178491000Y-166882000D01*
X178520000Y-166480000D02*
G75*
G02*
X171980000Y-166480000I-3270000J0D01*
G01*
X171980000Y-166480000D02*
G75*
G02*
X178520000Y-166480000I3270000J0D01*
G01*
%TO.C,J10*%
X170420000Y-174735000D02*
X170420000Y-172135000D01*
X173080000Y-172135000D02*
X170420000Y-172135000D01*
X173080000Y-174735000D02*
X170420000Y-174735000D01*
X173080000Y-174735000D02*
X173080000Y-172135000D01*
X173080000Y-176005000D02*
X173080000Y-177335000D01*
X173080000Y-177335000D02*
X171750000Y-177335000D01*
%TO.C,Q2*%
X143629000Y-144900000D02*
X143629000Y-155140000D01*
X146760000Y-144900000D02*
X146760000Y-155140000D01*
X148270000Y-144900000D02*
X143629000Y-144900000D01*
X148270000Y-144900000D02*
X148270000Y-155140000D01*
X148270000Y-148170000D02*
X146760000Y-148170000D01*
X148270000Y-151871000D02*
X146760000Y-151871000D01*
X148270000Y-155140000D02*
X143629000Y-155140000D01*
%TO.C,J12*%
X108690000Y-143420000D02*
X119310000Y-143420000D01*
X108690000Y-158540000D02*
X108690000Y-143420000D01*
X108690000Y-158540000D02*
X119310000Y-158540000D01*
X112250000Y-158540000D02*
X112250000Y-143420000D01*
X113250000Y-158540000D02*
X113250000Y-143420000D01*
X113900000Y-144847000D02*
X113924000Y-144872000D01*
X113900000Y-149847000D02*
X113924000Y-149872000D01*
X114117000Y-144630000D02*
X114167000Y-144679000D01*
X114117000Y-149630000D02*
X114167000Y-149679000D01*
X116333000Y-147280000D02*
X116383000Y-147330000D01*
X116333000Y-152280000D02*
X116383000Y-152330000D01*
X116575000Y-147088000D02*
X116600000Y-147112000D01*
X116575000Y-152088000D02*
X116600000Y-152112000D01*
X117250000Y-158540000D02*
X117250000Y-143420000D01*
X117310000Y-158780000D02*
X119550000Y-158780000D01*
X119310000Y-158540000D02*
X119310000Y-143420000D01*
X119550000Y-158780000D02*
X119550000Y-156780000D01*
X113610795Y-156675516D02*
G75*
G02*
X113611001Y-155284000I1639200J695515D01*
G01*
X114554484Y-154340795D02*
G75*
G02*
X115946000Y-154341000I695516J-1639205D01*
G01*
X115945516Y-157619205D02*
G75*
G02*
X114554000Y-157618999I-695515J1639200D01*
G01*
X116888499Y-155284499D02*
G75*
G02*
X117030000Y-155980000I-1638501J-695501D01*
G01*
X117030389Y-155949186D02*
G75*
G02*
X116888999Y-156676000I-1780375J-30816D01*
G01*
X117030000Y-145980000D02*
G75*
G02*
X113470000Y-145980000I-1780000J0D01*
G01*
X113470000Y-145980000D02*
G75*
G02*
X117030000Y-145980000I1780000J0D01*
G01*
X117030000Y-150980000D02*
G75*
G02*
X113470000Y-150980000I-1780000J0D01*
G01*
X113470000Y-150980000D02*
G75*
G02*
X117030000Y-150980000I1780000J0D01*
G01*
%TO.C,R1*%
X140630000Y-113880000D02*
X140630000Y-120420000D01*
X140630000Y-120420000D02*
X143370000Y-120420000D01*
X142000000Y-113110000D02*
X142000000Y-113880000D01*
X142000000Y-121190000D02*
X142000000Y-120420000D01*
X143370000Y-113880000D02*
X140630000Y-113880000D01*
X143370000Y-120420000D02*
X143370000Y-113880000D01*
%TO.C,J8*%
X165280000Y-101650000D02*
X165280000Y-104310000D01*
X170420000Y-101650000D02*
X165280000Y-101650000D01*
X170420000Y-101650000D02*
X170420000Y-104310000D01*
X170420000Y-104310000D02*
X165280000Y-104310000D01*
X171690000Y-101650000D02*
X173020000Y-101650000D01*
X173020000Y-101650000D02*
X173020000Y-102980000D01*
D16*
%TO.C,K2*%
X120280000Y-139250400D02*
X120280000Y-128669600D01*
X122880000Y-128060000D02*
X130880000Y-128060000D01*
X122930000Y-128060000D02*
X130880000Y-128060000D01*
X130880000Y-128060000D02*
X130930000Y-128060000D01*
X130980000Y-139860000D02*
X122830000Y-139860000D01*
X134980000Y-139860000D02*
X133030000Y-139860000D01*
X135580000Y-128710000D02*
X135580000Y-132860000D01*
X135580000Y-135060000D02*
X135580000Y-139210000D01*
X120280000Y-128669600D02*
G75*
G02*
X120889600Y-128060000I609601J-1D01*
G01*
X120889600Y-139860000D02*
G75*
G02*
X120280000Y-139250400I1J609601D01*
G01*
X134970400Y-128060000D02*
G75*
G02*
X135580000Y-128669600I0J-609600D01*
G01*
X134980000Y-139860000D02*
G75*
G02*
X134970400Y-139860000I-4800J606306D01*
G01*
X135580000Y-139250400D02*
G75*
G02*
X134980000Y-139860003I-609710J30D01*
G01*
D13*
%TO.C,D5*%
X153625000Y-130915000D02*
X150535000Y-130915000D01*
X152080462Y-136465000D02*
G75*
G02*
X150535170Y-130915000I-462J2990000D01*
G01*
X153624830Y-130915001D02*
G75*
G02*
X152079538Y-136464999I-1544830J-2559999D01*
G01*
X154580000Y-133475000D02*
G75*
G02*
X149580000Y-133475000I-2500000J0D01*
G01*
X149580000Y-133475000D02*
G75*
G02*
X154580000Y-133475000I2500000J0D01*
G01*
%TO.C,R8*%
X140380000Y-147790000D02*
X140380000Y-154330000D01*
X140380000Y-154330000D02*
X143120000Y-154330000D01*
X141750000Y-147020000D02*
X141750000Y-147790000D01*
X141750000Y-155100000D02*
X141750000Y-154330000D01*
X143120000Y-147790000D02*
X140380000Y-147790000D01*
X143120000Y-154330000D02*
X143120000Y-147790000D01*
%TO.C,D4*%
X116010000Y-166230000D02*
X117030000Y-166230000D01*
X117030000Y-164760000D02*
X117030000Y-167700000D01*
X117030000Y-167700000D02*
X122470000Y-167700000D01*
X121450000Y-167700000D02*
X121450000Y-164760000D01*
X121570000Y-167700000D02*
X121570000Y-164760000D01*
X121690000Y-167700000D02*
X121690000Y-164760000D01*
X122470000Y-164760000D02*
X117030000Y-164760000D01*
X122470000Y-167700000D02*
X122470000Y-164760000D01*
X123490000Y-166230000D02*
X122470000Y-166230000D01*
%TO.C,R7*%
X146040000Y-156980000D02*
X146810000Y-156980000D01*
X146810000Y-155610000D02*
X146810000Y-158350000D01*
X146810000Y-158350000D02*
X153350000Y-158350000D01*
X153350000Y-155610000D02*
X146810000Y-155610000D01*
X153350000Y-158350000D02*
X153350000Y-155610000D01*
X154120000Y-156980000D02*
X153350000Y-156980000D01*
%TO.C,R4*%
X146730000Y-58870000D02*
X153270000Y-58870000D01*
X153270000Y-58870000D02*
X153270000Y-56130000D01*
X145960000Y-57500000D02*
X146730000Y-57500000D01*
X154040000Y-57500000D02*
X153270000Y-57500000D01*
X146730000Y-56130000D02*
X146730000Y-58870000D01*
X153270000Y-56130000D02*
X146730000Y-56130000D01*
%TO.C,J5*%
X160080000Y-49580000D02*
X158750000Y-49580000D01*
X160080000Y-48250000D02*
X160080000Y-49580000D01*
X157420000Y-46980000D02*
X157420000Y-44380000D01*
X160080000Y-46980000D02*
X157420000Y-46980000D01*
X160080000Y-46980000D02*
X160080000Y-44380000D01*
X160080000Y-44380000D02*
X157420000Y-44380000D01*
%TO.C,J1*%
X117100000Y-34500000D02*
G75*
G02*
X113540000Y-34500000I-1780000J0D01*
G01*
X113540000Y-34500000D02*
G75*
G02*
X117100000Y-34500000I1780000J0D01*
G01*
X117100000Y-29500000D02*
G75*
G02*
X113540000Y-29500000I-1780000J0D01*
G01*
X113540000Y-29500000D02*
G75*
G02*
X117100000Y-29500000I1780000J0D01*
G01*
X116015516Y-41139205D02*
G75*
G02*
X114624000Y-41138999I-695515J1639200D01*
G01*
X113680795Y-40195516D02*
G75*
G02*
X113681001Y-38804000I1639200J695515D01*
G01*
X117100389Y-39469186D02*
G75*
G02*
X116958999Y-40196000I-1780375J-30816D01*
G01*
X116958499Y-38804499D02*
G75*
G02*
X117100000Y-39500000I-1638501J-695501D01*
G01*
X114624484Y-37860795D02*
G75*
G02*
X116016000Y-37861000I695516J-1639205D01*
G01*
X117380000Y-42300000D02*
X119620000Y-42300000D01*
X119620000Y-42300000D02*
X119620000Y-40300000D01*
X108760000Y-42060000D02*
X119380000Y-42060000D01*
X108760000Y-42060000D02*
X108760000Y-26940000D01*
X112320000Y-42060000D02*
X112320000Y-26940000D01*
X113320000Y-42060000D02*
X113320000Y-26940000D01*
X117320000Y-42060000D02*
X117320000Y-26940000D01*
X119380000Y-42060000D02*
X119380000Y-26940000D01*
X116403000Y-35800000D02*
X116453000Y-35850000D01*
X116645000Y-35608000D02*
X116670000Y-35632000D01*
X113970000Y-33367000D02*
X113994000Y-33392000D01*
X114187000Y-33150000D02*
X114237000Y-33199000D01*
X116403000Y-30800000D02*
X116453000Y-30850000D01*
X116645000Y-30608000D02*
X116670000Y-30632000D01*
X113970000Y-28367000D02*
X113994000Y-28392000D01*
X114187000Y-28150000D02*
X114237000Y-28199000D01*
X108760000Y-26940000D02*
X119380000Y-26940000D01*
%TO.C,D6*%
X137500000Y-72160000D02*
X137500000Y-71140000D01*
X136030000Y-71140000D02*
X138970000Y-71140000D01*
X138970000Y-71140000D02*
X138970000Y-65700000D01*
X138970000Y-66720000D02*
X136030000Y-66720000D01*
X138970000Y-66600000D02*
X136030000Y-66600000D01*
X138970000Y-66480000D02*
X136030000Y-66480000D01*
X136030000Y-65700000D02*
X136030000Y-71140000D01*
X138970000Y-65700000D02*
X136030000Y-65700000D01*
X137500000Y-64680000D02*
X137500000Y-65700000D01*
%TO.C,J6*%
X172920000Y-48630000D02*
X175580000Y-48630000D01*
X172920000Y-43490000D02*
X172920000Y-48630000D01*
X172920000Y-43490000D02*
X175580000Y-43490000D01*
X175580000Y-43490000D02*
X175580000Y-48630000D01*
X172920000Y-42220000D02*
X172920000Y-40890000D01*
X172920000Y-40890000D02*
X174250000Y-40890000D01*
%TO.C,J3*%
X117130000Y-51540000D02*
G75*
G02*
X113570000Y-51540000I-1780000J0D01*
G01*
X113570000Y-51540000D02*
G75*
G02*
X117130000Y-51540000I1780000J0D01*
G01*
X117130000Y-46540000D02*
G75*
G02*
X113570000Y-46540000I-1780000J0D01*
G01*
X113570000Y-46540000D02*
G75*
G02*
X117130000Y-46540000I1780000J0D01*
G01*
X116045516Y-58179205D02*
G75*
G02*
X114654000Y-58178999I-695515J1639200D01*
G01*
X113710795Y-57235516D02*
G75*
G02*
X113711001Y-55844000I1639200J695515D01*
G01*
X117130389Y-56509186D02*
G75*
G02*
X116988999Y-57236000I-1780375J-30816D01*
G01*
X116988499Y-55844499D02*
G75*
G02*
X117130000Y-56540000I-1638501J-695501D01*
G01*
X114654484Y-54900795D02*
G75*
G02*
X116046000Y-54901000I695516J-1639205D01*
G01*
X117410000Y-59340000D02*
X119650000Y-59340000D01*
X119650000Y-59340000D02*
X119650000Y-57340000D01*
X108790000Y-59100000D02*
X119410000Y-59100000D01*
X108790000Y-59100000D02*
X108790000Y-43980000D01*
X112350000Y-59100000D02*
X112350000Y-43980000D01*
X113350000Y-59100000D02*
X113350000Y-43980000D01*
X117350000Y-59100000D02*
X117350000Y-43980000D01*
X119410000Y-59100000D02*
X119410000Y-43980000D01*
X116433000Y-52840000D02*
X116483000Y-52890000D01*
X116675000Y-52648000D02*
X116700000Y-52672000D01*
X114000000Y-50407000D02*
X114024000Y-50432000D01*
X114217000Y-50190000D02*
X114267000Y-50239000D01*
X116433000Y-47840000D02*
X116483000Y-47890000D01*
X116675000Y-47648000D02*
X116700000Y-47672000D01*
X114000000Y-45407000D02*
X114024000Y-45432000D01*
X114217000Y-45190000D02*
X114267000Y-45239000D01*
X108790000Y-43980000D02*
X119410000Y-43980000D01*
%TO.C,R3*%
X141830000Y-55630000D02*
X141830000Y-54860000D01*
X140460000Y-54860000D02*
X143200000Y-54860000D01*
X143200000Y-54860000D02*
X143200000Y-48320000D01*
X140460000Y-48320000D02*
X140460000Y-54860000D01*
X143200000Y-48320000D02*
X140460000Y-48320000D01*
X141830000Y-47550000D02*
X141830000Y-48320000D01*
%TO.C,Q1*%
X148575000Y-38910000D02*
X143934000Y-38910000D01*
X148575000Y-35641000D02*
X147065000Y-35641000D01*
X148575000Y-31940000D02*
X147065000Y-31940000D01*
X143934000Y-28670000D02*
X143934000Y-38910000D01*
X147065000Y-28670000D02*
X147065000Y-38910000D01*
X148575000Y-28670000D02*
X148575000Y-38910000D01*
X148575000Y-28670000D02*
X143934000Y-28670000D01*
%TO.C,D1*%
X137500000Y-38740000D02*
X137500000Y-37720000D01*
X136030000Y-37720000D02*
X138970000Y-37720000D01*
X138970000Y-37720000D02*
X138970000Y-32280000D01*
X138970000Y-33300000D02*
X136030000Y-33300000D01*
X138970000Y-33180000D02*
X136030000Y-33180000D01*
X138970000Y-33060000D02*
X136030000Y-33060000D01*
X136030000Y-32280000D02*
X136030000Y-37720000D01*
X138970000Y-32280000D02*
X136030000Y-32280000D01*
X137500000Y-31260000D02*
X137500000Y-32280000D01*
%TO.C,J4*%
X150390000Y-19170000D02*
X140170000Y-19170000D01*
X150390000Y-19170000D02*
X150390000Y-21830000D01*
X140170000Y-19170000D02*
X140170000Y-21830000D01*
X152990000Y-20500000D02*
X152990000Y-21830000D01*
X152990000Y-21830000D02*
X151660000Y-21830000D01*
X150390000Y-21830000D02*
X140170000Y-21830000D01*
%TO.C,J7*%
X176830000Y-94830000D02*
X175500000Y-94830000D01*
X176830000Y-93500000D02*
X176830000Y-94830000D01*
X174170000Y-92230000D02*
X174170000Y-89630000D01*
X176830000Y-92230000D02*
X174170000Y-92230000D01*
X176830000Y-92230000D02*
X176830000Y-89630000D01*
X176830000Y-89630000D02*
X174170000Y-89630000D01*
%TO.C,R5*%
X178920000Y-39250000D02*
G75*
G02*
X177080000Y-39250000I-920000J0D01*
G01*
X177080000Y-39250000D02*
G75*
G02*
X178920000Y-39250000I920000J0D01*
G01*
X177080000Y-39250000D02*
X173920000Y-39250000D01*
D14*
%TO.C,M1*%
X126618000Y-96128000D02*
X126618000Y-75300000D01*
X169798000Y-96128000D02*
X126618000Y-96128000D01*
D15*
X128523000Y-92699000D02*
X128523000Y-91429000D01*
X167893000Y-92699000D02*
X167893000Y-91429000D01*
X127888000Y-79364000D02*
X129158000Y-79364000D01*
X167258000Y-79364000D02*
X168528000Y-79364000D01*
X128523000Y-78729000D02*
X128523000Y-79999000D01*
X167893000Y-78729000D02*
X167893000Y-79999000D01*
D14*
X126618000Y-75300000D02*
X169798000Y-75300000D01*
X169798000Y-75300000D02*
X169798000Y-96128000D01*
D13*
%TO.C,R1*%
X142000000Y-38710000D02*
X142000000Y-37940000D01*
X140630000Y-37940000D02*
X143370000Y-37940000D01*
X143370000Y-37940000D02*
X143370000Y-31400000D01*
X140630000Y-31400000D02*
X140630000Y-37940000D01*
X143370000Y-31400000D02*
X140630000Y-31400000D01*
X142000000Y-30630000D02*
X142000000Y-31400000D01*
%TO.C,J12*%
X117030000Y-68500000D02*
G75*
G02*
X113470000Y-68500000I-1780000J0D01*
G01*
X113470000Y-68500000D02*
G75*
G02*
X117030000Y-68500000I1780000J0D01*
G01*
X117030000Y-63500000D02*
G75*
G02*
X113470000Y-63500000I-1780000J0D01*
G01*
X113470000Y-63500000D02*
G75*
G02*
X117030000Y-63500000I1780000J0D01*
G01*
X115945516Y-75139205D02*
G75*
G02*
X114554000Y-75138999I-695515J1639200D01*
G01*
X113610795Y-74195516D02*
G75*
G02*
X113611001Y-72804000I1639200J695515D01*
G01*
X117030389Y-73469186D02*
G75*
G02*
X116888999Y-74196000I-1780375J-30816D01*
G01*
X116888499Y-72804499D02*
G75*
G02*
X117030000Y-73500000I-1638501J-695501D01*
G01*
X114554484Y-71860795D02*
G75*
G02*
X115946000Y-71861000I695516J-1639205D01*
G01*
X117310000Y-76300000D02*
X119550000Y-76300000D01*
X119550000Y-76300000D02*
X119550000Y-74300000D01*
X108690000Y-76060000D02*
X119310000Y-76060000D01*
X108690000Y-76060000D02*
X108690000Y-60940000D01*
X112250000Y-76060000D02*
X112250000Y-60940000D01*
X113250000Y-76060000D02*
X113250000Y-60940000D01*
X117250000Y-76060000D02*
X117250000Y-60940000D01*
X119310000Y-76060000D02*
X119310000Y-60940000D01*
X116333000Y-69800000D02*
X116383000Y-69850000D01*
X116575000Y-69608000D02*
X116600000Y-69632000D01*
X113900000Y-67367000D02*
X113924000Y-67392000D01*
X114117000Y-67150000D02*
X114167000Y-67199000D01*
X116333000Y-64800000D02*
X116383000Y-64850000D01*
X116575000Y-64608000D02*
X116600000Y-64632000D01*
X113900000Y-62367000D02*
X113924000Y-62392000D01*
X114117000Y-62150000D02*
X114167000Y-62199000D01*
X108690000Y-60940000D02*
X119310000Y-60940000D01*
%TO.C,Q2*%
X148270000Y-72660000D02*
X143629000Y-72660000D01*
X148270000Y-69391000D02*
X146760000Y-69391000D01*
X148270000Y-65690000D02*
X146760000Y-65690000D01*
X143629000Y-62420000D02*
X143629000Y-72660000D01*
X146760000Y-62420000D02*
X146760000Y-72660000D01*
X148270000Y-62420000D02*
X148270000Y-72660000D01*
X148270000Y-62420000D02*
X143629000Y-62420000D01*
%TO.C,R7*%
X146810000Y-75870000D02*
X153350000Y-75870000D01*
X153350000Y-75870000D02*
X153350000Y-73130000D01*
X146040000Y-74500000D02*
X146810000Y-74500000D01*
X154120000Y-74500000D02*
X153350000Y-74500000D01*
X146810000Y-73130000D02*
X146810000Y-75870000D01*
X153350000Y-73130000D02*
X146810000Y-73130000D01*
D16*
%TO.C,K2*%
X120889600Y-57380000D02*
G75*
G02*
X120280000Y-56770400I1J609601D01*
G01*
X134980000Y-57380000D02*
G75*
G02*
X134970400Y-57380000I-4800J606306D01*
G01*
X135580000Y-56770400D02*
G75*
G02*
X134980000Y-57380003I-609710J30D01*
G01*
X120280000Y-46189600D02*
G75*
G02*
X120889600Y-45580000I609601J-1D01*
G01*
X134970400Y-45580000D02*
G75*
G02*
X135580000Y-46189600I0J-609600D01*
G01*
X130980000Y-57380000D02*
X122830000Y-57380000D01*
X134980000Y-57380000D02*
X133030000Y-57380000D01*
X120280000Y-56770400D02*
X120280000Y-46189600D01*
X135580000Y-52580000D02*
X135580000Y-56730000D01*
X135580000Y-46230000D02*
X135580000Y-50380000D01*
X122880000Y-45580000D02*
X130880000Y-45580000D01*
X122930000Y-45580000D02*
X130880000Y-45580000D01*
X130880000Y-45580000D02*
X130930000Y-45580000D01*
D13*
%TO.C,J10*%
X173080000Y-94855000D02*
X171750000Y-94855000D01*
X173080000Y-93525000D02*
X173080000Y-94855000D01*
X170420000Y-92255000D02*
X170420000Y-89655000D01*
X173080000Y-92255000D02*
X170420000Y-92255000D01*
X173080000Y-92255000D02*
X173080000Y-89655000D01*
X173080000Y-89655000D02*
X170420000Y-89655000D01*
%TO.C,Q3*%
X148370000Y-55760000D02*
X143729000Y-55760000D01*
X148370000Y-52491000D02*
X146860000Y-52491000D01*
X148370000Y-48790000D02*
X146860000Y-48790000D01*
X143729000Y-45520000D02*
X143729000Y-55760000D01*
X146860000Y-45520000D02*
X146860000Y-55760000D01*
X148370000Y-45520000D02*
X148370000Y-55760000D01*
X148370000Y-45520000D02*
X143729000Y-45520000D01*
%TO.C,C3*%
X178520000Y-84000000D02*
G75*
G02*
X171980000Y-84000000I-3270000J0D01*
G01*
X171980000Y-84000000D02*
G75*
G02*
X178520000Y-84000000I3270000J0D01*
G01*
X175490000Y-85040000D02*
X175490000Y-87222000D01*
X175530000Y-85040000D02*
X175530000Y-87218000D01*
X175570000Y-85040000D02*
X175570000Y-87215000D01*
X175610000Y-85040000D02*
X175610000Y-87211000D01*
X175650000Y-85040000D02*
X175650000Y-87206000D01*
X175690000Y-85040000D02*
X175690000Y-87201000D01*
X175730000Y-85040000D02*
X175730000Y-87195000D01*
X175770000Y-85040000D02*
X175770000Y-87189000D01*
X175810000Y-85040000D02*
X175810000Y-87182000D01*
X175850000Y-85040000D02*
X175850000Y-87175000D01*
X175890000Y-85040000D02*
X175890000Y-87167000D01*
X175930000Y-85040000D02*
X175930000Y-87159000D01*
X175971000Y-85040000D02*
X175971000Y-87150000D01*
X176011000Y-85040000D02*
X176011000Y-87141000D01*
X176051000Y-85040000D02*
X176051000Y-87131000D01*
X176091000Y-85040000D02*
X176091000Y-87121000D01*
X176131000Y-85040000D02*
X176131000Y-87110000D01*
X176171000Y-85040000D02*
X176171000Y-87098000D01*
X176211000Y-85040000D02*
X176211000Y-87086000D01*
X176251000Y-85040000D02*
X176251000Y-87074000D01*
X176291000Y-85040000D02*
X176291000Y-87061000D01*
X176331000Y-85040000D02*
X176331000Y-87047000D01*
X176371000Y-85040000D02*
X176371000Y-87033000D01*
X176411000Y-85040000D02*
X176411000Y-87018000D01*
X176451000Y-85040000D02*
X176451000Y-87002000D01*
X176491000Y-85040000D02*
X176491000Y-86986000D01*
X176531000Y-85040000D02*
X176531000Y-86970000D01*
X176571000Y-85040000D02*
X176571000Y-86952000D01*
X176611000Y-85040000D02*
X176611000Y-86934000D01*
X176651000Y-85040000D02*
X176651000Y-86916000D01*
X176691000Y-85040000D02*
X176691000Y-86896000D01*
X176731000Y-85040000D02*
X176731000Y-86876000D01*
X176771000Y-85040000D02*
X176771000Y-86856000D01*
X176811000Y-85040000D02*
X176811000Y-86834000D01*
X176851000Y-85040000D02*
X176851000Y-86812000D01*
X176891000Y-85040000D02*
X176891000Y-86790000D01*
X176931000Y-85040000D02*
X176931000Y-86766000D01*
X176971000Y-85040000D02*
X176971000Y-86742000D01*
X177011000Y-85040000D02*
X177011000Y-86716000D01*
X177051000Y-85040000D02*
X177051000Y-86690000D01*
X177091000Y-85040000D02*
X177091000Y-86664000D01*
X177131000Y-85040000D02*
X177131000Y-86636000D01*
X177171000Y-85040000D02*
X177171000Y-86607000D01*
X177211000Y-85040000D02*
X177211000Y-86578000D01*
X177251000Y-85040000D02*
X177251000Y-86548000D01*
X177291000Y-85040000D02*
X177291000Y-86516000D01*
X177331000Y-85040000D02*
X177331000Y-86484000D01*
X177371000Y-85040000D02*
X177371000Y-86450000D01*
X177411000Y-85040000D02*
X177411000Y-86416000D01*
X177451000Y-85040000D02*
X177451000Y-86380000D01*
X177491000Y-85040000D02*
X177491000Y-86343000D01*
X177531000Y-85040000D02*
X177531000Y-86305000D01*
X178491000Y-83598000D02*
X178491000Y-84402000D01*
X178451000Y-83367000D02*
X178451000Y-84633000D01*
X178411000Y-83198000D02*
X178411000Y-84802000D01*
X178371000Y-83060000D02*
X178371000Y-84940000D01*
X178331000Y-82941000D02*
X178331000Y-85059000D01*
X178291000Y-82835000D02*
X178291000Y-85165000D01*
X178251000Y-82738000D02*
X178251000Y-85262000D01*
X178211000Y-82650000D02*
X178211000Y-85350000D01*
X178171000Y-82568000D02*
X178171000Y-85432000D01*
X178131000Y-82491000D02*
X178131000Y-85509000D01*
X178091000Y-82419000D02*
X178091000Y-85581000D01*
X178051000Y-82350000D02*
X178051000Y-85650000D01*
X178011000Y-82286000D02*
X178011000Y-85714000D01*
X177971000Y-82224000D02*
X177971000Y-85776000D01*
X177931000Y-82166000D02*
X177931000Y-85834000D01*
X171749759Y-82161000D02*
X172379759Y-82161000D01*
X177891000Y-82110000D02*
X177891000Y-85890000D01*
X177851000Y-82056000D02*
X177851000Y-85944000D01*
X177811000Y-82005000D02*
X177811000Y-85995000D01*
X177771000Y-81956000D02*
X177771000Y-86044000D01*
X177731000Y-81908000D02*
X177731000Y-86092000D01*
X177691000Y-81863000D02*
X177691000Y-86137000D01*
X172064759Y-81846000D02*
X172064759Y-82476000D01*
X177651000Y-81818000D02*
X177651000Y-86182000D01*
X177611000Y-81776000D02*
X177611000Y-86224000D01*
X177571000Y-81735000D02*
X177571000Y-86265000D01*
X177531000Y-81695000D02*
X177531000Y-82960000D01*
X177491000Y-81657000D02*
X177491000Y-82960000D01*
X177451000Y-81620000D02*
X177451000Y-82960000D01*
X177411000Y-81584000D02*
X177411000Y-82960000D01*
X177371000Y-81550000D02*
X177371000Y-82960000D01*
X177331000Y-81516000D02*
X177331000Y-82960000D01*
X177291000Y-81484000D02*
X177291000Y-82960000D01*
X177251000Y-81452000D02*
X177251000Y-82960000D01*
X177211000Y-81422000D02*
X177211000Y-82960000D01*
X177171000Y-81393000D02*
X177171000Y-82960000D01*
X177131000Y-81364000D02*
X177131000Y-82960000D01*
X177091000Y-81336000D02*
X177091000Y-82960000D01*
X177051000Y-81310000D02*
X177051000Y-82960000D01*
X177011000Y-81284000D02*
X177011000Y-82960000D01*
X176971000Y-81258000D02*
X176971000Y-82960000D01*
X176931000Y-81234000D02*
X176931000Y-82960000D01*
X176891000Y-81210000D02*
X176891000Y-82960000D01*
X176851000Y-81188000D02*
X176851000Y-82960000D01*
X176811000Y-81166000D02*
X176811000Y-82960000D01*
X176771000Y-81144000D02*
X176771000Y-82960000D01*
X176731000Y-81124000D02*
X176731000Y-82960000D01*
X176691000Y-81104000D02*
X176691000Y-82960000D01*
X176651000Y-81084000D02*
X176651000Y-82960000D01*
X176611000Y-81066000D02*
X176611000Y-82960000D01*
X176571000Y-81048000D02*
X176571000Y-82960000D01*
X176531000Y-81030000D02*
X176531000Y-82960000D01*
X176491000Y-81014000D02*
X176491000Y-82960000D01*
X176451000Y-80998000D02*
X176451000Y-82960000D01*
X176411000Y-80982000D02*
X176411000Y-82960000D01*
X176371000Y-80967000D02*
X176371000Y-82960000D01*
X176331000Y-80953000D02*
X176331000Y-82960000D01*
X176291000Y-80939000D02*
X176291000Y-82960000D01*
X176251000Y-80926000D02*
X176251000Y-82960000D01*
X176211000Y-80914000D02*
X176211000Y-82960000D01*
X176171000Y-80902000D02*
X176171000Y-82960000D01*
X176131000Y-80890000D02*
X176131000Y-82960000D01*
X176091000Y-80879000D02*
X176091000Y-82960000D01*
X176051000Y-80869000D02*
X176051000Y-82960000D01*
X176011000Y-80859000D02*
X176011000Y-82960000D01*
X175971000Y-80850000D02*
X175971000Y-82960000D01*
X175930000Y-80841000D02*
X175930000Y-82960000D01*
X175890000Y-80833000D02*
X175890000Y-82960000D01*
X175850000Y-80825000D02*
X175850000Y-82960000D01*
X175810000Y-80818000D02*
X175810000Y-82960000D01*
X175770000Y-80811000D02*
X175770000Y-82960000D01*
X175730000Y-80805000D02*
X175730000Y-82960000D01*
X175690000Y-80799000D02*
X175690000Y-82960000D01*
X175650000Y-80794000D02*
X175650000Y-82960000D01*
X175610000Y-80789000D02*
X175610000Y-82960000D01*
X175570000Y-80785000D02*
X175570000Y-82960000D01*
X175530000Y-80782000D02*
X175530000Y-82960000D01*
X175490000Y-80778000D02*
X175490000Y-82960000D01*
X175450000Y-80776000D02*
X175450000Y-87224000D01*
X175410000Y-80773000D02*
X175410000Y-87227000D01*
X175370000Y-80772000D02*
X175370000Y-87228000D01*
X175250000Y-80770000D02*
X175250000Y-87230000D01*
X175290000Y-80770000D02*
X175290000Y-87230000D01*
X175330000Y-80770000D02*
X175330000Y-87230000D01*
%TO.C,J8*%
X173020000Y-19170000D02*
X173020000Y-20500000D01*
X171690000Y-19170000D02*
X173020000Y-19170000D01*
X170420000Y-19170000D02*
X165280000Y-19170000D01*
X170420000Y-19170000D02*
X170420000Y-21830000D01*
X165280000Y-19170000D02*
X165280000Y-21830000D01*
X170420000Y-21830000D02*
X165280000Y-21830000D01*
%TO.C,D2*%
X137500000Y-55640000D02*
X137500000Y-54620000D01*
X136030000Y-54620000D02*
X138970000Y-54620000D01*
X138970000Y-54620000D02*
X138970000Y-49180000D01*
X138970000Y-50200000D02*
X136030000Y-50200000D01*
X138970000Y-50080000D02*
X136030000Y-50080000D01*
X138970000Y-49960000D02*
X136030000Y-49960000D01*
X136030000Y-49180000D02*
X136030000Y-54620000D01*
X138970000Y-49180000D02*
X136030000Y-49180000D01*
X137500000Y-48160000D02*
X137500000Y-49180000D01*
%TO.C,D4*%
X117030000Y-85220000D02*
X122470000Y-85220000D01*
X121450000Y-85220000D02*
X121450000Y-82280000D01*
X121570000Y-85220000D02*
X121570000Y-82280000D01*
X121690000Y-85220000D02*
X121690000Y-82280000D01*
X122470000Y-85220000D02*
X122470000Y-82280000D01*
X116010000Y-83750000D02*
X117030000Y-83750000D01*
X123490000Y-83750000D02*
X122470000Y-83750000D01*
X117030000Y-82280000D02*
X117030000Y-85220000D01*
X122470000Y-82280000D02*
X117030000Y-82280000D01*
%TO.C,J2*%
X125530000Y-92500000D02*
G75*
G02*
X121970000Y-92500000I-1780000J0D01*
G01*
X121970000Y-92500000D02*
G75*
G02*
X125530000Y-92500000I1780000J0D01*
G01*
X118780814Y-94280389D02*
G75*
G02*
X118054000Y-94138999I-30816J1780375D01*
G01*
X119445501Y-94138499D02*
G75*
G02*
X118750000Y-94280000I-695501J1638501D01*
G01*
X117110795Y-93195516D02*
G75*
G02*
X117111001Y-91804000I1639200J695515D01*
G01*
X120389205Y-91804484D02*
G75*
G02*
X120389000Y-93196000I-1639205J-695516D01*
G01*
X118054484Y-90860795D02*
G75*
G02*
X119446000Y-90861001I695515J-1639200D01*
G01*
X115950000Y-96800000D02*
X117950000Y-96800000D01*
X116190000Y-96560000D02*
X126310000Y-96560000D01*
X115950000Y-94560000D02*
X115950000Y-96800000D01*
X116190000Y-94500000D02*
X126310000Y-94500000D01*
X122642000Y-93825000D02*
X122618000Y-93850000D01*
X122450000Y-93583000D02*
X122400000Y-93633000D01*
X125100000Y-91367000D02*
X125051000Y-91417000D01*
X124883000Y-91150000D02*
X124858000Y-91174000D01*
X116190000Y-90500000D02*
X126310000Y-90500000D01*
X116190000Y-89500000D02*
X126310000Y-89500000D01*
X116190000Y-85940000D02*
X116190000Y-96560000D01*
X116190000Y-85940000D02*
X126310000Y-85940000D01*
X126310000Y-85940000D02*
X126310000Y-96560000D01*
%TO.C,R8*%
X141750000Y-72620000D02*
X141750000Y-71850000D01*
X140380000Y-71850000D02*
X143120000Y-71850000D01*
X143120000Y-71850000D02*
X143120000Y-65310000D01*
X140380000Y-65310000D02*
X140380000Y-71850000D01*
X143120000Y-65310000D02*
X140380000Y-65310000D01*
X141750000Y-64540000D02*
X141750000Y-65310000D01*
%TO.C,D7*%
X154250000Y-68005000D02*
G75*
G02*
X149250000Y-68005000I-2500000J0D01*
G01*
X149250000Y-68005000D02*
G75*
G02*
X154250000Y-68005000I2500000J0D01*
G01*
X150205170Y-70564999D02*
G75*
G02*
X151750462Y-65015001I1544830J2559999D01*
G01*
X151749538Y-65015000D02*
G75*
G02*
X153294830Y-70565000I462J-2990000D01*
G01*
X150205000Y-70565000D02*
X153295000Y-70565000D01*
%TO.C,D5*%
X154580000Y-50995000D02*
G75*
G02*
X149580000Y-50995000I-2500000J0D01*
G01*
X149580000Y-50995000D02*
G75*
G02*
X154580000Y-50995000I2500000J0D01*
G01*
X152080462Y-53985000D02*
G75*
G02*
X150535170Y-48435000I-462J2990000D01*
G01*
X153624830Y-48435001D02*
G75*
G02*
X152079538Y-53984999I-1544830J-2559999D01*
G01*
X153625000Y-48435000D02*
X150535000Y-48435000D01*
%TO.C,D3*%
X154500000Y-33980000D02*
G75*
G02*
X149500000Y-33980000I-2500000J0D01*
G01*
X149500000Y-33980000D02*
G75*
G02*
X154500000Y-33980000I2500000J0D01*
G01*
X152000462Y-36970000D02*
G75*
G02*
X150455170Y-31420000I-462J2990000D01*
G01*
X153544830Y-31420001D02*
G75*
G02*
X151999538Y-36969999I-1544830J-2559999D01*
G01*
X153545000Y-31420000D02*
X150455000Y-31420000D01*
%TO.C,J11*%
X117145000Y-81580000D02*
X117145000Y-80250000D01*
X118475000Y-81580000D02*
X117145000Y-81580000D01*
X119745000Y-81580000D02*
X122345000Y-81580000D01*
X119745000Y-81580000D02*
X119745000Y-78920000D01*
X122345000Y-81580000D02*
X122345000Y-78920000D01*
X119745000Y-78920000D02*
X122345000Y-78920000D01*
%TO.C,J9*%
X164230000Y-19170000D02*
X164230000Y-20500000D01*
X162900000Y-19170000D02*
X164230000Y-19170000D01*
X161630000Y-19170000D02*
X153950000Y-19170000D01*
X161630000Y-19170000D02*
X161630000Y-21830000D01*
X153950000Y-19170000D02*
X153950000Y-21830000D01*
X161630000Y-21830000D02*
X153950000Y-21830000D01*
%TO.C,R2*%
X146480000Y-42120000D02*
X153020000Y-42120000D01*
X153020000Y-42120000D02*
X153020000Y-39380000D01*
X145710000Y-40750000D02*
X146480000Y-40750000D01*
X153790000Y-40750000D02*
X153020000Y-40750000D01*
X146480000Y-39380000D02*
X146480000Y-42120000D01*
X153020000Y-39380000D02*
X146480000Y-39380000D01*
D16*
%TO.C,K3*%
X120959600Y-73150000D02*
G75*
G02*
X120350000Y-72540400I1J609601D01*
G01*
X135050000Y-73150000D02*
G75*
G02*
X135040400Y-73150000I-4800J606306D01*
G01*
X135650000Y-72540400D02*
G75*
G02*
X135050000Y-73150003I-609710J30D01*
G01*
X120350000Y-61959600D02*
G75*
G02*
X120959600Y-61350000I609601J-1D01*
G01*
X135040400Y-61350000D02*
G75*
G02*
X135650000Y-61959600I0J-609600D01*
G01*
X131050000Y-73150000D02*
X122900000Y-73150000D01*
X135050000Y-73150000D02*
X133100000Y-73150000D01*
X120350000Y-72540400D02*
X120350000Y-61959600D01*
X135650000Y-68350000D02*
X135650000Y-72500000D01*
X135650000Y-62000000D02*
X135650000Y-66150000D01*
X122950000Y-61350000D02*
X130950000Y-61350000D01*
X123000000Y-61350000D02*
X130950000Y-61350000D01*
X130950000Y-61350000D02*
X131000000Y-61350000D01*
%TO.C,K1*%
X120909600Y-40400000D02*
G75*
G02*
X120300000Y-39790400I1J609601D01*
G01*
X135000000Y-40400000D02*
G75*
G02*
X134990400Y-40400000I-4800J606306D01*
G01*
X135600000Y-39790400D02*
G75*
G02*
X135000000Y-40400003I-609710J30D01*
G01*
X120300000Y-29209600D02*
G75*
G02*
X120909600Y-28600000I609601J-1D01*
G01*
X134990400Y-28600000D02*
G75*
G02*
X135600000Y-29209600I0J-609600D01*
G01*
X131000000Y-40400000D02*
X122850000Y-40400000D01*
X135000000Y-40400000D02*
X133050000Y-40400000D01*
X120300000Y-39790400D02*
X120300000Y-29209600D01*
X135600000Y-35600000D02*
X135600000Y-39750000D01*
X135600000Y-29250000D02*
X135600000Y-33400000D01*
X122900000Y-28600000D02*
X130900000Y-28600000D01*
X122950000Y-28600000D02*
X130900000Y-28600000D01*
X130900000Y-28600000D02*
X130950000Y-28600000D01*
%TD*%
M02*
