%TF.GenerationSoftware,KiCad,Pcbnew,8.0.1*%
%TF.CreationDate,2024-09-28T14:19:56-03:00*%
%TF.ProjectId,AdeJiga,4164654a-6967-4612-9e6b-696361645f70,rev?*%
%TF.SameCoordinates,Original*%
%TF.FileFunction,Soldermask,Top*%
%TF.FilePolarity,Negative*%
%FSLAX46Y46*%
G04 Gerber Fmt 4.6, Leading zero omitted, Abs format (unit mm)*
G04 Created by KiCad (PCBNEW 8.0.1) date 2024-09-28 14:19:56*
%MOMM*%
%LPD*%
G01*
G04 APERTURE LIST*
%ADD10C,1.600000*%
%ADD11O,1.600000X1.600000*%
%ADD12R,1.700000X1.700000*%
%ADD13C,2.000000*%
%ADD14C,2.800000*%
%ADD15R,1.905000X2.000000*%
%ADD16O,1.905000X2.000000*%
%ADD17R,2.200000X2.200000*%
%ADD18O,2.200000X2.200000*%
%ADD19C,3.200000*%
%ADD20C,1.400000*%
%ADD21O,1.400000X1.400000*%
%ADD22R,2.500000X2.500000*%
%ADD23C,2.453200*%
%ADD24C,2.303200*%
%ADD25R,1.600000X1.600000*%
%ADD26R,2.800000X2.800000*%
%ADD27R,1.800000X1.800000*%
%ADD28C,1.800000*%
G04 APERTURE END LIST*
D10*
%TO.C,R4*%
X135000000Y-83360000D03*
D11*
X135000000Y-73200000D03*
%TD*%
D12*
%TO.C,J5*%
X145100000Y-50875000D03*
D13*
X145100000Y-48335000D03*
%TD*%
D14*
%TO.C,J1*%
X150040000Y-87600000D03*
X145040000Y-87600000D03*
X140040000Y-87600000D03*
%TD*%
D12*
%TO.C,J6*%
X138720000Y-34250000D03*
D13*
X141260000Y-34250000D03*
X143800000Y-34250000D03*
%TD*%
D14*
%TO.C,J3*%
X166400000Y-87600000D03*
X161400000Y-87600000D03*
X156400000Y-87600000D03*
%TD*%
D10*
%TO.C,R3*%
X155300000Y-56000000D03*
D11*
X165460000Y-56000000D03*
%TD*%
D15*
%TO.C,Q1*%
X150000000Y-60250000D03*
D16*
X147460000Y-60250000D03*
X144920000Y-60250000D03*
%TD*%
D17*
%TO.C,D1*%
X140170000Y-65250000D03*
D18*
X150330000Y-65250000D03*
%TD*%
D19*
%TO.C,H1*%
X190750000Y-91750000D03*
%TD*%
D12*
%TO.C,J4*%
X127000000Y-56990000D03*
D13*
X127000000Y-59530000D03*
X127000000Y-62070000D03*
X127000000Y-64610000D03*
X127000000Y-67150000D03*
%TD*%
D12*
%TO.C,J7*%
X184750000Y-26060000D03*
D13*
X184750000Y-28600000D03*
%TD*%
D20*
%TO.C,R5*%
X135750000Y-30500000D03*
D21*
X135750000Y-35580000D03*
%TD*%
D22*
%TO.C,M1*%
X172828000Y-80024000D03*
X190100000Y-80024000D03*
X172828000Y-40400000D03*
X190100000Y-40400000D03*
%TD*%
D10*
%TO.C,R1*%
X141840000Y-56000000D03*
D11*
X152000000Y-56000000D03*
%TD*%
D23*
%TO.C,K2*%
X161340000Y-68370000D03*
D24*
X166340000Y-70870000D03*
X156340000Y-81070000D03*
X166340000Y-81070000D03*
X156340000Y-70870000D03*
%TD*%
D12*
%TO.C,J10*%
X190250000Y-34250000D03*
D13*
X187710000Y-34250000D03*
%TD*%
D15*
%TO.C,Q3*%
X161580000Y-60250000D03*
D16*
X159040000Y-60250000D03*
X156500000Y-60250000D03*
%TD*%
D25*
%TO.C,C3*%
X180500000Y-35000000D03*
D10*
X180500000Y-32500000D03*
%TD*%
D19*
%TO.C,H4*%
X125250000Y-26250000D03*
%TD*%
%TO.C,H2*%
X190750000Y-26250000D03*
%TD*%
D12*
%TO.C,J8*%
X127000000Y-33960000D03*
D13*
X127000000Y-36500000D03*
X127000000Y-39040000D03*
%TD*%
D19*
%TO.C,H3*%
X125250000Y-91750000D03*
%TD*%
D17*
%TO.C,D2*%
X156180000Y-65250000D03*
D18*
X166340000Y-65250000D03*
%TD*%
D17*
%TO.C,D4*%
X172800000Y-83320000D03*
D18*
X172800000Y-93480000D03*
%TD*%
D14*
%TO.C,J2*%
X182500000Y-87750000D03*
D26*
X177500000Y-87750000D03*
%TD*%
D27*
%TO.C,D5*%
X124460000Y-75750000D03*
D28*
X127000000Y-75750000D03*
%TD*%
D27*
%TO.C,D3*%
X124460000Y-82250000D03*
D28*
X127000000Y-82250000D03*
%TD*%
D12*
%TO.C,J11*%
X190400000Y-84000000D03*
D13*
X187860000Y-84000000D03*
%TD*%
D12*
%TO.C,J9*%
X127000000Y-44240000D03*
D13*
X127000000Y-46780000D03*
X127000000Y-49320000D03*
X127000000Y-51860000D03*
%TD*%
D10*
%TO.C,R2*%
X132000000Y-83360000D03*
D11*
X132000000Y-73200000D03*
%TD*%
D23*
%TO.C,K1*%
X145040000Y-68420000D03*
D24*
X150040000Y-70920000D03*
X140040000Y-81120000D03*
X150040000Y-81120000D03*
X140040000Y-70920000D03*
%TD*%
M02*
