%TF.GenerationSoftware,KiCad,Pcbnew,8.0.1*%
%TF.CreationDate,2024-12-11T12:45:41-03:00*%
%TF.ProjectId,AdeJiga,4164654a-6967-4612-9e6b-696361645f70,rev?*%
%TF.SameCoordinates,Original*%
%TF.FileFunction,Paste,Bot*%
%TF.FilePolarity,Positive*%
%FSLAX46Y46*%
G04 Gerber Fmt 4.6, Leading zero omitted, Abs format (unit mm)*
G04 Created by KiCad (PCBNEW 8.0.1) date 2024-12-11 12:45:41*
%MOMM*%
%LPD*%
G01*
G04 APERTURE LIST*
G04 Aperture macros list*
%AMRoundRect*
0 Rectangle with rounded corners*
0 $1 Rounding radius*
0 $2 $3 $4 $5 $6 $7 $8 $9 X,Y pos of 4 corners*
0 Add a 4 corners polygon primitive as box body*
4,1,4,$2,$3,$4,$5,$6,$7,$8,$9,$2,$3,0*
0 Add four circle primitives for the rounded corners*
1,1,$1+$1,$2,$3*
1,1,$1+$1,$4,$5*
1,1,$1+$1,$6,$7*
1,1,$1+$1,$8,$9*
0 Add four rect primitives between the rounded corners*
20,1,$1+$1,$2,$3,$4,$5,0*
20,1,$1+$1,$4,$5,$6,$7,0*
20,1,$1+$1,$6,$7,$8,$9,0*
20,1,$1+$1,$8,$9,$2,$3,0*%
G04 Aperture macros list end*
%ADD10RoundRect,0.375000X0.375000X-0.625000X0.375000X0.625000X-0.375000X0.625000X-0.375000X-0.625000X0*%
%ADD11RoundRect,0.500000X1.400000X-0.500000X1.400000X0.500000X-1.400000X0.500000X-1.400000X-0.500000X0*%
%ADD12R,0.900000X1.500000*%
%ADD13R,1.500000X0.900000*%
G04 APERTURE END LIST*
D10*
%TO.C,U4*%
X176500000Y-161630000D03*
X174200000Y-161630000D03*
D11*
X174200000Y-155330000D03*
D10*
X171900000Y-161630000D03*
%TD*%
D12*
%TO.C,U2*%
X177502500Y-151075000D03*
X176232500Y-151075000D03*
X174962500Y-151075000D03*
X173692500Y-151075000D03*
X172422500Y-151075000D03*
X171152500Y-151075000D03*
X169882500Y-151075000D03*
X168612500Y-151075000D03*
X167342500Y-151075000D03*
X166072500Y-151075000D03*
X164802500Y-151075000D03*
X163532500Y-151075000D03*
X162262500Y-151075000D03*
X160992500Y-151075000D03*
D13*
X159742500Y-148035000D03*
X159742500Y-146765000D03*
X159742500Y-145495000D03*
X159742500Y-144225000D03*
X159742500Y-142955000D03*
X159742500Y-141685000D03*
X159742500Y-140415000D03*
X159742500Y-139145000D03*
X159742500Y-137875000D03*
X159742500Y-136605000D03*
D12*
X160992500Y-133575000D03*
X162262500Y-133575000D03*
X163532500Y-133575000D03*
X164802500Y-133575000D03*
X166072500Y-133575000D03*
X167342500Y-133575000D03*
X168612500Y-133575000D03*
X169882500Y-133575000D03*
X171152500Y-133575000D03*
X172422500Y-133575000D03*
X173692500Y-133575000D03*
X174962500Y-133575000D03*
X176232500Y-133575000D03*
X177502500Y-133575000D03*
%TD*%
D10*
%TO.C,U4*%
X171900000Y-79150000D03*
D11*
X174200000Y-72850000D03*
D10*
X174200000Y-79150000D03*
X176500000Y-79150000D03*
%TD*%
D12*
%TO.C,U2*%
X177502500Y-51095000D03*
X176232500Y-51095000D03*
X174962500Y-51095000D03*
X173692500Y-51095000D03*
X172422500Y-51095000D03*
X171152500Y-51095000D03*
X169882500Y-51095000D03*
X168612500Y-51095000D03*
X167342500Y-51095000D03*
X166072500Y-51095000D03*
X164802500Y-51095000D03*
X163532500Y-51095000D03*
X162262500Y-51095000D03*
X160992500Y-51095000D03*
D13*
X159742500Y-54125000D03*
X159742500Y-55395000D03*
X159742500Y-56665000D03*
X159742500Y-57935000D03*
X159742500Y-59205000D03*
X159742500Y-60475000D03*
X159742500Y-61745000D03*
X159742500Y-63015000D03*
X159742500Y-64285000D03*
X159742500Y-65555000D03*
D12*
X160992500Y-68595000D03*
X162262500Y-68595000D03*
X163532500Y-68595000D03*
X164802500Y-68595000D03*
X166072500Y-68595000D03*
X167342500Y-68595000D03*
X168612500Y-68595000D03*
X169882500Y-68595000D03*
X171152500Y-68595000D03*
X172422500Y-68595000D03*
X173692500Y-68595000D03*
X174962500Y-68595000D03*
X176232500Y-68595000D03*
X177502500Y-68595000D03*
%TD*%
M02*
