%TF.GenerationSoftware,KiCad,Pcbnew,8.0.1*%
%TF.CreationDate,2024-09-28T14:19:56-03:00*%
%TF.ProjectId,AdeJiga,4164654a-6967-4612-9e6b-696361645f70,rev?*%
%TF.SameCoordinates,Original*%
%TF.FileFunction,Legend,Bot*%
%TF.FilePolarity,Positive*%
%FSLAX46Y46*%
G04 Gerber Fmt 4.6, Leading zero omitted, Abs format (unit mm)*
G04 Created by KiCad (PCBNEW 8.0.1) date 2024-09-28 14:19:56*
%MOMM*%
%LPD*%
G01*
G04 APERTURE LIST*
%ADD10C,0.150000*%
%ADD11C,0.120000*%
G04 APERTURE END LIST*
D10*
X173261904Y-29254819D02*
X173261904Y-30064342D01*
X173261904Y-30064342D02*
X173214285Y-30159580D01*
X173214285Y-30159580D02*
X173166666Y-30207200D01*
X173166666Y-30207200D02*
X173071428Y-30254819D01*
X173071428Y-30254819D02*
X172880952Y-30254819D01*
X172880952Y-30254819D02*
X172785714Y-30207200D01*
X172785714Y-30207200D02*
X172738095Y-30159580D01*
X172738095Y-30159580D02*
X172690476Y-30064342D01*
X172690476Y-30064342D02*
X172690476Y-29254819D01*
X171785714Y-29588152D02*
X171785714Y-30254819D01*
X172023809Y-29207200D02*
X172261904Y-29921485D01*
X172261904Y-29921485D02*
X171642857Y-29921485D01*
X166409819Y-46915595D02*
X167219342Y-46915595D01*
X167219342Y-46915595D02*
X167314580Y-46963214D01*
X167314580Y-46963214D02*
X167362200Y-47010833D01*
X167362200Y-47010833D02*
X167409819Y-47106071D01*
X167409819Y-47106071D02*
X167409819Y-47296547D01*
X167409819Y-47296547D02*
X167362200Y-47391785D01*
X167362200Y-47391785D02*
X167314580Y-47439404D01*
X167314580Y-47439404D02*
X167219342Y-47487023D01*
X167219342Y-47487023D02*
X166409819Y-47487023D01*
X166505057Y-47915595D02*
X166457438Y-47963214D01*
X166457438Y-47963214D02*
X166409819Y-48058452D01*
X166409819Y-48058452D02*
X166409819Y-48296547D01*
X166409819Y-48296547D02*
X166457438Y-48391785D01*
X166457438Y-48391785D02*
X166505057Y-48439404D01*
X166505057Y-48439404D02*
X166600295Y-48487023D01*
X166600295Y-48487023D02*
X166695533Y-48487023D01*
X166695533Y-48487023D02*
X166838390Y-48439404D01*
X166838390Y-48439404D02*
X167409819Y-47867976D01*
X167409819Y-47867976D02*
X167409819Y-48487023D01*
D11*
%TO.C,U4*%
X170590000Y-30890000D02*
X174350000Y-30890000D01*
X170590000Y-32150000D02*
X170590000Y-30890000D01*
X170590000Y-36450000D02*
X170590000Y-37710000D01*
X170590000Y-37710000D02*
X174350000Y-37710000D01*
X175630000Y-30990000D02*
X175390000Y-30660000D01*
X175870000Y-30660000D01*
X175630000Y-30990000D01*
G36*
X175630000Y-30990000D02*
G01*
X175390000Y-30660000D01*
X175870000Y-30660000D01*
X175630000Y-30990000D01*
G37*
%TO.C,U2*%
X147225000Y-23387500D02*
X165465000Y-23387500D01*
X147225000Y-29802500D02*
X147225000Y-23387500D01*
X147225000Y-49127500D02*
X147225000Y-48347500D01*
X148225000Y-49127500D02*
X147225000Y-49127500D01*
X164465000Y-49127500D02*
X165465000Y-49127500D01*
X165465000Y-29547500D02*
X165465000Y-23387500D01*
X165465000Y-49127500D02*
X165465000Y-48347500D01*
X165970000Y-30272500D02*
X165470000Y-30272500D01*
X165470000Y-29772500D01*
X165970000Y-30272500D01*
G36*
X165970000Y-30272500D02*
G01*
X165470000Y-30272500D01*
X165470000Y-29772500D01*
X165970000Y-30272500D01*
G37*
%TD*%
M02*
