%TF.GenerationSoftware,KiCad,Pcbnew,8.0.1*%
%TF.CreationDate,2024-09-28T14:19:56-03:00*%
%TF.ProjectId,AdeJiga,4164654a-6967-4612-9e6b-696361645f70,rev?*%
%TF.SameCoordinates,Original*%
%TF.FileFunction,Copper,L2,Bot*%
%TF.FilePolarity,Positive*%
%FSLAX46Y46*%
G04 Gerber Fmt 4.6, Leading zero omitted, Abs format (unit mm)*
G04 Created by KiCad (PCBNEW 8.0.1) date 2024-09-28 14:19:56*
%MOMM*%
%LPD*%
G01*
G04 APERTURE LIST*
G04 Aperture macros list*
%AMRoundRect*
0 Rectangle with rounded corners*
0 $1 Rounding radius*
0 $2 $3 $4 $5 $6 $7 $8 $9 X,Y pos of 4 corners*
0 Add a 4 corners polygon primitive as box body*
4,1,4,$2,$3,$4,$5,$6,$7,$8,$9,$2,$3,0*
0 Add four circle primitives for the rounded corners*
1,1,$1+$1,$2,$3*
1,1,$1+$1,$4,$5*
1,1,$1+$1,$6,$7*
1,1,$1+$1,$8,$9*
0 Add four rect primitives between the rounded corners*
20,1,$1+$1,$2,$3,$4,$5,0*
20,1,$1+$1,$4,$5,$6,$7,0*
20,1,$1+$1,$6,$7,$8,$9,0*
20,1,$1+$1,$8,$9,$2,$3,0*%
G04 Aperture macros list end*
%ADD10C,0.300000*%
%TA.AperFunction,ComponentPad*%
%ADD11C,1.600000*%
%TD*%
%TA.AperFunction,ComponentPad*%
%ADD12O,1.600000X1.600000*%
%TD*%
%TA.AperFunction,ComponentPad*%
%ADD13R,1.700000X1.700000*%
%TD*%
%TA.AperFunction,ComponentPad*%
%ADD14C,2.000000*%
%TD*%
%TA.AperFunction,ComponentPad*%
%ADD15C,2.800000*%
%TD*%
%TA.AperFunction,ComponentPad*%
%ADD16R,1.905000X2.000000*%
%TD*%
%TA.AperFunction,ComponentPad*%
%ADD17O,1.905000X2.000000*%
%TD*%
%TA.AperFunction,ComponentPad*%
%ADD18R,2.200000X2.200000*%
%TD*%
%TA.AperFunction,ComponentPad*%
%ADD19O,2.200000X2.200000*%
%TD*%
%TA.AperFunction,ComponentPad*%
%ADD20C,3.200000*%
%TD*%
%TA.AperFunction,ComponentPad*%
%ADD21C,1.400000*%
%TD*%
%TA.AperFunction,ComponentPad*%
%ADD22O,1.400000X1.400000*%
%TD*%
%TA.AperFunction,ComponentPad*%
%ADD23R,2.500000X2.500000*%
%TD*%
%TA.AperFunction,ComponentPad*%
%ADD24C,2.250000*%
%TD*%
%TA.AperFunction,ComponentPad*%
%ADD25C,2.100000*%
%TD*%
%TA.AperFunction,ComponentPad*%
%ADD26R,1.600000X1.600000*%
%TD*%
%TA.AperFunction,ComponentPad*%
%ADD27R,2.800000X2.800000*%
%TD*%
%TA.AperFunction,ComponentPad*%
%ADD28R,1.800000X1.800000*%
%TD*%
%TA.AperFunction,ComponentPad*%
%ADD29C,1.800000*%
%TD*%
%TA.AperFunction,SMDPad,CuDef*%
%ADD30RoundRect,0.375000X0.625000X0.375000X-0.625000X0.375000X-0.625000X-0.375000X0.625000X-0.375000X0*%
%TD*%
%TA.AperFunction,SMDPad,CuDef*%
%ADD31RoundRect,0.500000X0.500000X1.400000X-0.500000X1.400000X-0.500000X-1.400000X0.500000X-1.400000X0*%
%TD*%
%TA.AperFunction,SMDPad,CuDef*%
%ADD32R,1.500000X0.900000*%
%TD*%
%TA.AperFunction,SMDPad,CuDef*%
%ADD33R,0.900000X1.500000*%
%TD*%
%TA.AperFunction,SMDPad,CuDef*%
%ADD34R,4.200000X4.200000*%
%TD*%
%TA.AperFunction,Conductor*%
%ADD35C,0.900000*%
%TD*%
%TA.AperFunction,Conductor*%
%ADD36C,1.500000*%
%TD*%
%TA.AperFunction,Conductor*%
%ADD37C,0.800000*%
%TD*%
%TA.AperFunction,Conductor*%
%ADD38C,2.000000*%
%TD*%
%TA.AperFunction,Conductor*%
%ADD39C,1.800000*%
%TD*%
G04 APERTURE END LIST*
D10*
G36*
X182426463Y-27817447D02*
G01*
X180082237Y-27817447D01*
X180082237Y-27036880D01*
X180271126Y-27036880D01*
X180276328Y-27112361D01*
X180298670Y-27206075D01*
X180337217Y-27291210D01*
X180390442Y-27367047D01*
X180456817Y-27432862D01*
X180534813Y-27487936D01*
X180622904Y-27531547D01*
X180719560Y-27562973D01*
X180744884Y-27568841D01*
X180836646Y-27203942D01*
X180762280Y-27165045D01*
X180717464Y-27098762D01*
X180712913Y-27066556D01*
X180740244Y-26993315D01*
X180812327Y-26950911D01*
X180856576Y-26945655D01*
X180944207Y-26967111D01*
X181006878Y-27020215D01*
X181044181Y-27090787D01*
X181059374Y-27167775D01*
X181060446Y-27196615D01*
X181280924Y-27246807D01*
X181287888Y-27158634D01*
X181305966Y-27082315D01*
X181342027Y-27003540D01*
X181390458Y-26943181D01*
X181460996Y-26894977D01*
X181540555Y-26873106D01*
X181568251Y-26871650D01*
X181650333Y-26884725D01*
X181721769Y-26927666D01*
X181764236Y-26995602D01*
X181772951Y-27052267D01*
X181760009Y-27124942D01*
X181721443Y-27192591D01*
X181657641Y-27244797D01*
X181611433Y-27263293D01*
X181710254Y-27628558D01*
X181813976Y-27604183D01*
X181911762Y-27561668D01*
X181979742Y-27518971D01*
X182041988Y-27467858D01*
X182097474Y-27409095D01*
X182145173Y-27343449D01*
X182184059Y-27271686D01*
X182213105Y-27194572D01*
X182231286Y-27112873D01*
X182237574Y-27027355D01*
X182231141Y-26937974D01*
X182212298Y-26852152D01*
X182181728Y-26771031D01*
X182140115Y-26695753D01*
X182088143Y-26627462D01*
X182026494Y-26567300D01*
X181955853Y-26516410D01*
X181876903Y-26475936D01*
X181790328Y-26447021D01*
X181696812Y-26430806D01*
X181630948Y-26427616D01*
X181545625Y-26433122D01*
X181447062Y-26454465D01*
X181358587Y-26490106D01*
X181281379Y-26538151D01*
X181216618Y-26596705D01*
X181165480Y-26663872D01*
X181141827Y-26707519D01*
X181089786Y-26637706D01*
X181017974Y-26582689D01*
X180944224Y-26548476D01*
X180862318Y-26527236D01*
X180775194Y-26519940D01*
X180670564Y-26530281D01*
X180574517Y-26560011D01*
X180488707Y-26607189D01*
X180414790Y-26669875D01*
X180354418Y-26746127D01*
X180309248Y-26834006D01*
X180286341Y-26906377D01*
X180273612Y-26983378D01*
X180271126Y-27036880D01*
X180082237Y-27036880D01*
X180082237Y-24615212D01*
X180350847Y-24615212D01*
X180350847Y-25096249D01*
X181362305Y-25478733D01*
X180350847Y-25860118D01*
X180350847Y-26334926D01*
X182237574Y-25576186D01*
X182237574Y-25377250D01*
X180350847Y-24615212D01*
X180082237Y-24615212D01*
X180082237Y-23931577D01*
X180271126Y-23931577D01*
X180276328Y-24007057D01*
X180298670Y-24100771D01*
X180337217Y-24185907D01*
X180390442Y-24261743D01*
X180456817Y-24327559D01*
X180534813Y-24382633D01*
X180622904Y-24426243D01*
X180719560Y-24457669D01*
X180744884Y-24463538D01*
X180836646Y-24098639D01*
X180762280Y-24059741D01*
X180717464Y-23993459D01*
X180712913Y-23961252D01*
X180740244Y-23888011D01*
X180812327Y-23845607D01*
X180856576Y-23840352D01*
X180944207Y-23861807D01*
X181006878Y-23914911D01*
X181044181Y-23985484D01*
X181059374Y-24062471D01*
X181060446Y-24091311D01*
X181280924Y-24141503D01*
X181287888Y-24053330D01*
X181305966Y-23977012D01*
X181342027Y-23898237D01*
X181390458Y-23837878D01*
X181460996Y-23789673D01*
X181540555Y-23767802D01*
X181568251Y-23766346D01*
X181650333Y-23779421D01*
X181721769Y-23822362D01*
X181764236Y-23890298D01*
X181772951Y-23946964D01*
X181760009Y-24019639D01*
X181721443Y-24087287D01*
X181657641Y-24139493D01*
X181611433Y-24157990D01*
X181710254Y-24523255D01*
X181813976Y-24498880D01*
X181911762Y-24456365D01*
X181979742Y-24413667D01*
X182041988Y-24362554D01*
X182097474Y-24303792D01*
X182145173Y-24238146D01*
X182184059Y-24166382D01*
X182213105Y-24089268D01*
X182231286Y-24007569D01*
X182237574Y-23922051D01*
X182231141Y-23832671D01*
X182212298Y-23746849D01*
X182181728Y-23665727D01*
X182140115Y-23590449D01*
X182088143Y-23522158D01*
X182026494Y-23461996D01*
X181955853Y-23411107D01*
X181876903Y-23370633D01*
X181790328Y-23341717D01*
X181696812Y-23325502D01*
X181630948Y-23322313D01*
X181545625Y-23327818D01*
X181447062Y-23349161D01*
X181358587Y-23384802D01*
X181281379Y-23432848D01*
X181216618Y-23491401D01*
X181165480Y-23558569D01*
X181141827Y-23602215D01*
X181089786Y-23532403D01*
X181017974Y-23477386D01*
X180944224Y-23443172D01*
X180862318Y-23421932D01*
X180775194Y-23414637D01*
X180670564Y-23424978D01*
X180574517Y-23454708D01*
X180488707Y-23501886D01*
X180414790Y-23564571D01*
X180354418Y-23640824D01*
X180309248Y-23728702D01*
X180286341Y-23801074D01*
X180273612Y-23878075D01*
X180271126Y-23931577D01*
X180082237Y-23931577D01*
X180082237Y-23133424D01*
X182426463Y-23133424D01*
X182426463Y-27817447D01*
G37*
G36*
X193696031Y-37635114D02*
G01*
X190695248Y-37635114D01*
X190695248Y-37098419D01*
X190861915Y-37098419D01*
X190896334Y-37167057D01*
X190935197Y-37228207D01*
X190993217Y-37298367D01*
X191057432Y-37355881D01*
X191126868Y-37401132D01*
X191200549Y-37434500D01*
X191277501Y-37456369D01*
X191356749Y-37467121D01*
X191396929Y-37468447D01*
X191484522Y-37462269D01*
X191567259Y-37444099D01*
X191644319Y-37414484D01*
X191714881Y-37373972D01*
X191778123Y-37323109D01*
X191833225Y-37262443D01*
X191879366Y-37192519D01*
X191915725Y-37113886D01*
X191941481Y-37027091D01*
X191955812Y-36932679D01*
X191958614Y-36865778D01*
X191953677Y-36776717D01*
X191939177Y-36692667D01*
X191915579Y-36614447D01*
X191883350Y-36542876D01*
X191842956Y-36478772D01*
X191794864Y-36422954D01*
X191739540Y-36376240D01*
X191677449Y-36339450D01*
X191609059Y-36313401D01*
X191534834Y-36298913D01*
X191482341Y-36296081D01*
X191414686Y-36301133D01*
X191346798Y-36317870D01*
X191287704Y-36345540D01*
X191310882Y-36172250D01*
X191829068Y-36172250D01*
X191829068Y-35803688D01*
X192038946Y-35803688D01*
X192696521Y-37468447D01*
X192868932Y-37468447D01*
X193529364Y-35803688D01*
X193112466Y-35803688D01*
X192780980Y-36696151D01*
X192450446Y-35803688D01*
X192038946Y-35803688D01*
X191829068Y-35803688D01*
X191829068Y-35780240D01*
X191043217Y-35780240D01*
X190932404Y-36648890D01*
X191103862Y-36760631D01*
X191155349Y-36715053D01*
X191220946Y-36681222D01*
X191283974Y-36662065D01*
X191355647Y-36653036D01*
X191364225Y-36652920D01*
X191434548Y-36662298D01*
X191499938Y-36696345D01*
X191544473Y-36755868D01*
X191562331Y-36829336D01*
X191563307Y-36854054D01*
X191551336Y-36937103D01*
X191512487Y-37006582D01*
X191453582Y-37049291D01*
X191391158Y-37065000D01*
X191372163Y-37065812D01*
X191308574Y-37055483D01*
X191245652Y-37019857D01*
X191194033Y-36966166D01*
X191172128Y-36935753D01*
X190861915Y-37098419D01*
X190695248Y-37098419D01*
X190695248Y-35613573D01*
X193696031Y-35613573D01*
X193696031Y-37635114D01*
G37*
D11*
%TO.P,R4,1*%
%TO.N,Net-(D5-A)*%
X135000000Y-83360000D03*
D12*
%TO.P,R4,2*%
%TO.N,GPIO17*%
X135000000Y-73200000D03*
%TD*%
D13*
%TO.P,J5,1,Pin_1*%
%TO.N,GND*%
X145100000Y-50875000D03*
D14*
%TO.P,J5,2,Pin_2*%
%TO.N,boot*%
X145100000Y-48335000D03*
%TD*%
D15*
%TO.P,J1,1,Pin_1*%
%TO.N,Net-(J1-Pin_1)*%
X150040000Y-87600000D03*
%TO.P,J1,2,Pin_2*%
%TO.N,Net-(J1-Pin_2)*%
X145040000Y-87600000D03*
%TO.P,J1,3,Pin_3*%
%TO.N,Net-(J1-Pin_3)*%
X140040000Y-87600000D03*
%TD*%
D13*
%TO.P,J6,1,Pin_1*%
%TO.N,Net-(J6-Pin_1)*%
X138720000Y-34250000D03*
D14*
%TO.P,J6,2,Pin_2*%
%TO.N,RX*%
X141260000Y-34250000D03*
%TO.P,J6,3,Pin_3*%
%TO.N,TX*%
X143800000Y-34250000D03*
%TD*%
D15*
%TO.P,J3,1,Pin_1*%
%TO.N,Net-(J3-Pin_1)*%
X166400000Y-87600000D03*
%TO.P,J3,2,Pin_2*%
%TO.N,Net-(J3-Pin_2)*%
X161400000Y-87600000D03*
%TO.P,J3,3,Pin_3*%
%TO.N,Net-(J3-Pin_3)*%
X156400000Y-87600000D03*
%TD*%
D11*
%TO.P,R3,1*%
%TO.N,GPIO17*%
X155300000Y-56000000D03*
D12*
%TO.P,R3,2*%
%TO.N,Net-(Q3-B)*%
X165460000Y-56000000D03*
%TD*%
D16*
%TO.P,Q1,1,B*%
%TO.N,Net-(Q1-B)*%
X150000000Y-60250000D03*
D17*
%TO.P,Q1,2,C*%
%TO.N,Ativa_Rel\u00E9_1*%
X147460000Y-60250000D03*
%TO.P,Q1,3,E*%
%TO.N,GND*%
X144920000Y-60250000D03*
%TD*%
D18*
%TO.P,D1,1,K*%
%TO.N,+5V*%
X140170000Y-65250000D03*
D19*
%TO.P,D1,2,A*%
%TO.N,Ativa_Rel\u00E9_1*%
X150330000Y-65250000D03*
%TD*%
D20*
%TO.P,H1,*%
%TO.N,*%
X190750000Y-91750000D03*
%TD*%
D13*
%TO.P,J4,1,Pin_1*%
%TO.N,GPIOC*%
X127000000Y-56990000D03*
D14*
%TO.P,J4,2,Pin_2*%
%TO.N,GPIOB*%
X127000000Y-59530000D03*
%TO.P,J4,3,Pin_3*%
%TO.N,GPIOA*%
X127000000Y-62070000D03*
%TO.P,J4,4,Pin_4*%
%TO.N,GND*%
X127000000Y-64610000D03*
%TO.P,J4,5,Pin_5*%
%TO.N,+5V*%
X127000000Y-67150000D03*
%TD*%
D13*
%TO.P,J7,1,Pin_1*%
%TO.N,GND*%
X184750000Y-26060000D03*
D14*
%TO.P,J7,2,Pin_2*%
%TO.N,+3.3V*%
X184750000Y-28600000D03*
%TD*%
D21*
%TO.P,R5,1*%
%TO.N,GND*%
X135750000Y-30500000D03*
D22*
%TO.P,R5,2*%
%TO.N,Net-(J6-Pin_1)*%
X135750000Y-35580000D03*
%TD*%
D23*
%TO.P,M1,IN+,IN+*%
%TO.N,+24V*%
X172828000Y-80024000D03*
%TO.P,M1,IN-,IN-*%
%TO.N,GND*%
X190100000Y-80024000D03*
%TO.P,M1,OUT+,OUT+*%
%TO.N,+5V*%
X172828000Y-40400000D03*
%TO.P,M1,OUT-,OUT-*%
%TO.N,GND*%
X190100000Y-40400000D03*
%TD*%
D11*
%TO.P,R1,1*%
%TO.N,GPIO16*%
X141840000Y-56000000D03*
D12*
%TO.P,R1,2*%
%TO.N,Net-(Q1-B)*%
X152000000Y-56000000D03*
%TD*%
D24*
%TO.P,K2,1*%
%TO.N,Net-(J3-Pin_2)*%
X161340000Y-68370000D03*
D25*
%TO.P,K2,2*%
%TO.N,Ativa_Rel\u00E9_2*%
X166340000Y-70870000D03*
%TO.P,K2,3*%
%TO.N,Net-(J3-Pin_3)*%
X156340000Y-81070000D03*
%TO.P,K2,4*%
%TO.N,Net-(J3-Pin_1)*%
X166340000Y-81070000D03*
%TO.P,K2,5*%
%TO.N,+5V*%
X156340000Y-70870000D03*
%TD*%
D13*
%TO.P,J10,1,Pin_1*%
%TO.N,GND*%
X190250000Y-34250000D03*
D14*
%TO.P,J10,2,Pin_2*%
%TO.N,+5V*%
X187710000Y-34250000D03*
%TD*%
D16*
%TO.P,Q3,1,B*%
%TO.N,Net-(Q3-B)*%
X161580000Y-60250000D03*
D17*
%TO.P,Q3,2,C*%
%TO.N,Ativa_Rel\u00E9_2*%
X159040000Y-60250000D03*
%TO.P,Q3,3,E*%
%TO.N,GND*%
X156500000Y-60250000D03*
%TD*%
D26*
%TO.P,C3,1*%
%TO.N,+3.3V*%
X180500000Y-35000000D03*
D11*
%TO.P,C3,2*%
%TO.N,GND*%
X180500000Y-32500000D03*
%TD*%
D20*
%TO.P,H4,*%
%TO.N,*%
X125250000Y-26250000D03*
%TD*%
%TO.P,H2,*%
%TO.N,*%
X190750000Y-26250000D03*
%TD*%
D13*
%TO.P,J8,1,Pin_1*%
%TO.N,GND*%
X127000000Y-33960000D03*
D14*
%TO.P,J8,2,Pin_2*%
%TO.N,GPIOG*%
X127000000Y-36500000D03*
%TO.P,J8,3,Pin_3*%
%TO.N,GPIOH*%
X127000000Y-39040000D03*
%TD*%
D20*
%TO.P,H3,*%
%TO.N,*%
X125250000Y-91750000D03*
%TD*%
D18*
%TO.P,D2,1,K*%
%TO.N,+5V*%
X156180000Y-65250000D03*
D19*
%TO.P,D2,2,A*%
%TO.N,Ativa_Rel\u00E9_2*%
X166340000Y-65250000D03*
%TD*%
D18*
%TO.P,D4,1,K*%
%TO.N,+24V*%
X172800000Y-83320000D03*
D19*
%TO.P,D4,2,A*%
%TO.N,Net-(D4-A)*%
X172800000Y-93480000D03*
%TD*%
D15*
%TO.P,J2,2,Pin_2*%
%TO.N,Net-(J11-Pin_2)*%
X182500000Y-87750000D03*
D27*
%TO.P,J2,1,Pin_1*%
%TO.N,GND*%
X177500000Y-87750000D03*
%TD*%
D28*
%TO.P,D5,1,K*%
%TO.N,GND*%
X124460000Y-75750000D03*
D29*
%TO.P,D5,2,A*%
%TO.N,Net-(D5-A)*%
X127000000Y-75750000D03*
%TD*%
D28*
%TO.P,D3,1,K*%
%TO.N,GND*%
X124460000Y-82250000D03*
D29*
%TO.P,D3,2,A*%
%TO.N,Net-(D3-A)*%
X127000000Y-82250000D03*
%TD*%
D13*
%TO.P,J11,1,Pin_1*%
%TO.N,Net-(D4-A)*%
X190400000Y-84000000D03*
D14*
%TO.P,J11,2,Pin_2*%
%TO.N,Net-(J11-Pin_2)*%
X187860000Y-84000000D03*
%TD*%
D13*
%TO.P,J9,1,Pin_1*%
%TO.N,GND*%
X127000000Y-44240000D03*
D14*
%TO.P,J9,2,Pin_2*%
%TO.N,GPIOF*%
X127000000Y-46780000D03*
%TO.P,J9,3,Pin_3*%
%TO.N,GPIOE*%
X127000000Y-49320000D03*
%TO.P,J9,4,Pin_4*%
%TO.N,GPIOD*%
X127000000Y-51860000D03*
%TD*%
D11*
%TO.P,R2,1*%
%TO.N,Net-(D3-A)*%
X132000000Y-83360000D03*
D12*
%TO.P,R2,2*%
%TO.N,GPIO16*%
X132000000Y-73200000D03*
%TD*%
D24*
%TO.P,K1,1*%
%TO.N,Net-(J1-Pin_2)*%
X145040000Y-68420000D03*
D25*
%TO.P,K1,2*%
%TO.N,Ativa_Rel\u00E9_1*%
X150040000Y-70920000D03*
%TO.P,K1,3*%
%TO.N,Net-(J1-Pin_3)*%
X140040000Y-81120000D03*
%TO.P,K1,4*%
%TO.N,Net-(J1-Pin_1)*%
X150040000Y-81120000D03*
%TO.P,K1,5*%
%TO.N,+5V*%
X140040000Y-70920000D03*
%TD*%
D30*
%TO.P,U4,1,ADJ*%
%TO.N,GND*%
X175650000Y-32000000D03*
%TO.P,U4,2,VO*%
%TO.N,+3.3V*%
X175650000Y-34300000D03*
D31*
X169350000Y-34300000D03*
D30*
%TO.P,U4,3,VI*%
%TO.N,+5V*%
X175650000Y-36600000D03*
%TD*%
D32*
%TO.P,U2,1,GND*%
%TO.N,GND*%
X165095000Y-30997500D03*
%TO.P,U2,2,VDD*%
%TO.N,+3.3V*%
X165095000Y-32267500D03*
%TO.P,U2,3,EN*%
X165095000Y-33537500D03*
%TO.P,U2,4,SENSOR_VP*%
%TO.N,unconnected-(U2-SENSOR_VP-Pad4)*%
X165095000Y-34807500D03*
%TO.P,U2,5,SENSOR_VN*%
%TO.N,unconnected-(U2-SENSOR_VN-Pad5)*%
X165095000Y-36077500D03*
%TO.P,U2,6,IO34*%
%TO.N,unconnected-(U2-IO34-Pad6)*%
X165095000Y-37347500D03*
%TO.P,U2,7,IO35*%
%TO.N,unconnected-(U2-IO35-Pad7)*%
X165095000Y-38617500D03*
%TO.P,U2,8,IO32*%
%TO.N,unconnected-(U2-IO32-Pad8)*%
X165095000Y-39887500D03*
%TO.P,U2,9,IO33*%
%TO.N,unconnected-(U2-IO33-Pad9)*%
X165095000Y-41157500D03*
%TO.P,U2,10,IO25*%
%TO.N,unconnected-(U2-IO25-Pad10)*%
X165095000Y-42427500D03*
%TO.P,U2,11,IO26*%
%TO.N,unconnected-(U2-IO26-Pad11)*%
X165095000Y-43697500D03*
%TO.P,U2,12,IO27*%
%TO.N,unconnected-(U2-IO27-Pad12)*%
X165095000Y-44967500D03*
%TO.P,U2,13,IO14*%
%TO.N,unconnected-(U2-IO14-Pad13)*%
X165095000Y-46237500D03*
%TO.P,U2,14,IO12*%
%TO.N,unconnected-(U2-IO12-Pad14)*%
X165095000Y-47507500D03*
D33*
%TO.P,U2,15,GND*%
%TO.N,GND*%
X162055000Y-48757500D03*
%TO.P,U2,16,IO13*%
%TO.N,unconnected-(U2-IO13-Pad16)*%
X160785000Y-48757500D03*
%TO.P,U2,17,SHD/SD2*%
%TO.N,unconnected-(U2-SHD{slash}SD2-Pad17)*%
X159515000Y-48757500D03*
%TO.P,U2,18,SWP/SD3*%
%TO.N,unconnected-(U2-SWP{slash}SD3-Pad18)*%
X158245000Y-48757500D03*
%TO.P,U2,19,SCS/CMD*%
%TO.N,unconnected-(U2-SCS{slash}CMD-Pad19)*%
X156975000Y-48757500D03*
%TO.P,U2,20,SCK/CLK*%
%TO.N,unconnected-(U2-SCK{slash}CLK-Pad20)*%
X155705000Y-48757500D03*
%TO.P,U2,21,SDO/SD0*%
%TO.N,unconnected-(U2-SDO{slash}SD0-Pad21)*%
X154435000Y-48757500D03*
%TO.P,U2,22,SDI/SD1*%
%TO.N,unconnected-(U2-SDI{slash}SD1-Pad22)*%
X153165000Y-48757500D03*
%TO.P,U2,23,IO15*%
%TO.N,GPIO17*%
X151895000Y-48757500D03*
%TO.P,U2,24,IO2*%
%TO.N,GPIO16*%
X150625000Y-48757500D03*
D32*
%TO.P,U2,25,IO0*%
%TO.N,boot*%
X147595000Y-47507500D03*
%TO.P,U2,26,IO4*%
%TO.N,GPIOA*%
X147595000Y-46237500D03*
%TO.P,U2,27,IO16*%
%TO.N,GPIOB*%
X147595000Y-44967500D03*
%TO.P,U2,28,IO17*%
%TO.N,GPIOC*%
X147595000Y-43697500D03*
%TO.P,U2,29,IO5*%
%TO.N,GPIOD*%
X147595000Y-42427500D03*
%TO.P,U2,30,IO18*%
%TO.N,GPIOE*%
X147595000Y-41157500D03*
%TO.P,U2,31,IO19*%
%TO.N,GPIOF*%
X147595000Y-39887500D03*
%TO.P,U2,32,NC*%
%TO.N,unconnected-(U2-NC-Pad32)*%
X147595000Y-38617500D03*
%TO.P,U2,33,IO21*%
%TO.N,GPIOH*%
X147595000Y-37347500D03*
%TO.P,U2,34,RXD0/IO3*%
%TO.N,RX*%
X147595000Y-36077500D03*
%TO.P,U2,35,TXD0/IO1*%
%TO.N,TX*%
X147595000Y-34807500D03*
%TO.P,U2,36,IO22*%
%TO.N,unconnected-(U2-IO22-Pad36)*%
X147595000Y-33537500D03*
%TO.P,U2,37,IO23*%
%TO.N,GPIOG*%
X147595000Y-32267500D03*
%TO.P,U2,38,GND*%
%TO.N,GND*%
X147595000Y-30997500D03*
D34*
%TO.P,U2,39,GND*%
X157025000Y-38337500D03*
%TD*%
D35*
%TO.N,GND*%
X125960000Y-33960000D02*
X127000000Y-33960000D01*
X125250000Y-34670000D02*
X125960000Y-33960000D01*
X125250000Y-42490000D02*
X125250000Y-34670000D01*
X127000000Y-44240000D02*
X125250000Y-42490000D01*
X128500000Y-30500000D02*
X147097500Y-30500000D01*
X127000000Y-33960000D02*
X127000000Y-32000000D01*
X127000000Y-32000000D02*
X128500000Y-30500000D01*
X147097500Y-30500000D02*
X147595000Y-30997500D01*
%TO.N,GPIOG*%
X131732500Y-32267500D02*
X147595000Y-32267500D01*
X127500000Y-36500000D02*
X131732500Y-32267500D01*
X127000000Y-36500000D02*
X127500000Y-36500000D01*
%TO.N,GPIOH*%
X127960000Y-39040000D02*
X127000000Y-39040000D01*
X129652500Y-37347500D02*
X127960000Y-39040000D01*
X147595000Y-37347500D02*
X129652500Y-37347500D01*
D36*
%TO.N,+5V*%
X127000000Y-68110000D02*
X127000000Y-67150000D01*
X128700000Y-73900000D02*
X128700000Y-69810000D01*
X135800000Y-81000000D02*
X128700000Y-73900000D01*
X128700000Y-69810000D02*
X127000000Y-68110000D01*
X136900000Y-81000000D02*
X135800000Y-81000000D01*
D35*
%TO.N,GND*%
X127640000Y-64610000D02*
X127000000Y-64610000D01*
X141375000Y-50875000D02*
X127640000Y-64610000D01*
X142825000Y-50875000D02*
X141375000Y-50875000D01*
%TO.N,GPIOA*%
X143562500Y-46237500D02*
X147595000Y-46237500D01*
X127730000Y-62070000D02*
X143562500Y-46237500D01*
X127000000Y-62070000D02*
X127730000Y-62070000D01*
%TO.N,GPIOB*%
X142282500Y-44967500D02*
X147595000Y-44967500D01*
X127720000Y-59530000D02*
X142282500Y-44967500D01*
X127000000Y-59530000D02*
X127720000Y-59530000D01*
%TO.N,GPIOC*%
X141302500Y-43697500D02*
X147595000Y-43697500D01*
X128010000Y-56990000D02*
X141302500Y-43697500D01*
X127000000Y-56990000D02*
X128010000Y-56990000D01*
%TO.N,GPIOD*%
X137322500Y-42427500D02*
X147595000Y-42427500D01*
X127890000Y-51860000D02*
X137322500Y-42427500D01*
X127000000Y-51860000D02*
X127890000Y-51860000D01*
%TO.N,GPIOE*%
X127430000Y-49320000D02*
X135592500Y-41157500D01*
X135592500Y-41157500D02*
X147595000Y-41157500D01*
X127000000Y-49320000D02*
X127430000Y-49320000D01*
%TO.N,GPIOF*%
X133982500Y-39887500D02*
X127130000Y-46740000D01*
X147595000Y-39887500D02*
X133982500Y-39887500D01*
D37*
%TO.N,GND*%
X136232136Y-94022136D02*
X124460000Y-82250000D01*
X169250000Y-93750000D02*
X168977864Y-94022136D01*
X168977864Y-94022136D02*
X136232136Y-94022136D01*
X173000000Y-90000000D02*
X169250000Y-93750000D01*
X177500000Y-88050000D02*
X175550000Y-90000000D01*
X175550000Y-90000000D02*
X173000000Y-90000000D01*
D36*
%TO.N,Net-(J11-Pin_2)*%
X184800000Y-84000000D02*
X187860000Y-84000000D01*
X182750000Y-87800000D02*
X182750000Y-86050000D01*
X182500000Y-88050000D02*
X182750000Y-87800000D01*
X182750000Y-86050000D02*
X184800000Y-84000000D01*
D38*
%TO.N,GND*%
X182476000Y-80024000D02*
X190100000Y-80024000D01*
X178000000Y-84500000D02*
X182476000Y-80024000D01*
X178000000Y-87550000D02*
X178000000Y-84500000D01*
X177500000Y-88050000D02*
X178000000Y-87550000D01*
D39*
%TO.N,Net-(J1-Pin_3)*%
X140040000Y-81120000D02*
X140040000Y-87550000D01*
%TO.N,Net-(J1-Pin_2)*%
X145040000Y-87550000D02*
X145040000Y-68420000D01*
%TO.N,Net-(J1-Pin_1)*%
X150040000Y-81120000D02*
X150040000Y-87550000D01*
D36*
%TO.N,+5V*%
X153200000Y-88600000D02*
X151800000Y-90000000D01*
X174900000Y-36600000D02*
X175650000Y-36600000D01*
X153200000Y-88600000D02*
X153200000Y-88800000D01*
X154400000Y-90000000D02*
X153200000Y-90000000D01*
D39*
X140040000Y-65380000D02*
X140040000Y-70920000D01*
D36*
X172828000Y-40400000D02*
X172828000Y-73422000D01*
X169600000Y-89650000D02*
X169250000Y-90000000D01*
X151800000Y-90000000D02*
X151400000Y-90000000D01*
X176300000Y-37250000D02*
X184960000Y-37250000D01*
X153200000Y-88600000D02*
X153200000Y-90000000D01*
X175650000Y-36600000D02*
X176300000Y-37250000D01*
X187710000Y-34500000D02*
X187710000Y-34250000D01*
X172828000Y-40400000D02*
X172828000Y-38672000D01*
X153200000Y-90000000D02*
X151400000Y-90000000D01*
X156340000Y-65380000D02*
X156180000Y-65220000D01*
X138400000Y-90000000D02*
X137000000Y-88600000D01*
X153200000Y-74010000D02*
X153200000Y-88600000D01*
X151400000Y-90000000D02*
X138400000Y-90000000D01*
D39*
X140170000Y-65250000D02*
X140040000Y-65380000D01*
X156360000Y-70850000D02*
X156340000Y-70870000D01*
D36*
X137000000Y-73960000D02*
X140040000Y-70920000D01*
X172828000Y-73422000D02*
X169600000Y-76650000D01*
X156340000Y-70870000D02*
X153200000Y-74010000D01*
X172828000Y-38672000D02*
X174900000Y-36600000D01*
X156340000Y-70870000D02*
X156340000Y-65380000D01*
X184960000Y-37250000D02*
X187710000Y-34500000D01*
X153200000Y-88800000D02*
X154400000Y-90000000D01*
X137000000Y-88600000D02*
X137000000Y-73960000D01*
X169600000Y-76650000D02*
X169600000Y-89650000D01*
X169250000Y-90000000D02*
X154400000Y-90000000D01*
D35*
%TO.N,GND*%
X156500000Y-61554874D02*
X152500000Y-65554874D01*
X147750000Y-72500000D02*
X147750000Y-65000000D01*
X152500000Y-72000000D02*
X151250000Y-73250000D01*
X180000000Y-32000000D02*
X180500000Y-32500000D01*
X157025000Y-35337500D02*
X157025000Y-38337500D01*
X156750000Y-60000000D02*
X156500000Y-60250000D01*
X144920000Y-62170000D02*
X144920000Y-60250000D01*
D37*
X124400000Y-82190000D02*
X124460000Y-82250000D01*
D35*
X180500000Y-32500000D02*
X181299999Y-31700001D01*
X181299999Y-29200001D02*
X184440000Y-26060000D01*
X174647500Y-30997500D02*
X165095000Y-30997500D01*
X162055000Y-48757500D02*
X162055000Y-47527500D01*
X148500000Y-73250000D02*
X147750000Y-72500000D01*
X185335000Y-26060000D02*
X190250000Y-30975000D01*
X146747500Y-50875000D02*
X145100000Y-50875000D01*
X149250000Y-48372500D02*
X146747500Y-50875000D01*
D36*
X190100000Y-40400000D02*
X190100000Y-34650000D01*
D39*
X145100000Y-50875000D02*
X142825000Y-50875000D01*
D35*
X175650000Y-32000000D02*
X180000000Y-32000000D01*
X149250000Y-47500000D02*
X149250000Y-48372500D01*
X161365000Y-30997500D02*
X157025000Y-35337500D01*
X161277500Y-46750000D02*
X150000000Y-46750000D01*
X175650000Y-32000000D02*
X174647500Y-30997500D01*
X151250000Y-73250000D02*
X148500000Y-73250000D01*
X152500000Y-65554874D02*
X152500000Y-72000000D01*
X190250000Y-30975000D02*
X190250000Y-34250000D01*
X147595000Y-30997500D02*
X152897500Y-30997500D01*
D37*
X124460000Y-75750000D02*
X124400000Y-75810000D01*
D35*
X157025000Y-35125000D02*
X157025000Y-38337500D01*
X162055000Y-47527500D02*
X161277500Y-46750000D01*
X156750000Y-58250000D02*
X156750000Y-60000000D01*
X162055000Y-48757500D02*
X162055000Y-52945000D01*
X156500000Y-60250000D02*
X156500000Y-61554874D01*
X162055000Y-52945000D02*
X156750000Y-58250000D01*
X147750000Y-65000000D02*
X144920000Y-62170000D01*
D36*
X189400000Y-40400000D02*
X190100000Y-40400000D01*
D35*
X181299999Y-31700001D02*
X181299999Y-29200001D01*
D38*
X190100000Y-80024000D02*
X190100000Y-40400000D01*
D35*
X152897500Y-30997500D02*
X157025000Y-35125000D01*
X165095000Y-30997500D02*
X161365000Y-30997500D01*
X150000000Y-46750000D02*
X149250000Y-47500000D01*
D37*
X124400000Y-75810000D02*
X124400000Y-82190000D01*
D35*
X184440000Y-26060000D02*
X185335000Y-26060000D01*
%TO.N,+3.3V*%
X165095000Y-32267500D02*
X167317500Y-32267500D01*
D36*
X175650000Y-34300000D02*
X178800000Y-34300000D01*
X184750000Y-31500000D02*
X184750000Y-28600000D01*
D35*
X169350000Y-34300000D02*
X175650000Y-34300000D01*
D37*
X165095000Y-33537500D02*
X165095000Y-32267500D01*
D36*
X181250000Y-35000000D02*
X184750000Y-31500000D01*
X178800000Y-34300000D02*
X179500000Y-35000000D01*
D35*
X167317500Y-32267500D02*
X169350000Y-34300000D01*
D36*
X179500000Y-35000000D02*
X181250000Y-35000000D01*
D39*
%TO.N,Ativa_Rel\u00E9_1*%
X150040000Y-65540000D02*
X150040000Y-70920000D01*
X150330000Y-65250000D02*
X150040000Y-65540000D01*
D36*
X150330000Y-64580000D02*
X150330000Y-65250000D01*
X147460000Y-60250000D02*
X147460000Y-61710000D01*
X147460000Y-61710000D02*
X150330000Y-64580000D01*
D38*
%TO.N,+24V*%
X172828000Y-80024000D02*
X172828000Y-83212000D01*
X172828000Y-83212000D02*
X172800000Y-83240000D01*
%TO.N,Net-(D4-A)*%
X190400000Y-86822716D02*
X190400000Y-84000000D01*
X172800000Y-93580000D02*
X172880000Y-93500000D01*
X183722716Y-93500000D02*
X190400000Y-86822716D01*
X172880000Y-93500000D02*
X183722716Y-93500000D01*
D39*
%TO.N,Net-(J3-Pin_1)*%
X166340000Y-86740000D02*
X166400000Y-86800000D01*
X166340000Y-81070000D02*
X166340000Y-86740000D01*
%TO.N,Net-(J3-Pin_2)*%
X161340000Y-86740000D02*
X161400000Y-86800000D01*
X161340000Y-68370000D02*
X161340000Y-86740000D01*
%TO.N,Net-(J3-Pin_3)*%
X156340000Y-81070000D02*
X156340000Y-86740000D01*
X156340000Y-86740000D02*
X156400000Y-86800000D01*
D35*
%TO.N,boot*%
X145927500Y-47507500D02*
X145100000Y-48335000D01*
X147595000Y-47507500D02*
X145927500Y-47507500D01*
X147587500Y-47500000D02*
X147595000Y-47507500D01*
%TO.N,TX*%
X144357500Y-34807500D02*
X143800000Y-34250000D01*
X147595000Y-34807500D02*
X144357500Y-34807500D01*
%TO.N,RX*%
X147595000Y-36077500D02*
X143087500Y-36077500D01*
X143087500Y-36077500D02*
X141260000Y-34250000D01*
D36*
%TO.N,Net-(Q1-B)*%
X152000000Y-56000000D02*
X152000000Y-58250000D01*
X152000000Y-58250000D02*
X150000000Y-60250000D01*
D37*
%TO.N,GPIO16*%
X132000000Y-73200000D02*
X132000000Y-66000000D01*
X141840000Y-56160000D02*
X141840000Y-56000000D01*
D35*
X150625000Y-49125000D02*
X150625000Y-48757500D01*
X143750000Y-56000000D02*
X150625000Y-49125000D01*
X141840000Y-56000000D02*
X143750000Y-56000000D01*
D37*
X132000000Y-66000000D02*
X141840000Y-56160000D01*
D36*
%TO.N,Ativa_Rel\u00E9_2*%
X162220000Y-65220000D02*
X159040000Y-62040000D01*
D39*
X166340000Y-70870000D02*
X166340000Y-65400000D01*
D36*
X159040000Y-62040000D02*
X159040000Y-60250000D01*
D39*
X166340000Y-65400000D02*
X166520000Y-65220000D01*
D36*
X166340000Y-65220000D02*
X162220000Y-65220000D01*
D37*
%TO.N,Net-(D3-A)*%
X131360000Y-83360000D02*
X130250000Y-82250000D01*
X130250000Y-82250000D02*
X127250000Y-82250000D01*
X132000000Y-83360000D02*
X131360000Y-83360000D01*
%TO.N,Net-(D5-A)*%
X134610000Y-83360000D02*
X127000000Y-75750000D01*
X135000000Y-83360000D02*
X134610000Y-83360000D01*
D36*
%TO.N,Net-(Q3-B)*%
X162950000Y-60250000D02*
X165460000Y-57740000D01*
X161580000Y-60250000D02*
X162950000Y-60250000D01*
X165460000Y-57740000D02*
X165460000Y-56000000D01*
D37*
%TO.N,GPIO17*%
X150105000Y-52895000D02*
X151895000Y-52895000D01*
X143838466Y-57500000D02*
X145500000Y-57500000D01*
X135000000Y-73200000D02*
X135000000Y-66338466D01*
X145500000Y-57500000D02*
X150105000Y-52895000D01*
D35*
X155000000Y-56000000D02*
X151895000Y-52895000D01*
X155300000Y-56000000D02*
X155000000Y-56000000D01*
D37*
X135000000Y-66338466D02*
X143838466Y-57500000D01*
D35*
X151895000Y-52895000D02*
X151895000Y-48757500D01*
%TO.N,Net-(J6-Pin_1)*%
X137390000Y-35580000D02*
X138720000Y-34250000D01*
X135750000Y-35580000D02*
X137390000Y-35580000D01*
%TD*%
%TA.AperFunction,Conductor*%
%TO.N,GND*%
G36*
X124860000Y-83649999D02*
G01*
X124860001Y-83650000D01*
X125407825Y-83650000D01*
X125407830Y-83649999D01*
X125492195Y-83640930D01*
X125492488Y-83643661D01*
X125579750Y-83637104D01*
X125701032Y-83666674D01*
X125786151Y-83715343D01*
X125969887Y-83852887D01*
X125999176Y-83868880D01*
X126208481Y-83983169D01*
X126208482Y-83983169D01*
X126208487Y-83983172D01*
X126463199Y-84078175D01*
X126728840Y-84135961D01*
X126728846Y-84135961D01*
X126728850Y-84135962D01*
X126999994Y-84155355D01*
X127000000Y-84155355D01*
X127000006Y-84155355D01*
X127271149Y-84135962D01*
X127271151Y-84135961D01*
X127271160Y-84135961D01*
X127536801Y-84078175D01*
X127791513Y-83983172D01*
X128030113Y-83852887D01*
X128194159Y-83730082D01*
X128304565Y-83671828D01*
X128427571Y-83650541D01*
X128433269Y-83650500D01*
X129504622Y-83650500D01*
X129627920Y-83670028D01*
X129739148Y-83726702D01*
X129786758Y-83767364D01*
X130291755Y-84272361D01*
X130291758Y-84272365D01*
X130447635Y-84428242D01*
X130447638Y-84428244D01*
X130447640Y-84428246D01*
X130516172Y-84478037D01*
X130588123Y-84530312D01*
X130625978Y-84557815D01*
X130625981Y-84557816D01*
X130639340Y-84566003D01*
X130638042Y-84568120D01*
X130706273Y-84615766D01*
X130874259Y-84771635D01*
X131097226Y-84923651D01*
X131340359Y-85040738D01*
X131598228Y-85120280D01*
X131598235Y-85120281D01*
X131865060Y-85160499D01*
X131865068Y-85160499D01*
X131865071Y-85160500D01*
X131865073Y-85160500D01*
X132134927Y-85160500D01*
X132134929Y-85160500D01*
X132134931Y-85160499D01*
X132134939Y-85160499D01*
X132324752Y-85131888D01*
X132401772Y-85120280D01*
X132659641Y-85040738D01*
X132902775Y-84923651D01*
X133125741Y-84771635D01*
X133228613Y-84676183D01*
X133332277Y-84606637D01*
X133452362Y-84572527D01*
X133577109Y-84577195D01*
X133694308Y-84620183D01*
X133771385Y-84676182D01*
X133874259Y-84771635D01*
X134097226Y-84923651D01*
X134340359Y-85040738D01*
X134598228Y-85120280D01*
X134598235Y-85120281D01*
X134865060Y-85160499D01*
X134865068Y-85160499D01*
X134865071Y-85160500D01*
X134865073Y-85160500D01*
X134879954Y-85161615D01*
X134879691Y-85165123D01*
X134973798Y-85180028D01*
X135085026Y-85236702D01*
X135173298Y-85324974D01*
X135229972Y-85436202D01*
X135249500Y-85559500D01*
X135249500Y-88714734D01*
X135270418Y-88873620D01*
X135270418Y-88873624D01*
X135270419Y-88873624D01*
X135275041Y-88908737D01*
X135279452Y-88942239D01*
X135334987Y-89149500D01*
X135338842Y-89163887D01*
X135413307Y-89343661D01*
X135426656Y-89375888D01*
X135426657Y-89375891D01*
X135502464Y-89507192D01*
X135541389Y-89574612D01*
X135594324Y-89643598D01*
X135605189Y-89657757D01*
X135605191Y-89657761D01*
X135605192Y-89657761D01*
X135681080Y-89756661D01*
X136825649Y-90901230D01*
X136899023Y-91002221D01*
X136937599Y-91120946D01*
X136942511Y-91183363D01*
X136942511Y-94100500D01*
X136922983Y-94223798D01*
X136866309Y-94335026D01*
X136778037Y-94423298D01*
X136666809Y-94479972D01*
X136543511Y-94499500D01*
X127113448Y-94499500D01*
X126990150Y-94479972D01*
X126878922Y-94423298D01*
X126790650Y-94335026D01*
X126733976Y-94223798D01*
X126714448Y-94100500D01*
X126733976Y-93977202D01*
X126790650Y-93865974D01*
X126867376Y-93786414D01*
X126977602Y-93700060D01*
X126977615Y-93700047D01*
X126985562Y-93692099D01*
X126985565Y-93692098D01*
X127192098Y-93485565D01*
X127192099Y-93485562D01*
X127200047Y-93477615D01*
X127200047Y-93477614D01*
X127200060Y-93477602D01*
X127289139Y-93363898D01*
X127291134Y-93361376D01*
X127295432Y-93355985D01*
X127374208Y-93257206D01*
X127374221Y-93257184D01*
X127380693Y-93248065D01*
X127381057Y-93248323D01*
X127392984Y-93231351D01*
X127394081Y-93229952D01*
X127462102Y-93117430D01*
X127465627Y-93111710D01*
X127529605Y-93009893D01*
X127531142Y-93006702D01*
X127549183Y-92973382D01*
X127549262Y-92973249D01*
X127556837Y-92960721D01*
X127605466Y-92852669D01*
X127609799Y-92843368D01*
X127656331Y-92746745D01*
X127656335Y-92746737D01*
X127661792Y-92731137D01*
X127674563Y-92699143D01*
X127685951Y-92673842D01*
X127685952Y-92673839D01*
X127685954Y-92673835D01*
X127717354Y-92573064D01*
X127721673Y-92560008D01*
X127752800Y-92471053D01*
X127752803Y-92471045D01*
X127759366Y-92442285D01*
X127767424Y-92412385D01*
X127779549Y-92373478D01*
X127796239Y-92282402D01*
X127799693Y-92265604D01*
X127817798Y-92186286D01*
X127822551Y-92144091D01*
X127826574Y-92116867D01*
X127836258Y-92064029D01*
X127841065Y-91984547D01*
X127842843Y-91963996D01*
X127850500Y-91896041D01*
X127850500Y-91840632D01*
X127851228Y-91816541D01*
X127855253Y-91750000D01*
X127855253Y-91749999D01*
X127851228Y-91683457D01*
X127850500Y-91659366D01*
X127850500Y-91603962D01*
X127850499Y-91603953D01*
X127842844Y-91536009D01*
X127841065Y-91515445D01*
X127836258Y-91435971D01*
X127826575Y-91383135D01*
X127822552Y-91355911D01*
X127817798Y-91313714D01*
X127799690Y-91234378D01*
X127796238Y-91217595D01*
X127779549Y-91126522D01*
X127767423Y-91087612D01*
X127759363Y-91057699D01*
X127752804Y-91028960D01*
X127752803Y-91028955D01*
X127721664Y-90939964D01*
X127717346Y-90926904D01*
X127685952Y-90826159D01*
X127674559Y-90800847D01*
X127661794Y-90768865D01*
X127656335Y-90753263D01*
X127609796Y-90656624D01*
X127605435Y-90647259D01*
X127556840Y-90539285D01*
X127556838Y-90539283D01*
X127556837Y-90539279D01*
X127549169Y-90526594D01*
X127531149Y-90493313D01*
X127529605Y-90490107D01*
X127465637Y-90388303D01*
X127462050Y-90382483D01*
X127403293Y-90285287D01*
X127394081Y-90270048D01*
X127394076Y-90270041D01*
X127394076Y-90270040D01*
X127392960Y-90268616D01*
X127381049Y-90251678D01*
X127380692Y-90251932D01*
X127374206Y-90242791D01*
X127328293Y-90185218D01*
X127291162Y-90138658D01*
X127289058Y-90135997D01*
X127287552Y-90134075D01*
X127211913Y-90037527D01*
X127200067Y-90022406D01*
X127200052Y-90022389D01*
X126977786Y-89800122D01*
X126977757Y-89800095D01*
X126977602Y-89799940D01*
X126864041Y-89710971D01*
X126863998Y-89710937D01*
X126861296Y-89708801D01*
X126757206Y-89625791D01*
X126748072Y-89619311D01*
X126748326Y-89618952D01*
X126731383Y-89607040D01*
X126729952Y-89605919D01*
X126617504Y-89537941D01*
X126611642Y-89534328D01*
X126509896Y-89470396D01*
X126506666Y-89468841D01*
X126473396Y-89450825D01*
X126471563Y-89449717D01*
X126460721Y-89443163D01*
X126460719Y-89443162D01*
X126460714Y-89443159D01*
X126352710Y-89394550D01*
X126343348Y-89390190D01*
X126246744Y-89343668D01*
X126246727Y-89343661D01*
X126231123Y-89338201D01*
X126199163Y-89325445D01*
X126173843Y-89314049D01*
X126173822Y-89314041D01*
X126073109Y-89282657D01*
X126060043Y-89278337D01*
X125971042Y-89247196D01*
X125957603Y-89244129D01*
X125942290Y-89240633D01*
X125912376Y-89232572D01*
X125873475Y-89220449D01*
X125782426Y-89203763D01*
X125765576Y-89200298D01*
X125686287Y-89182202D01*
X125686283Y-89182201D01*
X125644084Y-89177446D01*
X125616852Y-89173421D01*
X125564032Y-89163742D01*
X125564035Y-89163742D01*
X125484548Y-89158933D01*
X125463982Y-89157153D01*
X125396056Y-89149501D01*
X125396045Y-89149500D01*
X125396041Y-89149500D01*
X125396034Y-89149500D01*
X125340634Y-89149500D01*
X125316543Y-89148772D01*
X125250001Y-89144747D01*
X125249999Y-89144747D01*
X125183457Y-89148772D01*
X125159366Y-89149500D01*
X125103959Y-89149500D01*
X125103954Y-89149500D01*
X125103943Y-89149501D01*
X125036017Y-89157153D01*
X125015452Y-89158933D01*
X124935968Y-89163742D01*
X124935964Y-89163742D01*
X124883145Y-89173421D01*
X124855924Y-89177444D01*
X124813725Y-89182200D01*
X124813698Y-89182204D01*
X124734433Y-89200296D01*
X124717579Y-89203762D01*
X124626529Y-89220449D01*
X124626523Y-89220450D01*
X124626522Y-89220451D01*
X124601660Y-89228197D01*
X124587613Y-89232575D01*
X124557711Y-89240633D01*
X124528953Y-89247197D01*
X124528944Y-89247199D01*
X124439973Y-89278331D01*
X124426907Y-89282652D01*
X124326162Y-89314047D01*
X124300839Y-89325444D01*
X124268886Y-89338198D01*
X124253263Y-89343665D01*
X124156643Y-89390193D01*
X124147291Y-89394548D01*
X124039279Y-89443162D01*
X124039276Y-89443164D01*
X124026594Y-89450830D01*
X123993332Y-89468841D01*
X123990116Y-89470389D01*
X123990113Y-89470391D01*
X123888321Y-89534350D01*
X123882464Y-89537960D01*
X123770051Y-89605916D01*
X123770048Y-89605918D01*
X123768581Y-89607068D01*
X123751661Y-89618967D01*
X123751913Y-89619322D01*
X123742790Y-89625794D01*
X123638656Y-89708838D01*
X123635958Y-89710971D01*
X123522392Y-89799944D01*
X123522392Y-89799945D01*
X123514439Y-89807898D01*
X123514434Y-89807901D01*
X123514435Y-89807902D01*
X123299945Y-90022392D01*
X123299938Y-90022400D01*
X123213585Y-90132621D01*
X123122172Y-90217635D01*
X123008963Y-90270240D01*
X122885038Y-90285287D01*
X122762529Y-90261302D01*
X122653428Y-90200634D01*
X122568414Y-90109221D01*
X122515809Y-89996012D01*
X122500500Y-89886549D01*
X122500500Y-83767813D01*
X122520028Y-83644515D01*
X122576702Y-83533287D01*
X122664974Y-83445015D01*
X122776202Y-83388341D01*
X122899500Y-83368813D01*
X123022798Y-83388341D01*
X123134026Y-83445015D01*
X123179644Y-83490000D01*
X123182634Y-83487011D01*
X123202815Y-83507192D01*
X123317909Y-83593352D01*
X123452622Y-83643597D01*
X123452626Y-83643598D01*
X123512169Y-83649999D01*
X123512175Y-83650000D01*
X124059999Y-83650000D01*
X124060000Y-83649999D01*
X124060000Y-82457179D01*
X124099910Y-82526306D01*
X124183694Y-82610090D01*
X124286306Y-82669333D01*
X124400756Y-82700000D01*
X124519244Y-82700000D01*
X124633694Y-82669333D01*
X124736306Y-82610090D01*
X124820090Y-82526306D01*
X124860000Y-82457179D01*
X124860000Y-83649999D01*
G37*
%TD.AperFunction*%
%TA.AperFunction,Conductor*%
G36*
X146836383Y-91770028D02*
G01*
X146947611Y-91826702D01*
X147035883Y-91914974D01*
X147092557Y-92026202D01*
X147112085Y-92149500D01*
X147112085Y-94100500D01*
X147092557Y-94223798D01*
X147035883Y-94335026D01*
X146947611Y-94423298D01*
X146836383Y-94479972D01*
X146713085Y-94499500D01*
X143915752Y-94499500D01*
X143792454Y-94479972D01*
X143681226Y-94423298D01*
X143592954Y-94335026D01*
X143536280Y-94223798D01*
X143516752Y-94100500D01*
X143516752Y-92149500D01*
X143536280Y-92026202D01*
X143592954Y-91914974D01*
X143681226Y-91826702D01*
X143792454Y-91770028D01*
X143915752Y-91750500D01*
X146713085Y-91750500D01*
X146836383Y-91770028D01*
G37*
%TD.AperFunction*%
%TA.AperFunction,Conductor*%
G36*
X163336383Y-91770028D02*
G01*
X163447611Y-91826702D01*
X163535883Y-91914974D01*
X163592557Y-92026202D01*
X163612085Y-92149500D01*
X163612085Y-94100500D01*
X163592557Y-94223798D01*
X163535883Y-94335026D01*
X163447611Y-94423298D01*
X163336383Y-94479972D01*
X163213085Y-94499500D01*
X160415752Y-94499500D01*
X160292454Y-94479972D01*
X160181226Y-94423298D01*
X160092954Y-94335026D01*
X160036280Y-94223798D01*
X160016752Y-94100500D01*
X160016752Y-92149500D01*
X160036280Y-92026202D01*
X160092954Y-91914974D01*
X160181226Y-91826702D01*
X160292454Y-91770028D01*
X160415752Y-91750500D01*
X163213085Y-91750500D01*
X163336383Y-91770028D01*
G37*
%TD.AperFunction*%
%TA.AperFunction,Conductor*%
G36*
X189009847Y-23520028D02*
G01*
X189121075Y-23576702D01*
X189209347Y-23664974D01*
X189266021Y-23776202D01*
X189285549Y-23899500D01*
X189266021Y-24022798D01*
X189209347Y-24134026D01*
X189132621Y-24213585D01*
X189022400Y-24299938D01*
X189022392Y-24299945D01*
X189014439Y-24307898D01*
X189014434Y-24307901D01*
X189014435Y-24307902D01*
X188799945Y-24522392D01*
X188799944Y-24522392D01*
X188710971Y-24635958D01*
X188708838Y-24638656D01*
X188625794Y-24742790D01*
X188619322Y-24751913D01*
X188618967Y-24751661D01*
X188607068Y-24768581D01*
X188605918Y-24770048D01*
X188605916Y-24770051D01*
X188537960Y-24882464D01*
X188534350Y-24888321D01*
X188470391Y-24990113D01*
X188470389Y-24990116D01*
X188468841Y-24993332D01*
X188450830Y-25026594D01*
X188443164Y-25039276D01*
X188443162Y-25039279D01*
X188394548Y-25147291D01*
X188390193Y-25156643D01*
X188343665Y-25253263D01*
X188338198Y-25268886D01*
X188325444Y-25300839D01*
X188314047Y-25326162D01*
X188282652Y-25426907D01*
X188278331Y-25439973D01*
X188247199Y-25528944D01*
X188247197Y-25528953D01*
X188240633Y-25557711D01*
X188232575Y-25587613D01*
X188220449Y-25626529D01*
X188203762Y-25717579D01*
X188200296Y-25734433D01*
X188182204Y-25813698D01*
X188182200Y-25813725D01*
X188177444Y-25855924D01*
X188173421Y-25883145D01*
X188163742Y-25935964D01*
X188163742Y-25935968D01*
X188158933Y-26015452D01*
X188157153Y-26036017D01*
X188149501Y-26103943D01*
X188149500Y-26103965D01*
X188149500Y-26159366D01*
X188148772Y-26183457D01*
X188144747Y-26249999D01*
X188144747Y-26250000D01*
X188148772Y-26316541D01*
X188149500Y-26340632D01*
X188149500Y-26396034D01*
X188149501Y-26396056D01*
X188157153Y-26463982D01*
X188158933Y-26484548D01*
X188163742Y-26564034D01*
X188173421Y-26616852D01*
X188177446Y-26644084D01*
X188182201Y-26686283D01*
X188182202Y-26686287D01*
X188200298Y-26765576D01*
X188203763Y-26782426D01*
X188220449Y-26873474D01*
X188220449Y-26873475D01*
X188232572Y-26912376D01*
X188240633Y-26942290D01*
X188243670Y-26955594D01*
X188247196Y-26971042D01*
X188278337Y-27060043D01*
X188282657Y-27073109D01*
X188314041Y-27173822D01*
X188314049Y-27173843D01*
X188325445Y-27199163D01*
X188338201Y-27231123D01*
X188343661Y-27246727D01*
X188343668Y-27246744D01*
X188390190Y-27343348D01*
X188394550Y-27352710D01*
X188443159Y-27460714D01*
X188443162Y-27460719D01*
X188450825Y-27473396D01*
X188468841Y-27506666D01*
X188470396Y-27509896D01*
X188534328Y-27611642D01*
X188537941Y-27617504D01*
X188605919Y-27729952D01*
X188607040Y-27731383D01*
X188618952Y-27748326D01*
X188619311Y-27748072D01*
X188625791Y-27757206D01*
X188708801Y-27861296D01*
X188710937Y-27863998D01*
X188713587Y-27867380D01*
X188799940Y-27977602D01*
X188800095Y-27977757D01*
X188800122Y-27977786D01*
X189022389Y-28200052D01*
X189022406Y-28200067D01*
X189030550Y-28206447D01*
X189135912Y-28288992D01*
X189135997Y-28289058D01*
X189138705Y-28291199D01*
X189242791Y-28374206D01*
X189251932Y-28380692D01*
X189251678Y-28381049D01*
X189268616Y-28392960D01*
X189270041Y-28394076D01*
X189270043Y-28394077D01*
X189270048Y-28394081D01*
X189382509Y-28462066D01*
X189388303Y-28465637D01*
X189490107Y-28529605D01*
X189493313Y-28531149D01*
X189526594Y-28549169D01*
X189539279Y-28556837D01*
X189539283Y-28556838D01*
X189539285Y-28556840D01*
X189622407Y-28594250D01*
X189635169Y-28599994D01*
X189647259Y-28605435D01*
X189656626Y-28609797D01*
X189753256Y-28656332D01*
X189753258Y-28656333D01*
X189753261Y-28656334D01*
X189753263Y-28656335D01*
X189768865Y-28661794D01*
X189800847Y-28674559D01*
X189826159Y-28685952D01*
X189926904Y-28717346D01*
X189939964Y-28721664D01*
X190028955Y-28752803D01*
X190057708Y-28759365D01*
X190087612Y-28767423D01*
X190126522Y-28779549D01*
X190217595Y-28796238D01*
X190234378Y-28799690D01*
X190313714Y-28817798D01*
X190355911Y-28822552D01*
X190383135Y-28826575D01*
X190435971Y-28836258D01*
X190515454Y-28841065D01*
X190536009Y-28842844D01*
X190603959Y-28850500D01*
X190659366Y-28850500D01*
X190683457Y-28851228D01*
X190749999Y-28855253D01*
X190750000Y-28855253D01*
X190750001Y-28855253D01*
X190816543Y-28851228D01*
X190840634Y-28850500D01*
X190896039Y-28850500D01*
X190896041Y-28850500D01*
X190963996Y-28842843D01*
X190984547Y-28841065D01*
X191064029Y-28836258D01*
X191116867Y-28826574D01*
X191144091Y-28822551D01*
X191186286Y-28817798D01*
X191265604Y-28799693D01*
X191282402Y-28796239D01*
X191373478Y-28779549D01*
X191412385Y-28767424D01*
X191442285Y-28759366D01*
X191471045Y-28752803D01*
X191560033Y-28721664D01*
X191573064Y-28717354D01*
X191673835Y-28685954D01*
X191699145Y-28674562D01*
X191731137Y-28661792D01*
X191746737Y-28656335D01*
X191843396Y-28609785D01*
X191852669Y-28605466D01*
X191960721Y-28556837D01*
X191973382Y-28549183D01*
X192006702Y-28531142D01*
X192009889Y-28529607D01*
X192009889Y-28529606D01*
X192009893Y-28529605D01*
X192111710Y-28465627D01*
X192117430Y-28462102D01*
X192229952Y-28394081D01*
X192231351Y-28392984D01*
X192248323Y-28381057D01*
X192248065Y-28380693D01*
X192257184Y-28374221D01*
X192257206Y-28374208D01*
X192361376Y-28291134D01*
X192364002Y-28289058D01*
X192477602Y-28200060D01*
X192477615Y-28200047D01*
X192485562Y-28192099D01*
X192485565Y-28192098D01*
X192692098Y-27985565D01*
X192692099Y-27985562D01*
X192700055Y-27977607D01*
X192700055Y-27977606D01*
X192700060Y-27977602D01*
X192786417Y-27867373D01*
X192877822Y-27782365D01*
X192991031Y-27729758D01*
X193114955Y-27714709D01*
X193237464Y-27738691D01*
X193346567Y-27799357D01*
X193431582Y-27890769D01*
X193484189Y-28003978D01*
X193499500Y-28113447D01*
X193499500Y-35224573D01*
X193479972Y-35347871D01*
X193423298Y-35459099D01*
X193335026Y-35547371D01*
X193223798Y-35604045D01*
X193100500Y-35623573D01*
X191993048Y-35623573D01*
X191869750Y-35604045D01*
X191758522Y-35547371D01*
X191670250Y-35459099D01*
X191613576Y-35347871D01*
X191594048Y-35224573D01*
X191596334Y-35181920D01*
X191600000Y-35147822D01*
X191600000Y-34650001D01*
X191599999Y-34650000D01*
X190650001Y-34650000D01*
X190650000Y-34650001D01*
X190650000Y-35623190D01*
X190661760Y-35639377D01*
X190700336Y-35758102D01*
X190705248Y-35820519D01*
X190705248Y-37625114D01*
X193100500Y-37625114D01*
X193223798Y-37644642D01*
X193335026Y-37701316D01*
X193423298Y-37789588D01*
X193479972Y-37900816D01*
X193499500Y-38024114D01*
X193499500Y-89886550D01*
X193479972Y-90009848D01*
X193423298Y-90121076D01*
X193335026Y-90209348D01*
X193223798Y-90266022D01*
X193100500Y-90285550D01*
X192977202Y-90266022D01*
X192865974Y-90209348D01*
X192786412Y-90132619D01*
X192722877Y-90051522D01*
X192700060Y-90022398D01*
X192700054Y-90022392D01*
X192700052Y-90022389D01*
X192477786Y-89800122D01*
X192477757Y-89800095D01*
X192477602Y-89799940D01*
X192364041Y-89710971D01*
X192363998Y-89710937D01*
X192361296Y-89708801D01*
X192257206Y-89625791D01*
X192248072Y-89619311D01*
X192248326Y-89618952D01*
X192231383Y-89607040D01*
X192229952Y-89605919D01*
X192117504Y-89537941D01*
X192111642Y-89534328D01*
X192009896Y-89470396D01*
X192006666Y-89468841D01*
X191973396Y-89450825D01*
X191971563Y-89449717D01*
X191960721Y-89443163D01*
X191960719Y-89443162D01*
X191960714Y-89443159D01*
X191852710Y-89394550D01*
X191843348Y-89390190D01*
X191746744Y-89343668D01*
X191746727Y-89343661D01*
X191731123Y-89338201D01*
X191699163Y-89325445D01*
X191673843Y-89314049D01*
X191673826Y-89314043D01*
X191590322Y-89288021D01*
X191478417Y-89232693D01*
X191389087Y-89145494D01*
X191331075Y-89034957D01*
X191310060Y-88911904D01*
X191328099Y-88788380D01*
X191383427Y-88676475D01*
X191426893Y-88624956D01*
X191907283Y-88144567D01*
X192026775Y-87988842D01*
X192066924Y-87936519D01*
X192198043Y-87709413D01*
X192298398Y-87467135D01*
X192348251Y-87281081D01*
X192366271Y-87213831D01*
X192387905Y-87049501D01*
X192400500Y-86953836D01*
X192400500Y-83868880D01*
X192398394Y-83852887D01*
X192380286Y-83715345D01*
X192366270Y-83608884D01*
X192298398Y-83355581D01*
X192280871Y-83313266D01*
X192251729Y-83191880D01*
X192250499Y-83160576D01*
X192250499Y-83091967D01*
X192246014Y-83041513D01*
X192239886Y-82972582D01*
X192183909Y-82776951D01*
X192089698Y-82596593D01*
X192044684Y-82541388D01*
X191961113Y-82438896D01*
X191961109Y-82438891D01*
X191803407Y-82310302D01*
X191801382Y-82309244D01*
X191774008Y-82294945D01*
X191673764Y-82220549D01*
X191601415Y-82118817D01*
X191564045Y-81999707D01*
X191565310Y-81874878D01*
X191605088Y-81756551D01*
X191679484Y-81656307D01*
X191697646Y-81640730D01*
X191707192Y-81631184D01*
X191793352Y-81516090D01*
X191843597Y-81381377D01*
X191843598Y-81381373D01*
X191849999Y-81321830D01*
X191850000Y-81321825D01*
X191850000Y-80424001D01*
X191849999Y-80424000D01*
X190407106Y-80424000D01*
X190500099Y-80331007D01*
X190565925Y-80216993D01*
X190600000Y-80089826D01*
X190600000Y-79958174D01*
X190565925Y-79831007D01*
X190500099Y-79716993D01*
X190407105Y-79623999D01*
X190500000Y-79623999D01*
X190500001Y-79624000D01*
X191849999Y-79624000D01*
X191850000Y-79623999D01*
X191850000Y-78726175D01*
X191849999Y-78726169D01*
X191843598Y-78666626D01*
X191843597Y-78666622D01*
X191793352Y-78531909D01*
X191707192Y-78416815D01*
X191707184Y-78416807D01*
X191592090Y-78330647D01*
X191457377Y-78280402D01*
X191457373Y-78280401D01*
X191397830Y-78274000D01*
X190500001Y-78274000D01*
X190500000Y-78274001D01*
X190500000Y-79623999D01*
X190407105Y-79623999D01*
X190407007Y-79623901D01*
X190292993Y-79558075D01*
X190165826Y-79524000D01*
X190034174Y-79524000D01*
X189907007Y-79558075D01*
X189792993Y-79623901D01*
X189699901Y-79716993D01*
X189634075Y-79831007D01*
X189600000Y-79958174D01*
X189600000Y-80089826D01*
X189634075Y-80216993D01*
X189699901Y-80331007D01*
X189792894Y-80424000D01*
X188350001Y-80424000D01*
X188350000Y-80424001D01*
X188350000Y-81321830D01*
X188356401Y-81381373D01*
X188356402Y-81381376D01*
X188387949Y-81465958D01*
X188412739Y-81588306D01*
X188398508Y-81712327D01*
X188346650Y-81825880D01*
X188262239Y-81917851D01*
X188153539Y-81979236D01*
X188031191Y-82004026D01*
X187985642Y-82003376D01*
X187860000Y-81994390D01*
X187859996Y-81994390D01*
X187859993Y-81994390D01*
X187574577Y-82014803D01*
X187574574Y-82014803D01*
X187294955Y-82075630D01*
X187026841Y-82175632D01*
X187026834Y-82175635D01*
X186980941Y-82200695D01*
X186863366Y-82242645D01*
X186789723Y-82249500D01*
X184914734Y-82249500D01*
X184685266Y-82249500D01*
X184552937Y-82266921D01*
X184457765Y-82279450D01*
X184457761Y-82279450D01*
X184457761Y-82279451D01*
X184274781Y-82328480D01*
X184274775Y-82328481D01*
X184236112Y-82338841D01*
X184192058Y-82357090D01*
X184184497Y-82360222D01*
X184184495Y-82360223D01*
X184024123Y-82426649D01*
X184024099Y-82426661D01*
X183924749Y-82484021D01*
X183924750Y-82484022D01*
X183825388Y-82541388D01*
X183754765Y-82595580D01*
X183754764Y-82595580D01*
X183643351Y-82681069D01*
X183643342Y-82681077D01*
X181431077Y-84893342D01*
X181407821Y-84923651D01*
X181369642Y-84973407D01*
X181343557Y-85007400D01*
X181291387Y-85075390D01*
X181259216Y-85131113D01*
X181184978Y-85259698D01*
X181180997Y-85266591D01*
X181176654Y-85274114D01*
X181176653Y-85274117D01*
X181088847Y-85486098D01*
X181088843Y-85486108D01*
X181034957Y-85687218D01*
X181034955Y-85687223D01*
X181029454Y-85707749D01*
X181029449Y-85707777D01*
X181028491Y-85715053D01*
X181027002Y-85720076D01*
X181026905Y-85720568D01*
X181026859Y-85720559D01*
X180993032Y-85834746D01*
X180922321Y-85937623D01*
X180906043Y-85953815D01*
X180746650Y-86103496D01*
X180554119Y-86336225D01*
X180554118Y-86336227D01*
X180392267Y-86591262D01*
X180263658Y-86864570D01*
X180263655Y-86864579D01*
X180178471Y-87126749D01*
X180121798Y-87237978D01*
X180033526Y-87326249D01*
X179922298Y-87382923D01*
X179799000Y-87402451D01*
X179675702Y-87382922D01*
X179564473Y-87326249D01*
X179476202Y-87237977D01*
X179419528Y-87126749D01*
X179400000Y-87003451D01*
X179400000Y-86302175D01*
X179399999Y-86302169D01*
X179393598Y-86242626D01*
X179393597Y-86242622D01*
X179343352Y-86107909D01*
X179257192Y-85992815D01*
X179257184Y-85992807D01*
X179142090Y-85906647D01*
X179007377Y-85856402D01*
X179007373Y-85856401D01*
X178947830Y-85850000D01*
X177900001Y-85850000D01*
X177900000Y-85850001D01*
X177900000Y-87175388D01*
X177831574Y-87129668D01*
X177704182Y-87076901D01*
X177568944Y-87050000D01*
X177431056Y-87050000D01*
X177295818Y-87076901D01*
X177168426Y-87129668D01*
X177100000Y-87175388D01*
X177100000Y-85850001D01*
X177099999Y-85850000D01*
X176052169Y-85850000D01*
X175992626Y-85856401D01*
X175992622Y-85856402D01*
X175857909Y-85906647D01*
X175742815Y-85992807D01*
X175742807Y-85992815D01*
X175656647Y-86107909D01*
X175606402Y-86242622D01*
X175606401Y-86242626D01*
X175600000Y-86302169D01*
X175600000Y-87349999D01*
X175600001Y-87350000D01*
X176925388Y-87350000D01*
X176879668Y-87418426D01*
X176826901Y-87545818D01*
X176800000Y-87681056D01*
X176800000Y-87818944D01*
X176826901Y-87954182D01*
X176879668Y-88081574D01*
X176925388Y-88150000D01*
X175600001Y-88150000D01*
X175600000Y-88150001D01*
X175600000Y-89197830D01*
X175606401Y-89257373D01*
X175606402Y-89257377D01*
X175656647Y-89392090D01*
X175742807Y-89507184D01*
X175742815Y-89507192D01*
X175857909Y-89593352D01*
X175992622Y-89643597D01*
X175992626Y-89643598D01*
X176052169Y-89649999D01*
X176052175Y-89650000D01*
X177099999Y-89650000D01*
X177100000Y-89649999D01*
X177100000Y-88324611D01*
X177168426Y-88370332D01*
X177295818Y-88423099D01*
X177431056Y-88450000D01*
X177568944Y-88450000D01*
X177704182Y-88423099D01*
X177831574Y-88370332D01*
X177900000Y-88324611D01*
X177900000Y-89649999D01*
X177900001Y-89650000D01*
X178947825Y-89650000D01*
X178947830Y-89649999D01*
X179007373Y-89643598D01*
X179007377Y-89643597D01*
X179142090Y-89593352D01*
X179257184Y-89507192D01*
X179257192Y-89507184D01*
X179343352Y-89392090D01*
X179393597Y-89257377D01*
X179393598Y-89257373D01*
X179399999Y-89197830D01*
X179400000Y-89197825D01*
X179400000Y-88496548D01*
X179419528Y-88373250D01*
X179476202Y-88262022D01*
X179564474Y-88173750D01*
X179675702Y-88117076D01*
X179799000Y-88097548D01*
X179922298Y-88117076D01*
X180033526Y-88173750D01*
X180121798Y-88262022D01*
X180178469Y-88373246D01*
X180263659Y-88635430D01*
X180263660Y-88635432D01*
X180392267Y-88908737D01*
X180472369Y-89034957D01*
X180554098Y-89163742D01*
X180554118Y-89163772D01*
X180554119Y-89163774D01*
X180746649Y-89396502D01*
X180966841Y-89603277D01*
X181211193Y-89780808D01*
X181211199Y-89780812D01*
X181211205Y-89780816D01*
X181475896Y-89926332D01*
X181756738Y-90037525D01*
X182049302Y-90112642D01*
X182348973Y-90150500D01*
X182348978Y-90150500D01*
X182651022Y-90150500D01*
X182651027Y-90150500D01*
X182950698Y-90112642D01*
X183188747Y-90051522D01*
X183243255Y-90037527D01*
X183243256Y-90037526D01*
X183243262Y-90037525D01*
X183294019Y-90017428D01*
X183415843Y-89990198D01*
X183540123Y-90001945D01*
X183654691Y-90051522D01*
X183748332Y-90134075D01*
X183811879Y-90241525D01*
X183839111Y-90363354D01*
X183827364Y-90487634D01*
X183777787Y-90602202D01*
X183723035Y-90670545D01*
X183010946Y-91382635D01*
X182909952Y-91456011D01*
X182791228Y-91494588D01*
X182728810Y-91499500D01*
X173571832Y-91499500D01*
X173464185Y-91484704D01*
X173371025Y-91458602D01*
X173228357Y-91418628D01*
X172943678Y-91379500D01*
X172656322Y-91379500D01*
X172371640Y-91418629D01*
X172094950Y-91496152D01*
X172094934Y-91496158D01*
X171831378Y-91610637D01*
X171585849Y-91759947D01*
X171362946Y-91941292D01*
X171166811Y-92151301D01*
X171001102Y-92386058D01*
X170868893Y-92641207D01*
X170772668Y-92911958D01*
X170714201Y-93193317D01*
X170694592Y-93480000D01*
X170714201Y-93766687D01*
X170754026Y-93958335D01*
X170757947Y-93977202D01*
X170766700Y-94019320D01*
X170772666Y-94144012D01*
X170739808Y-94264445D01*
X170671343Y-94368830D01*
X170573971Y-94446949D01*
X170457226Y-94491154D01*
X170376046Y-94499500D01*
X169665752Y-94499500D01*
X169542454Y-94479972D01*
X169431226Y-94423298D01*
X169342954Y-94335026D01*
X169286280Y-94223798D01*
X169266752Y-94100500D01*
X169266752Y-92112742D01*
X169286280Y-91989444D01*
X169342954Y-91878216D01*
X169431226Y-91789944D01*
X169542454Y-91733270D01*
X169587923Y-91721406D01*
X169592227Y-91720549D01*
X169592239Y-91720548D01*
X169813887Y-91661158D01*
X170025888Y-91573344D01*
X170224612Y-91458611D01*
X170327711Y-91379500D01*
X170406661Y-91318920D01*
X170918920Y-90806661D01*
X170947929Y-90768855D01*
X170988763Y-90715640D01*
X170988764Y-90715638D01*
X171028889Y-90663345D01*
X171058611Y-90624612D01*
X171118691Y-90520550D01*
X171118692Y-90520550D01*
X171150245Y-90465897D01*
X171173345Y-90425888D01*
X171261158Y-90213886D01*
X171320549Y-89992239D01*
X171350500Y-89764734D01*
X171350500Y-89535266D01*
X171350500Y-85819499D01*
X171370028Y-85696201D01*
X171426702Y-85584973D01*
X171514974Y-85496701D01*
X171626202Y-85440027D01*
X171749493Y-85420499D01*
X173958036Y-85420499D01*
X174077418Y-85409886D01*
X174273049Y-85353909D01*
X174453407Y-85259698D01*
X174611109Y-85131109D01*
X174739698Y-84973407D01*
X174833909Y-84793049D01*
X174889886Y-84597418D01*
X174900500Y-84478037D01*
X174900499Y-82161964D01*
X174889886Y-82042582D01*
X174889885Y-82042580D01*
X174888206Y-82023687D01*
X174891930Y-82023355D01*
X174889533Y-81933895D01*
X174924914Y-81814180D01*
X174931494Y-81800995D01*
X174932014Y-81800000D01*
X175011909Y-81647049D01*
X175067886Y-81451418D01*
X175078500Y-81332037D01*
X175078499Y-79623999D01*
X188350000Y-79623999D01*
X188350001Y-79624000D01*
X189699999Y-79624000D01*
X189700000Y-79623999D01*
X189700000Y-78274001D01*
X189699999Y-78274000D01*
X188802169Y-78274000D01*
X188742626Y-78280401D01*
X188742622Y-78280402D01*
X188607909Y-78330647D01*
X188492815Y-78416807D01*
X188492807Y-78416815D01*
X188406647Y-78531909D01*
X188356402Y-78666622D01*
X188356401Y-78666626D01*
X188350000Y-78726169D01*
X188350000Y-79623999D01*
X175078499Y-79623999D01*
X175078499Y-78715964D01*
X175067886Y-78596582D01*
X175011909Y-78400951D01*
X174917698Y-78220593D01*
X174789109Y-78062891D01*
X174789103Y-78062886D01*
X174631409Y-77934303D01*
X174451050Y-77840091D01*
X174402141Y-77826096D01*
X174255418Y-77784114D01*
X174204254Y-77779565D01*
X174136041Y-77773500D01*
X171915351Y-77773500D01*
X171792053Y-77753972D01*
X171680825Y-77697298D01*
X171592553Y-77609026D01*
X171535879Y-77497798D01*
X171516351Y-77374500D01*
X171535879Y-77251202D01*
X171592553Y-77139974D01*
X171633209Y-77092370D01*
X174146919Y-74578661D01*
X174262461Y-74428085D01*
X174286611Y-74396612D01*
X174401344Y-74197888D01*
X174489158Y-73985887D01*
X174548548Y-73764238D01*
X174578500Y-73536734D01*
X174578500Y-42722324D01*
X174598028Y-42599026D01*
X174654702Y-42487798D01*
X174725353Y-42413095D01*
X174789109Y-42361109D01*
X174917698Y-42203407D01*
X175011909Y-42023049D01*
X175067886Y-41827418D01*
X175078500Y-41708037D01*
X175078500Y-41697830D01*
X188350000Y-41697830D01*
X188356401Y-41757373D01*
X188356402Y-41757377D01*
X188406647Y-41892090D01*
X188492807Y-42007184D01*
X188492815Y-42007192D01*
X188607909Y-42093352D01*
X188742622Y-42143597D01*
X188742626Y-42143598D01*
X188802169Y-42149999D01*
X188802175Y-42150000D01*
X189699999Y-42150000D01*
X189700000Y-42149999D01*
X190500000Y-42149999D01*
X190500001Y-42150000D01*
X191397825Y-42150000D01*
X191397830Y-42149999D01*
X191457373Y-42143598D01*
X191457377Y-42143597D01*
X191592090Y-42093352D01*
X191707184Y-42007192D01*
X191707192Y-42007184D01*
X191793352Y-41892090D01*
X191843597Y-41757377D01*
X191843598Y-41757373D01*
X191849999Y-41697830D01*
X191850000Y-41697825D01*
X191850000Y-40800001D01*
X191849999Y-40800000D01*
X190500001Y-40800000D01*
X190500000Y-40800001D01*
X190500000Y-42149999D01*
X189700000Y-42149999D01*
X189700000Y-40800001D01*
X189699999Y-40800000D01*
X188350001Y-40800000D01*
X188350000Y-40800001D01*
X188350000Y-41697830D01*
X175078500Y-41697830D01*
X175078499Y-40465826D01*
X189600000Y-40465826D01*
X189634075Y-40592993D01*
X189699901Y-40707007D01*
X189792993Y-40800099D01*
X189907007Y-40865925D01*
X190034174Y-40900000D01*
X190165826Y-40900000D01*
X190292993Y-40865925D01*
X190407007Y-40800099D01*
X190500099Y-40707007D01*
X190565925Y-40592993D01*
X190600000Y-40465826D01*
X190600000Y-40334174D01*
X190565925Y-40207007D01*
X190500099Y-40092993D01*
X190407105Y-39999999D01*
X190500000Y-39999999D01*
X190500001Y-40000000D01*
X191849999Y-40000000D01*
X191850000Y-39999999D01*
X191850000Y-39102175D01*
X191849999Y-39102169D01*
X191843598Y-39042626D01*
X191843597Y-39042622D01*
X191793352Y-38907909D01*
X191707192Y-38792815D01*
X191707184Y-38792807D01*
X191592090Y-38706647D01*
X191457377Y-38656402D01*
X191457373Y-38656401D01*
X191397830Y-38650000D01*
X190500001Y-38650000D01*
X190500000Y-38650001D01*
X190500000Y-39999999D01*
X190407105Y-39999999D01*
X190407007Y-39999901D01*
X190292993Y-39934075D01*
X190165826Y-39900000D01*
X190034174Y-39900000D01*
X189907007Y-39934075D01*
X189792993Y-39999901D01*
X189699901Y-40092993D01*
X189634075Y-40207007D01*
X189600000Y-40334174D01*
X189600000Y-40465826D01*
X175078499Y-40465826D01*
X175078499Y-39999999D01*
X188350000Y-39999999D01*
X188350001Y-40000000D01*
X189699999Y-40000000D01*
X189700000Y-39999999D01*
X189700000Y-38650001D01*
X189699999Y-38650000D01*
X188802169Y-38650000D01*
X188742626Y-38656401D01*
X188742622Y-38656402D01*
X188607909Y-38706647D01*
X188492815Y-38792807D01*
X188492807Y-38792815D01*
X188406647Y-38907909D01*
X188356402Y-39042622D01*
X188356401Y-39042626D01*
X188350000Y-39102169D01*
X188350000Y-39999999D01*
X175078499Y-39999999D01*
X175078499Y-39235910D01*
X175098027Y-39112613D01*
X175154701Y-39001385D01*
X175242973Y-38913113D01*
X175354201Y-38856439D01*
X175477499Y-38836911D01*
X175600797Y-38856439D01*
X175630177Y-38867278D01*
X175674019Y-38885438D01*
X175736113Y-38911158D01*
X175766604Y-38919328D01*
X175774773Y-38921517D01*
X175774774Y-38921517D01*
X175774781Y-38921519D01*
X175957761Y-38970549D01*
X176185266Y-39000500D01*
X176185271Y-39000500D01*
X185074733Y-39000500D01*
X185074734Y-39000500D01*
X185286789Y-38972582D01*
X185286793Y-38972582D01*
X185302227Y-38970550D01*
X185302229Y-38970549D01*
X185302239Y-38970548D01*
X185523887Y-38911158D01*
X185735888Y-38823344D01*
X185798169Y-38787386D01*
X185934612Y-38708611D01*
X186027679Y-38637198D01*
X186116661Y-38568920D01*
X188652506Y-36033072D01*
X188743418Y-35965017D01*
X188794315Y-35937226D01*
X189023395Y-35765739D01*
X189072267Y-35716867D01*
X189173260Y-35643490D01*
X189291984Y-35604913D01*
X189354405Y-35600000D01*
X189849999Y-35600000D01*
X189850000Y-35599999D01*
X189850000Y-34557106D01*
X189942993Y-34650099D01*
X190057007Y-34715925D01*
X190184174Y-34750000D01*
X190315826Y-34750000D01*
X190442993Y-34715925D01*
X190557007Y-34650099D01*
X190650099Y-34557007D01*
X190715925Y-34442993D01*
X190750000Y-34315826D01*
X190750000Y-34184174D01*
X190715925Y-34057007D01*
X190650099Y-33942993D01*
X190557105Y-33849999D01*
X190650000Y-33849999D01*
X190650001Y-33850000D01*
X191599999Y-33850000D01*
X191600000Y-33849999D01*
X191600000Y-33352175D01*
X191599999Y-33352169D01*
X191593598Y-33292626D01*
X191593597Y-33292622D01*
X191543352Y-33157909D01*
X191457192Y-33042815D01*
X191457184Y-33042807D01*
X191342090Y-32956647D01*
X191207377Y-32906402D01*
X191207373Y-32906401D01*
X191147830Y-32900000D01*
X190650001Y-32900000D01*
X190650000Y-32900001D01*
X190650000Y-33849999D01*
X190557105Y-33849999D01*
X190557007Y-33849901D01*
X190442993Y-33784075D01*
X190315826Y-33750000D01*
X190184174Y-33750000D01*
X190057007Y-33784075D01*
X189942993Y-33849901D01*
X189850000Y-33942894D01*
X189850000Y-32900001D01*
X189849999Y-32900000D01*
X189354405Y-32900000D01*
X189231107Y-32880472D01*
X189119879Y-32823798D01*
X189072275Y-32783141D01*
X189023395Y-32734261D01*
X188865954Y-32616402D01*
X188794313Y-32562772D01*
X188543167Y-32425636D01*
X188543164Y-32425634D01*
X188275044Y-32325630D01*
X187995424Y-32264803D01*
X187710006Y-32244390D01*
X187709994Y-32244390D01*
X187424577Y-32264803D01*
X187424574Y-32264803D01*
X187144952Y-32325631D01*
X187144948Y-32325632D01*
X186976910Y-32388307D01*
X186854562Y-32413098D01*
X186730541Y-32398868D01*
X186616988Y-32347009D01*
X186525017Y-32262599D01*
X186463632Y-32153899D01*
X186438841Y-32031551D01*
X186452071Y-31911195D01*
X186454019Y-31903924D01*
X186470548Y-31842238D01*
X186500500Y-31614734D01*
X186500500Y-29670276D01*
X186520028Y-29546978D01*
X186549308Y-29479053D01*
X186574364Y-29433166D01*
X186574367Y-29433161D01*
X186674369Y-29165046D01*
X186735196Y-28885428D01*
X186750277Y-28674563D01*
X186755610Y-28600005D01*
X186755610Y-28599994D01*
X186744475Y-28444312D01*
X186735196Y-28314572D01*
X186674369Y-28034954D01*
X186574367Y-27766839D01*
X186492824Y-27617504D01*
X186437227Y-27515686D01*
X186265739Y-27286605D01*
X186265736Y-27286602D01*
X186216862Y-27237727D01*
X186143487Y-27136733D01*
X186104912Y-27018008D01*
X186100000Y-26955594D01*
X186100000Y-26460001D01*
X186099999Y-26460000D01*
X185057106Y-26460000D01*
X185150099Y-26367007D01*
X185215925Y-26252993D01*
X185250000Y-26125826D01*
X185250000Y-25994174D01*
X185215925Y-25867007D01*
X185150099Y-25752993D01*
X185057105Y-25659999D01*
X185150000Y-25659999D01*
X185150001Y-25660000D01*
X186099999Y-25660000D01*
X186100000Y-25659999D01*
X186100000Y-25162175D01*
X186099999Y-25162169D01*
X186093598Y-25102626D01*
X186093597Y-25102622D01*
X186043352Y-24967909D01*
X185957192Y-24852815D01*
X185957184Y-24852807D01*
X185842090Y-24766647D01*
X185707377Y-24716402D01*
X185707373Y-24716401D01*
X185647830Y-24710000D01*
X185150001Y-24710000D01*
X185150000Y-24710001D01*
X185150000Y-25659999D01*
X185057105Y-25659999D01*
X185057007Y-25659901D01*
X184942993Y-25594075D01*
X184815826Y-25560000D01*
X184684174Y-25560000D01*
X184557007Y-25594075D01*
X184442993Y-25659901D01*
X184349901Y-25752993D01*
X184284075Y-25867007D01*
X184250000Y-25994174D01*
X184250000Y-26125826D01*
X184284075Y-26252993D01*
X184349901Y-26367007D01*
X184442894Y-26460000D01*
X183400001Y-26460000D01*
X183400000Y-26460001D01*
X183400000Y-26955594D01*
X183380472Y-27078892D01*
X183323798Y-27190120D01*
X183283136Y-27237730D01*
X183234263Y-27286602D01*
X183134878Y-27419365D01*
X183045355Y-27506366D01*
X182933328Y-27561446D01*
X182809764Y-27579211D01*
X182686758Y-27557924D01*
X182576350Y-27499667D01*
X182489349Y-27410144D01*
X182434269Y-27298117D01*
X182416463Y-27180252D01*
X182416463Y-25659999D01*
X183400000Y-25659999D01*
X183400001Y-25660000D01*
X184349999Y-25660000D01*
X184350000Y-25659999D01*
X184350000Y-24710001D01*
X184349999Y-24710000D01*
X183852169Y-24710000D01*
X183792626Y-24716401D01*
X183792622Y-24716402D01*
X183657909Y-24766647D01*
X183542815Y-24852807D01*
X183542807Y-24852815D01*
X183456647Y-24967909D01*
X183406402Y-25102622D01*
X183406401Y-25102626D01*
X183400000Y-25162169D01*
X183400000Y-25659999D01*
X182416463Y-25659999D01*
X182416463Y-23899500D01*
X182435991Y-23776202D01*
X182492665Y-23664974D01*
X182580937Y-23576702D01*
X182692165Y-23520028D01*
X182815463Y-23500500D01*
X188886549Y-23500500D01*
X189009847Y-23520028D01*
G37*
%TD.AperFunction*%
%TA.AperFunction,Conductor*%
G36*
X143304598Y-60404374D02*
G01*
X143405592Y-60477750D01*
X143478968Y-60578744D01*
X143502927Y-60636587D01*
X143573916Y-60855066D01*
X143677709Y-61058773D01*
X143812095Y-61243739D01*
X143973760Y-61405404D01*
X144158726Y-61539790D01*
X144362429Y-61643581D01*
X144520000Y-61694779D01*
X144520000Y-60627818D01*
X144582292Y-60690110D01*
X144707708Y-60762518D01*
X144847591Y-60800000D01*
X144992409Y-60800000D01*
X145132292Y-60762518D01*
X145257708Y-60690110D01*
X145320000Y-60627818D01*
X145320000Y-61694780D01*
X145338656Y-61708335D01*
X145344143Y-61707466D01*
X145467441Y-61726993D01*
X145578670Y-61783665D01*
X145666943Y-61871936D01*
X145723618Y-61983164D01*
X145736376Y-62039535D01*
X145736905Y-62039430D01*
X145739453Y-62052241D01*
X145798841Y-62273885D01*
X145886653Y-62485883D01*
X145886657Y-62485891D01*
X146001385Y-62684605D01*
X146001393Y-62684618D01*
X146071236Y-62775638D01*
X146071237Y-62775640D01*
X146141071Y-62866650D01*
X146141076Y-62866656D01*
X146141080Y-62866661D01*
X147115887Y-63841468D01*
X148066361Y-64791942D01*
X148139737Y-64892936D01*
X148178313Y-65011661D01*
X148178313Y-65136495D01*
X148174262Y-65155558D01*
X148174567Y-65155619D01*
X148172018Y-65168432D01*
X148139499Y-65415434D01*
X148139499Y-65678710D01*
X148139500Y-65678739D01*
X148139500Y-70075605D01*
X148119972Y-70198903D01*
X148116462Y-70209223D01*
X148060925Y-70365487D01*
X148003853Y-70640130D01*
X148003851Y-70640139D01*
X147984709Y-70920000D01*
X148003851Y-71199860D01*
X148003853Y-71199869D01*
X148060925Y-71474515D01*
X148154860Y-71738822D01*
X148154864Y-71738830D01*
X148258009Y-71937893D01*
X148283919Y-71987896D01*
X148445688Y-72217069D01*
X148637155Y-72422081D01*
X148854754Y-72599111D01*
X148854756Y-72599112D01*
X149094428Y-72744860D01*
X149094429Y-72744861D01*
X149253104Y-72813783D01*
X149344171Y-72853339D01*
X149351716Y-72856616D01*
X149351717Y-72856616D01*
X149351725Y-72856620D01*
X149621839Y-72932303D01*
X149899742Y-72970500D01*
X149899743Y-72970500D01*
X150180257Y-72970500D01*
X150180258Y-72970500D01*
X150458161Y-72932303D01*
X150728275Y-72856620D01*
X150985568Y-72744862D01*
X151076015Y-72689859D01*
X151191505Y-72642483D01*
X151315987Y-72633113D01*
X151437273Y-72662668D01*
X151543489Y-72728257D01*
X151624239Y-72823457D01*
X151671618Y-72938952D01*
X151680988Y-73063434D01*
X151651433Y-73184720D01*
X151628872Y-73230272D01*
X151626663Y-73234097D01*
X151626653Y-73234117D01*
X151538844Y-73446105D01*
X151538843Y-73446108D01*
X151492851Y-73617758D01*
X151492850Y-73617762D01*
X151479452Y-73667762D01*
X151449500Y-73895266D01*
X151449500Y-78888327D01*
X151429972Y-79011625D01*
X151373298Y-79122853D01*
X151285026Y-79211125D01*
X151173798Y-79267799D01*
X151050500Y-79287327D01*
X150927202Y-79267799D01*
X150891539Y-79254295D01*
X150728280Y-79183382D01*
X150728278Y-79183381D01*
X150728275Y-79183380D01*
X150458161Y-79107697D01*
X150458160Y-79107696D01*
X150458157Y-79107696D01*
X150245254Y-79078433D01*
X150180258Y-79069500D01*
X149899742Y-79069500D01*
X149847065Y-79076740D01*
X149621842Y-79107696D01*
X149591174Y-79116289D01*
X149351725Y-79183380D01*
X149351723Y-79183380D01*
X149351715Y-79183383D01*
X149094429Y-79295138D01*
X149094428Y-79295139D01*
X148854756Y-79440887D01*
X148854749Y-79440892D01*
X148637155Y-79617918D01*
X148445688Y-79822931D01*
X148283917Y-80052106D01*
X148154864Y-80301169D01*
X148154860Y-80301177D01*
X148060925Y-80565484D01*
X148003853Y-80840130D01*
X148003851Y-80840139D01*
X147984709Y-81120000D01*
X148003851Y-81399860D01*
X148003853Y-81399870D01*
X148057142Y-81656307D01*
X148060925Y-81674511D01*
X148116423Y-81830667D01*
X148116462Y-81830776D01*
X148139351Y-81953494D01*
X148139500Y-81964393D01*
X148139500Y-85998795D01*
X148119972Y-86122093D01*
X148077387Y-86212589D01*
X147932271Y-86441255D01*
X147901026Y-86507655D01*
X147830858Y-86610903D01*
X147732219Y-86687415D01*
X147614764Y-86729701D01*
X147489991Y-86733622D01*
X147370113Y-86698794D01*
X147266865Y-86628626D01*
X147190353Y-86529987D01*
X147178974Y-86507655D01*
X147147733Y-86441264D01*
X147147728Y-86441256D01*
X147147728Y-86441255D01*
X147002613Y-86212589D01*
X146953035Y-86098022D01*
X146940500Y-85998795D01*
X146940500Y-69469433D01*
X146960028Y-69346135D01*
X146985232Y-69285870D01*
X146994088Y-69268780D01*
X147091464Y-68994793D01*
X147150624Y-68710099D01*
X147170467Y-68420000D01*
X147150624Y-68129901D01*
X147091464Y-67845207D01*
X146994088Y-67571220D01*
X146860312Y-67313044D01*
X146692627Y-67075488D01*
X146494157Y-66862978D01*
X146268598Y-66679473D01*
X146268595Y-66679471D01*
X146268592Y-66679469D01*
X146020153Y-66528390D01*
X146020151Y-66528389D01*
X145753451Y-66412544D01*
X145753444Y-66412542D01*
X145473462Y-66334095D01*
X145473456Y-66334093D01*
X145185388Y-66294500D01*
X144894612Y-66294500D01*
X144606543Y-66334093D01*
X144606537Y-66334095D01*
X144326555Y-66412542D01*
X144326548Y-66412544D01*
X144059848Y-66528389D01*
X144059846Y-66528390D01*
X143811407Y-66679469D01*
X143811404Y-66679471D01*
X143602635Y-66849317D01*
X143585843Y-66862978D01*
X143584350Y-66864577D01*
X143387371Y-67075489D01*
X143322886Y-67166845D01*
X143219688Y-67313044D01*
X143219685Y-67313050D01*
X143085914Y-67571215D01*
X142988536Y-67845206D01*
X142988534Y-67845213D01*
X142929377Y-68129892D01*
X142929375Y-68129902D01*
X142909533Y-68420000D01*
X142929375Y-68710097D01*
X142929377Y-68710107D01*
X142988534Y-68994786D01*
X142988536Y-68994793D01*
X143085912Y-69268780D01*
X143094765Y-69285866D01*
X143134151Y-69404321D01*
X143139500Y-69469433D01*
X143139500Y-85998795D01*
X143119972Y-86122093D01*
X143077387Y-86212589D01*
X142932271Y-86441255D01*
X142901026Y-86507655D01*
X142830858Y-86610903D01*
X142732219Y-86687415D01*
X142614764Y-86729701D01*
X142489991Y-86733622D01*
X142370113Y-86698794D01*
X142266865Y-86628626D01*
X142190353Y-86529987D01*
X142178974Y-86507655D01*
X142147733Y-86441264D01*
X142147728Y-86441256D01*
X142147728Y-86441255D01*
X142002613Y-86212589D01*
X141953035Y-86098022D01*
X141940500Y-85998795D01*
X141940500Y-81964393D01*
X141960028Y-81841095D01*
X141963538Y-81830776D01*
X141963577Y-81830667D01*
X142019075Y-81674511D01*
X142076148Y-81399862D01*
X142095291Y-81120000D01*
X142076148Y-80840138D01*
X142019075Y-80565489D01*
X142019074Y-80565484D01*
X141925139Y-80301177D01*
X141925137Y-80301173D01*
X141925136Y-80301170D01*
X141796081Y-80052104D01*
X141634312Y-79822931D01*
X141442845Y-79617919D01*
X141225246Y-79440889D01*
X141225243Y-79440887D01*
X140985571Y-79295139D01*
X140985570Y-79295138D01*
X140728283Y-79183383D01*
X140728284Y-79183383D01*
X140728278Y-79183381D01*
X140728275Y-79183380D01*
X140458161Y-79107697D01*
X140458160Y-79107696D01*
X140458157Y-79107696D01*
X140245254Y-79078433D01*
X140180258Y-79069500D01*
X139899742Y-79069500D01*
X139847065Y-79076740D01*
X139621842Y-79107696D01*
X139591174Y-79116289D01*
X139351725Y-79183380D01*
X139351722Y-79183380D01*
X139351719Y-79183382D01*
X139308461Y-79202172D01*
X139187591Y-79233382D01*
X139062992Y-79225713D01*
X138946861Y-79179917D01*
X138850566Y-79100475D01*
X138783532Y-78995165D01*
X138752322Y-78874295D01*
X138750500Y-78836204D01*
X138750500Y-74850351D01*
X138770028Y-74727053D01*
X138826702Y-74615825D01*
X138867358Y-74568221D01*
X140446961Y-72988617D01*
X140547952Y-72915244D01*
X140621443Y-72886552D01*
X140728275Y-72856620D01*
X140985568Y-72744862D01*
X141225246Y-72599111D01*
X141442845Y-72422081D01*
X141634312Y-72217069D01*
X141796081Y-71987896D01*
X141925136Y-71738830D01*
X141925139Y-71738822D01*
X142019074Y-71474515D01*
X142029465Y-71424511D01*
X142076148Y-71199862D01*
X142095291Y-70920000D01*
X142076148Y-70640138D01*
X142019075Y-70365489D01*
X141963537Y-70209222D01*
X141940649Y-70086504D01*
X141940500Y-70075605D01*
X141940500Y-67252964D01*
X141960028Y-67129666D01*
X142016702Y-67018438D01*
X142030269Y-67000819D01*
X142084803Y-66933938D01*
X142109698Y-66903407D01*
X142203909Y-66723049D01*
X142259886Y-66527418D01*
X142270500Y-66408037D01*
X142270499Y-64091964D01*
X142259886Y-63972582D01*
X142203909Y-63776951D01*
X142109698Y-63596593D01*
X142055355Y-63529947D01*
X141981113Y-63438896D01*
X141981109Y-63438891D01*
X141913049Y-63383395D01*
X141823409Y-63310303D01*
X141643050Y-63216091D01*
X141575144Y-63196661D01*
X141447418Y-63160114D01*
X141396254Y-63155565D01*
X141328041Y-63149500D01*
X141328037Y-63149500D01*
X141132843Y-63149500D01*
X141009545Y-63129972D01*
X140898317Y-63073298D01*
X140810045Y-62985026D01*
X140753371Y-62873798D01*
X140733843Y-62750500D01*
X140753371Y-62627202D01*
X140810045Y-62515974D01*
X140850707Y-62468364D01*
X141779281Y-61539790D01*
X142841325Y-60477745D01*
X142942314Y-60404374D01*
X143061039Y-60365798D01*
X143185873Y-60365798D01*
X143304598Y-60404374D01*
G37*
%TD.AperFunction*%
%TA.AperFunction,Conductor*%
G36*
X172433945Y-35770028D02*
G01*
X172545173Y-35826702D01*
X172633445Y-35914974D01*
X172690119Y-36026202D01*
X172709647Y-36149500D01*
X172690119Y-36272798D01*
X172633445Y-36384026D01*
X172592783Y-36431635D01*
X171509083Y-37515335D01*
X171509077Y-37515342D01*
X171452174Y-37589501D01*
X171452173Y-37589502D01*
X171369393Y-37697381D01*
X171369380Y-37697401D01*
X171278082Y-37855536D01*
X171278082Y-37855537D01*
X171254657Y-37896108D01*
X171254653Y-37896116D01*
X171166843Y-38108110D01*
X171163221Y-38118780D01*
X171105091Y-38229254D01*
X171037546Y-38299740D01*
X170866896Y-38438886D01*
X170866886Y-38438896D01*
X170738303Y-38596590D01*
X170644091Y-38776949D01*
X170618244Y-38867283D01*
X170588696Y-38970550D01*
X170588114Y-38972583D01*
X170577500Y-39091959D01*
X170577500Y-41708032D01*
X170588114Y-41827421D01*
X170644090Y-42023048D01*
X170738303Y-42203409D01*
X170766820Y-42238382D01*
X170866891Y-42361109D01*
X170930646Y-42413094D01*
X171013861Y-42506143D01*
X171064251Y-42620356D01*
X171077500Y-42722324D01*
X171077500Y-72531647D01*
X171057972Y-72654945D01*
X171001298Y-72766173D01*
X170960636Y-72813783D01*
X168281077Y-75493342D01*
X168242050Y-75544203D01*
X168229041Y-75561158D01*
X168217418Y-75576306D01*
X168141387Y-75675391D01*
X168141384Y-75675395D01*
X168034673Y-75860226D01*
X168026658Y-75874106D01*
X168026657Y-75874108D01*
X167938841Y-76086113D01*
X167884855Y-76287600D01*
X167884854Y-76287604D01*
X167879453Y-76307758D01*
X167879450Y-76307774D01*
X167849500Y-76535266D01*
X167849500Y-78881763D01*
X167829972Y-79005061D01*
X167773298Y-79116289D01*
X167685026Y-79204561D01*
X167573798Y-79261235D01*
X167450500Y-79280763D01*
X167327202Y-79261235D01*
X167291539Y-79247731D01*
X167028280Y-79133382D01*
X167028278Y-79133381D01*
X167028275Y-79133380D01*
X166758161Y-79057697D01*
X166758160Y-79057696D01*
X166758157Y-79057696D01*
X166545254Y-79028433D01*
X166480258Y-79019500D01*
X166199742Y-79019500D01*
X166147065Y-79026740D01*
X165921842Y-79057696D01*
X165879714Y-79069500D01*
X165651725Y-79133380D01*
X165651723Y-79133380D01*
X165651715Y-79133383D01*
X165394429Y-79245138D01*
X165394428Y-79245139D01*
X165154756Y-79390887D01*
X165154749Y-79390892D01*
X164937155Y-79567918D01*
X164745688Y-79772931D01*
X164583917Y-80002106D01*
X164454864Y-80251169D01*
X164454860Y-80251177D01*
X164360925Y-80515484D01*
X164303853Y-80790130D01*
X164303851Y-80790139D01*
X164284709Y-81070000D01*
X164303851Y-81349860D01*
X164303853Y-81349870D01*
X164353401Y-81588306D01*
X164360925Y-81624511D01*
X164392135Y-81712327D01*
X164416462Y-81780776D01*
X164439351Y-81903494D01*
X164439500Y-81914393D01*
X164439500Y-86093341D01*
X164419972Y-86216639D01*
X164377387Y-86307135D01*
X164292271Y-86441256D01*
X164292270Y-86441258D01*
X164261025Y-86507657D01*
X164190857Y-86610904D01*
X164092217Y-86687416D01*
X163974762Y-86729701D01*
X163849989Y-86733621D01*
X163730111Y-86698793D01*
X163626864Y-86628625D01*
X163550352Y-86529985D01*
X163538974Y-86507655D01*
X163507733Y-86441264D01*
X163345885Y-86186232D01*
X163332061Y-86169522D01*
X163268518Y-86062071D01*
X163241287Y-85940243D01*
X163240500Y-85915194D01*
X163240500Y-69419433D01*
X163260028Y-69296135D01*
X163285232Y-69235870D01*
X163294088Y-69218780D01*
X163391464Y-68944793D01*
X163450624Y-68660099D01*
X163470467Y-68370000D01*
X163450624Y-68079901D01*
X163391464Y-67795207D01*
X163294088Y-67521220D01*
X163294086Y-67521216D01*
X163289523Y-67508377D01*
X163291833Y-67507555D01*
X163266022Y-67407572D01*
X163273696Y-67282974D01*
X163319498Y-67166845D01*
X163398944Y-67070553D01*
X163504257Y-67003525D01*
X163625129Y-66972321D01*
X163663201Y-66970500D01*
X164040500Y-66970500D01*
X164163798Y-66990028D01*
X164275026Y-67046702D01*
X164363298Y-67134974D01*
X164419972Y-67246202D01*
X164439500Y-67369500D01*
X164439500Y-70025605D01*
X164419972Y-70148903D01*
X164416462Y-70159223D01*
X164360925Y-70315487D01*
X164303853Y-70590130D01*
X164303851Y-70590139D01*
X164284709Y-70870000D01*
X164303851Y-71149860D01*
X164303853Y-71149869D01*
X164360925Y-71424515D01*
X164454860Y-71688822D01*
X164454864Y-71688830D01*
X164583919Y-71937896D01*
X164745688Y-72167069D01*
X164937155Y-72372081D01*
X165154754Y-72549111D01*
X165154756Y-72549112D01*
X165394428Y-72694860D01*
X165394429Y-72694861D01*
X165651716Y-72806616D01*
X165651717Y-72806616D01*
X165651725Y-72806620D01*
X165921839Y-72882303D01*
X166199742Y-72920500D01*
X166199743Y-72920500D01*
X166480257Y-72920500D01*
X166480258Y-72920500D01*
X166758161Y-72882303D01*
X167028275Y-72806620D01*
X167285568Y-72694862D01*
X167525246Y-72549111D01*
X167742845Y-72372081D01*
X167934312Y-72167069D01*
X168096081Y-71937896D01*
X168225136Y-71688830D01*
X168301305Y-71474511D01*
X168319074Y-71424515D01*
X168365756Y-71199869D01*
X168376148Y-71149862D01*
X168395291Y-70870000D01*
X168376148Y-70590138D01*
X168319075Y-70315489D01*
X168263537Y-70159222D01*
X168240649Y-70036504D01*
X168240500Y-70025605D01*
X168240500Y-66242167D01*
X168260028Y-66118869D01*
X168266550Y-66101644D01*
X168266539Y-66101640D01*
X168271102Y-66088800D01*
X168271104Y-66088797D01*
X168367334Y-65818032D01*
X168425798Y-65536686D01*
X168445408Y-65250000D01*
X168425798Y-64963314D01*
X168367334Y-64681968D01*
X168367331Y-64681961D01*
X168367331Y-64681958D01*
X168271106Y-64411207D01*
X168252894Y-64376060D01*
X168138901Y-64156064D01*
X168114351Y-64121285D01*
X168024765Y-63994369D01*
X167973189Y-63921302D01*
X167777053Y-63711292D01*
X167636065Y-63596590D01*
X167554150Y-63529947D01*
X167479883Y-63484784D01*
X167308625Y-63380639D01*
X167308622Y-63380637D01*
X167308621Y-63380637D01*
X167045065Y-63266158D01*
X167045049Y-63266152D01*
X166768359Y-63188629D01*
X166483678Y-63149500D01*
X166196322Y-63149500D01*
X165911640Y-63188629D01*
X165634950Y-63266152D01*
X165634934Y-63266158D01*
X165371378Y-63380637D01*
X165320770Y-63411413D01*
X165205276Y-63458791D01*
X165113455Y-63469500D01*
X163110353Y-63469500D01*
X162987055Y-63449972D01*
X162875827Y-63393298D01*
X162828217Y-63352636D01*
X162400593Y-62925012D01*
X162327217Y-62824018D01*
X162288641Y-62705293D01*
X162288641Y-62580459D01*
X162327217Y-62461734D01*
X162400593Y-62360740D01*
X162501587Y-62287364D01*
X162620312Y-62248788D01*
X162647379Y-62245445D01*
X162709918Y-62239886D01*
X162905549Y-62183909D01*
X163085907Y-62089698D01*
X163136290Y-62048615D01*
X163244184Y-61985835D01*
X163285165Y-61972443D01*
X163292235Y-61970548D01*
X163292239Y-61970548D01*
X163513887Y-61911158D01*
X163725888Y-61823344D01*
X163793043Y-61784572D01*
X163924612Y-61708611D01*
X164036118Y-61623049D01*
X164106661Y-61568920D01*
X166778920Y-58896661D01*
X166854705Y-58797895D01*
X166918611Y-58714612D01*
X167033344Y-58515888D01*
X167121158Y-58303887D01*
X167132887Y-58260114D01*
X167180548Y-58082239D01*
X167189082Y-58017418D01*
X167210500Y-57854734D01*
X167210500Y-56466890D01*
X167220504Y-56378104D01*
X167245383Y-56269103D01*
X167265549Y-56000000D01*
X167264329Y-55983723D01*
X167245384Y-55730909D01*
X167245383Y-55730899D01*
X167245383Y-55730897D01*
X167185334Y-55467805D01*
X167086743Y-55216602D01*
X167066324Y-55181235D01*
X166951820Y-54982906D01*
X166951818Y-54982903D01*
X166951815Y-54982898D01*
X166783561Y-54771915D01*
X166585741Y-54588365D01*
X166585739Y-54588363D01*
X166362775Y-54436348D01*
X166168516Y-54342799D01*
X166119641Y-54319262D01*
X165861772Y-54239720D01*
X165861764Y-54239718D01*
X165594939Y-54199500D01*
X165594929Y-54199500D01*
X165325071Y-54199500D01*
X165325060Y-54199500D01*
X165058235Y-54239718D01*
X165058226Y-54239720D01*
X164800361Y-54319261D01*
X164800359Y-54319262D01*
X164557226Y-54436349D01*
X164426951Y-54525169D01*
X164334259Y-54588365D01*
X164136437Y-54771917D01*
X163968187Y-54982895D01*
X163968179Y-54982906D01*
X163833258Y-55216598D01*
X163833256Y-55216602D01*
X163734667Y-55467800D01*
X163734664Y-55467809D01*
X163674617Y-55730894D01*
X163674615Y-55730909D01*
X163654451Y-55999994D01*
X163654451Y-56000005D01*
X163674615Y-56269095D01*
X163674616Y-56269099D01*
X163699496Y-56378104D01*
X163709500Y-56466890D01*
X163709500Y-56849647D01*
X163689972Y-56972945D01*
X163633298Y-57084173D01*
X163592636Y-57131782D01*
X162591779Y-58132638D01*
X162490789Y-58206012D01*
X162372064Y-58244588D01*
X162309647Y-58249500D01*
X160569467Y-58249500D01*
X160450078Y-58260114D01*
X160254449Y-58316091D01*
X160125465Y-58383467D01*
X160007137Y-58423244D01*
X159882309Y-58424509D01*
X159788040Y-58398437D01*
X159706673Y-58364734D01*
X159669118Y-58349178D01*
X159669115Y-58349177D01*
X159421826Y-58282916D01*
X159168006Y-58249500D01*
X158911994Y-58249500D01*
X158658173Y-58282916D01*
X158410886Y-58349176D01*
X158174355Y-58447151D01*
X157952645Y-58575155D01*
X157952634Y-58575162D01*
X157749535Y-58731006D01*
X157637873Y-58842669D01*
X157536879Y-58916045D01*
X157418154Y-58954621D01*
X157293320Y-58954621D01*
X157174595Y-58916045D01*
X157057564Y-58856415D01*
X156900000Y-58805218D01*
X156900000Y-59872182D01*
X156837708Y-59809890D01*
X156712292Y-59737482D01*
X156572409Y-59700000D01*
X156427591Y-59700000D01*
X156287708Y-59737482D01*
X156162292Y-59809890D01*
X156059890Y-59912292D01*
X155987482Y-60037708D01*
X155950000Y-60177591D01*
X155950000Y-60322409D01*
X155987482Y-60462292D01*
X156059890Y-60587708D01*
X156162292Y-60690110D01*
X156287708Y-60762518D01*
X156427591Y-60800000D01*
X156572409Y-60800000D01*
X156712292Y-60762518D01*
X156837708Y-60690110D01*
X156900000Y-60627818D01*
X156900000Y-61694780D01*
X156944220Y-61726908D01*
X157013797Y-61737928D01*
X157125026Y-61794602D01*
X157213297Y-61882873D01*
X157269971Y-61994101D01*
X157289500Y-62117399D01*
X157289500Y-62154734D01*
X157305187Y-62273887D01*
X157308983Y-62302719D01*
X157316621Y-62360740D01*
X157319452Y-62382239D01*
X157377884Y-62600312D01*
X157377886Y-62600319D01*
X157377886Y-62600320D01*
X157378841Y-62603885D01*
X157383040Y-62616254D01*
X157380926Y-62616971D01*
X157405467Y-62719212D01*
X157395667Y-62843662D01*
X157347890Y-62958992D01*
X157266812Y-63053913D01*
X157160370Y-63119135D01*
X157038984Y-63148271D01*
X157007696Y-63149500D01*
X155021967Y-63149500D01*
X154902578Y-63160114D01*
X154706951Y-63216090D01*
X154526590Y-63310303D01*
X154368896Y-63438886D01*
X154368886Y-63438896D01*
X154240303Y-63596590D01*
X154146091Y-63776949D01*
X154139118Y-63801319D01*
X154090114Y-63972582D01*
X154090114Y-63972584D01*
X154079500Y-64091959D01*
X154079500Y-66408032D01*
X154090114Y-66527421D01*
X154146090Y-66723048D01*
X154240303Y-66903409D01*
X154365733Y-67057236D01*
X154368891Y-67061109D01*
X154442646Y-67121248D01*
X154525861Y-67214298D01*
X154576251Y-67328511D01*
X154589500Y-67430478D01*
X154589500Y-69694100D01*
X154569972Y-69817398D01*
X154544767Y-69877665D01*
X154454861Y-70051176D01*
X154454860Y-70051177D01*
X154359099Y-70320625D01*
X154299408Y-70430264D01*
X154265273Y-70469144D01*
X152585107Y-72149311D01*
X152484113Y-72222687D01*
X152365388Y-72261263D01*
X152240554Y-72261263D01*
X152121829Y-72222687D01*
X152020835Y-72149311D01*
X151947459Y-72048317D01*
X151908883Y-71929592D01*
X151908883Y-71804758D01*
X151927005Y-71733569D01*
X152019075Y-71474511D01*
X152076148Y-71199862D01*
X152095291Y-70920000D01*
X152076148Y-70640138D01*
X152019075Y-70365489D01*
X151963537Y-70209222D01*
X151940649Y-70086504D01*
X151940500Y-70075605D01*
X151940500Y-66737477D01*
X151960028Y-66614179D01*
X152013529Y-66507382D01*
X152060826Y-66440377D01*
X152128901Y-66343936D01*
X152261104Y-66088797D01*
X152281397Y-66031700D01*
X152357331Y-65818041D01*
X152357331Y-65818039D01*
X152357334Y-65818032D01*
X152415798Y-65536686D01*
X152435408Y-65250000D01*
X152415798Y-64963314D01*
X152357334Y-64681968D01*
X152357331Y-64681961D01*
X152357331Y-64681958D01*
X152261106Y-64411207D01*
X152242894Y-64376060D01*
X152128901Y-64156064D01*
X152104351Y-64121285D01*
X152014765Y-63994369D01*
X151963189Y-63921302D01*
X151963187Y-63921300D01*
X151961474Y-63918873D01*
X151918817Y-63841468D01*
X151903344Y-63804112D01*
X151901731Y-63801319D01*
X151788615Y-63605395D01*
X151788611Y-63605388D01*
X151696068Y-63484784D01*
X151696067Y-63484782D01*
X151696065Y-63484781D01*
X151648920Y-63423339D01*
X151373852Y-63148271D01*
X151092572Y-62866990D01*
X151019196Y-62765997D01*
X150980620Y-62647272D01*
X150980620Y-62522437D01*
X151019197Y-62403712D01*
X151092573Y-62302719D01*
X151193566Y-62229343D01*
X151264943Y-62201250D01*
X151325549Y-62183909D01*
X151505907Y-62089698D01*
X151663609Y-61961109D01*
X151792198Y-61803407D01*
X151886409Y-61623049D01*
X151942386Y-61427418D01*
X151953000Y-61308037D01*
X151952999Y-60937851D01*
X151972527Y-60814555D01*
X152029201Y-60703327D01*
X152069864Y-60655716D01*
X152075580Y-60650000D01*
X155087286Y-60650000D01*
X155153915Y-60855064D01*
X155257709Y-61058773D01*
X155392095Y-61243739D01*
X155553760Y-61405404D01*
X155738726Y-61539790D01*
X155942429Y-61643581D01*
X156100000Y-61694779D01*
X156100000Y-60650001D01*
X156099999Y-60650000D01*
X155087286Y-60650000D01*
X152075580Y-60650000D01*
X152599878Y-60125702D01*
X152875580Y-59850000D01*
X155087285Y-59850000D01*
X156099999Y-59850000D01*
X156100000Y-59849999D01*
X156100000Y-58805218D01*
X155942435Y-58856415D01*
X155738726Y-58960209D01*
X155553760Y-59094595D01*
X155392095Y-59256260D01*
X155257709Y-59441226D01*
X155153915Y-59644935D01*
X155087285Y-59850000D01*
X152875580Y-59850000D01*
X153318920Y-59406661D01*
X153419649Y-59275388D01*
X153458611Y-59224612D01*
X153573344Y-59025888D01*
X153661158Y-58813887D01*
X153683366Y-58731007D01*
X153692522Y-58696838D01*
X153720547Y-58592243D01*
X153720550Y-58592226D01*
X153735818Y-58476257D01*
X153735818Y-58476251D01*
X153750500Y-58364734D01*
X153750500Y-57877665D01*
X153770028Y-57754367D01*
X153826702Y-57643139D01*
X153914974Y-57554867D01*
X154026202Y-57498193D01*
X154149500Y-57478665D01*
X154272798Y-57498193D01*
X154374259Y-57547992D01*
X154397226Y-57563651D01*
X154640359Y-57680738D01*
X154898228Y-57760280D01*
X154898235Y-57760281D01*
X155165060Y-57800499D01*
X155165068Y-57800499D01*
X155165071Y-57800500D01*
X155165073Y-57800500D01*
X155434927Y-57800500D01*
X155434929Y-57800500D01*
X155434931Y-57800499D01*
X155434939Y-57800499D01*
X155624752Y-57771888D01*
X155701772Y-57760280D01*
X155959641Y-57680738D01*
X156202775Y-57563651D01*
X156425741Y-57411635D01*
X156623561Y-57228085D01*
X156791815Y-57017102D01*
X156926743Y-56783398D01*
X157025334Y-56532195D01*
X157085383Y-56269103D01*
X157105549Y-56000000D01*
X157104329Y-55983723D01*
X157085384Y-55730909D01*
X157085383Y-55730899D01*
X157085383Y-55730897D01*
X157025334Y-55467805D01*
X156926743Y-55216602D01*
X156906324Y-55181235D01*
X156791820Y-54982906D01*
X156791818Y-54982903D01*
X156791815Y-54982898D01*
X156623561Y-54771915D01*
X156425741Y-54588365D01*
X156425739Y-54588363D01*
X156202775Y-54436348D01*
X156008516Y-54342799D01*
X155959641Y-54319262D01*
X155701772Y-54239720D01*
X155701764Y-54239718D01*
X155434939Y-54199500D01*
X155434929Y-54199500D01*
X155416088Y-54199500D01*
X155292790Y-54179972D01*
X155181562Y-54123298D01*
X155133952Y-54082636D01*
X153462364Y-52411047D01*
X153388988Y-52310053D01*
X153350412Y-52191328D01*
X153345500Y-52128911D01*
X153345500Y-50902219D01*
X153365028Y-50778921D01*
X153421702Y-50667693D01*
X153509974Y-50579421D01*
X153621202Y-50522747D01*
X153709163Y-50504787D01*
X153764668Y-50499853D01*
X153835330Y-50499853D01*
X153926963Y-50508000D01*
X154943036Y-50507999D01*
X155034668Y-50499853D01*
X155105330Y-50499853D01*
X155196963Y-50508000D01*
X156213036Y-50507999D01*
X156304668Y-50499853D01*
X156375330Y-50499853D01*
X156466963Y-50508000D01*
X157483036Y-50507999D01*
X157574668Y-50499853D01*
X157645330Y-50499853D01*
X157736963Y-50508000D01*
X158753036Y-50507999D01*
X158844668Y-50499853D01*
X158915330Y-50499853D01*
X159006963Y-50508000D01*
X160023036Y-50507999D01*
X160114668Y-50499853D01*
X160185330Y-50499853D01*
X160276963Y-50508000D01*
X161293036Y-50507999D01*
X161412418Y-50497386D01*
X161608049Y-50441409D01*
X161788407Y-50347198D01*
X161946109Y-50218609D01*
X161998501Y-50154354D01*
X162091552Y-50071139D01*
X162205765Y-50020749D01*
X162307732Y-50007500D01*
X162552825Y-50007500D01*
X162552830Y-50007499D01*
X162612373Y-50001098D01*
X162612377Y-50001097D01*
X162747090Y-49950852D01*
X162862184Y-49864692D01*
X162862192Y-49864684D01*
X162948352Y-49749590D01*
X162998597Y-49614877D01*
X162998598Y-49614873D01*
X163004999Y-49555330D01*
X163005000Y-49555325D01*
X163005000Y-48995985D01*
X163024528Y-48872687D01*
X163081202Y-48761459D01*
X163169474Y-48673187D01*
X163280702Y-48616513D01*
X163404000Y-48596985D01*
X163527298Y-48616513D01*
X163638526Y-48673187D01*
X163656133Y-48686745D01*
X163691731Y-48715771D01*
X163791590Y-48797196D01*
X163791591Y-48797196D01*
X163791593Y-48797198D01*
X163971951Y-48891409D01*
X164167582Y-48947386D01*
X164286963Y-48958000D01*
X165903036Y-48957999D01*
X166022418Y-48947386D01*
X166218049Y-48891409D01*
X166398407Y-48797198D01*
X166556109Y-48668609D01*
X166684698Y-48510907D01*
X166778909Y-48330549D01*
X166834886Y-48134918D01*
X166845500Y-48015537D01*
X166845499Y-46999464D01*
X166837353Y-46907830D01*
X166837353Y-46837165D01*
X166845500Y-46745537D01*
X166845499Y-45729464D01*
X166837353Y-45637830D01*
X166837353Y-45567165D01*
X166845500Y-45475537D01*
X166845499Y-44459464D01*
X166837353Y-44367830D01*
X166837353Y-44297165D01*
X166839146Y-44277000D01*
X166845500Y-44205537D01*
X166845499Y-43189464D01*
X166837353Y-43097830D01*
X166837353Y-43027165D01*
X166845500Y-42935537D01*
X166845499Y-41919464D01*
X166837353Y-41827830D01*
X166837353Y-41757165D01*
X166845500Y-41665537D01*
X166845499Y-40649464D01*
X166837353Y-40557830D01*
X166837353Y-40487165D01*
X166845500Y-40395537D01*
X166845499Y-39379464D01*
X166837353Y-39287830D01*
X166837353Y-39217165D01*
X166839146Y-39197000D01*
X166845500Y-39125537D01*
X166845499Y-38109464D01*
X166837353Y-38017830D01*
X166837353Y-37947165D01*
X166838213Y-37937500D01*
X166845500Y-37855537D01*
X166845499Y-36839464D01*
X166837353Y-36747830D01*
X166837355Y-36677147D01*
X166838314Y-36666367D01*
X166868691Y-36545285D01*
X166934998Y-36439516D01*
X167030744Y-36359413D01*
X167146557Y-36312819D01*
X167271100Y-36304293D01*
X167392182Y-36334670D01*
X167497951Y-36400977D01*
X167578054Y-36496723D01*
X167624634Y-36574894D01*
X167785350Y-36764650D01*
X167975106Y-36925366D01*
X168188727Y-37052656D01*
X168420386Y-37143050D01*
X168663763Y-37194081D01*
X168700970Y-37196390D01*
X168767133Y-37200499D01*
X168767155Y-37200499D01*
X168767158Y-37200500D01*
X168767160Y-37200500D01*
X169932840Y-37200500D01*
X169932842Y-37200500D01*
X169932845Y-37200499D01*
X169932866Y-37200499D01*
X169991588Y-37196852D01*
X170036237Y-37194081D01*
X170279614Y-37143050D01*
X170511273Y-37052656D01*
X170724894Y-36925366D01*
X170914650Y-36764650D01*
X171075366Y-36574894D01*
X171202656Y-36361273D01*
X171293050Y-36129614D01*
X171306049Y-36067616D01*
X171350465Y-35950952D01*
X171428759Y-35853721D01*
X171533267Y-35785443D01*
X171653758Y-35752802D01*
X171696557Y-35750500D01*
X172310647Y-35750500D01*
X172433945Y-35770028D01*
G37*
%TD.AperFunction*%
%TA.AperFunction,Conductor*%
G36*
X124860000Y-77149999D02*
G01*
X124860001Y-77150000D01*
X125407825Y-77150000D01*
X125407830Y-77149999D01*
X125492195Y-77140930D01*
X125492488Y-77143661D01*
X125579750Y-77137104D01*
X125701032Y-77166674D01*
X125786151Y-77215343D01*
X125969887Y-77352887D01*
X126010531Y-77375080D01*
X126208481Y-77483169D01*
X126208482Y-77483169D01*
X126208487Y-77483172D01*
X126463199Y-77578175D01*
X126728840Y-77635961D01*
X126770509Y-77638941D01*
X126892095Y-77667213D01*
X126998998Y-77731675D01*
X127024182Y-77754788D01*
X129437758Y-80168364D01*
X129511134Y-80269358D01*
X129549710Y-80388083D01*
X129549710Y-80512917D01*
X129511134Y-80631642D01*
X129437758Y-80732636D01*
X129336764Y-80806012D01*
X129218039Y-80844588D01*
X129155622Y-80849500D01*
X128433269Y-80849500D01*
X128309971Y-80829972D01*
X128198743Y-80773298D01*
X128194199Y-80769946D01*
X128030113Y-80647113D01*
X128001780Y-80631642D01*
X127791518Y-80516830D01*
X127787923Y-80515489D01*
X127536801Y-80421825D01*
X127536799Y-80421824D01*
X127536795Y-80421823D01*
X127271162Y-80364039D01*
X127271149Y-80364037D01*
X127000006Y-80344645D01*
X126999994Y-80344645D01*
X126728850Y-80364037D01*
X126728837Y-80364039D01*
X126463204Y-80421823D01*
X126463203Y-80421823D01*
X126208481Y-80516830D01*
X125969894Y-80647108D01*
X125786153Y-80784655D01*
X125675745Y-80842911D01*
X125552739Y-80864197D01*
X125492353Y-80857597D01*
X125492195Y-80859070D01*
X125407830Y-80850000D01*
X124860001Y-80850000D01*
X124860000Y-80850001D01*
X124860000Y-82042820D01*
X124820090Y-81973694D01*
X124736306Y-81889910D01*
X124633694Y-81830667D01*
X124519244Y-81800000D01*
X124400756Y-81800000D01*
X124286306Y-81830667D01*
X124183694Y-81889910D01*
X124099910Y-81973694D01*
X124060000Y-82042820D01*
X124060000Y-80850001D01*
X124059999Y-80850000D01*
X123512169Y-80850000D01*
X123452626Y-80856401D01*
X123452622Y-80856402D01*
X123317909Y-80906647D01*
X123202815Y-80992807D01*
X123182634Y-81012989D01*
X123179373Y-81009728D01*
X123129373Y-81058314D01*
X123017343Y-81113387D01*
X122893778Y-81131145D01*
X122770773Y-81109850D01*
X122660368Y-81051587D01*
X122573372Y-80962059D01*
X122518299Y-80850029D01*
X122500500Y-80732186D01*
X122500500Y-77267813D01*
X122520028Y-77144515D01*
X122576702Y-77033287D01*
X122664974Y-76945015D01*
X122776202Y-76888341D01*
X122899500Y-76868813D01*
X123022798Y-76888341D01*
X123134026Y-76945015D01*
X123179644Y-76990000D01*
X123182634Y-76987011D01*
X123202815Y-77007192D01*
X123317909Y-77093352D01*
X123452622Y-77143597D01*
X123452626Y-77143598D01*
X123512169Y-77149999D01*
X123512175Y-77150000D01*
X124059999Y-77150000D01*
X124060000Y-77149999D01*
X124060000Y-75957179D01*
X124099910Y-76026306D01*
X124183694Y-76110090D01*
X124286306Y-76169333D01*
X124400756Y-76200000D01*
X124519244Y-76200000D01*
X124633694Y-76169333D01*
X124736306Y-76110090D01*
X124820090Y-76026306D01*
X124860000Y-75957179D01*
X124860000Y-77149999D01*
G37*
%TD.AperFunction*%
%TA.AperFunction,Conductor*%
G36*
X125852550Y-69465749D02*
G01*
X125953544Y-69539125D01*
X126832638Y-70418219D01*
X126906012Y-70519210D01*
X126944588Y-70637935D01*
X126949500Y-70700352D01*
X126949500Y-73494502D01*
X126929972Y-73617800D01*
X126873298Y-73729028D01*
X126785026Y-73817300D01*
X126673798Y-73873974D01*
X126635313Y-73884384D01*
X126463202Y-73921823D01*
X126208481Y-74016830D01*
X125969894Y-74147108D01*
X125786153Y-74284655D01*
X125675745Y-74342911D01*
X125552739Y-74364197D01*
X125492353Y-74357597D01*
X125492195Y-74359070D01*
X125407830Y-74350000D01*
X124860001Y-74350000D01*
X124860000Y-74350001D01*
X124860000Y-75542820D01*
X124820090Y-75473694D01*
X124736306Y-75389910D01*
X124633694Y-75330667D01*
X124519244Y-75300000D01*
X124400756Y-75300000D01*
X124286306Y-75330667D01*
X124183694Y-75389910D01*
X124099910Y-75473694D01*
X124060000Y-75542820D01*
X124060000Y-74350001D01*
X124059999Y-74350000D01*
X123512169Y-74350000D01*
X123452626Y-74356401D01*
X123452622Y-74356402D01*
X123317909Y-74406647D01*
X123202815Y-74492807D01*
X123182634Y-74512989D01*
X123179373Y-74509728D01*
X123129373Y-74558314D01*
X123017343Y-74613387D01*
X122893778Y-74631145D01*
X122770773Y-74609850D01*
X122660368Y-74551587D01*
X122573372Y-74462059D01*
X122518299Y-74350029D01*
X122500500Y-74232186D01*
X122500500Y-70053453D01*
X122520028Y-69930155D01*
X122576702Y-69818927D01*
X122664974Y-69730655D01*
X122776202Y-69673981D01*
X122899500Y-69654453D01*
X125273946Y-69654453D01*
X125273947Y-69654453D01*
X125273947Y-69654452D01*
X125389273Y-69539126D01*
X125490266Y-69465750D01*
X125608991Y-69427173D01*
X125733826Y-69427173D01*
X125852550Y-69465749D01*
G37*
%TD.AperFunction*%
%TA.AperFunction,Conductor*%
G36*
X143152766Y-49088450D02*
G01*
X143253760Y-49161826D01*
X143321815Y-49252737D01*
X143378747Y-49356999D01*
X143412776Y-49419318D01*
X143514590Y-49555325D01*
X143584261Y-49648395D01*
X143633138Y-49697272D01*
X143706512Y-49798263D01*
X143745088Y-49916988D01*
X143750000Y-49979405D01*
X143750000Y-50474999D01*
X143750001Y-50475000D01*
X144792894Y-50475000D01*
X144699901Y-50567993D01*
X144634075Y-50682007D01*
X144600000Y-50809174D01*
X144600000Y-50940826D01*
X144634075Y-51067993D01*
X144699901Y-51182007D01*
X144792894Y-51275000D01*
X143750001Y-51275000D01*
X143750000Y-51275001D01*
X143750000Y-51772830D01*
X143756401Y-51832373D01*
X143756402Y-51832377D01*
X143806647Y-51967090D01*
X143892807Y-52082184D01*
X143892815Y-52082192D01*
X144007909Y-52168352D01*
X144142622Y-52218597D01*
X144142626Y-52218598D01*
X144202169Y-52224999D01*
X144202175Y-52225000D01*
X144510411Y-52225000D01*
X144633709Y-52244528D01*
X144744937Y-52301202D01*
X144833209Y-52389474D01*
X144889883Y-52500702D01*
X144909411Y-52624000D01*
X144889883Y-52747298D01*
X144833209Y-52858526D01*
X144792547Y-52906136D01*
X143285465Y-54413217D01*
X143184471Y-54486593D01*
X143065746Y-54525169D01*
X142940912Y-54525169D01*
X142822187Y-54486593D01*
X142778565Y-54460750D01*
X142742778Y-54436351D01*
X142742777Y-54436350D01*
X142742775Y-54436349D01*
X142499641Y-54319262D01*
X142241772Y-54239720D01*
X142241764Y-54239718D01*
X141974939Y-54199500D01*
X141974929Y-54199500D01*
X141705071Y-54199500D01*
X141705060Y-54199500D01*
X141438235Y-54239718D01*
X141438226Y-54239720D01*
X141180361Y-54319261D01*
X141180359Y-54319262D01*
X140937226Y-54436349D01*
X140806951Y-54525169D01*
X140714259Y-54588365D01*
X140516437Y-54771917D01*
X140348187Y-54982895D01*
X140348179Y-54982906D01*
X140213258Y-55216598D01*
X140213256Y-55216602D01*
X140114667Y-55467800D01*
X140114665Y-55467806D01*
X140054616Y-55730899D01*
X140054615Y-55730903D01*
X140046733Y-55836089D01*
X140018045Y-55957583D01*
X139953217Y-56064265D01*
X139930985Y-56088407D01*
X131087638Y-64931755D01*
X131087635Y-64931758D01*
X131087634Y-64931757D01*
X130931760Y-65087632D01*
X130931758Y-65087635D01*
X130890524Y-65144390D01*
X130875693Y-65164803D01*
X130875692Y-65164804D01*
X130802184Y-65265978D01*
X130702105Y-65462394D01*
X130702101Y-65462403D01*
X130633985Y-65672045D01*
X130633984Y-65672052D01*
X130599499Y-65889775D01*
X130599499Y-66126692D01*
X130599500Y-66126717D01*
X130599500Y-68270647D01*
X130579972Y-68393945D01*
X130523298Y-68505173D01*
X130435026Y-68593445D01*
X130323798Y-68650119D01*
X130200500Y-68669647D01*
X130077202Y-68650119D01*
X129965974Y-68593445D01*
X129918364Y-68552783D01*
X129101748Y-67736167D01*
X129028372Y-67635173D01*
X128989796Y-67516448D01*
X128985901Y-67425566D01*
X128993949Y-67313050D01*
X129000421Y-67222557D01*
X129005610Y-67150004D01*
X129005610Y-67149994D01*
X128992060Y-66960545D01*
X128985196Y-66864572D01*
X128924369Y-66584954D01*
X128824367Y-66316839D01*
X128720552Y-66126717D01*
X128687227Y-66065686D01*
X128555544Y-65889778D01*
X128515739Y-65836605D01*
X128419464Y-65740330D01*
X128346091Y-65639340D01*
X128307515Y-65520615D01*
X128307515Y-65395781D01*
X128336209Y-65297922D01*
X128423587Y-65098719D01*
X128423589Y-65098714D01*
X128484612Y-64857743D01*
X128505141Y-64610001D01*
X128505141Y-64609998D01*
X128484612Y-64362256D01*
X128423589Y-64121285D01*
X128423587Y-64121280D01*
X128336209Y-63922077D01*
X128304565Y-63801319D01*
X128311785Y-63676694D01*
X128357164Y-63560399D01*
X128419465Y-63479668D01*
X128515739Y-63383395D01*
X128566112Y-63316105D01*
X128641012Y-63216049D01*
X128678286Y-63173030D01*
X142689491Y-49161823D01*
X142790482Y-49088450D01*
X142909207Y-49049874D01*
X143034041Y-49049874D01*
X143152766Y-49088450D01*
G37*
%TD.AperFunction*%
%TA.AperFunction,Conductor*%
G36*
X147900711Y-48977527D02*
G01*
X148011939Y-49034201D01*
X148100211Y-49122473D01*
X148156885Y-49233701D01*
X148176413Y-49356999D01*
X148156885Y-49480297D01*
X148100211Y-49591525D01*
X148059548Y-49639135D01*
X147131135Y-50567547D01*
X147030142Y-50640923D01*
X146911417Y-50679499D01*
X146786582Y-50679499D01*
X146667858Y-50640923D01*
X146566864Y-50567546D01*
X146493488Y-50466553D01*
X146454912Y-50347828D01*
X146450000Y-50285411D01*
X146450000Y-49979405D01*
X146469528Y-49856107D01*
X146526202Y-49744879D01*
X146566867Y-49697267D01*
X146615736Y-49648398D01*
X146615739Y-49648395D01*
X146787226Y-49419315D01*
X146924367Y-49168161D01*
X146924368Y-49168157D01*
X146925667Y-49165779D01*
X147001898Y-49066922D01*
X147104945Y-48996460D01*
X147224723Y-48961291D01*
X147275861Y-48958000D01*
X147741315Y-48958000D01*
X147741327Y-48957999D01*
X147777413Y-48957999D01*
X147900711Y-48977527D01*
G37*
%TD.AperFunction*%
%TA.AperFunction,Conductor*%
G36*
X163904585Y-29467028D02*
G01*
X164015813Y-29523702D01*
X164104085Y-29611974D01*
X164160759Y-29723202D01*
X164180287Y-29846500D01*
X164160759Y-29969798D01*
X164104085Y-30081026D01*
X164020401Y-30165914D01*
X163987815Y-30190307D01*
X163987807Y-30190315D01*
X163901647Y-30305409D01*
X163851402Y-30440122D01*
X163851401Y-30440126D01*
X163845000Y-30499669D01*
X163845000Y-30744767D01*
X163825472Y-30868065D01*
X163768798Y-30979293D01*
X163698147Y-31053997D01*
X163633893Y-31106389D01*
X163633886Y-31106396D01*
X163505303Y-31264090D01*
X163411091Y-31444449D01*
X163383102Y-31542266D01*
X163355114Y-31640082D01*
X163355114Y-31640084D01*
X163344500Y-31759459D01*
X163344500Y-32775532D01*
X163348201Y-32817158D01*
X163351736Y-32856925D01*
X163352647Y-32867165D01*
X163352646Y-32937830D01*
X163344500Y-33029453D01*
X163344500Y-34045532D01*
X163347947Y-34084298D01*
X163351965Y-34129500D01*
X163352647Y-34137165D01*
X163352646Y-34207830D01*
X163344500Y-34299453D01*
X163344500Y-35315532D01*
X163352647Y-35407165D01*
X163352646Y-35477830D01*
X163344500Y-35569453D01*
X163344500Y-36585532D01*
X163352647Y-36677165D01*
X163352646Y-36747830D01*
X163344500Y-36839453D01*
X163344500Y-37855532D01*
X163348526Y-37900816D01*
X163351787Y-37937499D01*
X163352647Y-37947165D01*
X163352646Y-38017830D01*
X163344500Y-38109453D01*
X163344500Y-39125532D01*
X163352647Y-39217165D01*
X163352646Y-39287830D01*
X163344500Y-39379453D01*
X163344500Y-40395532D01*
X163352647Y-40487165D01*
X163352646Y-40557830D01*
X163344500Y-40649453D01*
X163344500Y-41665532D01*
X163352647Y-41757165D01*
X163352646Y-41827830D01*
X163344500Y-41919453D01*
X163344500Y-42935532D01*
X163352647Y-43027165D01*
X163352646Y-43097830D01*
X163344500Y-43189453D01*
X163344500Y-44205532D01*
X163352647Y-44297165D01*
X163352646Y-44367830D01*
X163344500Y-44459453D01*
X163344500Y-45475532D01*
X163352647Y-45567165D01*
X163352646Y-45637830D01*
X163344500Y-45729453D01*
X163344500Y-46745532D01*
X163352647Y-46837165D01*
X163352646Y-46907830D01*
X163344500Y-46999453D01*
X163344500Y-47217879D01*
X163324972Y-47341177D01*
X163268298Y-47452405D01*
X163180026Y-47540677D01*
X163068798Y-47597351D01*
X162945500Y-47616879D01*
X162822202Y-47597351D01*
X162754286Y-47568076D01*
X162747094Y-47564149D01*
X162612377Y-47513902D01*
X162612373Y-47513901D01*
X162552830Y-47507500D01*
X162307732Y-47507500D01*
X162184434Y-47487972D01*
X162073206Y-47431298D01*
X161998500Y-47360644D01*
X161946112Y-47296395D01*
X161946109Y-47296391D01*
X161849822Y-47217879D01*
X161788409Y-47167803D01*
X161608050Y-47073591D01*
X161525172Y-47049877D01*
X161412418Y-47017614D01*
X161352727Y-47012307D01*
X161293040Y-47007000D01*
X160276967Y-47007000D01*
X160199926Y-47013849D01*
X160185332Y-47015146D01*
X160114669Y-47015146D01*
X160023044Y-47007000D01*
X159006967Y-47007000D01*
X158929926Y-47013849D01*
X158915332Y-47015146D01*
X158844669Y-47015146D01*
X158753044Y-47007000D01*
X157736967Y-47007000D01*
X157659926Y-47013849D01*
X157645332Y-47015146D01*
X157574669Y-47015146D01*
X157483044Y-47007000D01*
X156466967Y-47007000D01*
X156389926Y-47013849D01*
X156375332Y-47015146D01*
X156304669Y-47015146D01*
X156213044Y-47007000D01*
X155196967Y-47007000D01*
X155119926Y-47013849D01*
X155105332Y-47015146D01*
X155034669Y-47015146D01*
X154943044Y-47007000D01*
X153926967Y-47007000D01*
X153849926Y-47013849D01*
X153835332Y-47015146D01*
X153764669Y-47015146D01*
X153673044Y-47007000D01*
X152656967Y-47007000D01*
X152579926Y-47013849D01*
X152565332Y-47015146D01*
X152494669Y-47015146D01*
X152403044Y-47007000D01*
X151386967Y-47007000D01*
X151309926Y-47013849D01*
X151295332Y-47015146D01*
X151224669Y-47015146D01*
X151133044Y-47007000D01*
X150116967Y-47007000D01*
X149997578Y-47017614D01*
X149997574Y-47017615D01*
X149854262Y-47058622D01*
X149730349Y-47073766D01*
X149607821Y-47049877D01*
X149498673Y-46989295D01*
X149413587Y-46897948D01*
X149360894Y-46784780D01*
X149345499Y-46675023D01*
X149345499Y-45729464D01*
X149337353Y-45637830D01*
X149337353Y-45567165D01*
X149345500Y-45475537D01*
X149345499Y-44459464D01*
X149337353Y-44367830D01*
X149337353Y-44297165D01*
X149339146Y-44277000D01*
X149345500Y-44205537D01*
X149345499Y-43189464D01*
X149337353Y-43097830D01*
X149337353Y-43027165D01*
X149345500Y-42935537D01*
X149345499Y-41919464D01*
X149337353Y-41827830D01*
X149337353Y-41757165D01*
X149345500Y-41665537D01*
X149345499Y-40649464D01*
X149337353Y-40557830D01*
X149337353Y-40487165D01*
X149337516Y-40485330D01*
X154425000Y-40485330D01*
X154431401Y-40544873D01*
X154431402Y-40544877D01*
X154481647Y-40679590D01*
X154567807Y-40794684D01*
X154567815Y-40794692D01*
X154682909Y-40880852D01*
X154817622Y-40931097D01*
X154817626Y-40931098D01*
X154877169Y-40937499D01*
X154877175Y-40937500D01*
X156624999Y-40937500D01*
X156625000Y-40937499D01*
X157425000Y-40937499D01*
X157425001Y-40937500D01*
X159172825Y-40937500D01*
X159172830Y-40937499D01*
X159232373Y-40931098D01*
X159232377Y-40931097D01*
X159367090Y-40880852D01*
X159482184Y-40794692D01*
X159482192Y-40794684D01*
X159568352Y-40679590D01*
X159618597Y-40544877D01*
X159618598Y-40544873D01*
X159624999Y-40485330D01*
X159625000Y-40485325D01*
X159625000Y-38737501D01*
X159624999Y-38737500D01*
X157425001Y-38737500D01*
X157425000Y-38737501D01*
X157425000Y-40937499D01*
X156625000Y-40937499D01*
X156625000Y-38737501D01*
X156624999Y-38737500D01*
X154425001Y-38737500D01*
X154425000Y-38737501D01*
X154425000Y-40485330D01*
X149337516Y-40485330D01*
X149345500Y-40395537D01*
X149345499Y-39379464D01*
X149337353Y-39287830D01*
X149337353Y-39217165D01*
X149339146Y-39197000D01*
X149345500Y-39125537D01*
X149345499Y-38109464D01*
X149337353Y-38017830D01*
X149337353Y-37947165D01*
X149338213Y-37937500D01*
X149338213Y-37937499D01*
X154425000Y-37937499D01*
X154425001Y-37937500D01*
X156624999Y-37937500D01*
X156625000Y-37937499D01*
X157425000Y-37937499D01*
X157425001Y-37937500D01*
X159624999Y-37937500D01*
X159625000Y-37937499D01*
X159625000Y-36189675D01*
X159624999Y-36189669D01*
X159618598Y-36130126D01*
X159618597Y-36130122D01*
X159568352Y-35995409D01*
X159482192Y-35880315D01*
X159482184Y-35880307D01*
X159367090Y-35794147D01*
X159232377Y-35743902D01*
X159232373Y-35743901D01*
X159172830Y-35737500D01*
X157425001Y-35737500D01*
X157425000Y-35737501D01*
X157425000Y-37937499D01*
X156625000Y-37937499D01*
X156625000Y-35737501D01*
X156624999Y-35737500D01*
X154877169Y-35737500D01*
X154817626Y-35743901D01*
X154817622Y-35743902D01*
X154682909Y-35794147D01*
X154567815Y-35880307D01*
X154567807Y-35880315D01*
X154481647Y-35995409D01*
X154431402Y-36130122D01*
X154431401Y-36130126D01*
X154425000Y-36189669D01*
X154425000Y-37937499D01*
X149338213Y-37937499D01*
X149345500Y-37855537D01*
X149345499Y-36839464D01*
X149337353Y-36747830D01*
X149337353Y-36677165D01*
X149337355Y-36677147D01*
X149345500Y-36585537D01*
X149345499Y-35569464D01*
X149337353Y-35477830D01*
X149337353Y-35407165D01*
X149345500Y-35315537D01*
X149345499Y-34299464D01*
X149337353Y-34207830D01*
X149337353Y-34137165D01*
X149345500Y-34045537D01*
X149345499Y-33029464D01*
X149337353Y-32937830D01*
X149337353Y-32867165D01*
X149345500Y-32775537D01*
X149345499Y-31759464D01*
X149334886Y-31640082D01*
X149308798Y-31548910D01*
X149278909Y-31444451D01*
X149257736Y-31403917D01*
X149184698Y-31264093D01*
X149056109Y-31106391D01*
X148991853Y-31053997D01*
X148908637Y-30960944D01*
X148858248Y-30846731D01*
X148845000Y-30744767D01*
X148845000Y-30499675D01*
X148844999Y-30499669D01*
X148838598Y-30440126D01*
X148838597Y-30440122D01*
X148788352Y-30305409D01*
X148702192Y-30190315D01*
X148702184Y-30190307D01*
X148669599Y-30165914D01*
X148582598Y-30076391D01*
X148527519Y-29964364D01*
X148509754Y-29840800D01*
X148531042Y-29717793D01*
X148589299Y-29607386D01*
X148678822Y-29520385D01*
X148790849Y-29465306D01*
X148908713Y-29447500D01*
X163781287Y-29447500D01*
X163904585Y-29467028D01*
G37*
%TD.AperFunction*%
%TA.AperFunction,Conductor*%
G36*
X132180709Y-38817528D02*
G01*
X132291937Y-38874202D01*
X132380209Y-38962474D01*
X132436883Y-39073702D01*
X132456411Y-39197000D01*
X132436883Y-39320298D01*
X132380209Y-39431526D01*
X132339547Y-39479136D01*
X128778665Y-43040016D01*
X128677671Y-43113392D01*
X128558946Y-43151968D01*
X128434112Y-43151968D01*
X128315387Y-43113392D01*
X128214393Y-43040016D01*
X128207184Y-43032807D01*
X128092090Y-42946647D01*
X127957377Y-42896402D01*
X127957373Y-42896401D01*
X127897830Y-42890000D01*
X127400001Y-42890000D01*
X127400000Y-42890001D01*
X127400000Y-43932894D01*
X127307007Y-43839901D01*
X127192993Y-43774075D01*
X127065826Y-43740000D01*
X126934174Y-43740000D01*
X126807007Y-43774075D01*
X126692993Y-43839901D01*
X126599901Y-43932993D01*
X126534075Y-44047007D01*
X126500000Y-44174174D01*
X126500000Y-44305826D01*
X126534075Y-44432993D01*
X126599901Y-44547007D01*
X126692894Y-44640000D01*
X125650001Y-44640000D01*
X125650000Y-44640001D01*
X125650000Y-45135594D01*
X125630472Y-45258892D01*
X125573798Y-45370120D01*
X125533136Y-45417730D01*
X125484263Y-45466602D01*
X125454388Y-45506511D01*
X125364865Y-45593513D01*
X125252838Y-45648592D01*
X125134973Y-45666398D01*
X124878345Y-45666398D01*
X124755047Y-45646870D01*
X124643819Y-45590196D01*
X124555547Y-45501924D01*
X124498873Y-45390696D01*
X124479345Y-45267398D01*
X124479345Y-43839999D01*
X125650000Y-43839999D01*
X125650001Y-43840000D01*
X126599999Y-43840000D01*
X126600000Y-43839999D01*
X126600000Y-42890001D01*
X126599999Y-42890000D01*
X126102169Y-42890000D01*
X126042626Y-42896401D01*
X126042622Y-42896402D01*
X125907909Y-42946647D01*
X125792815Y-43032807D01*
X125792807Y-43032815D01*
X125706647Y-43147909D01*
X125656402Y-43282622D01*
X125656401Y-43282626D01*
X125650000Y-43342169D01*
X125650000Y-43839999D01*
X124479345Y-43839999D01*
X124479345Y-42637383D01*
X124479345Y-42637382D01*
X122899500Y-42637382D01*
X122776202Y-42617854D01*
X122664974Y-42561180D01*
X122576702Y-42472908D01*
X122520028Y-42361680D01*
X122500500Y-42238382D01*
X122500500Y-40718003D01*
X122520028Y-40594705D01*
X122576702Y-40483477D01*
X122664974Y-40395205D01*
X122776202Y-40338531D01*
X122899500Y-40319003D01*
X124961524Y-40319003D01*
X125018540Y-40277578D01*
X125137264Y-40239002D01*
X125262099Y-40239001D01*
X125380824Y-40277576D01*
X125481818Y-40350952D01*
X125481820Y-40350953D01*
X125484258Y-40353391D01*
X125484261Y-40353395D01*
X125686605Y-40555739D01*
X125689409Y-40557838D01*
X125915686Y-40727227D01*
X126039239Y-40794692D01*
X126166839Y-40864367D01*
X126434954Y-40964369D01*
X126714572Y-41025196D01*
X126809714Y-41032000D01*
X126999994Y-41045610D01*
X127000000Y-41045610D01*
X127000006Y-41045610D01*
X127142714Y-41035403D01*
X127285428Y-41025196D01*
X127565046Y-40964369D01*
X127833161Y-40864367D01*
X128084315Y-40727226D01*
X128313395Y-40555739D01*
X128407080Y-40462052D01*
X128508072Y-40388677D01*
X128508074Y-40388676D01*
X128516795Y-40384232D01*
X128516799Y-40384231D01*
X128720228Y-40280579D01*
X128720234Y-40280574D01*
X128720237Y-40280573D01*
X128813829Y-40212573D01*
X128813843Y-40212563D01*
X128904937Y-40146380D01*
X129815406Y-39235911D01*
X130136454Y-38914864D01*
X130237447Y-38841488D01*
X130356172Y-38802912D01*
X130418589Y-38798000D01*
X132057411Y-38798000D01*
X132180709Y-38817528D01*
G37*
%TD.AperFunction*%
%TA.AperFunction,Conductor*%
G36*
X132069298Y-23520028D02*
G01*
X132180526Y-23576702D01*
X132268798Y-23664974D01*
X132325472Y-23776202D01*
X132345000Y-23899500D01*
X132345000Y-29447500D01*
X132345001Y-29447500D01*
X134289137Y-29447500D01*
X134412435Y-29467028D01*
X134523663Y-29523702D01*
X134611935Y-29611974D01*
X134668609Y-29723202D01*
X134688137Y-29846500D01*
X134668609Y-29969798D01*
X134646308Y-30024347D01*
X134626241Y-30064647D01*
X134626239Y-30064650D01*
X134565379Y-30278554D01*
X134549046Y-30454815D01*
X134518224Y-30575785D01*
X134451529Y-30681310D01*
X134355490Y-30761060D01*
X134239506Y-30807229D01*
X134151748Y-30817000D01*
X131618343Y-30817000D01*
X131392840Y-30852716D01*
X131392834Y-30852717D01*
X131175698Y-30923269D01*
X130972267Y-31026923D01*
X130972262Y-31026926D01*
X130913413Y-31069684D01*
X130913410Y-31069687D01*
X130787566Y-31161116D01*
X130787562Y-31161120D01*
X128946271Y-33002409D01*
X128845278Y-33075785D01*
X128726553Y-33114361D01*
X128601718Y-33114361D01*
X128482994Y-33075784D01*
X128382000Y-33002408D01*
X128308624Y-32901415D01*
X128296148Y-32873029D01*
X128293352Y-32867909D01*
X128207192Y-32752815D01*
X128207184Y-32752807D01*
X128092090Y-32666647D01*
X127957377Y-32616402D01*
X127957373Y-32616401D01*
X127897830Y-32610000D01*
X127400001Y-32610000D01*
X127400000Y-32610001D01*
X127400000Y-33652894D01*
X127307007Y-33559901D01*
X127192993Y-33494075D01*
X127065826Y-33460000D01*
X126934174Y-33460000D01*
X126807007Y-33494075D01*
X126692993Y-33559901D01*
X126599901Y-33652993D01*
X126534075Y-33767007D01*
X126500000Y-33894174D01*
X126500000Y-34025826D01*
X126534075Y-34152993D01*
X126599901Y-34267007D01*
X126692894Y-34360000D01*
X125650001Y-34360000D01*
X125650000Y-34360001D01*
X125650000Y-34511197D01*
X125630472Y-34634495D01*
X125573798Y-34745723D01*
X125485526Y-34833995D01*
X125374298Y-34890669D01*
X125251000Y-34910197D01*
X125127702Y-34890669D01*
X125016474Y-34833995D01*
X125012073Y-34830236D01*
X125005768Y-34830236D01*
X124878345Y-34830236D01*
X124755047Y-34810708D01*
X124643819Y-34754034D01*
X124555547Y-34665762D01*
X124498873Y-34554534D01*
X124479345Y-34431236D01*
X124479345Y-33559999D01*
X125650000Y-33559999D01*
X125650001Y-33560000D01*
X126599999Y-33560000D01*
X126600000Y-33559999D01*
X126600000Y-32610001D01*
X126599999Y-32610000D01*
X126102169Y-32610000D01*
X126042626Y-32616401D01*
X126042622Y-32616402D01*
X125907909Y-32666647D01*
X125792815Y-32752807D01*
X125792807Y-32752815D01*
X125706647Y-32867909D01*
X125656402Y-33002622D01*
X125656401Y-33002626D01*
X125650000Y-33062169D01*
X125650000Y-33559999D01*
X124479345Y-33559999D01*
X124479345Y-32387383D01*
X124479345Y-32387382D01*
X122899500Y-32387382D01*
X122776202Y-32367854D01*
X122664974Y-32311180D01*
X122576702Y-32222908D01*
X122520028Y-32111680D01*
X122500500Y-31988382D01*
X122500500Y-28113449D01*
X122520028Y-27990151D01*
X122576702Y-27878923D01*
X122664974Y-27790651D01*
X122776202Y-27733977D01*
X122899500Y-27714449D01*
X123022798Y-27733977D01*
X123134026Y-27790651D01*
X123213587Y-27867380D01*
X123299932Y-27977593D01*
X123299936Y-27977597D01*
X123299940Y-27977602D01*
X123300095Y-27977757D01*
X123300122Y-27977786D01*
X123522389Y-28200052D01*
X123522406Y-28200067D01*
X123530550Y-28206447D01*
X123635912Y-28288992D01*
X123635997Y-28289058D01*
X123638705Y-28291199D01*
X123742791Y-28374206D01*
X123751932Y-28380692D01*
X123751678Y-28381049D01*
X123768616Y-28392960D01*
X123770041Y-28394076D01*
X123770043Y-28394077D01*
X123770048Y-28394081D01*
X123882509Y-28462066D01*
X123888303Y-28465637D01*
X123990107Y-28529605D01*
X123993313Y-28531149D01*
X124026594Y-28549169D01*
X124039279Y-28556837D01*
X124039283Y-28556838D01*
X124039285Y-28556840D01*
X124122407Y-28594250D01*
X124135169Y-28599994D01*
X124147259Y-28605435D01*
X124156626Y-28609797D01*
X124253256Y-28656332D01*
X124253258Y-28656333D01*
X124253261Y-28656334D01*
X124253263Y-28656335D01*
X124268865Y-28661794D01*
X124300847Y-28674559D01*
X124326159Y-28685952D01*
X124426904Y-28717346D01*
X124439964Y-28721664D01*
X124528955Y-28752803D01*
X124557708Y-28759365D01*
X124587612Y-28767423D01*
X124626522Y-28779549D01*
X124717595Y-28796238D01*
X124734378Y-28799690D01*
X124813714Y-28817798D01*
X124855911Y-28822552D01*
X124883135Y-28826575D01*
X124935971Y-28836258D01*
X125015454Y-28841065D01*
X125036009Y-28842844D01*
X125103959Y-28850500D01*
X125159366Y-28850500D01*
X125183457Y-28851228D01*
X125249999Y-28855253D01*
X125250000Y-28855253D01*
X125250001Y-28855253D01*
X125316543Y-28851228D01*
X125340634Y-28850500D01*
X125396039Y-28850500D01*
X125396041Y-28850500D01*
X125463996Y-28842843D01*
X125484547Y-28841065D01*
X125564029Y-28836258D01*
X125616867Y-28826574D01*
X125644091Y-28822551D01*
X125686286Y-28817798D01*
X125765604Y-28799693D01*
X125782402Y-28796239D01*
X125873478Y-28779549D01*
X125912385Y-28767424D01*
X125942285Y-28759366D01*
X125971045Y-28752803D01*
X126060033Y-28721664D01*
X126073064Y-28717354D01*
X126173835Y-28685954D01*
X126199145Y-28674562D01*
X126231137Y-28661792D01*
X126246737Y-28656335D01*
X126343396Y-28609785D01*
X126352669Y-28605466D01*
X126460721Y-28556837D01*
X126473382Y-28549183D01*
X126506702Y-28531142D01*
X126509889Y-28529607D01*
X126509889Y-28529606D01*
X126509893Y-28529605D01*
X126611710Y-28465627D01*
X126617430Y-28462102D01*
X126729952Y-28394081D01*
X126731351Y-28392984D01*
X126748323Y-28381057D01*
X126748065Y-28380693D01*
X126757184Y-28374221D01*
X126757206Y-28374208D01*
X126861376Y-28291134D01*
X126864002Y-28289058D01*
X126977602Y-28200060D01*
X126977615Y-28200047D01*
X126985562Y-28192099D01*
X126985565Y-28192098D01*
X127192098Y-27985565D01*
X127192099Y-27985562D01*
X127200047Y-27977615D01*
X127200047Y-27977614D01*
X127200060Y-27977602D01*
X127289139Y-27863898D01*
X127291134Y-27861376D01*
X127318568Y-27826975D01*
X127374208Y-27757206D01*
X127374221Y-27757184D01*
X127380693Y-27748065D01*
X127381057Y-27748323D01*
X127392984Y-27731351D01*
X127394081Y-27729952D01*
X127462102Y-27617430D01*
X127465627Y-27611710D01*
X127529605Y-27509893D01*
X127531142Y-27506702D01*
X127549183Y-27473382D01*
X127549262Y-27473249D01*
X127556837Y-27460721D01*
X127605466Y-27352669D01*
X127609799Y-27343368D01*
X127656331Y-27246745D01*
X127656335Y-27246737D01*
X127661792Y-27231137D01*
X127674563Y-27199143D01*
X127685951Y-27173842D01*
X127685952Y-27173839D01*
X127685954Y-27173835D01*
X127717354Y-27073064D01*
X127721673Y-27060008D01*
X127752800Y-26971053D01*
X127752803Y-26971045D01*
X127759366Y-26942285D01*
X127767427Y-26912376D01*
X127779549Y-26873478D01*
X127796239Y-26782402D01*
X127799700Y-26765576D01*
X127817798Y-26686286D01*
X127822553Y-26644084D01*
X127826574Y-26616867D01*
X127836258Y-26564029D01*
X127841065Y-26484547D01*
X127842845Y-26463982D01*
X127850500Y-26396041D01*
X127850500Y-26340632D01*
X127851228Y-26316541D01*
X127855253Y-26250000D01*
X127855253Y-26249999D01*
X127851228Y-26183457D01*
X127850500Y-26159366D01*
X127850500Y-26103962D01*
X127850499Y-26103953D01*
X127850498Y-26103943D01*
X127842844Y-26036009D01*
X127841065Y-26015445D01*
X127836258Y-25935971D01*
X127826575Y-25883135D01*
X127822552Y-25855911D01*
X127817798Y-25813714D01*
X127799690Y-25734378D01*
X127796236Y-25717579D01*
X127779549Y-25626522D01*
X127767423Y-25587612D01*
X127759363Y-25557699D01*
X127752804Y-25528960D01*
X127752803Y-25528955D01*
X127721664Y-25439964D01*
X127717346Y-25426904D01*
X127685952Y-25326159D01*
X127674559Y-25300847D01*
X127661794Y-25268865D01*
X127656335Y-25253263D01*
X127609796Y-25156624D01*
X127605435Y-25147259D01*
X127556840Y-25039285D01*
X127556838Y-25039283D01*
X127556837Y-25039279D01*
X127549169Y-25026594D01*
X127531149Y-24993313D01*
X127529605Y-24990107D01*
X127465637Y-24888303D01*
X127462050Y-24882483D01*
X127444115Y-24852815D01*
X127394081Y-24770048D01*
X127394076Y-24770041D01*
X127394076Y-24770040D01*
X127392960Y-24768616D01*
X127381049Y-24751678D01*
X127380692Y-24751932D01*
X127374206Y-24742791D01*
X127291199Y-24638705D01*
X127289058Y-24635997D01*
X127289027Y-24635958D01*
X127259148Y-24597819D01*
X127200067Y-24522406D01*
X127200052Y-24522389D01*
X126977786Y-24300122D01*
X126977757Y-24300095D01*
X126977602Y-24299940D01*
X126867379Y-24213586D01*
X126782365Y-24122174D01*
X126729759Y-24008965D01*
X126714712Y-23885040D01*
X126738696Y-23762531D01*
X126799364Y-23653429D01*
X126890776Y-23568415D01*
X127003985Y-23515809D01*
X127113450Y-23500500D01*
X131946000Y-23500500D01*
X132069298Y-23520028D01*
G37*
%TD.AperFunction*%
%TA.AperFunction,Conductor*%
G36*
X182503291Y-27826975D02*
G01*
X182614519Y-27883649D01*
X182702791Y-27971921D01*
X182759465Y-28083149D01*
X182778993Y-28206447D01*
X182769875Y-28291259D01*
X182764803Y-28314570D01*
X182764803Y-28314577D01*
X182744390Y-28599994D01*
X182744390Y-28600005D01*
X182764803Y-28885422D01*
X182764803Y-28885425D01*
X182825631Y-29165046D01*
X182925630Y-29433155D01*
X182925635Y-29433166D01*
X182950692Y-29479053D01*
X182992644Y-29596627D01*
X182999500Y-29670276D01*
X182999500Y-30609647D01*
X182979972Y-30732945D01*
X182923298Y-30844173D01*
X182882635Y-30891783D01*
X181982445Y-31791972D01*
X181881452Y-31865348D01*
X181762727Y-31903924D01*
X181661761Y-31903924D01*
X180820081Y-32745603D01*
X180872741Y-32654394D01*
X180900000Y-32552661D01*
X180900000Y-32447339D01*
X180872741Y-32345606D01*
X180820080Y-32254394D01*
X180745606Y-32179920D01*
X180654394Y-32127259D01*
X180552661Y-32100000D01*
X180447339Y-32100000D01*
X180345606Y-32127259D01*
X180254394Y-32179920D01*
X180179920Y-32254394D01*
X180127259Y-32345606D01*
X180100000Y-32447339D01*
X180100000Y-32552661D01*
X180127259Y-32654394D01*
X180179917Y-32745601D01*
X179341869Y-31907554D01*
X179341868Y-31907554D01*
X179273733Y-32053673D01*
X179220119Y-32253768D01*
X179169344Y-32367810D01*
X179085814Y-32460581D01*
X178977704Y-32522998D01*
X178855597Y-32548953D01*
X178834714Y-32549500D01*
X177464771Y-32549500D01*
X177341473Y-32529972D01*
X177230245Y-32473298D01*
X177182635Y-32432636D01*
X177149999Y-32400000D01*
X174150001Y-32400000D01*
X174150000Y-32400001D01*
X174150000Y-32450500D01*
X174130472Y-32573798D01*
X174073798Y-32685026D01*
X173985526Y-32773298D01*
X173874298Y-32829972D01*
X173751000Y-32849500D01*
X171696557Y-32849500D01*
X171573259Y-32829972D01*
X171462031Y-32773298D01*
X171373759Y-32685026D01*
X171317085Y-32573798D01*
X171306049Y-32532382D01*
X171305544Y-32529972D01*
X171293050Y-32470386D01*
X171285290Y-32450500D01*
X171253042Y-32367854D01*
X171202656Y-32238727D01*
X171092388Y-32053673D01*
X171075368Y-32025109D01*
X171075367Y-32025108D01*
X171075366Y-32025106D01*
X170914650Y-31835350D01*
X170724894Y-31674634D01*
X170724892Y-31674633D01*
X170724890Y-31674631D01*
X170599639Y-31599999D01*
X174150000Y-31599999D01*
X174150001Y-31600000D01*
X175249999Y-31600000D01*
X175250000Y-31599999D01*
X176050000Y-31599999D01*
X176050001Y-31600000D01*
X177149999Y-31600000D01*
X177150000Y-31599999D01*
X177150000Y-31548910D01*
X177149999Y-31548895D01*
X177147102Y-31506178D01*
X177106240Y-31341868D01*
X179907554Y-31341868D01*
X180500000Y-31934314D01*
X181092445Y-31341869D01*
X180946324Y-31273732D01*
X180726606Y-31214859D01*
X180500000Y-31195034D01*
X180273391Y-31214860D01*
X180273388Y-31214860D01*
X180053677Y-31273731D01*
X179907554Y-31341868D01*
X177106240Y-31341868D01*
X177101170Y-31321480D01*
X177016606Y-31150973D01*
X176897371Y-31002638D01*
X176897361Y-31002628D01*
X176749026Y-30883393D01*
X176578519Y-30798829D01*
X176393821Y-30752897D01*
X176351104Y-30750000D01*
X176050001Y-30750000D01*
X176050000Y-30750001D01*
X176050000Y-31599999D01*
X175250000Y-31599999D01*
X175250000Y-30750001D01*
X175249999Y-30750000D01*
X174948895Y-30750000D01*
X174906178Y-30752897D01*
X174721480Y-30798829D01*
X174550973Y-30883393D01*
X174402638Y-31002628D01*
X174402628Y-31002638D01*
X174283393Y-31150973D01*
X174198829Y-31321480D01*
X174152897Y-31506178D01*
X174150000Y-31548895D01*
X174150000Y-31599999D01*
X170599639Y-31599999D01*
X170595855Y-31597744D01*
X170511273Y-31547344D01*
X170511271Y-31547343D01*
X170395443Y-31502147D01*
X170279614Y-31456950D01*
X170036237Y-31405919D01*
X170036235Y-31405918D01*
X170036231Y-31405918D01*
X169932866Y-31399500D01*
X169932842Y-31399500D01*
X168767158Y-31399500D01*
X168767129Y-31399500D01*
X168695994Y-31403917D01*
X168571723Y-31392066D01*
X168457197Y-31342393D01*
X168389141Y-31287824D01*
X168262437Y-31161120D01*
X168262433Y-31161117D01*
X168262428Y-31161112D01*
X168136590Y-31069687D01*
X168136587Y-31069684D01*
X168077737Y-31026926D01*
X168077732Y-31026923D01*
X167874301Y-30923269D01*
X167657165Y-30852717D01*
X167657161Y-30852716D01*
X167657160Y-30852716D01*
X167431657Y-30817000D01*
X166737519Y-30817000D01*
X166614221Y-30797472D01*
X166502993Y-30740798D01*
X166414721Y-30652526D01*
X166358047Y-30541298D01*
X166340805Y-30460651D01*
X166338598Y-30440125D01*
X166338597Y-30440122D01*
X166288352Y-30305409D01*
X166202192Y-30190315D01*
X166202184Y-30190307D01*
X166169599Y-30165914D01*
X166082598Y-30076391D01*
X166027519Y-29964364D01*
X166009754Y-29840800D01*
X166031042Y-29717793D01*
X166089299Y-29607386D01*
X166178822Y-29520385D01*
X166290849Y-29465306D01*
X166408713Y-29447500D01*
X180344999Y-29447500D01*
X180345000Y-29447500D01*
X180345000Y-28206447D01*
X180364528Y-28083149D01*
X180421202Y-27971921D01*
X180509474Y-27883649D01*
X180620702Y-27826975D01*
X180744000Y-27807447D01*
X182379993Y-27807447D01*
X182503291Y-27826975D01*
G37*
%TD.AperFunction*%
%TA.AperFunction,Conductor*%
G36*
X146404585Y-29467028D02*
G01*
X146515813Y-29523702D01*
X146604085Y-29611974D01*
X146660759Y-29723202D01*
X146680287Y-29846500D01*
X146660759Y-29969798D01*
X146604085Y-30081026D01*
X146520401Y-30165914D01*
X146487815Y-30190307D01*
X146487807Y-30190315D01*
X146401647Y-30305409D01*
X146351402Y-30440122D01*
X146351401Y-30440125D01*
X146349195Y-30460651D01*
X146316598Y-30581155D01*
X146248359Y-30685688D01*
X146151158Y-30764018D01*
X146034509Y-30808477D01*
X145952481Y-30817000D01*
X137348252Y-30817000D01*
X137224954Y-30797472D01*
X137113726Y-30740798D01*
X137025454Y-30652526D01*
X136968780Y-30541298D01*
X136950954Y-30454815D01*
X136934620Y-30278554D01*
X136873760Y-30064650D01*
X136873758Y-30064647D01*
X136853692Y-30024347D01*
X136816215Y-29905271D01*
X136817369Y-29780441D01*
X136857042Y-29662078D01*
X136931348Y-29561768D01*
X137033016Y-29489329D01*
X137152092Y-29451852D01*
X137210863Y-29447500D01*
X146281287Y-29447500D01*
X146404585Y-29467028D01*
G37*
%TD.AperFunction*%
%TD*%
%TA.AperFunction,NonConductor*%
G36*
X134363320Y-33737528D02*
G01*
X134474548Y-33794202D01*
X134562820Y-33882474D01*
X134619494Y-33993702D01*
X134639022Y-34117000D01*
X134619494Y-34240298D01*
X134562820Y-34351526D01*
X134511412Y-34409486D01*
X134499965Y-34420107D01*
X134499945Y-34420128D01*
X134341043Y-34619385D01*
X134341035Y-34619396D01*
X134213608Y-34840108D01*
X134213604Y-34840117D01*
X134120495Y-35077353D01*
X134120490Y-35077369D01*
X134063777Y-35325845D01*
X134063776Y-35325850D01*
X134048642Y-35527816D01*
X134019955Y-35649310D01*
X133955128Y-35755992D01*
X133860507Y-35837421D01*
X133745354Y-35885624D01*
X133650758Y-35897000D01*
X131117589Y-35897000D01*
X130994291Y-35877472D01*
X130883063Y-35820798D01*
X130794791Y-35732526D01*
X130738117Y-35621298D01*
X130718589Y-35498000D01*
X130738117Y-35374702D01*
X130794791Y-35263474D01*
X130835453Y-35215864D01*
X132216453Y-33834864D01*
X132317447Y-33761488D01*
X132436172Y-33722912D01*
X132498589Y-33718000D01*
X134240022Y-33718000D01*
X134363320Y-33737528D01*
G37*
%TD.AperFunction*%
%TA.AperFunction,NonConductor*%
G36*
X138230709Y-43897528D02*
G01*
X138341937Y-43954202D01*
X138430209Y-44042474D01*
X138486883Y-44153702D01*
X138506411Y-44277000D01*
X138486883Y-44400298D01*
X138430209Y-44511526D01*
X138389547Y-44559136D01*
X127926045Y-55022636D01*
X127825051Y-55096012D01*
X127706326Y-55134588D01*
X127643909Y-55139500D01*
X126091967Y-55139500D01*
X125972578Y-55150114D01*
X125776951Y-55206090D01*
X125596590Y-55300303D01*
X125438896Y-55428886D01*
X125438885Y-55428897D01*
X125435233Y-55433377D01*
X125427406Y-55440376D01*
X125424583Y-55443200D01*
X125424425Y-55443042D01*
X125342182Y-55516595D01*
X125227970Y-55566985D01*
X125126000Y-55580235D01*
X122899500Y-55580235D01*
X122776202Y-55560707D01*
X122664974Y-55504033D01*
X122576702Y-55415761D01*
X122520028Y-55304533D01*
X122500500Y-55181235D01*
X122500500Y-53560322D01*
X122520028Y-53437024D01*
X122576702Y-53325796D01*
X122664974Y-53237524D01*
X122776202Y-53180850D01*
X122899500Y-53161322D01*
X125306917Y-53161322D01*
X125430215Y-53180850D01*
X125541443Y-53237524D01*
X125589046Y-53278180D01*
X125686605Y-53375739D01*
X125686608Y-53375741D01*
X125915686Y-53547227D01*
X125939668Y-53560322D01*
X126166839Y-53684367D01*
X126434954Y-53784369D01*
X126714572Y-53845196D01*
X126809714Y-53852000D01*
X126999994Y-53865610D01*
X127000000Y-53865610D01*
X127000006Y-53865610D01*
X127142714Y-53855403D01*
X127285428Y-53845196D01*
X127565046Y-53784369D01*
X127833161Y-53684367D01*
X128084315Y-53547226D01*
X128313395Y-53375739D01*
X128479803Y-53209330D01*
X128580791Y-53135958D01*
X128650228Y-53100579D01*
X128781475Y-53005222D01*
X128834937Y-52966380D01*
X137806452Y-43994863D01*
X137907446Y-43921488D01*
X138026171Y-43882912D01*
X138088588Y-43878000D01*
X138107411Y-43878000D01*
X138230709Y-43897528D01*
G37*
%TD.AperFunction*%
%TA.AperFunction,NonConductor*%
G36*
X149995681Y-55374825D02*
G01*
X150096675Y-55448201D01*
X150170051Y-55549195D01*
X150208627Y-55667920D01*
X150212424Y-55760152D01*
X150206734Y-55836089D01*
X150194452Y-55999994D01*
X150194451Y-56000005D01*
X150214615Y-56269095D01*
X150214616Y-56269099D01*
X150239496Y-56378104D01*
X150249500Y-56466890D01*
X150249500Y-57359647D01*
X150229972Y-57482945D01*
X150173298Y-57594173D01*
X150132635Y-57641783D01*
X149641781Y-58132636D01*
X149540788Y-58206012D01*
X149422063Y-58244588D01*
X149359647Y-58249500D01*
X148989467Y-58249500D01*
X148870078Y-58260114D01*
X148674449Y-58316091D01*
X148545465Y-58383467D01*
X148427137Y-58423244D01*
X148302309Y-58424509D01*
X148208040Y-58398437D01*
X148126673Y-58364734D01*
X148089118Y-58349178D01*
X148089115Y-58349177D01*
X147841826Y-58282916D01*
X147632962Y-58255418D01*
X147513268Y-58219962D01*
X147410389Y-58149255D01*
X147334395Y-58050216D01*
X147292725Y-57932542D01*
X147289458Y-57807750D01*
X147324914Y-57688056D01*
X147395621Y-57585177D01*
X147402862Y-57577742D01*
X149532409Y-55448196D01*
X149633397Y-55374825D01*
X149752122Y-55336249D01*
X149876956Y-55336249D01*
X149995681Y-55374825D01*
G37*
%TD.AperFunction*%
%TA.AperFunction,NonConductor*%
G36*
X137851642Y-65857330D02*
G01*
X137952635Y-65930706D01*
X138026011Y-66031700D01*
X138064588Y-66150424D01*
X138069500Y-66212840D01*
X138069500Y-66408032D01*
X138073115Y-66448694D01*
X138080114Y-66527418D01*
X138124105Y-66681161D01*
X138139500Y-66790923D01*
X138139500Y-70075606D01*
X138119972Y-70198904D01*
X138116462Y-70209224D01*
X138059099Y-70370627D01*
X137999408Y-70480266D01*
X137965273Y-70519145D01*
X137081636Y-71402782D01*
X136980642Y-71476158D01*
X136861917Y-71514734D01*
X136737083Y-71514734D01*
X136618358Y-71476158D01*
X136517364Y-71402782D01*
X136443988Y-71301788D01*
X136405412Y-71183063D01*
X136400500Y-71120646D01*
X136400500Y-67083843D01*
X136420028Y-66960545D01*
X136476702Y-66849317D01*
X136517364Y-66801708D01*
X136937965Y-66381107D01*
X137388365Y-65930705D01*
X137489358Y-65857331D01*
X137608082Y-65818754D01*
X137732917Y-65818754D01*
X137851642Y-65857330D01*
G37*
%TD.AperFunction*%
%TA.AperFunction,NonConductor*%
G36*
X133577109Y-74417195D02*
G01*
X133694308Y-74460183D01*
X133771385Y-74516182D01*
X133874259Y-74611635D01*
X134097226Y-74763651D01*
X134340359Y-74880738D01*
X134598228Y-74960280D01*
X134598235Y-74960281D01*
X134865060Y-75000499D01*
X134865068Y-75000499D01*
X134865071Y-75000500D01*
X134865073Y-75000500D01*
X134879954Y-75001615D01*
X134879691Y-75005123D01*
X134973798Y-75020028D01*
X135085026Y-75076702D01*
X135173298Y-75164974D01*
X135229972Y-75276202D01*
X135249500Y-75399500D01*
X135249500Y-77010647D01*
X135229972Y-77133945D01*
X135173298Y-77245173D01*
X135085026Y-77333445D01*
X134973798Y-77390119D01*
X134850500Y-77409647D01*
X134727202Y-77390119D01*
X134615974Y-77333445D01*
X134568364Y-77292783D01*
X132717553Y-75441972D01*
X132644177Y-75340978D01*
X132605601Y-75222253D01*
X132605601Y-75097419D01*
X132644177Y-74978694D01*
X132717553Y-74877700D01*
X132818547Y-74804324D01*
X132826571Y-74800349D01*
X132874943Y-74777054D01*
X132902775Y-74763651D01*
X133125741Y-74611635D01*
X133228613Y-74516183D01*
X133332277Y-74446637D01*
X133452362Y-74412527D01*
X133577109Y-74417195D01*
G37*
%TD.AperFunction*%
%TA.AperFunction,NonConductor*%
G36*
X158802797Y-64339880D02*
G01*
X158914025Y-64396554D01*
X158961635Y-64437216D01*
X160400524Y-65876105D01*
X160473900Y-65977099D01*
X160512476Y-66095824D01*
X160512476Y-66220658D01*
X160473900Y-66339383D01*
X160400524Y-66440377D01*
X160325702Y-66499154D01*
X160111407Y-66629469D01*
X160111404Y-66629471D01*
X159885845Y-66812976D01*
X159687371Y-67025489D01*
X159578869Y-67179202D01*
X159519688Y-67263044D01*
X159519685Y-67263050D01*
X159385914Y-67521215D01*
X159288536Y-67795206D01*
X159288534Y-67795213D01*
X159229377Y-68079892D01*
X159229375Y-68079902D01*
X159209533Y-68370000D01*
X159229375Y-68660097D01*
X159229377Y-68660107D01*
X159288534Y-68944786D01*
X159288536Y-68944793D01*
X159385912Y-69218780D01*
X159394765Y-69235866D01*
X159434151Y-69354321D01*
X159439500Y-69419433D01*
X159439500Y-86093341D01*
X159419972Y-86216639D01*
X159377387Y-86307135D01*
X159292271Y-86441256D01*
X159292270Y-86441258D01*
X159261025Y-86507657D01*
X159190857Y-86610904D01*
X159092217Y-86687416D01*
X158974762Y-86729701D01*
X158849989Y-86733621D01*
X158730111Y-86698793D01*
X158626864Y-86628625D01*
X158550352Y-86529985D01*
X158538974Y-86507655D01*
X158507733Y-86441264D01*
X158345885Y-86186232D01*
X158332061Y-86169522D01*
X158268518Y-86062071D01*
X158241287Y-85940243D01*
X158240500Y-85915194D01*
X158240500Y-81914393D01*
X158260028Y-81791095D01*
X158263538Y-81780776D01*
X158319075Y-81624511D01*
X158376148Y-81349862D01*
X158395291Y-81070000D01*
X158376148Y-80790138D01*
X158319075Y-80515489D01*
X158319074Y-80515484D01*
X158225139Y-80251177D01*
X158225137Y-80251173D01*
X158225136Y-80251170D01*
X158096081Y-80002104D01*
X157934312Y-79772931D01*
X157742845Y-79567919D01*
X157690957Y-79525705D01*
X157525250Y-79390892D01*
X157525243Y-79390887D01*
X157285571Y-79245139D01*
X157285570Y-79245138D01*
X157028283Y-79133383D01*
X157028284Y-79133383D01*
X157028278Y-79133381D01*
X157028275Y-79133380D01*
X156758161Y-79057697D01*
X156758160Y-79057696D01*
X156758157Y-79057696D01*
X156545254Y-79028433D01*
X156480258Y-79019500D01*
X156199742Y-79019500D01*
X156147065Y-79026740D01*
X155921842Y-79057696D01*
X155879714Y-79069500D01*
X155651725Y-79133380D01*
X155651722Y-79133380D01*
X155651719Y-79133382D01*
X155508461Y-79195608D01*
X155387591Y-79226818D01*
X155262992Y-79219149D01*
X155146861Y-79173353D01*
X155050566Y-79093912D01*
X154983532Y-78988601D01*
X154952322Y-78867731D01*
X154950500Y-78829640D01*
X154950500Y-74900352D01*
X154970028Y-74777054D01*
X155026702Y-74665826D01*
X155067358Y-74618222D01*
X156746962Y-72938617D01*
X156847953Y-72865244D01*
X156921448Y-72836552D01*
X157028272Y-72806621D01*
X157028273Y-72806620D01*
X157028275Y-72806620D01*
X157285568Y-72694862D01*
X157525246Y-72549111D01*
X157742845Y-72372081D01*
X157934312Y-72167069D01*
X158096081Y-71937896D01*
X158225136Y-71688830D01*
X158301305Y-71474511D01*
X158319074Y-71424515D01*
X158365756Y-71199869D01*
X158376148Y-71149862D01*
X158395291Y-70870000D01*
X158376148Y-70590138D01*
X158319075Y-70315489D01*
X158319074Y-70315484D01*
X158225139Y-70051177D01*
X158225138Y-70051176D01*
X158225136Y-70051170D01*
X158135232Y-69877662D01*
X158095848Y-69759206D01*
X158090500Y-69694100D01*
X158090500Y-67057236D01*
X158110028Y-66933938D01*
X158135843Y-66872500D01*
X158213907Y-66723054D01*
X158213908Y-66723050D01*
X158213909Y-66723049D01*
X158269886Y-66527418D01*
X158280500Y-66408037D01*
X158280499Y-64719350D01*
X158300027Y-64596054D01*
X158356701Y-64484826D01*
X158444972Y-64396554D01*
X158556201Y-64339881D01*
X158679499Y-64320352D01*
X158802797Y-64339880D01*
G37*
%TD.AperFunction*%
%TA.AperFunction,NonConductor*%
G36*
X186913021Y-85770028D02*
G01*
X186980943Y-85799305D01*
X187026839Y-85824367D01*
X187294954Y-85924369D01*
X187545393Y-85978848D01*
X187661721Y-86024139D01*
X187758361Y-86103161D01*
X187825852Y-86208178D01*
X187857587Y-86328912D01*
X187850461Y-86453543D01*
X187805170Y-86569872D01*
X187742715Y-86650866D01*
X185419718Y-88973863D01*
X185318724Y-89047239D01*
X185199999Y-89085815D01*
X185075165Y-89085815D01*
X184956440Y-89047239D01*
X184855446Y-88973863D01*
X184782070Y-88872869D01*
X184743494Y-88754144D01*
X184743494Y-88629310D01*
X184758111Y-88568428D01*
X184829681Y-88348160D01*
X184886280Y-88051457D01*
X184905246Y-87750000D01*
X184886280Y-87448543D01*
X184829681Y-87151840D01*
X184736341Y-86864570D01*
X184736339Y-86864567D01*
X184732466Y-86852645D01*
X184735301Y-86851723D01*
X184713318Y-86753368D01*
X184725067Y-86629087D01*
X184774647Y-86514520D01*
X184829391Y-86446189D01*
X185408217Y-85867364D01*
X185509210Y-85793988D01*
X185627935Y-85755412D01*
X185690352Y-85750500D01*
X186789723Y-85750500D01*
X186913021Y-85770028D01*
G37*
%TD.AperFunction*%
%TA.AperFunction,NonConductor*%
G36*
X188088231Y-92353519D02*
G01*
X188189224Y-92426895D01*
X188262600Y-92527889D01*
X188288021Y-92590322D01*
X188314043Y-92673826D01*
X188314049Y-92673843D01*
X188325445Y-92699163D01*
X188338201Y-92731123D01*
X188343661Y-92746727D01*
X188343668Y-92746744D01*
X188390190Y-92843348D01*
X188394550Y-92852710D01*
X188443159Y-92960714D01*
X188443162Y-92960719D01*
X188450825Y-92973396D01*
X188468841Y-93006666D01*
X188470396Y-93009896D01*
X188534328Y-93111642D01*
X188537941Y-93117504D01*
X188605919Y-93229952D01*
X188607040Y-93231383D01*
X188618952Y-93248326D01*
X188619311Y-93248072D01*
X188625791Y-93257206D01*
X188708801Y-93361296D01*
X188710937Y-93363998D01*
X188799936Y-93477597D01*
X188799940Y-93477602D01*
X188800095Y-93477757D01*
X188800122Y-93477786D01*
X189022389Y-93700052D01*
X189022395Y-93700057D01*
X189022398Y-93700060D01*
X189022401Y-93700062D01*
X189132619Y-93786412D01*
X189217634Y-93877824D01*
X189270240Y-93991033D01*
X189285288Y-94114958D01*
X189261305Y-94237467D01*
X189200638Y-94346569D01*
X189109226Y-94431584D01*
X188996017Y-94484190D01*
X188886550Y-94499500D01*
X186515622Y-94499500D01*
X186392324Y-94479972D01*
X186281096Y-94423298D01*
X186192824Y-94335026D01*
X186136150Y-94223798D01*
X186116622Y-94100500D01*
X186136150Y-93977202D01*
X186192824Y-93865974D01*
X186233486Y-93818365D01*
X187624953Y-92426896D01*
X187725947Y-92353520D01*
X187844671Y-92314943D01*
X187969506Y-92314943D01*
X188088231Y-92353519D01*
G37*
%TD.AperFunction*%
M02*
