%TF.GenerationSoftware,KiCad,Pcbnew,8.0.1*%
%TF.CreationDate,2024-09-28T14:19:53-03:00*%
%TF.ProjectId,AdeJiga,4164654a-6967-4612-9e6b-696361645f70,rev?*%
%TF.SameCoordinates,Original*%
%TF.FileFunction,Drillmap*%
%TF.FilePolarity,Positive*%
%FSLAX45Y45*%
G04 Gerber Fmt 4.5, Leading zero omitted, Abs format (unit mm)*
G04 Created by KiCad (PCBNEW 8.0.1) date 2024-09-28 14:19:53*
%MOMM*%
%LPD*%
G01*
G04 APERTURE LIST*
%ADD10C,0.200000*%
G04 APERTURE END LIST*
D10*
X19400000Y-2300000D02*
X19400000Y-9500000D01*
X19400000Y-9500000D02*
X12200000Y-9500000D01*
X12200000Y-9500000D02*
X12200000Y-2300000D01*
X12200000Y-2300000D02*
X19400000Y-2300000D01*
X12450777Y-9821484D02*
X12450777Y-9621484D01*
X12450777Y-9621484D02*
X12498396Y-9621484D01*
X12498396Y-9621484D02*
X12526967Y-9631008D01*
X12526967Y-9631008D02*
X12546015Y-9650055D01*
X12546015Y-9650055D02*
X12555539Y-9669103D01*
X12555539Y-9669103D02*
X12565062Y-9707198D01*
X12565062Y-9707198D02*
X12565062Y-9735770D01*
X12565062Y-9735770D02*
X12555539Y-9773865D01*
X12555539Y-9773865D02*
X12546015Y-9792912D01*
X12546015Y-9792912D02*
X12526967Y-9811960D01*
X12526967Y-9811960D02*
X12498396Y-9821484D01*
X12498396Y-9821484D02*
X12450777Y-9821484D01*
X12650777Y-9821484D02*
X12650777Y-9688150D01*
X12650777Y-9726246D02*
X12660301Y-9707198D01*
X12660301Y-9707198D02*
X12669824Y-9697674D01*
X12669824Y-9697674D02*
X12688872Y-9688150D01*
X12688872Y-9688150D02*
X12707920Y-9688150D01*
X12774586Y-9821484D02*
X12774586Y-9688150D01*
X12774586Y-9621484D02*
X12765062Y-9631008D01*
X12765062Y-9631008D02*
X12774586Y-9640531D01*
X12774586Y-9640531D02*
X12784110Y-9631008D01*
X12784110Y-9631008D02*
X12774586Y-9621484D01*
X12774586Y-9621484D02*
X12774586Y-9640531D01*
X12898396Y-9821484D02*
X12879348Y-9811960D01*
X12879348Y-9811960D02*
X12869824Y-9792912D01*
X12869824Y-9792912D02*
X12869824Y-9621484D01*
X13003158Y-9821484D02*
X12984110Y-9811960D01*
X12984110Y-9811960D02*
X12974586Y-9792912D01*
X12974586Y-9792912D02*
X12974586Y-9621484D01*
X13231729Y-9821484D02*
X13231729Y-9621484D01*
X13231729Y-9621484D02*
X13298396Y-9764341D01*
X13298396Y-9764341D02*
X13365062Y-9621484D01*
X13365062Y-9621484D02*
X13365062Y-9821484D01*
X13546015Y-9821484D02*
X13546015Y-9716722D01*
X13546015Y-9716722D02*
X13536491Y-9697674D01*
X13536491Y-9697674D02*
X13517443Y-9688150D01*
X13517443Y-9688150D02*
X13479348Y-9688150D01*
X13479348Y-9688150D02*
X13460301Y-9697674D01*
X13546015Y-9811960D02*
X13526967Y-9821484D01*
X13526967Y-9821484D02*
X13479348Y-9821484D01*
X13479348Y-9821484D02*
X13460301Y-9811960D01*
X13460301Y-9811960D02*
X13450777Y-9792912D01*
X13450777Y-9792912D02*
X13450777Y-9773865D01*
X13450777Y-9773865D02*
X13460301Y-9754817D01*
X13460301Y-9754817D02*
X13479348Y-9745293D01*
X13479348Y-9745293D02*
X13526967Y-9745293D01*
X13526967Y-9745293D02*
X13546015Y-9735770D01*
X13641253Y-9688150D02*
X13641253Y-9888150D01*
X13641253Y-9697674D02*
X13660301Y-9688150D01*
X13660301Y-9688150D02*
X13698396Y-9688150D01*
X13698396Y-9688150D02*
X13717443Y-9697674D01*
X13717443Y-9697674D02*
X13726967Y-9707198D01*
X13726967Y-9707198D02*
X13736491Y-9726246D01*
X13736491Y-9726246D02*
X13736491Y-9783389D01*
X13736491Y-9783389D02*
X13726967Y-9802436D01*
X13726967Y-9802436D02*
X13717443Y-9811960D01*
X13717443Y-9811960D02*
X13698396Y-9821484D01*
X13698396Y-9821484D02*
X13660301Y-9821484D01*
X13660301Y-9821484D02*
X13641253Y-9811960D01*
X13822205Y-9802436D02*
X13831729Y-9811960D01*
X13831729Y-9811960D02*
X13822205Y-9821484D01*
X13822205Y-9821484D02*
X13812682Y-9811960D01*
X13812682Y-9811960D02*
X13822205Y-9802436D01*
X13822205Y-9802436D02*
X13822205Y-9821484D01*
X13822205Y-9697674D02*
X13831729Y-9707198D01*
X13831729Y-9707198D02*
X13822205Y-9716722D01*
X13822205Y-9716722D02*
X13812682Y-9707198D01*
X13812682Y-9707198D02*
X13822205Y-9697674D01*
X13822205Y-9697674D02*
X13822205Y-9716722D01*
M02*
