M48
; DRILL file {KiCad 8.0.1} date 2024-12-11T12:45:37-0300
; FORMAT={-:-/ absolute / inch / decimal}
; #@! TF.CreationDate,2024-12-11T12:45:37-03:00
; #@! TF.GenerationSoftware,Kicad,Pcbnew,8.0.1
; #@! TF.FileFunction,Plated,1,2,PTH
FMAT,2
INCH
; #@! TA.AperFunction,Plated,PTH,ComponentDrill
T1C0.0276
; #@! TA.AperFunction,Plated,PTH,ComponentDrill
T2C0.0300
; #@! TA.AperFunction,Plated,PTH,ComponentDrill
T3C0.0315
; #@! TA.AperFunction,Plated,PTH,ComponentDrill
T4C0.0354
; #@! TA.AperFunction,Plated,PTH,ComponentDrill
T5C0.0394
; #@! TA.AperFunction,Plated,PTH,ComponentDrill
T6C0.0433
; #@! TA.AperFunction,Plated,PTH,ComponentDrill
T7C0.0551
; #@! TA.AperFunction,Plated,PTH,ComponentDrill
T8C0.0591
; #@! TA.AperFunction,Plated,PTH,ComponentDrill
T9C0.1260
%
G90
G05
T1
X6.8079Y-1.5453
X6.8079Y-4.7925
X7.0079Y-1.5453
X7.0079Y-4.7925
T2
X4.7644Y-3.1594
X4.7644Y-6.4067
X5.5709Y-0.8071
X5.5709Y-4.0543
X5.6709Y-0.8071
X5.6709Y-4.0543
X5.7709Y-0.8071
X5.7709Y-4.0543
X5.8709Y-0.8071
X5.8709Y-4.0543
X6.1134Y-0.8071
X6.1134Y-4.0543
X6.2134Y-0.8071
X6.2134Y-4.0543
X6.25Y-1.7996
X6.25Y-5.0469
X6.3134Y-0.8071
X6.3134Y-4.0543
X6.5594Y-0.8071
X6.5594Y-4.0543
X6.6594Y-0.8071
X6.6594Y-4.0543
X6.8602Y-1.7622
X6.8602Y-1.8622
X6.8602Y-5.0094
X6.8602Y-5.1094
X6.9094Y-3.5811
X6.9094Y-6.8283
T3
X5.5807Y-2.5
X5.5807Y-2.9
X5.5807Y-5.7472
X5.5807Y-6.1472
X5.5839Y-1.8311
X5.5839Y-2.2311
X5.5839Y-5.0783
X5.5839Y-5.4783
X5.5906Y-1.165
X5.5906Y-1.565
X5.5906Y-4.4122
X5.5906Y-4.8122
X5.6957Y-1.6043
X5.6957Y-4.8516
X5.7055Y-2.2638
X5.7055Y-5.511
X5.7087Y-2.9331
X5.7087Y-6.1803
X6.0957Y-1.6043
X6.0957Y-4.8516
X6.1055Y-2.2638
X6.1055Y-5.511
X6.1087Y-2.9331
X6.1087Y-6.1803
X6.8504Y-3.3071
X6.8504Y-6.5543
X6.9488Y-3.3071
X6.9488Y-6.5543
T4
X5.9744Y-2.6274
X5.9744Y-2.7274
X5.9744Y-5.8746
X5.9744Y-5.9746
X5.9843Y-1.2878
X5.9843Y-1.3878
X5.9843Y-4.535
X5.9843Y-4.635
X5.9874Y-1.9577
X5.9874Y-2.0577
X5.9874Y-5.2049
X5.9874Y-5.3049
T5
X4.6644Y-3.1594
X4.6644Y-6.4067
X5.055Y-3.0346
X5.055Y-3.7146
X5.055Y-6.2818
X5.055Y-6.9618
X5.9709Y-0.8071
X5.9709Y-4.0543
X6.25Y-1.8996
X6.25Y-5.1469
X6.4134Y-0.8071
X6.4134Y-4.0543
X6.615Y-3.0346
X6.615Y-3.7146
X6.615Y-6.2818
X6.615Y-6.9618
X6.7594Y-0.8071
X6.7594Y-4.0543
X6.7618Y-3.5821
X6.7618Y-3.6821
X6.7618Y-6.8293
X6.7618Y-6.9293
X6.8602Y-1.6622
X6.8602Y-4.9094
X6.9094Y-3.6811
X6.9094Y-6.9283
T6
X4.5146Y-3.2972
X4.5146Y-6.5445
X4.9146Y-3.2972
X4.9146Y-6.5445
X5.4134Y-1.178
X5.4134Y-1.578
X5.4134Y-1.8433
X5.4134Y-2.2433
X5.4134Y-2.4937
X5.4134Y-2.8937
X5.4134Y-4.4252
X5.4134Y-4.8252
X5.4134Y-5.0906
X5.4134Y-5.4906
X5.4134Y-5.7409
X5.4134Y-6.1409
X5.7087Y-2.5591
X5.7087Y-2.6591
X5.7087Y-2.7591
X5.7087Y-5.8063
X5.7087Y-5.9063
X5.7087Y-6.0063
X5.7126Y-1.8937
X5.7126Y-1.9937
X5.7126Y-2.0937
X5.7126Y-5.1409
X5.7126Y-5.2409
X5.7126Y-5.3409
X5.7207Y-1.2303
X5.7207Y-1.3303
X5.7207Y-1.4303
X5.7207Y-4.4776
X5.7207Y-4.5776
X5.7207Y-4.6776
T7
X4.5374Y-2.5
X4.5374Y-2.6969
X4.5374Y-2.8937
X4.5374Y-5.7472
X4.5374Y-5.9441
X4.5374Y-6.1409
X4.5402Y-1.1614
X4.5402Y-1.3583
X4.5402Y-1.5551
X4.5402Y-4.4087
X4.5402Y-4.6055
X4.5402Y-4.8024
X4.5413Y-1.8323
X4.5413Y-2.0291
X4.5413Y-2.226
X4.5413Y-5.0795
X4.5413Y-5.2764
X4.5413Y-5.4732
X4.6752Y-3.6417
X4.6752Y-6.889
X4.7945Y-1.8299
X4.7945Y-2.2236
X4.7945Y-5.0772
X4.7945Y-5.4709
X4.7953Y-1.1614
X4.7953Y-1.5551
X4.7953Y-4.4087
X4.7953Y-4.8024
X4.7972Y-2.4508
X4.7972Y-2.8445
X4.7972Y-5.698
X4.7972Y-6.0917
X4.872Y-3.6417
X4.872Y-6.889
X5.1961Y-1.8299
X5.1961Y-2.2236
X5.1961Y-5.0772
X5.1961Y-5.4709
X5.1969Y-1.1614
X5.1969Y-1.5551
X5.1969Y-4.4087
X5.1969Y-4.8024
X5.1988Y-2.4508
X5.1988Y-2.8445
X5.1988Y-5.698
X5.1988Y-6.0917
T8
X5.2945Y-2.0268
X5.2945Y-5.274
X5.2953Y-1.3583
X5.2953Y-4.6055
X5.2972Y-2.6476
X5.2972Y-5.8949
T9
X4.4094Y-0.876
X4.4094Y-3.6516
X4.4094Y-4.1232
X4.4094Y-6.8988
X7.126Y-0.876
X7.126Y-3.6713
X7.126Y-4.1232
X7.126Y-6.9185
M30
