M48
; DRILL file {KiCad 8.0.1} date 2024-09-28T14:19:54-0300
; FORMAT={-:-/ absolute / inch / decimal}
; #@! TF.CreationDate,2024-09-28T14:19:54-03:00
; #@! TF.GenerationSoftware,Kicad,Pcbnew,8.0.1
; #@! TF.FileFunction,Plated,1,2,PTH
FMAT,2
INCH
; #@! TA.AperFunction,Plated,PTH,ComponentDrill
T1C0.0276
; #@! TA.AperFunction,Plated,PTH,ComponentDrill
T2C0.0300
; #@! TA.AperFunction,Plated,PTH,ComponentDrill
T3C0.0315
; #@! TA.AperFunction,Plated,PTH,ComponentDrill
T4C0.0354
; #@! TA.AperFunction,Plated,PTH,ComponentDrill
T5C0.0394
; #@! TA.AperFunction,Plated,PTH,ComponentDrill
T6C0.0433
; #@! TA.AperFunction,Plated,PTH,ComponentDrill
T7C0.0551
; #@! TA.AperFunction,Plated,PTH,ComponentDrill
T8C0.0591
; #@! TA.AperFunction,Plated,PTH,ComponentDrill
T9C0.1260
%
G90
G05
T1
X5.3445Y-1.2008
X5.3445Y-1.4008
T2
X5.0Y-1.437
X5.0Y-1.537
X5.0Y-1.8417
X5.0Y-1.9417
X5.0Y-2.0417
X5.0Y-2.3437
X5.0Y-2.4437
X5.0Y-2.5437
X5.0Y-2.6437
X5.5614Y-1.3484
X5.6614Y-1.3484
X5.7126Y-1.903
X7.2736Y-1.126
X7.3961Y-3.3071
T3
X5.1969Y-2.8819
X5.1969Y-3.2819
X5.315Y-2.8819
X5.315Y-3.2819
X5.5843Y-2.2047
X5.9843Y-2.2047
X6.1142Y-2.2047
X6.5142Y-2.2047
X7.1063Y-1.2795
X7.1063Y-1.378
T4
X4.9Y-2.9823
X4.9Y-3.2382
X5.0Y-2.9823
X5.0Y-3.2382
T5
X5.0Y-1.337
X5.0Y-1.7417
X5.0Y-2.2437
X5.4614Y-1.3484
X5.7126Y-2.003
X6.8043Y-1.5906
X6.8043Y-3.1506
X7.2736Y-1.026
X7.3902Y-1.3484
X7.4843Y-1.5906
X7.4843Y-3.1506
X7.4902Y-1.3484
X7.4961Y-3.3071
T6
X5.5185Y-2.5689
X5.7055Y-2.372
X5.8055Y-2.372
X5.9055Y-2.372
X5.9185Y-2.5689
X6.1488Y-2.5689
X6.1614Y-2.372
X6.2614Y-2.372
X6.3614Y-2.372
X6.5488Y-2.5689
X6.8031Y-3.2803
X6.8031Y-3.6803
T7
X5.5134Y-2.7921
X5.5134Y-3.1937
X5.5134Y-3.4488
X5.7102Y-3.4488
X5.9071Y-2.7921
X5.9071Y-3.1937
X5.9071Y-3.4488
X6.1551Y-2.7902
X6.1551Y-3.1917
X6.1575Y-3.4488
X6.3543Y-3.4488
X6.5488Y-2.7902
X6.5488Y-3.1917
X6.5512Y-3.4488
X6.9882Y-3.4547
X7.185Y-3.4547
T8
X5.7102Y-2.6937
X6.352Y-2.6917
T9
X4.9311Y-1.0335
X4.9311Y-3.6122
X7.5098Y-1.0335
X7.5098Y-3.6122
M30
