%TF.GenerationSoftware,KiCad,Pcbnew,8.0.1*%
%TF.CreationDate,2024-09-28T14:19:53-03:00*%
%TF.ProjectId,AdeJiga,4164654a-6967-4612-9e6b-696361645f70,rev?*%
%TF.SameCoordinates,Original*%
%TF.FileFunction,Drillmap*%
%TF.FilePolarity,Positive*%
%FSLAX45Y45*%
G04 Gerber Fmt 4.5, Leading zero omitted, Abs format (unit mm)*
G04 Created by KiCad (PCBNEW 8.0.1) date 2024-09-28 14:19:53*
%MOMM*%
%LPD*%
G01*
G04 APERTURE LIST*
%ADD10C,0.200000*%
%ADD11C,0.100000*%
%ADD12C,0.110000*%
%ADD13C,0.140000*%
%ADD14C,0.150000*%
%ADD15C,0.320000*%
G04 APERTURE END LIST*
D10*
X19400000Y-2300000D02*
X19400000Y-9500000D01*
X19400000Y-9500000D02*
X12200000Y-9500000D01*
X12200000Y-9500000D02*
X12200000Y-2300000D01*
X12200000Y-2300000D02*
X19400000Y-2300000D01*
D11*
X13540000Y-3015000D02*
X13610000Y-3085000D01*
X13610000Y-3015000D02*
X13540000Y-3085000D01*
X13540000Y-3523000D02*
X13610000Y-3593000D01*
X13610000Y-3523000D02*
X13540000Y-3593000D01*
X12738100Y-3650000D02*
G75*
G02*
X12661900Y-3650000I-38100J0D01*
G01*
X12661900Y-3650000D02*
G75*
G02*
X12738100Y-3650000I38100J0D01*
G01*
X12738100Y-3904000D02*
G75*
G02*
X12661900Y-3904000I-38100J0D01*
G01*
X12661900Y-3904000D02*
G75*
G02*
X12738100Y-3904000I38100J0D01*
G01*
X12738100Y-4678000D02*
G75*
G02*
X12661900Y-4678000I-38100J0D01*
G01*
X12661900Y-4678000D02*
G75*
G02*
X12738100Y-4678000I38100J0D01*
G01*
X12738100Y-4932000D02*
G75*
G02*
X12661900Y-4932000I-38100J0D01*
G01*
X12661900Y-4932000D02*
G75*
G02*
X12738100Y-4932000I38100J0D01*
G01*
X12738100Y-5186000D02*
G75*
G02*
X12661900Y-5186000I-38100J0D01*
G01*
X12661900Y-5186000D02*
G75*
G02*
X12738100Y-5186000I38100J0D01*
G01*
X12738100Y-5953000D02*
G75*
G02*
X12661900Y-5953000I-38100J0D01*
G01*
X12661900Y-5953000D02*
G75*
G02*
X12738100Y-5953000I38100J0D01*
G01*
X12738100Y-6207000D02*
G75*
G02*
X12661900Y-6207000I-38100J0D01*
G01*
X12661900Y-6207000D02*
G75*
G02*
X12738100Y-6207000I38100J0D01*
G01*
X12738100Y-6461000D02*
G75*
G02*
X12661900Y-6461000I-38100J0D01*
G01*
X12661900Y-6461000D02*
G75*
G02*
X12738100Y-6461000I38100J0D01*
G01*
X12738100Y-6715000D02*
G75*
G02*
X12661900Y-6715000I-38100J0D01*
G01*
X12661900Y-6715000D02*
G75*
G02*
X12738100Y-6715000I38100J0D01*
G01*
X14164100Y-3425000D02*
G75*
G02*
X14087900Y-3425000I-38100J0D01*
G01*
X14087900Y-3425000D02*
G75*
G02*
X14164100Y-3425000I38100J0D01*
G01*
X14418100Y-3425000D02*
G75*
G02*
X14341900Y-3425000I-38100J0D01*
G01*
X14341900Y-3425000D02*
G75*
G02*
X14418100Y-3425000I38100J0D01*
G01*
X14548100Y-4833500D02*
G75*
G02*
X14471900Y-4833500I-38100J0D01*
G01*
X14471900Y-4833500D02*
G75*
G02*
X14548100Y-4833500I38100J0D01*
G01*
X18513100Y-2860000D02*
G75*
G02*
X18436900Y-2860000I-38100J0D01*
G01*
X18436900Y-2860000D02*
G75*
G02*
X18513100Y-2860000I38100J0D01*
G01*
X18824100Y-8400000D02*
G75*
G02*
X18747900Y-8400000I-38100J0D01*
G01*
X18747900Y-8400000D02*
G75*
G02*
X18824100Y-8400000I38100J0D01*
G01*
X13200000Y-7280000D02*
X13200000Y-7360000D01*
X13160000Y-7320000D02*
X13240000Y-7320000D01*
X13200000Y-8296000D02*
X13200000Y-8376000D01*
X13160000Y-8336000D02*
X13240000Y-8336000D01*
X13500000Y-7280000D02*
X13500000Y-7360000D01*
X13460000Y-7320000D02*
X13540000Y-7320000D01*
X13500000Y-8296000D02*
X13500000Y-8376000D01*
X13460000Y-8336000D02*
X13540000Y-8336000D01*
X14184000Y-5560000D02*
X14184000Y-5640000D01*
X14144000Y-5600000D02*
X14224000Y-5600000D01*
X15200000Y-5560000D02*
X15200000Y-5640000D01*
X15160000Y-5600000D02*
X15240000Y-5600000D01*
X15530000Y-5560000D02*
X15530000Y-5640000D01*
X15490000Y-5600000D02*
X15570000Y-5600000D01*
X16546000Y-5560000D02*
X16546000Y-5640000D01*
X16506000Y-5600000D02*
X16586000Y-5600000D01*
X18050000Y-3210000D02*
X18050000Y-3290000D01*
X18010000Y-3250000D02*
X18090000Y-3250000D01*
X18050000Y-3460000D02*
X18050000Y-3540000D01*
X18010000Y-3500000D02*
X18090000Y-3500000D01*
X12477820Y-7606820D02*
X12477820Y-7543180D01*
X12414180Y-7543180D01*
X12414180Y-7606820D01*
X12477820Y-7606820D01*
X12477820Y-8256820D02*
X12477820Y-8193180D01*
X12414180Y-8193180D01*
X12414180Y-8256820D01*
X12477820Y-8256820D01*
X12731820Y-7606820D02*
X12731820Y-7543180D01*
X12668180Y-7543180D01*
X12668180Y-7606820D01*
X12731820Y-7606820D01*
X12731820Y-8256820D02*
X12731820Y-8193180D01*
X12668180Y-8193180D01*
X12668180Y-8256820D01*
X12731820Y-8256820D01*
X12700000Y-3446000D02*
X12750000Y-3396000D01*
X12700000Y-3346000D01*
X12650000Y-3396000D01*
X12700000Y-3446000D01*
X12700000Y-4474000D02*
X12750000Y-4424000D01*
X12700000Y-4374000D01*
X12650000Y-4424000D01*
X12700000Y-4474000D01*
X12700000Y-5749000D02*
X12750000Y-5699000D01*
X12700000Y-5649000D01*
X12650000Y-5699000D01*
X12700000Y-5749000D01*
X13872000Y-3475000D02*
X13922000Y-3425000D01*
X13872000Y-3375000D01*
X13822000Y-3425000D01*
X13872000Y-3475000D01*
X14510000Y-5137500D02*
X14560000Y-5087500D01*
X14510000Y-5037500D01*
X14460000Y-5087500D01*
X14510000Y-5137500D01*
X17282800Y-4090000D02*
X17332800Y-4040000D01*
X17282800Y-3990000D01*
X17232800Y-4040000D01*
X17282800Y-4090000D01*
X17282800Y-8052400D02*
X17332800Y-8002400D01*
X17282800Y-7952400D01*
X17232800Y-8002400D01*
X17282800Y-8052400D01*
X18475000Y-2656000D02*
X18525000Y-2606000D01*
X18475000Y-2556000D01*
X18425000Y-2606000D01*
X18475000Y-2656000D01*
X18771000Y-3475000D02*
X18821000Y-3425000D01*
X18771000Y-3375000D01*
X18721000Y-3425000D01*
X18771000Y-3475000D01*
X19010000Y-4090000D02*
X19060000Y-4040000D01*
X19010000Y-3990000D01*
X18960000Y-4040000D01*
X19010000Y-4090000D01*
X19010000Y-8052400D02*
X19060000Y-8002400D01*
X19010000Y-7952400D01*
X18960000Y-8002400D01*
X19010000Y-8052400D01*
X19025000Y-3475000D02*
X19075000Y-3425000D01*
X19025000Y-3375000D01*
X18975000Y-3425000D01*
X19025000Y-3475000D01*
X19040000Y-8450000D02*
X19090000Y-8400000D01*
X19040000Y-8350000D01*
X18990000Y-8400000D01*
X19040000Y-8450000D01*
D12*
X13962000Y-6470000D02*
X14072000Y-6580000D01*
X14072000Y-6470000D02*
X13962000Y-6580000D01*
X14072000Y-6525000D02*
G75*
G02*
X13962000Y-6525000I-55000J0D01*
G01*
X13962000Y-6525000D02*
G75*
G02*
X14072000Y-6525000I55000J0D01*
G01*
X14437000Y-5970000D02*
X14547000Y-6080000D01*
X14547000Y-5970000D02*
X14437000Y-6080000D01*
X14547000Y-6025000D02*
G75*
G02*
X14437000Y-6025000I-55000J0D01*
G01*
X14437000Y-6025000D02*
G75*
G02*
X14547000Y-6025000I55000J0D01*
G01*
X14691000Y-5970000D02*
X14801000Y-6080000D01*
X14801000Y-5970000D02*
X14691000Y-6080000D01*
X14801000Y-6025000D02*
G75*
G02*
X14691000Y-6025000I-55000J0D01*
G01*
X14691000Y-6025000D02*
G75*
G02*
X14801000Y-6025000I55000J0D01*
G01*
X14945000Y-5970000D02*
X15055000Y-6080000D01*
X15055000Y-5970000D02*
X14945000Y-6080000D01*
X15055000Y-6025000D02*
G75*
G02*
X14945000Y-6025000I-55000J0D01*
G01*
X14945000Y-6025000D02*
G75*
G02*
X15055000Y-6025000I55000J0D01*
G01*
X14978000Y-6470000D02*
X15088000Y-6580000D01*
X15088000Y-6470000D02*
X14978000Y-6580000D01*
X15088000Y-6525000D02*
G75*
G02*
X14978000Y-6525000I-55000J0D01*
G01*
X14978000Y-6525000D02*
G75*
G02*
X15088000Y-6525000I55000J0D01*
G01*
X15563000Y-6470000D02*
X15673000Y-6580000D01*
X15673000Y-6470000D02*
X15563000Y-6580000D01*
X15673000Y-6525000D02*
G75*
G02*
X15563000Y-6525000I-55000J0D01*
G01*
X15563000Y-6525000D02*
G75*
G02*
X15673000Y-6525000I55000J0D01*
G01*
X15595000Y-5970000D02*
X15705000Y-6080000D01*
X15705000Y-5970000D02*
X15595000Y-6080000D01*
X15705000Y-6025000D02*
G75*
G02*
X15595000Y-6025000I-55000J0D01*
G01*
X15595000Y-6025000D02*
G75*
G02*
X15705000Y-6025000I55000J0D01*
G01*
X15849000Y-5970000D02*
X15959000Y-6080000D01*
X15959000Y-5970000D02*
X15849000Y-6080000D01*
X15959000Y-6025000D02*
G75*
G02*
X15849000Y-6025000I-55000J0D01*
G01*
X15849000Y-6025000D02*
G75*
G02*
X15959000Y-6025000I55000J0D01*
G01*
X16103000Y-5970000D02*
X16213000Y-6080000D01*
X16213000Y-5970000D02*
X16103000Y-6080000D01*
X16213000Y-6025000D02*
G75*
G02*
X16103000Y-6025000I-55000J0D01*
G01*
X16103000Y-6025000D02*
G75*
G02*
X16213000Y-6025000I55000J0D01*
G01*
X16579000Y-6470000D02*
X16689000Y-6580000D01*
X16689000Y-6470000D02*
X16579000Y-6580000D01*
X16689000Y-6525000D02*
G75*
G02*
X16579000Y-6525000I-55000J0D01*
G01*
X16579000Y-6525000D02*
G75*
G02*
X16689000Y-6525000I55000J0D01*
G01*
X17225000Y-8277000D02*
X17335000Y-8387000D01*
X17335000Y-8277000D02*
X17225000Y-8387000D01*
X17335000Y-8332000D02*
G75*
G02*
X17225000Y-8332000I-55000J0D01*
G01*
X17225000Y-8332000D02*
G75*
G02*
X17335000Y-8332000I55000J0D01*
G01*
X17225000Y-9293000D02*
X17335000Y-9403000D01*
X17335000Y-9293000D02*
X17225000Y-9403000D01*
X17335000Y-9348000D02*
G75*
G02*
X17225000Y-9348000I-55000J0D01*
G01*
X17225000Y-9348000D02*
G75*
G02*
X17335000Y-9348000I55000J0D01*
G01*
D13*
X13934000Y-7022000D02*
X14074000Y-7162000D01*
X14074000Y-7022000D02*
X13934000Y-7162000D01*
X14004000Y-7022000D02*
X14004000Y-7162000D01*
X13934000Y-7092000D02*
X14074000Y-7092000D01*
X13934000Y-8042000D02*
X14074000Y-8182000D01*
X14074000Y-8042000D02*
X13934000Y-8182000D01*
X14004000Y-8042000D02*
X14004000Y-8182000D01*
X13934000Y-8112000D02*
X14074000Y-8112000D01*
X13934000Y-8690000D02*
X14074000Y-8830000D01*
X14074000Y-8690000D02*
X13934000Y-8830000D01*
X14004000Y-8690000D02*
X14004000Y-8830000D01*
X13934000Y-8760000D02*
X14074000Y-8760000D01*
X14434000Y-8690000D02*
X14574000Y-8830000D01*
X14574000Y-8690000D02*
X14434000Y-8830000D01*
X14504000Y-8690000D02*
X14504000Y-8830000D01*
X14434000Y-8760000D02*
X14574000Y-8760000D01*
X14934000Y-7022000D02*
X15074000Y-7162000D01*
X15074000Y-7022000D02*
X14934000Y-7162000D01*
X15004000Y-7022000D02*
X15004000Y-7162000D01*
X14934000Y-7092000D02*
X15074000Y-7092000D01*
X14934000Y-8042000D02*
X15074000Y-8182000D01*
X15074000Y-8042000D02*
X14934000Y-8182000D01*
X15004000Y-8042000D02*
X15004000Y-8182000D01*
X14934000Y-8112000D02*
X15074000Y-8112000D01*
X14934000Y-8690000D02*
X15074000Y-8830000D01*
X15074000Y-8690000D02*
X14934000Y-8830000D01*
X15004000Y-8690000D02*
X15004000Y-8830000D01*
X14934000Y-8760000D02*
X15074000Y-8760000D01*
X15564000Y-7017000D02*
X15704000Y-7157000D01*
X15704000Y-7017000D02*
X15564000Y-7157000D01*
X15634000Y-7017000D02*
X15634000Y-7157000D01*
X15564000Y-7087000D02*
X15704000Y-7087000D01*
X15564000Y-8037000D02*
X15704000Y-8177000D01*
X15704000Y-8037000D02*
X15564000Y-8177000D01*
X15634000Y-8037000D02*
X15634000Y-8177000D01*
X15564000Y-8107000D02*
X15704000Y-8107000D01*
X15570000Y-8690000D02*
X15710000Y-8830000D01*
X15710000Y-8690000D02*
X15570000Y-8830000D01*
X15640000Y-8690000D02*
X15640000Y-8830000D01*
X15570000Y-8760000D02*
X15710000Y-8760000D01*
X16070000Y-8690000D02*
X16210000Y-8830000D01*
X16210000Y-8690000D02*
X16070000Y-8830000D01*
X16140000Y-8690000D02*
X16140000Y-8830000D01*
X16070000Y-8760000D02*
X16210000Y-8760000D01*
X16564000Y-7017000D02*
X16704000Y-7157000D01*
X16704000Y-7017000D02*
X16564000Y-7157000D01*
X16634000Y-7017000D02*
X16634000Y-7157000D01*
X16564000Y-7087000D02*
X16704000Y-7087000D01*
X16564000Y-8037000D02*
X16704000Y-8177000D01*
X16704000Y-8037000D02*
X16564000Y-8177000D01*
X16634000Y-8037000D02*
X16634000Y-8177000D01*
X16564000Y-8107000D02*
X16704000Y-8107000D01*
X16570000Y-8690000D02*
X16710000Y-8830000D01*
X16710000Y-8690000D02*
X16570000Y-8830000D01*
X16640000Y-8690000D02*
X16640000Y-8830000D01*
X16570000Y-8760000D02*
X16710000Y-8760000D01*
X17680000Y-8705000D02*
X17820000Y-8845000D01*
X17820000Y-8705000D02*
X17680000Y-8845000D01*
X17750000Y-8705000D02*
X17750000Y-8845000D01*
X17680000Y-8775000D02*
X17820000Y-8775000D01*
X18180000Y-8705000D02*
X18320000Y-8845000D01*
X18320000Y-8705000D02*
X18180000Y-8845000D01*
X18250000Y-8705000D02*
X18250000Y-8845000D01*
X18180000Y-8775000D02*
X18320000Y-8775000D01*
D14*
X14429000Y-6767000D02*
X14579000Y-6917000D01*
X14579000Y-6767000D02*
X14429000Y-6917000D01*
X14557033Y-6895033D02*
X14557033Y-6788966D01*
X14450966Y-6788966D01*
X14450966Y-6895033D01*
X14557033Y-6895033D01*
X16059000Y-6762000D02*
X16209000Y-6912000D01*
X16209000Y-6762000D02*
X16059000Y-6912000D01*
X16187033Y-6890033D02*
X16187033Y-6783966D01*
X16080966Y-6783966D01*
X16080966Y-6890033D01*
X16187033Y-6890033D01*
D15*
X12365000Y-2465000D02*
X12685000Y-2785000D01*
X12685000Y-2465000D02*
X12365000Y-2785000D01*
X12525000Y-2785000D02*
X12685000Y-2625000D01*
X12525000Y-2465000D01*
X12365000Y-2625000D01*
X12525000Y-2785000D01*
X12365000Y-9015000D02*
X12685000Y-9335000D01*
X12685000Y-9015000D02*
X12365000Y-9335000D01*
X12525000Y-9335000D02*
X12685000Y-9175000D01*
X12525000Y-9015000D01*
X12365000Y-9175000D01*
X12525000Y-9335000D01*
X18915000Y-2465000D02*
X19235000Y-2785000D01*
X19235000Y-2465000D02*
X18915000Y-2785000D01*
X19075000Y-2785000D02*
X19235000Y-2625000D01*
X19075000Y-2465000D01*
X18915000Y-2625000D01*
X19075000Y-2785000D01*
X18915000Y-9015000D02*
X19235000Y-9335000D01*
X19235000Y-9015000D02*
X18915000Y-9335000D01*
X19075000Y-9335000D02*
X19235000Y-9175000D01*
X19075000Y-9015000D01*
X18915000Y-9175000D01*
X19075000Y-9335000D01*
D10*
X12450777Y-9821484D02*
X12450777Y-9621484D01*
X12450777Y-9621484D02*
X12498396Y-9621484D01*
X12498396Y-9621484D02*
X12526967Y-9631008D01*
X12526967Y-9631008D02*
X12546015Y-9650055D01*
X12546015Y-9650055D02*
X12555539Y-9669103D01*
X12555539Y-9669103D02*
X12565062Y-9707198D01*
X12565062Y-9707198D02*
X12565062Y-9735770D01*
X12565062Y-9735770D02*
X12555539Y-9773865D01*
X12555539Y-9773865D02*
X12546015Y-9792912D01*
X12546015Y-9792912D02*
X12526967Y-9811960D01*
X12526967Y-9811960D02*
X12498396Y-9821484D01*
X12498396Y-9821484D02*
X12450777Y-9821484D01*
X12650777Y-9821484D02*
X12650777Y-9688150D01*
X12650777Y-9726246D02*
X12660301Y-9707198D01*
X12660301Y-9707198D02*
X12669824Y-9697674D01*
X12669824Y-9697674D02*
X12688872Y-9688150D01*
X12688872Y-9688150D02*
X12707920Y-9688150D01*
X12774586Y-9821484D02*
X12774586Y-9688150D01*
X12774586Y-9621484D02*
X12765062Y-9631008D01*
X12765062Y-9631008D02*
X12774586Y-9640531D01*
X12774586Y-9640531D02*
X12784110Y-9631008D01*
X12784110Y-9631008D02*
X12774586Y-9621484D01*
X12774586Y-9621484D02*
X12774586Y-9640531D01*
X12898396Y-9821484D02*
X12879348Y-9811960D01*
X12879348Y-9811960D02*
X12869824Y-9792912D01*
X12869824Y-9792912D02*
X12869824Y-9621484D01*
X13003158Y-9821484D02*
X12984110Y-9811960D01*
X12984110Y-9811960D02*
X12974586Y-9792912D01*
X12974586Y-9792912D02*
X12974586Y-9621484D01*
X13231729Y-9821484D02*
X13231729Y-9621484D01*
X13231729Y-9621484D02*
X13298396Y-9764341D01*
X13298396Y-9764341D02*
X13365062Y-9621484D01*
X13365062Y-9621484D02*
X13365062Y-9821484D01*
X13546015Y-9821484D02*
X13546015Y-9716722D01*
X13546015Y-9716722D02*
X13536491Y-9697674D01*
X13536491Y-9697674D02*
X13517443Y-9688150D01*
X13517443Y-9688150D02*
X13479348Y-9688150D01*
X13479348Y-9688150D02*
X13460301Y-9697674D01*
X13546015Y-9811960D02*
X13526967Y-9821484D01*
X13526967Y-9821484D02*
X13479348Y-9821484D01*
X13479348Y-9821484D02*
X13460301Y-9811960D01*
X13460301Y-9811960D02*
X13450777Y-9792912D01*
X13450777Y-9792912D02*
X13450777Y-9773865D01*
X13450777Y-9773865D02*
X13460301Y-9754817D01*
X13460301Y-9754817D02*
X13479348Y-9745293D01*
X13479348Y-9745293D02*
X13526967Y-9745293D01*
X13526967Y-9745293D02*
X13546015Y-9735770D01*
X13641253Y-9688150D02*
X13641253Y-9888150D01*
X13641253Y-9697674D02*
X13660301Y-9688150D01*
X13660301Y-9688150D02*
X13698396Y-9688150D01*
X13698396Y-9688150D02*
X13717443Y-9697674D01*
X13717443Y-9697674D02*
X13726967Y-9707198D01*
X13726967Y-9707198D02*
X13736491Y-9726246D01*
X13736491Y-9726246D02*
X13736491Y-9783389D01*
X13736491Y-9783389D02*
X13726967Y-9802436D01*
X13726967Y-9802436D02*
X13717443Y-9811960D01*
X13717443Y-9811960D02*
X13698396Y-9821484D01*
X13698396Y-9821484D02*
X13660301Y-9821484D01*
X13660301Y-9821484D02*
X13641253Y-9811960D01*
X13822205Y-9802436D02*
X13831729Y-9811960D01*
X13831729Y-9811960D02*
X13822205Y-9821484D01*
X13822205Y-9821484D02*
X13812682Y-9811960D01*
X13812682Y-9811960D02*
X13822205Y-9802436D01*
X13822205Y-9802436D02*
X13822205Y-9821484D01*
X13822205Y-9697674D02*
X13831729Y-9707198D01*
X13831729Y-9707198D02*
X13822205Y-9716722D01*
X13822205Y-9716722D02*
X13812682Y-9707198D01*
X13812682Y-9707198D02*
X13822205Y-9697674D01*
X13822205Y-9697674D02*
X13822205Y-9716722D01*
D11*
X12120000Y-10115000D02*
X12190000Y-10185000D01*
X12190000Y-10115000D02*
X12120000Y-10185000D01*
D10*
X12488872Y-10041484D02*
X12507920Y-10041484D01*
X12507920Y-10041484D02*
X12526967Y-10051008D01*
X12526967Y-10051008D02*
X12536491Y-10060531D01*
X12536491Y-10060531D02*
X12546015Y-10079579D01*
X12546015Y-10079579D02*
X12555539Y-10117674D01*
X12555539Y-10117674D02*
X12555539Y-10165293D01*
X12555539Y-10165293D02*
X12546015Y-10203389D01*
X12546015Y-10203389D02*
X12536491Y-10222436D01*
X12536491Y-10222436D02*
X12526967Y-10231960D01*
X12526967Y-10231960D02*
X12507920Y-10241484D01*
X12507920Y-10241484D02*
X12488872Y-10241484D01*
X12488872Y-10241484D02*
X12469824Y-10231960D01*
X12469824Y-10231960D02*
X12460301Y-10222436D01*
X12460301Y-10222436D02*
X12450777Y-10203389D01*
X12450777Y-10203389D02*
X12441253Y-10165293D01*
X12441253Y-10165293D02*
X12441253Y-10117674D01*
X12441253Y-10117674D02*
X12450777Y-10079579D01*
X12450777Y-10079579D02*
X12460301Y-10060531D01*
X12460301Y-10060531D02*
X12469824Y-10051008D01*
X12469824Y-10051008D02*
X12488872Y-10041484D01*
X12641253Y-10222436D02*
X12650777Y-10231960D01*
X12650777Y-10231960D02*
X12641253Y-10241484D01*
X12641253Y-10241484D02*
X12631729Y-10231960D01*
X12631729Y-10231960D02*
X12641253Y-10222436D01*
X12641253Y-10222436D02*
X12641253Y-10241484D01*
X12717443Y-10041484D02*
X12850777Y-10041484D01*
X12850777Y-10041484D02*
X12765062Y-10241484D01*
X12965062Y-10041484D02*
X12984110Y-10041484D01*
X12984110Y-10041484D02*
X13003158Y-10051008D01*
X13003158Y-10051008D02*
X13012682Y-10060531D01*
X13012682Y-10060531D02*
X13022205Y-10079579D01*
X13022205Y-10079579D02*
X13031729Y-10117674D01*
X13031729Y-10117674D02*
X13031729Y-10165293D01*
X13031729Y-10165293D02*
X13022205Y-10203389D01*
X13022205Y-10203389D02*
X13012682Y-10222436D01*
X13012682Y-10222436D02*
X13003158Y-10231960D01*
X13003158Y-10231960D02*
X12984110Y-10241484D01*
X12984110Y-10241484D02*
X12965062Y-10241484D01*
X12965062Y-10241484D02*
X12946015Y-10231960D01*
X12946015Y-10231960D02*
X12936491Y-10222436D01*
X12936491Y-10222436D02*
X12926967Y-10203389D01*
X12926967Y-10203389D02*
X12917443Y-10165293D01*
X12917443Y-10165293D02*
X12917443Y-10117674D01*
X12917443Y-10117674D02*
X12926967Y-10079579D01*
X12926967Y-10079579D02*
X12936491Y-10060531D01*
X12936491Y-10060531D02*
X12946015Y-10051008D01*
X12946015Y-10051008D02*
X12965062Y-10041484D01*
X13155539Y-10041484D02*
X13174586Y-10041484D01*
X13174586Y-10041484D02*
X13193634Y-10051008D01*
X13193634Y-10051008D02*
X13203158Y-10060531D01*
X13203158Y-10060531D02*
X13212682Y-10079579D01*
X13212682Y-10079579D02*
X13222205Y-10117674D01*
X13222205Y-10117674D02*
X13222205Y-10165293D01*
X13222205Y-10165293D02*
X13212682Y-10203389D01*
X13212682Y-10203389D02*
X13203158Y-10222436D01*
X13203158Y-10222436D02*
X13193634Y-10231960D01*
X13193634Y-10231960D02*
X13174586Y-10241484D01*
X13174586Y-10241484D02*
X13155539Y-10241484D01*
X13155539Y-10241484D02*
X13136491Y-10231960D01*
X13136491Y-10231960D02*
X13126967Y-10222436D01*
X13126967Y-10222436D02*
X13117443Y-10203389D01*
X13117443Y-10203389D02*
X13107920Y-10165293D01*
X13107920Y-10165293D02*
X13107920Y-10117674D01*
X13107920Y-10117674D02*
X13117443Y-10079579D01*
X13117443Y-10079579D02*
X13126967Y-10060531D01*
X13126967Y-10060531D02*
X13136491Y-10051008D01*
X13136491Y-10051008D02*
X13155539Y-10041484D01*
X13307920Y-10241484D02*
X13307920Y-10108150D01*
X13307920Y-10127198D02*
X13317443Y-10117674D01*
X13317443Y-10117674D02*
X13336491Y-10108150D01*
X13336491Y-10108150D02*
X13365063Y-10108150D01*
X13365063Y-10108150D02*
X13384110Y-10117674D01*
X13384110Y-10117674D02*
X13393634Y-10136722D01*
X13393634Y-10136722D02*
X13393634Y-10241484D01*
X13393634Y-10136722D02*
X13403158Y-10117674D01*
X13403158Y-10117674D02*
X13422205Y-10108150D01*
X13422205Y-10108150D02*
X13450777Y-10108150D01*
X13450777Y-10108150D02*
X13469824Y-10117674D01*
X13469824Y-10117674D02*
X13479348Y-10136722D01*
X13479348Y-10136722D02*
X13479348Y-10241484D01*
X13574586Y-10241484D02*
X13574586Y-10108150D01*
X13574586Y-10127198D02*
X13584110Y-10117674D01*
X13584110Y-10117674D02*
X13603158Y-10108150D01*
X13603158Y-10108150D02*
X13631729Y-10108150D01*
X13631729Y-10108150D02*
X13650777Y-10117674D01*
X13650777Y-10117674D02*
X13660301Y-10136722D01*
X13660301Y-10136722D02*
X13660301Y-10241484D01*
X13660301Y-10136722D02*
X13669824Y-10117674D01*
X13669824Y-10117674D02*
X13688872Y-10108150D01*
X13688872Y-10108150D02*
X13717443Y-10108150D01*
X13717443Y-10108150D02*
X13736491Y-10117674D01*
X13736491Y-10117674D02*
X13746015Y-10136722D01*
X13746015Y-10136722D02*
X13746015Y-10241484D01*
X14136491Y-10031960D02*
X13965063Y-10289103D01*
X14393634Y-10041484D02*
X14412682Y-10041484D01*
X14412682Y-10041484D02*
X14431729Y-10051008D01*
X14431729Y-10051008D02*
X14441253Y-10060531D01*
X14441253Y-10060531D02*
X14450777Y-10079579D01*
X14450777Y-10079579D02*
X14460301Y-10117674D01*
X14460301Y-10117674D02*
X14460301Y-10165293D01*
X14460301Y-10165293D02*
X14450777Y-10203389D01*
X14450777Y-10203389D02*
X14441253Y-10222436D01*
X14441253Y-10222436D02*
X14431729Y-10231960D01*
X14431729Y-10231960D02*
X14412682Y-10241484D01*
X14412682Y-10241484D02*
X14393634Y-10241484D01*
X14393634Y-10241484D02*
X14374586Y-10231960D01*
X14374586Y-10231960D02*
X14365063Y-10222436D01*
X14365063Y-10222436D02*
X14355539Y-10203389D01*
X14355539Y-10203389D02*
X14346015Y-10165293D01*
X14346015Y-10165293D02*
X14346015Y-10117674D01*
X14346015Y-10117674D02*
X14355539Y-10079579D01*
X14355539Y-10079579D02*
X14365063Y-10060531D01*
X14365063Y-10060531D02*
X14374586Y-10051008D01*
X14374586Y-10051008D02*
X14393634Y-10041484D01*
X14546015Y-10222436D02*
X14555539Y-10231960D01*
X14555539Y-10231960D02*
X14546015Y-10241484D01*
X14546015Y-10241484D02*
X14536491Y-10231960D01*
X14536491Y-10231960D02*
X14546015Y-10222436D01*
X14546015Y-10222436D02*
X14546015Y-10241484D01*
X14679348Y-10041484D02*
X14698396Y-10041484D01*
X14698396Y-10041484D02*
X14717444Y-10051008D01*
X14717444Y-10051008D02*
X14726967Y-10060531D01*
X14726967Y-10060531D02*
X14736491Y-10079579D01*
X14736491Y-10079579D02*
X14746015Y-10117674D01*
X14746015Y-10117674D02*
X14746015Y-10165293D01*
X14746015Y-10165293D02*
X14736491Y-10203389D01*
X14736491Y-10203389D02*
X14726967Y-10222436D01*
X14726967Y-10222436D02*
X14717444Y-10231960D01*
X14717444Y-10231960D02*
X14698396Y-10241484D01*
X14698396Y-10241484D02*
X14679348Y-10241484D01*
X14679348Y-10241484D02*
X14660301Y-10231960D01*
X14660301Y-10231960D02*
X14650777Y-10222436D01*
X14650777Y-10222436D02*
X14641253Y-10203389D01*
X14641253Y-10203389D02*
X14631729Y-10165293D01*
X14631729Y-10165293D02*
X14631729Y-10117674D01*
X14631729Y-10117674D02*
X14641253Y-10079579D01*
X14641253Y-10079579D02*
X14650777Y-10060531D01*
X14650777Y-10060531D02*
X14660301Y-10051008D01*
X14660301Y-10051008D02*
X14679348Y-10041484D01*
X14822206Y-10060531D02*
X14831729Y-10051008D01*
X14831729Y-10051008D02*
X14850777Y-10041484D01*
X14850777Y-10041484D02*
X14898396Y-10041484D01*
X14898396Y-10041484D02*
X14917444Y-10051008D01*
X14917444Y-10051008D02*
X14926967Y-10060531D01*
X14926967Y-10060531D02*
X14936491Y-10079579D01*
X14936491Y-10079579D02*
X14936491Y-10098627D01*
X14936491Y-10098627D02*
X14926967Y-10127198D01*
X14926967Y-10127198D02*
X14812682Y-10241484D01*
X14812682Y-10241484D02*
X14936491Y-10241484D01*
X15003158Y-10041484D02*
X15136491Y-10041484D01*
X15136491Y-10041484D02*
X15050777Y-10241484D01*
X15298396Y-10041484D02*
X15260301Y-10041484D01*
X15260301Y-10041484D02*
X15241253Y-10051008D01*
X15241253Y-10051008D02*
X15231729Y-10060531D01*
X15231729Y-10060531D02*
X15212682Y-10089103D01*
X15212682Y-10089103D02*
X15203158Y-10127198D01*
X15203158Y-10127198D02*
X15203158Y-10203389D01*
X15203158Y-10203389D02*
X15212682Y-10222436D01*
X15212682Y-10222436D02*
X15222206Y-10231960D01*
X15222206Y-10231960D02*
X15241253Y-10241484D01*
X15241253Y-10241484D02*
X15279348Y-10241484D01*
X15279348Y-10241484D02*
X15298396Y-10231960D01*
X15298396Y-10231960D02*
X15307920Y-10222436D01*
X15307920Y-10222436D02*
X15317444Y-10203389D01*
X15317444Y-10203389D02*
X15317444Y-10155770D01*
X15317444Y-10155770D02*
X15307920Y-10136722D01*
X15307920Y-10136722D02*
X15298396Y-10127198D01*
X15298396Y-10127198D02*
X15279348Y-10117674D01*
X15279348Y-10117674D02*
X15241253Y-10117674D01*
X15241253Y-10117674D02*
X15222206Y-10127198D01*
X15222206Y-10127198D02*
X15212682Y-10136722D01*
X15212682Y-10136722D02*
X15203158Y-10155770D01*
X15393634Y-10041484D02*
X15393634Y-10079579D01*
X15469825Y-10041484D02*
X15469825Y-10079579D01*
X15765063Y-10317674D02*
X15755539Y-10308150D01*
X15755539Y-10308150D02*
X15736491Y-10279579D01*
X15736491Y-10279579D02*
X15726968Y-10260531D01*
X15726968Y-10260531D02*
X15717444Y-10231960D01*
X15717444Y-10231960D02*
X15707920Y-10184341D01*
X15707920Y-10184341D02*
X15707920Y-10146246D01*
X15707920Y-10146246D02*
X15717444Y-10098627D01*
X15717444Y-10098627D02*
X15726968Y-10070055D01*
X15726968Y-10070055D02*
X15736491Y-10051008D01*
X15736491Y-10051008D02*
X15755539Y-10022436D01*
X15755539Y-10022436D02*
X15765063Y-10012912D01*
X15831729Y-10060531D02*
X15841253Y-10051008D01*
X15841253Y-10051008D02*
X15860301Y-10041484D01*
X15860301Y-10041484D02*
X15907920Y-10041484D01*
X15907920Y-10041484D02*
X15926968Y-10051008D01*
X15926968Y-10051008D02*
X15936491Y-10060531D01*
X15936491Y-10060531D02*
X15946015Y-10079579D01*
X15946015Y-10079579D02*
X15946015Y-10098627D01*
X15946015Y-10098627D02*
X15936491Y-10127198D01*
X15936491Y-10127198D02*
X15822206Y-10241484D01*
X15822206Y-10241484D02*
X15946015Y-10241484D01*
X16184110Y-10241484D02*
X16184110Y-10041484D01*
X16269825Y-10241484D02*
X16269825Y-10136722D01*
X16269825Y-10136722D02*
X16260301Y-10117674D01*
X16260301Y-10117674D02*
X16241253Y-10108150D01*
X16241253Y-10108150D02*
X16212682Y-10108150D01*
X16212682Y-10108150D02*
X16193634Y-10117674D01*
X16193634Y-10117674D02*
X16184110Y-10127198D01*
X16393634Y-10241484D02*
X16374587Y-10231960D01*
X16374587Y-10231960D02*
X16365063Y-10222436D01*
X16365063Y-10222436D02*
X16355539Y-10203389D01*
X16355539Y-10203389D02*
X16355539Y-10146246D01*
X16355539Y-10146246D02*
X16365063Y-10127198D01*
X16365063Y-10127198D02*
X16374587Y-10117674D01*
X16374587Y-10117674D02*
X16393634Y-10108150D01*
X16393634Y-10108150D02*
X16422206Y-10108150D01*
X16422206Y-10108150D02*
X16441253Y-10117674D01*
X16441253Y-10117674D02*
X16450777Y-10127198D01*
X16450777Y-10127198D02*
X16460301Y-10146246D01*
X16460301Y-10146246D02*
X16460301Y-10203389D01*
X16460301Y-10203389D02*
X16450777Y-10222436D01*
X16450777Y-10222436D02*
X16441253Y-10231960D01*
X16441253Y-10231960D02*
X16422206Y-10241484D01*
X16422206Y-10241484D02*
X16393634Y-10241484D01*
X16574587Y-10241484D02*
X16555539Y-10231960D01*
X16555539Y-10231960D02*
X16546015Y-10212912D01*
X16546015Y-10212912D02*
X16546015Y-10041484D01*
X16726968Y-10231960D02*
X16707920Y-10241484D01*
X16707920Y-10241484D02*
X16669825Y-10241484D01*
X16669825Y-10241484D02*
X16650777Y-10231960D01*
X16650777Y-10231960D02*
X16641253Y-10212912D01*
X16641253Y-10212912D02*
X16641253Y-10136722D01*
X16641253Y-10136722D02*
X16650777Y-10117674D01*
X16650777Y-10117674D02*
X16669825Y-10108150D01*
X16669825Y-10108150D02*
X16707920Y-10108150D01*
X16707920Y-10108150D02*
X16726968Y-10117674D01*
X16726968Y-10117674D02*
X16736491Y-10136722D01*
X16736491Y-10136722D02*
X16736491Y-10155770D01*
X16736491Y-10155770D02*
X16641253Y-10174817D01*
X16812682Y-10231960D02*
X16831730Y-10241484D01*
X16831730Y-10241484D02*
X16869825Y-10241484D01*
X16869825Y-10241484D02*
X16888873Y-10231960D01*
X16888873Y-10231960D02*
X16898396Y-10212912D01*
X16898396Y-10212912D02*
X16898396Y-10203389D01*
X16898396Y-10203389D02*
X16888873Y-10184341D01*
X16888873Y-10184341D02*
X16869825Y-10174817D01*
X16869825Y-10174817D02*
X16841253Y-10174817D01*
X16841253Y-10174817D02*
X16822206Y-10165293D01*
X16822206Y-10165293D02*
X16812682Y-10146246D01*
X16812682Y-10146246D02*
X16812682Y-10136722D01*
X16812682Y-10136722D02*
X16822206Y-10117674D01*
X16822206Y-10117674D02*
X16841253Y-10108150D01*
X16841253Y-10108150D02*
X16869825Y-10108150D01*
X16869825Y-10108150D02*
X16888873Y-10117674D01*
X16965063Y-10317674D02*
X16974587Y-10308150D01*
X16974587Y-10308150D02*
X16993634Y-10279579D01*
X16993634Y-10279579D02*
X17003158Y-10260531D01*
X17003158Y-10260531D02*
X17012682Y-10231960D01*
X17012682Y-10231960D02*
X17022206Y-10184341D01*
X17022206Y-10184341D02*
X17022206Y-10146246D01*
X17022206Y-10146246D02*
X17012682Y-10098627D01*
X17012682Y-10098627D02*
X17003158Y-10070055D01*
X17003158Y-10070055D02*
X16993634Y-10051008D01*
X16993634Y-10051008D02*
X16974587Y-10022436D01*
X16974587Y-10022436D02*
X16965063Y-10012912D01*
D11*
X12190000Y-10414000D02*
G75*
G02*
X12113800Y-10414000I-38100J0D01*
G01*
X12113800Y-10414000D02*
G75*
G02*
X12190000Y-10414000I38100J0D01*
G01*
D10*
X12488872Y-10305484D02*
X12507920Y-10305484D01*
X12507920Y-10305484D02*
X12526967Y-10315008D01*
X12526967Y-10315008D02*
X12536491Y-10324531D01*
X12536491Y-10324531D02*
X12546015Y-10343579D01*
X12546015Y-10343579D02*
X12555539Y-10381674D01*
X12555539Y-10381674D02*
X12555539Y-10429293D01*
X12555539Y-10429293D02*
X12546015Y-10467389D01*
X12546015Y-10467389D02*
X12536491Y-10486436D01*
X12536491Y-10486436D02*
X12526967Y-10495960D01*
X12526967Y-10495960D02*
X12507920Y-10505484D01*
X12507920Y-10505484D02*
X12488872Y-10505484D01*
X12488872Y-10505484D02*
X12469824Y-10495960D01*
X12469824Y-10495960D02*
X12460301Y-10486436D01*
X12460301Y-10486436D02*
X12450777Y-10467389D01*
X12450777Y-10467389D02*
X12441253Y-10429293D01*
X12441253Y-10429293D02*
X12441253Y-10381674D01*
X12441253Y-10381674D02*
X12450777Y-10343579D01*
X12450777Y-10343579D02*
X12460301Y-10324531D01*
X12460301Y-10324531D02*
X12469824Y-10315008D01*
X12469824Y-10315008D02*
X12488872Y-10305484D01*
X12641253Y-10486436D02*
X12650777Y-10495960D01*
X12650777Y-10495960D02*
X12641253Y-10505484D01*
X12641253Y-10505484D02*
X12631729Y-10495960D01*
X12631729Y-10495960D02*
X12641253Y-10486436D01*
X12641253Y-10486436D02*
X12641253Y-10505484D01*
X12717443Y-10305484D02*
X12850777Y-10305484D01*
X12850777Y-10305484D02*
X12765062Y-10505484D01*
X13012682Y-10305484D02*
X12974586Y-10305484D01*
X12974586Y-10305484D02*
X12955539Y-10315008D01*
X12955539Y-10315008D02*
X12946015Y-10324531D01*
X12946015Y-10324531D02*
X12926967Y-10353103D01*
X12926967Y-10353103D02*
X12917443Y-10391198D01*
X12917443Y-10391198D02*
X12917443Y-10467389D01*
X12917443Y-10467389D02*
X12926967Y-10486436D01*
X12926967Y-10486436D02*
X12936491Y-10495960D01*
X12936491Y-10495960D02*
X12955539Y-10505484D01*
X12955539Y-10505484D02*
X12993634Y-10505484D01*
X12993634Y-10505484D02*
X13012682Y-10495960D01*
X13012682Y-10495960D02*
X13022205Y-10486436D01*
X13022205Y-10486436D02*
X13031729Y-10467389D01*
X13031729Y-10467389D02*
X13031729Y-10419770D01*
X13031729Y-10419770D02*
X13022205Y-10400722D01*
X13022205Y-10400722D02*
X13012682Y-10391198D01*
X13012682Y-10391198D02*
X12993634Y-10381674D01*
X12993634Y-10381674D02*
X12955539Y-10381674D01*
X12955539Y-10381674D02*
X12936491Y-10391198D01*
X12936491Y-10391198D02*
X12926967Y-10400722D01*
X12926967Y-10400722D02*
X12917443Y-10419770D01*
X13107920Y-10324531D02*
X13117443Y-10315008D01*
X13117443Y-10315008D02*
X13136491Y-10305484D01*
X13136491Y-10305484D02*
X13184110Y-10305484D01*
X13184110Y-10305484D02*
X13203158Y-10315008D01*
X13203158Y-10315008D02*
X13212682Y-10324531D01*
X13212682Y-10324531D02*
X13222205Y-10343579D01*
X13222205Y-10343579D02*
X13222205Y-10362627D01*
X13222205Y-10362627D02*
X13212682Y-10391198D01*
X13212682Y-10391198D02*
X13098396Y-10505484D01*
X13098396Y-10505484D02*
X13222205Y-10505484D01*
X13307920Y-10505484D02*
X13307920Y-10372150D01*
X13307920Y-10391198D02*
X13317443Y-10381674D01*
X13317443Y-10381674D02*
X13336491Y-10372150D01*
X13336491Y-10372150D02*
X13365063Y-10372150D01*
X13365063Y-10372150D02*
X13384110Y-10381674D01*
X13384110Y-10381674D02*
X13393634Y-10400722D01*
X13393634Y-10400722D02*
X13393634Y-10505484D01*
X13393634Y-10400722D02*
X13403158Y-10381674D01*
X13403158Y-10381674D02*
X13422205Y-10372150D01*
X13422205Y-10372150D02*
X13450777Y-10372150D01*
X13450777Y-10372150D02*
X13469824Y-10381674D01*
X13469824Y-10381674D02*
X13479348Y-10400722D01*
X13479348Y-10400722D02*
X13479348Y-10505484D01*
X13574586Y-10505484D02*
X13574586Y-10372150D01*
X13574586Y-10391198D02*
X13584110Y-10381674D01*
X13584110Y-10381674D02*
X13603158Y-10372150D01*
X13603158Y-10372150D02*
X13631729Y-10372150D01*
X13631729Y-10372150D02*
X13650777Y-10381674D01*
X13650777Y-10381674D02*
X13660301Y-10400722D01*
X13660301Y-10400722D02*
X13660301Y-10505484D01*
X13660301Y-10400722D02*
X13669824Y-10381674D01*
X13669824Y-10381674D02*
X13688872Y-10372150D01*
X13688872Y-10372150D02*
X13717443Y-10372150D01*
X13717443Y-10372150D02*
X13736491Y-10381674D01*
X13736491Y-10381674D02*
X13746015Y-10400722D01*
X13746015Y-10400722D02*
X13746015Y-10505484D01*
X14136491Y-10295960D02*
X13965063Y-10553103D01*
X14393634Y-10305484D02*
X14412682Y-10305484D01*
X14412682Y-10305484D02*
X14431729Y-10315008D01*
X14431729Y-10315008D02*
X14441253Y-10324531D01*
X14441253Y-10324531D02*
X14450777Y-10343579D01*
X14450777Y-10343579D02*
X14460301Y-10381674D01*
X14460301Y-10381674D02*
X14460301Y-10429293D01*
X14460301Y-10429293D02*
X14450777Y-10467389D01*
X14450777Y-10467389D02*
X14441253Y-10486436D01*
X14441253Y-10486436D02*
X14431729Y-10495960D01*
X14431729Y-10495960D02*
X14412682Y-10505484D01*
X14412682Y-10505484D02*
X14393634Y-10505484D01*
X14393634Y-10505484D02*
X14374586Y-10495960D01*
X14374586Y-10495960D02*
X14365063Y-10486436D01*
X14365063Y-10486436D02*
X14355539Y-10467389D01*
X14355539Y-10467389D02*
X14346015Y-10429293D01*
X14346015Y-10429293D02*
X14346015Y-10381674D01*
X14346015Y-10381674D02*
X14355539Y-10343579D01*
X14355539Y-10343579D02*
X14365063Y-10324531D01*
X14365063Y-10324531D02*
X14374586Y-10315008D01*
X14374586Y-10315008D02*
X14393634Y-10305484D01*
X14546015Y-10486436D02*
X14555539Y-10495960D01*
X14555539Y-10495960D02*
X14546015Y-10505484D01*
X14546015Y-10505484D02*
X14536491Y-10495960D01*
X14536491Y-10495960D02*
X14546015Y-10486436D01*
X14546015Y-10486436D02*
X14546015Y-10505484D01*
X14679348Y-10305484D02*
X14698396Y-10305484D01*
X14698396Y-10305484D02*
X14717444Y-10315008D01*
X14717444Y-10315008D02*
X14726967Y-10324531D01*
X14726967Y-10324531D02*
X14736491Y-10343579D01*
X14736491Y-10343579D02*
X14746015Y-10381674D01*
X14746015Y-10381674D02*
X14746015Y-10429293D01*
X14746015Y-10429293D02*
X14736491Y-10467389D01*
X14736491Y-10467389D02*
X14726967Y-10486436D01*
X14726967Y-10486436D02*
X14717444Y-10495960D01*
X14717444Y-10495960D02*
X14698396Y-10505484D01*
X14698396Y-10505484D02*
X14679348Y-10505484D01*
X14679348Y-10505484D02*
X14660301Y-10495960D01*
X14660301Y-10495960D02*
X14650777Y-10486436D01*
X14650777Y-10486436D02*
X14641253Y-10467389D01*
X14641253Y-10467389D02*
X14631729Y-10429293D01*
X14631729Y-10429293D02*
X14631729Y-10381674D01*
X14631729Y-10381674D02*
X14641253Y-10343579D01*
X14641253Y-10343579D02*
X14650777Y-10324531D01*
X14650777Y-10324531D02*
X14660301Y-10315008D01*
X14660301Y-10315008D02*
X14679348Y-10305484D01*
X14812682Y-10305484D02*
X14936491Y-10305484D01*
X14936491Y-10305484D02*
X14869825Y-10381674D01*
X14869825Y-10381674D02*
X14898396Y-10381674D01*
X14898396Y-10381674D02*
X14917444Y-10391198D01*
X14917444Y-10391198D02*
X14926967Y-10400722D01*
X14926967Y-10400722D02*
X14936491Y-10419770D01*
X14936491Y-10419770D02*
X14936491Y-10467389D01*
X14936491Y-10467389D02*
X14926967Y-10486436D01*
X14926967Y-10486436D02*
X14917444Y-10495960D01*
X14917444Y-10495960D02*
X14898396Y-10505484D01*
X14898396Y-10505484D02*
X14841253Y-10505484D01*
X14841253Y-10505484D02*
X14822206Y-10495960D01*
X14822206Y-10495960D02*
X14812682Y-10486436D01*
X15060301Y-10305484D02*
X15079348Y-10305484D01*
X15079348Y-10305484D02*
X15098396Y-10315008D01*
X15098396Y-10315008D02*
X15107920Y-10324531D01*
X15107920Y-10324531D02*
X15117444Y-10343579D01*
X15117444Y-10343579D02*
X15126967Y-10381674D01*
X15126967Y-10381674D02*
X15126967Y-10429293D01*
X15126967Y-10429293D02*
X15117444Y-10467389D01*
X15117444Y-10467389D02*
X15107920Y-10486436D01*
X15107920Y-10486436D02*
X15098396Y-10495960D01*
X15098396Y-10495960D02*
X15079348Y-10505484D01*
X15079348Y-10505484D02*
X15060301Y-10505484D01*
X15060301Y-10505484D02*
X15041253Y-10495960D01*
X15041253Y-10495960D02*
X15031729Y-10486436D01*
X15031729Y-10486436D02*
X15022206Y-10467389D01*
X15022206Y-10467389D02*
X15012682Y-10429293D01*
X15012682Y-10429293D02*
X15012682Y-10381674D01*
X15012682Y-10381674D02*
X15022206Y-10343579D01*
X15022206Y-10343579D02*
X15031729Y-10324531D01*
X15031729Y-10324531D02*
X15041253Y-10315008D01*
X15041253Y-10315008D02*
X15060301Y-10305484D01*
X15250777Y-10305484D02*
X15269825Y-10305484D01*
X15269825Y-10305484D02*
X15288872Y-10315008D01*
X15288872Y-10315008D02*
X15298396Y-10324531D01*
X15298396Y-10324531D02*
X15307920Y-10343579D01*
X15307920Y-10343579D02*
X15317444Y-10381674D01*
X15317444Y-10381674D02*
X15317444Y-10429293D01*
X15317444Y-10429293D02*
X15307920Y-10467389D01*
X15307920Y-10467389D02*
X15298396Y-10486436D01*
X15298396Y-10486436D02*
X15288872Y-10495960D01*
X15288872Y-10495960D02*
X15269825Y-10505484D01*
X15269825Y-10505484D02*
X15250777Y-10505484D01*
X15250777Y-10505484D02*
X15231729Y-10495960D01*
X15231729Y-10495960D02*
X15222206Y-10486436D01*
X15222206Y-10486436D02*
X15212682Y-10467389D01*
X15212682Y-10467389D02*
X15203158Y-10429293D01*
X15203158Y-10429293D02*
X15203158Y-10381674D01*
X15203158Y-10381674D02*
X15212682Y-10343579D01*
X15212682Y-10343579D02*
X15222206Y-10324531D01*
X15222206Y-10324531D02*
X15231729Y-10315008D01*
X15231729Y-10315008D02*
X15250777Y-10305484D01*
X15393634Y-10305484D02*
X15393634Y-10343579D01*
X15469825Y-10305484D02*
X15469825Y-10343579D01*
X15765063Y-10581674D02*
X15755539Y-10572150D01*
X15755539Y-10572150D02*
X15736491Y-10543579D01*
X15736491Y-10543579D02*
X15726968Y-10524531D01*
X15726968Y-10524531D02*
X15717444Y-10495960D01*
X15717444Y-10495960D02*
X15707920Y-10448341D01*
X15707920Y-10448341D02*
X15707920Y-10410246D01*
X15707920Y-10410246D02*
X15717444Y-10362627D01*
X15717444Y-10362627D02*
X15726968Y-10334055D01*
X15726968Y-10334055D02*
X15736491Y-10315008D01*
X15736491Y-10315008D02*
X15755539Y-10286436D01*
X15755539Y-10286436D02*
X15765063Y-10276912D01*
X15946015Y-10505484D02*
X15831729Y-10505484D01*
X15888872Y-10505484D02*
X15888872Y-10305484D01*
X15888872Y-10305484D02*
X15869825Y-10334055D01*
X15869825Y-10334055D02*
X15850777Y-10353103D01*
X15850777Y-10353103D02*
X15831729Y-10362627D01*
X16117444Y-10372150D02*
X16117444Y-10505484D01*
X16069825Y-10295960D02*
X16022206Y-10438817D01*
X16022206Y-10438817D02*
X16146015Y-10438817D01*
X16374587Y-10505484D02*
X16374587Y-10305484D01*
X16460301Y-10505484D02*
X16460301Y-10400722D01*
X16460301Y-10400722D02*
X16450777Y-10381674D01*
X16450777Y-10381674D02*
X16431730Y-10372150D01*
X16431730Y-10372150D02*
X16403158Y-10372150D01*
X16403158Y-10372150D02*
X16384110Y-10381674D01*
X16384110Y-10381674D02*
X16374587Y-10391198D01*
X16584110Y-10505484D02*
X16565063Y-10495960D01*
X16565063Y-10495960D02*
X16555539Y-10486436D01*
X16555539Y-10486436D02*
X16546015Y-10467389D01*
X16546015Y-10467389D02*
X16546015Y-10410246D01*
X16546015Y-10410246D02*
X16555539Y-10391198D01*
X16555539Y-10391198D02*
X16565063Y-10381674D01*
X16565063Y-10381674D02*
X16584110Y-10372150D01*
X16584110Y-10372150D02*
X16612682Y-10372150D01*
X16612682Y-10372150D02*
X16631730Y-10381674D01*
X16631730Y-10381674D02*
X16641253Y-10391198D01*
X16641253Y-10391198D02*
X16650777Y-10410246D01*
X16650777Y-10410246D02*
X16650777Y-10467389D01*
X16650777Y-10467389D02*
X16641253Y-10486436D01*
X16641253Y-10486436D02*
X16631730Y-10495960D01*
X16631730Y-10495960D02*
X16612682Y-10505484D01*
X16612682Y-10505484D02*
X16584110Y-10505484D01*
X16765063Y-10505484D02*
X16746015Y-10495960D01*
X16746015Y-10495960D02*
X16736491Y-10476912D01*
X16736491Y-10476912D02*
X16736491Y-10305484D01*
X16917444Y-10495960D02*
X16898396Y-10505484D01*
X16898396Y-10505484D02*
X16860301Y-10505484D01*
X16860301Y-10505484D02*
X16841253Y-10495960D01*
X16841253Y-10495960D02*
X16831730Y-10476912D01*
X16831730Y-10476912D02*
X16831730Y-10400722D01*
X16831730Y-10400722D02*
X16841253Y-10381674D01*
X16841253Y-10381674D02*
X16860301Y-10372150D01*
X16860301Y-10372150D02*
X16898396Y-10372150D01*
X16898396Y-10372150D02*
X16917444Y-10381674D01*
X16917444Y-10381674D02*
X16926968Y-10400722D01*
X16926968Y-10400722D02*
X16926968Y-10419770D01*
X16926968Y-10419770D02*
X16831730Y-10438817D01*
X17003158Y-10495960D02*
X17022206Y-10505484D01*
X17022206Y-10505484D02*
X17060301Y-10505484D01*
X17060301Y-10505484D02*
X17079349Y-10495960D01*
X17079349Y-10495960D02*
X17088873Y-10476912D01*
X17088873Y-10476912D02*
X17088873Y-10467389D01*
X17088873Y-10467389D02*
X17079349Y-10448341D01*
X17079349Y-10448341D02*
X17060301Y-10438817D01*
X17060301Y-10438817D02*
X17031730Y-10438817D01*
X17031730Y-10438817D02*
X17012682Y-10429293D01*
X17012682Y-10429293D02*
X17003158Y-10410246D01*
X17003158Y-10410246D02*
X17003158Y-10400722D01*
X17003158Y-10400722D02*
X17012682Y-10381674D01*
X17012682Y-10381674D02*
X17031730Y-10372150D01*
X17031730Y-10372150D02*
X17060301Y-10372150D01*
X17060301Y-10372150D02*
X17079349Y-10381674D01*
X17155539Y-10581674D02*
X17165063Y-10572150D01*
X17165063Y-10572150D02*
X17184111Y-10543579D01*
X17184111Y-10543579D02*
X17193634Y-10524531D01*
X17193634Y-10524531D02*
X17203158Y-10495960D01*
X17203158Y-10495960D02*
X17212682Y-10448341D01*
X17212682Y-10448341D02*
X17212682Y-10410246D01*
X17212682Y-10410246D02*
X17203158Y-10362627D01*
X17203158Y-10362627D02*
X17193634Y-10334055D01*
X17193634Y-10334055D02*
X17184111Y-10315008D01*
X17184111Y-10315008D02*
X17165063Y-10286436D01*
X17165063Y-10286436D02*
X17155539Y-10276912D01*
D11*
X12150000Y-10638000D02*
X12150000Y-10718000D01*
X12110000Y-10678000D02*
X12190000Y-10678000D01*
D10*
X12488872Y-10569484D02*
X12507920Y-10569484D01*
X12507920Y-10569484D02*
X12526967Y-10579008D01*
X12526967Y-10579008D02*
X12536491Y-10588531D01*
X12536491Y-10588531D02*
X12546015Y-10607579D01*
X12546015Y-10607579D02*
X12555539Y-10645674D01*
X12555539Y-10645674D02*
X12555539Y-10693293D01*
X12555539Y-10693293D02*
X12546015Y-10731389D01*
X12546015Y-10731389D02*
X12536491Y-10750436D01*
X12536491Y-10750436D02*
X12526967Y-10759960D01*
X12526967Y-10759960D02*
X12507920Y-10769484D01*
X12507920Y-10769484D02*
X12488872Y-10769484D01*
X12488872Y-10769484D02*
X12469824Y-10759960D01*
X12469824Y-10759960D02*
X12460301Y-10750436D01*
X12460301Y-10750436D02*
X12450777Y-10731389D01*
X12450777Y-10731389D02*
X12441253Y-10693293D01*
X12441253Y-10693293D02*
X12441253Y-10645674D01*
X12441253Y-10645674D02*
X12450777Y-10607579D01*
X12450777Y-10607579D02*
X12460301Y-10588531D01*
X12460301Y-10588531D02*
X12469824Y-10579008D01*
X12469824Y-10579008D02*
X12488872Y-10569484D01*
X12641253Y-10750436D02*
X12650777Y-10759960D01*
X12650777Y-10759960D02*
X12641253Y-10769484D01*
X12641253Y-10769484D02*
X12631729Y-10759960D01*
X12631729Y-10759960D02*
X12641253Y-10750436D01*
X12641253Y-10750436D02*
X12641253Y-10769484D01*
X12765062Y-10655198D02*
X12746015Y-10645674D01*
X12746015Y-10645674D02*
X12736491Y-10636150D01*
X12736491Y-10636150D02*
X12726967Y-10617103D01*
X12726967Y-10617103D02*
X12726967Y-10607579D01*
X12726967Y-10607579D02*
X12736491Y-10588531D01*
X12736491Y-10588531D02*
X12746015Y-10579008D01*
X12746015Y-10579008D02*
X12765062Y-10569484D01*
X12765062Y-10569484D02*
X12803158Y-10569484D01*
X12803158Y-10569484D02*
X12822205Y-10579008D01*
X12822205Y-10579008D02*
X12831729Y-10588531D01*
X12831729Y-10588531D02*
X12841253Y-10607579D01*
X12841253Y-10607579D02*
X12841253Y-10617103D01*
X12841253Y-10617103D02*
X12831729Y-10636150D01*
X12831729Y-10636150D02*
X12822205Y-10645674D01*
X12822205Y-10645674D02*
X12803158Y-10655198D01*
X12803158Y-10655198D02*
X12765062Y-10655198D01*
X12765062Y-10655198D02*
X12746015Y-10664722D01*
X12746015Y-10664722D02*
X12736491Y-10674246D01*
X12736491Y-10674246D02*
X12726967Y-10693293D01*
X12726967Y-10693293D02*
X12726967Y-10731389D01*
X12726967Y-10731389D02*
X12736491Y-10750436D01*
X12736491Y-10750436D02*
X12746015Y-10759960D01*
X12746015Y-10759960D02*
X12765062Y-10769484D01*
X12765062Y-10769484D02*
X12803158Y-10769484D01*
X12803158Y-10769484D02*
X12822205Y-10759960D01*
X12822205Y-10759960D02*
X12831729Y-10750436D01*
X12831729Y-10750436D02*
X12841253Y-10731389D01*
X12841253Y-10731389D02*
X12841253Y-10693293D01*
X12841253Y-10693293D02*
X12831729Y-10674246D01*
X12831729Y-10674246D02*
X12822205Y-10664722D01*
X12822205Y-10664722D02*
X12803158Y-10655198D01*
X12965062Y-10569484D02*
X12984110Y-10569484D01*
X12984110Y-10569484D02*
X13003158Y-10579008D01*
X13003158Y-10579008D02*
X13012682Y-10588531D01*
X13012682Y-10588531D02*
X13022205Y-10607579D01*
X13022205Y-10607579D02*
X13031729Y-10645674D01*
X13031729Y-10645674D02*
X13031729Y-10693293D01*
X13031729Y-10693293D02*
X13022205Y-10731389D01*
X13022205Y-10731389D02*
X13012682Y-10750436D01*
X13012682Y-10750436D02*
X13003158Y-10759960D01*
X13003158Y-10759960D02*
X12984110Y-10769484D01*
X12984110Y-10769484D02*
X12965062Y-10769484D01*
X12965062Y-10769484D02*
X12946015Y-10759960D01*
X12946015Y-10759960D02*
X12936491Y-10750436D01*
X12936491Y-10750436D02*
X12926967Y-10731389D01*
X12926967Y-10731389D02*
X12917443Y-10693293D01*
X12917443Y-10693293D02*
X12917443Y-10645674D01*
X12917443Y-10645674D02*
X12926967Y-10607579D01*
X12926967Y-10607579D02*
X12936491Y-10588531D01*
X12936491Y-10588531D02*
X12946015Y-10579008D01*
X12946015Y-10579008D02*
X12965062Y-10569484D01*
X13155539Y-10569484D02*
X13174586Y-10569484D01*
X13174586Y-10569484D02*
X13193634Y-10579008D01*
X13193634Y-10579008D02*
X13203158Y-10588531D01*
X13203158Y-10588531D02*
X13212682Y-10607579D01*
X13212682Y-10607579D02*
X13222205Y-10645674D01*
X13222205Y-10645674D02*
X13222205Y-10693293D01*
X13222205Y-10693293D02*
X13212682Y-10731389D01*
X13212682Y-10731389D02*
X13203158Y-10750436D01*
X13203158Y-10750436D02*
X13193634Y-10759960D01*
X13193634Y-10759960D02*
X13174586Y-10769484D01*
X13174586Y-10769484D02*
X13155539Y-10769484D01*
X13155539Y-10769484D02*
X13136491Y-10759960D01*
X13136491Y-10759960D02*
X13126967Y-10750436D01*
X13126967Y-10750436D02*
X13117443Y-10731389D01*
X13117443Y-10731389D02*
X13107920Y-10693293D01*
X13107920Y-10693293D02*
X13107920Y-10645674D01*
X13107920Y-10645674D02*
X13117443Y-10607579D01*
X13117443Y-10607579D02*
X13126967Y-10588531D01*
X13126967Y-10588531D02*
X13136491Y-10579008D01*
X13136491Y-10579008D02*
X13155539Y-10569484D01*
X13307920Y-10769484D02*
X13307920Y-10636150D01*
X13307920Y-10655198D02*
X13317443Y-10645674D01*
X13317443Y-10645674D02*
X13336491Y-10636150D01*
X13336491Y-10636150D02*
X13365063Y-10636150D01*
X13365063Y-10636150D02*
X13384110Y-10645674D01*
X13384110Y-10645674D02*
X13393634Y-10664722D01*
X13393634Y-10664722D02*
X13393634Y-10769484D01*
X13393634Y-10664722D02*
X13403158Y-10645674D01*
X13403158Y-10645674D02*
X13422205Y-10636150D01*
X13422205Y-10636150D02*
X13450777Y-10636150D01*
X13450777Y-10636150D02*
X13469824Y-10645674D01*
X13469824Y-10645674D02*
X13479348Y-10664722D01*
X13479348Y-10664722D02*
X13479348Y-10769484D01*
X13574586Y-10769484D02*
X13574586Y-10636150D01*
X13574586Y-10655198D02*
X13584110Y-10645674D01*
X13584110Y-10645674D02*
X13603158Y-10636150D01*
X13603158Y-10636150D02*
X13631729Y-10636150D01*
X13631729Y-10636150D02*
X13650777Y-10645674D01*
X13650777Y-10645674D02*
X13660301Y-10664722D01*
X13660301Y-10664722D02*
X13660301Y-10769484D01*
X13660301Y-10664722D02*
X13669824Y-10645674D01*
X13669824Y-10645674D02*
X13688872Y-10636150D01*
X13688872Y-10636150D02*
X13717443Y-10636150D01*
X13717443Y-10636150D02*
X13736491Y-10645674D01*
X13736491Y-10645674D02*
X13746015Y-10664722D01*
X13746015Y-10664722D02*
X13746015Y-10769484D01*
X14136491Y-10559960D02*
X13965063Y-10817103D01*
X14393634Y-10569484D02*
X14412682Y-10569484D01*
X14412682Y-10569484D02*
X14431729Y-10579008D01*
X14431729Y-10579008D02*
X14441253Y-10588531D01*
X14441253Y-10588531D02*
X14450777Y-10607579D01*
X14450777Y-10607579D02*
X14460301Y-10645674D01*
X14460301Y-10645674D02*
X14460301Y-10693293D01*
X14460301Y-10693293D02*
X14450777Y-10731389D01*
X14450777Y-10731389D02*
X14441253Y-10750436D01*
X14441253Y-10750436D02*
X14431729Y-10759960D01*
X14431729Y-10759960D02*
X14412682Y-10769484D01*
X14412682Y-10769484D02*
X14393634Y-10769484D01*
X14393634Y-10769484D02*
X14374586Y-10759960D01*
X14374586Y-10759960D02*
X14365063Y-10750436D01*
X14365063Y-10750436D02*
X14355539Y-10731389D01*
X14355539Y-10731389D02*
X14346015Y-10693293D01*
X14346015Y-10693293D02*
X14346015Y-10645674D01*
X14346015Y-10645674D02*
X14355539Y-10607579D01*
X14355539Y-10607579D02*
X14365063Y-10588531D01*
X14365063Y-10588531D02*
X14374586Y-10579008D01*
X14374586Y-10579008D02*
X14393634Y-10569484D01*
X14546015Y-10750436D02*
X14555539Y-10759960D01*
X14555539Y-10759960D02*
X14546015Y-10769484D01*
X14546015Y-10769484D02*
X14536491Y-10759960D01*
X14536491Y-10759960D02*
X14546015Y-10750436D01*
X14546015Y-10750436D02*
X14546015Y-10769484D01*
X14679348Y-10569484D02*
X14698396Y-10569484D01*
X14698396Y-10569484D02*
X14717444Y-10579008D01*
X14717444Y-10579008D02*
X14726967Y-10588531D01*
X14726967Y-10588531D02*
X14736491Y-10607579D01*
X14736491Y-10607579D02*
X14746015Y-10645674D01*
X14746015Y-10645674D02*
X14746015Y-10693293D01*
X14746015Y-10693293D02*
X14736491Y-10731389D01*
X14736491Y-10731389D02*
X14726967Y-10750436D01*
X14726967Y-10750436D02*
X14717444Y-10759960D01*
X14717444Y-10759960D02*
X14698396Y-10769484D01*
X14698396Y-10769484D02*
X14679348Y-10769484D01*
X14679348Y-10769484D02*
X14660301Y-10759960D01*
X14660301Y-10759960D02*
X14650777Y-10750436D01*
X14650777Y-10750436D02*
X14641253Y-10731389D01*
X14641253Y-10731389D02*
X14631729Y-10693293D01*
X14631729Y-10693293D02*
X14631729Y-10645674D01*
X14631729Y-10645674D02*
X14641253Y-10607579D01*
X14641253Y-10607579D02*
X14650777Y-10588531D01*
X14650777Y-10588531D02*
X14660301Y-10579008D01*
X14660301Y-10579008D02*
X14679348Y-10569484D01*
X14812682Y-10569484D02*
X14936491Y-10569484D01*
X14936491Y-10569484D02*
X14869825Y-10645674D01*
X14869825Y-10645674D02*
X14898396Y-10645674D01*
X14898396Y-10645674D02*
X14917444Y-10655198D01*
X14917444Y-10655198D02*
X14926967Y-10664722D01*
X14926967Y-10664722D02*
X14936491Y-10683770D01*
X14936491Y-10683770D02*
X14936491Y-10731389D01*
X14936491Y-10731389D02*
X14926967Y-10750436D01*
X14926967Y-10750436D02*
X14917444Y-10759960D01*
X14917444Y-10759960D02*
X14898396Y-10769484D01*
X14898396Y-10769484D02*
X14841253Y-10769484D01*
X14841253Y-10769484D02*
X14822206Y-10759960D01*
X14822206Y-10759960D02*
X14812682Y-10750436D01*
X15126967Y-10769484D02*
X15012682Y-10769484D01*
X15069825Y-10769484D02*
X15069825Y-10569484D01*
X15069825Y-10569484D02*
X15050777Y-10598055D01*
X15050777Y-10598055D02*
X15031729Y-10617103D01*
X15031729Y-10617103D02*
X15012682Y-10626627D01*
X15307920Y-10569484D02*
X15212682Y-10569484D01*
X15212682Y-10569484D02*
X15203158Y-10664722D01*
X15203158Y-10664722D02*
X15212682Y-10655198D01*
X15212682Y-10655198D02*
X15231729Y-10645674D01*
X15231729Y-10645674D02*
X15279348Y-10645674D01*
X15279348Y-10645674D02*
X15298396Y-10655198D01*
X15298396Y-10655198D02*
X15307920Y-10664722D01*
X15307920Y-10664722D02*
X15317444Y-10683770D01*
X15317444Y-10683770D02*
X15317444Y-10731389D01*
X15317444Y-10731389D02*
X15307920Y-10750436D01*
X15307920Y-10750436D02*
X15298396Y-10759960D01*
X15298396Y-10759960D02*
X15279348Y-10769484D01*
X15279348Y-10769484D02*
X15231729Y-10769484D01*
X15231729Y-10769484D02*
X15212682Y-10759960D01*
X15212682Y-10759960D02*
X15203158Y-10750436D01*
X15393634Y-10569484D02*
X15393634Y-10607579D01*
X15469825Y-10569484D02*
X15469825Y-10607579D01*
X15765063Y-10845674D02*
X15755539Y-10836150D01*
X15755539Y-10836150D02*
X15736491Y-10807579D01*
X15736491Y-10807579D02*
X15726968Y-10788531D01*
X15726968Y-10788531D02*
X15717444Y-10759960D01*
X15717444Y-10759960D02*
X15707920Y-10712341D01*
X15707920Y-10712341D02*
X15707920Y-10674246D01*
X15707920Y-10674246D02*
X15717444Y-10626627D01*
X15717444Y-10626627D02*
X15726968Y-10598055D01*
X15726968Y-10598055D02*
X15736491Y-10579008D01*
X15736491Y-10579008D02*
X15755539Y-10550436D01*
X15755539Y-10550436D02*
X15765063Y-10540912D01*
X15946015Y-10769484D02*
X15831729Y-10769484D01*
X15888872Y-10769484D02*
X15888872Y-10569484D01*
X15888872Y-10569484D02*
X15869825Y-10598055D01*
X15869825Y-10598055D02*
X15850777Y-10617103D01*
X15850777Y-10617103D02*
X15831729Y-10626627D01*
X16069825Y-10569484D02*
X16088872Y-10569484D01*
X16088872Y-10569484D02*
X16107920Y-10579008D01*
X16107920Y-10579008D02*
X16117444Y-10588531D01*
X16117444Y-10588531D02*
X16126968Y-10607579D01*
X16126968Y-10607579D02*
X16136491Y-10645674D01*
X16136491Y-10645674D02*
X16136491Y-10693293D01*
X16136491Y-10693293D02*
X16126968Y-10731389D01*
X16126968Y-10731389D02*
X16117444Y-10750436D01*
X16117444Y-10750436D02*
X16107920Y-10759960D01*
X16107920Y-10759960D02*
X16088872Y-10769484D01*
X16088872Y-10769484D02*
X16069825Y-10769484D01*
X16069825Y-10769484D02*
X16050777Y-10759960D01*
X16050777Y-10759960D02*
X16041253Y-10750436D01*
X16041253Y-10750436D02*
X16031729Y-10731389D01*
X16031729Y-10731389D02*
X16022206Y-10693293D01*
X16022206Y-10693293D02*
X16022206Y-10645674D01*
X16022206Y-10645674D02*
X16031729Y-10607579D01*
X16031729Y-10607579D02*
X16041253Y-10588531D01*
X16041253Y-10588531D02*
X16050777Y-10579008D01*
X16050777Y-10579008D02*
X16069825Y-10569484D01*
X16374587Y-10769484D02*
X16374587Y-10569484D01*
X16460301Y-10769484D02*
X16460301Y-10664722D01*
X16460301Y-10664722D02*
X16450777Y-10645674D01*
X16450777Y-10645674D02*
X16431730Y-10636150D01*
X16431730Y-10636150D02*
X16403158Y-10636150D01*
X16403158Y-10636150D02*
X16384110Y-10645674D01*
X16384110Y-10645674D02*
X16374587Y-10655198D01*
X16584110Y-10769484D02*
X16565063Y-10759960D01*
X16565063Y-10759960D02*
X16555539Y-10750436D01*
X16555539Y-10750436D02*
X16546015Y-10731389D01*
X16546015Y-10731389D02*
X16546015Y-10674246D01*
X16546015Y-10674246D02*
X16555539Y-10655198D01*
X16555539Y-10655198D02*
X16565063Y-10645674D01*
X16565063Y-10645674D02*
X16584110Y-10636150D01*
X16584110Y-10636150D02*
X16612682Y-10636150D01*
X16612682Y-10636150D02*
X16631730Y-10645674D01*
X16631730Y-10645674D02*
X16641253Y-10655198D01*
X16641253Y-10655198D02*
X16650777Y-10674246D01*
X16650777Y-10674246D02*
X16650777Y-10731389D01*
X16650777Y-10731389D02*
X16641253Y-10750436D01*
X16641253Y-10750436D02*
X16631730Y-10759960D01*
X16631730Y-10759960D02*
X16612682Y-10769484D01*
X16612682Y-10769484D02*
X16584110Y-10769484D01*
X16765063Y-10769484D02*
X16746015Y-10759960D01*
X16746015Y-10759960D02*
X16736491Y-10740912D01*
X16736491Y-10740912D02*
X16736491Y-10569484D01*
X16917444Y-10759960D02*
X16898396Y-10769484D01*
X16898396Y-10769484D02*
X16860301Y-10769484D01*
X16860301Y-10769484D02*
X16841253Y-10759960D01*
X16841253Y-10759960D02*
X16831730Y-10740912D01*
X16831730Y-10740912D02*
X16831730Y-10664722D01*
X16831730Y-10664722D02*
X16841253Y-10645674D01*
X16841253Y-10645674D02*
X16860301Y-10636150D01*
X16860301Y-10636150D02*
X16898396Y-10636150D01*
X16898396Y-10636150D02*
X16917444Y-10645674D01*
X16917444Y-10645674D02*
X16926968Y-10664722D01*
X16926968Y-10664722D02*
X16926968Y-10683770D01*
X16926968Y-10683770D02*
X16831730Y-10702817D01*
X17003158Y-10759960D02*
X17022206Y-10769484D01*
X17022206Y-10769484D02*
X17060301Y-10769484D01*
X17060301Y-10769484D02*
X17079349Y-10759960D01*
X17079349Y-10759960D02*
X17088873Y-10740912D01*
X17088873Y-10740912D02*
X17088873Y-10731389D01*
X17088873Y-10731389D02*
X17079349Y-10712341D01*
X17079349Y-10712341D02*
X17060301Y-10702817D01*
X17060301Y-10702817D02*
X17031730Y-10702817D01*
X17031730Y-10702817D02*
X17012682Y-10693293D01*
X17012682Y-10693293D02*
X17003158Y-10674246D01*
X17003158Y-10674246D02*
X17003158Y-10664722D01*
X17003158Y-10664722D02*
X17012682Y-10645674D01*
X17012682Y-10645674D02*
X17031730Y-10636150D01*
X17031730Y-10636150D02*
X17060301Y-10636150D01*
X17060301Y-10636150D02*
X17079349Y-10645674D01*
X17155539Y-10845674D02*
X17165063Y-10836150D01*
X17165063Y-10836150D02*
X17184111Y-10807579D01*
X17184111Y-10807579D02*
X17193634Y-10788531D01*
X17193634Y-10788531D02*
X17203158Y-10759960D01*
X17203158Y-10759960D02*
X17212682Y-10712341D01*
X17212682Y-10712341D02*
X17212682Y-10674246D01*
X17212682Y-10674246D02*
X17203158Y-10626627D01*
X17203158Y-10626627D02*
X17193634Y-10598055D01*
X17193634Y-10598055D02*
X17184111Y-10579008D01*
X17184111Y-10579008D02*
X17165063Y-10550436D01*
X17165063Y-10550436D02*
X17155539Y-10540912D01*
D11*
X12176820Y-10973820D02*
X12176820Y-10910180D01*
X12113180Y-10910180D01*
X12113180Y-10973820D01*
X12176820Y-10973820D01*
D10*
X12488872Y-10833484D02*
X12507920Y-10833484D01*
X12507920Y-10833484D02*
X12526967Y-10843008D01*
X12526967Y-10843008D02*
X12536491Y-10852531D01*
X12536491Y-10852531D02*
X12546015Y-10871579D01*
X12546015Y-10871579D02*
X12555539Y-10909674D01*
X12555539Y-10909674D02*
X12555539Y-10957293D01*
X12555539Y-10957293D02*
X12546015Y-10995389D01*
X12546015Y-10995389D02*
X12536491Y-11014436D01*
X12536491Y-11014436D02*
X12526967Y-11023960D01*
X12526967Y-11023960D02*
X12507920Y-11033484D01*
X12507920Y-11033484D02*
X12488872Y-11033484D01*
X12488872Y-11033484D02*
X12469824Y-11023960D01*
X12469824Y-11023960D02*
X12460301Y-11014436D01*
X12460301Y-11014436D02*
X12450777Y-10995389D01*
X12450777Y-10995389D02*
X12441253Y-10957293D01*
X12441253Y-10957293D02*
X12441253Y-10909674D01*
X12441253Y-10909674D02*
X12450777Y-10871579D01*
X12450777Y-10871579D02*
X12460301Y-10852531D01*
X12460301Y-10852531D02*
X12469824Y-10843008D01*
X12469824Y-10843008D02*
X12488872Y-10833484D01*
X12641253Y-11014436D02*
X12650777Y-11023960D01*
X12650777Y-11023960D02*
X12641253Y-11033484D01*
X12641253Y-11033484D02*
X12631729Y-11023960D01*
X12631729Y-11023960D02*
X12641253Y-11014436D01*
X12641253Y-11014436D02*
X12641253Y-11033484D01*
X12746015Y-11033484D02*
X12784110Y-11033484D01*
X12784110Y-11033484D02*
X12803158Y-11023960D01*
X12803158Y-11023960D02*
X12812682Y-11014436D01*
X12812682Y-11014436D02*
X12831729Y-10985865D01*
X12831729Y-10985865D02*
X12841253Y-10947770D01*
X12841253Y-10947770D02*
X12841253Y-10871579D01*
X12841253Y-10871579D02*
X12831729Y-10852531D01*
X12831729Y-10852531D02*
X12822205Y-10843008D01*
X12822205Y-10843008D02*
X12803158Y-10833484D01*
X12803158Y-10833484D02*
X12765062Y-10833484D01*
X12765062Y-10833484D02*
X12746015Y-10843008D01*
X12746015Y-10843008D02*
X12736491Y-10852531D01*
X12736491Y-10852531D02*
X12726967Y-10871579D01*
X12726967Y-10871579D02*
X12726967Y-10919198D01*
X12726967Y-10919198D02*
X12736491Y-10938246D01*
X12736491Y-10938246D02*
X12746015Y-10947770D01*
X12746015Y-10947770D02*
X12765062Y-10957293D01*
X12765062Y-10957293D02*
X12803158Y-10957293D01*
X12803158Y-10957293D02*
X12822205Y-10947770D01*
X12822205Y-10947770D02*
X12831729Y-10938246D01*
X12831729Y-10938246D02*
X12841253Y-10919198D01*
X12965062Y-10833484D02*
X12984110Y-10833484D01*
X12984110Y-10833484D02*
X13003158Y-10843008D01*
X13003158Y-10843008D02*
X13012682Y-10852531D01*
X13012682Y-10852531D02*
X13022205Y-10871579D01*
X13022205Y-10871579D02*
X13031729Y-10909674D01*
X13031729Y-10909674D02*
X13031729Y-10957293D01*
X13031729Y-10957293D02*
X13022205Y-10995389D01*
X13022205Y-10995389D02*
X13012682Y-11014436D01*
X13012682Y-11014436D02*
X13003158Y-11023960D01*
X13003158Y-11023960D02*
X12984110Y-11033484D01*
X12984110Y-11033484D02*
X12965062Y-11033484D01*
X12965062Y-11033484D02*
X12946015Y-11023960D01*
X12946015Y-11023960D02*
X12936491Y-11014436D01*
X12936491Y-11014436D02*
X12926967Y-10995389D01*
X12926967Y-10995389D02*
X12917443Y-10957293D01*
X12917443Y-10957293D02*
X12917443Y-10909674D01*
X12917443Y-10909674D02*
X12926967Y-10871579D01*
X12926967Y-10871579D02*
X12936491Y-10852531D01*
X12936491Y-10852531D02*
X12946015Y-10843008D01*
X12946015Y-10843008D02*
X12965062Y-10833484D01*
X13155539Y-10833484D02*
X13174586Y-10833484D01*
X13174586Y-10833484D02*
X13193634Y-10843008D01*
X13193634Y-10843008D02*
X13203158Y-10852531D01*
X13203158Y-10852531D02*
X13212682Y-10871579D01*
X13212682Y-10871579D02*
X13222205Y-10909674D01*
X13222205Y-10909674D02*
X13222205Y-10957293D01*
X13222205Y-10957293D02*
X13212682Y-10995389D01*
X13212682Y-10995389D02*
X13203158Y-11014436D01*
X13203158Y-11014436D02*
X13193634Y-11023960D01*
X13193634Y-11023960D02*
X13174586Y-11033484D01*
X13174586Y-11033484D02*
X13155539Y-11033484D01*
X13155539Y-11033484D02*
X13136491Y-11023960D01*
X13136491Y-11023960D02*
X13126967Y-11014436D01*
X13126967Y-11014436D02*
X13117443Y-10995389D01*
X13117443Y-10995389D02*
X13107920Y-10957293D01*
X13107920Y-10957293D02*
X13107920Y-10909674D01*
X13107920Y-10909674D02*
X13117443Y-10871579D01*
X13117443Y-10871579D02*
X13126967Y-10852531D01*
X13126967Y-10852531D02*
X13136491Y-10843008D01*
X13136491Y-10843008D02*
X13155539Y-10833484D01*
X13307920Y-11033484D02*
X13307920Y-10900150D01*
X13307920Y-10919198D02*
X13317443Y-10909674D01*
X13317443Y-10909674D02*
X13336491Y-10900150D01*
X13336491Y-10900150D02*
X13365063Y-10900150D01*
X13365063Y-10900150D02*
X13384110Y-10909674D01*
X13384110Y-10909674D02*
X13393634Y-10928722D01*
X13393634Y-10928722D02*
X13393634Y-11033484D01*
X13393634Y-10928722D02*
X13403158Y-10909674D01*
X13403158Y-10909674D02*
X13422205Y-10900150D01*
X13422205Y-10900150D02*
X13450777Y-10900150D01*
X13450777Y-10900150D02*
X13469824Y-10909674D01*
X13469824Y-10909674D02*
X13479348Y-10928722D01*
X13479348Y-10928722D02*
X13479348Y-11033484D01*
X13574586Y-11033484D02*
X13574586Y-10900150D01*
X13574586Y-10919198D02*
X13584110Y-10909674D01*
X13584110Y-10909674D02*
X13603158Y-10900150D01*
X13603158Y-10900150D02*
X13631729Y-10900150D01*
X13631729Y-10900150D02*
X13650777Y-10909674D01*
X13650777Y-10909674D02*
X13660301Y-10928722D01*
X13660301Y-10928722D02*
X13660301Y-11033484D01*
X13660301Y-10928722D02*
X13669824Y-10909674D01*
X13669824Y-10909674D02*
X13688872Y-10900150D01*
X13688872Y-10900150D02*
X13717443Y-10900150D01*
X13717443Y-10900150D02*
X13736491Y-10909674D01*
X13736491Y-10909674D02*
X13746015Y-10928722D01*
X13746015Y-10928722D02*
X13746015Y-11033484D01*
X14136491Y-10823960D02*
X13965063Y-11081103D01*
X14393634Y-10833484D02*
X14412682Y-10833484D01*
X14412682Y-10833484D02*
X14431729Y-10843008D01*
X14431729Y-10843008D02*
X14441253Y-10852531D01*
X14441253Y-10852531D02*
X14450777Y-10871579D01*
X14450777Y-10871579D02*
X14460301Y-10909674D01*
X14460301Y-10909674D02*
X14460301Y-10957293D01*
X14460301Y-10957293D02*
X14450777Y-10995389D01*
X14450777Y-10995389D02*
X14441253Y-11014436D01*
X14441253Y-11014436D02*
X14431729Y-11023960D01*
X14431729Y-11023960D02*
X14412682Y-11033484D01*
X14412682Y-11033484D02*
X14393634Y-11033484D01*
X14393634Y-11033484D02*
X14374586Y-11023960D01*
X14374586Y-11023960D02*
X14365063Y-11014436D01*
X14365063Y-11014436D02*
X14355539Y-10995389D01*
X14355539Y-10995389D02*
X14346015Y-10957293D01*
X14346015Y-10957293D02*
X14346015Y-10909674D01*
X14346015Y-10909674D02*
X14355539Y-10871579D01*
X14355539Y-10871579D02*
X14365063Y-10852531D01*
X14365063Y-10852531D02*
X14374586Y-10843008D01*
X14374586Y-10843008D02*
X14393634Y-10833484D01*
X14546015Y-11014436D02*
X14555539Y-11023960D01*
X14555539Y-11023960D02*
X14546015Y-11033484D01*
X14546015Y-11033484D02*
X14536491Y-11023960D01*
X14536491Y-11023960D02*
X14546015Y-11014436D01*
X14546015Y-11014436D02*
X14546015Y-11033484D01*
X14679348Y-10833484D02*
X14698396Y-10833484D01*
X14698396Y-10833484D02*
X14717444Y-10843008D01*
X14717444Y-10843008D02*
X14726967Y-10852531D01*
X14726967Y-10852531D02*
X14736491Y-10871579D01*
X14736491Y-10871579D02*
X14746015Y-10909674D01*
X14746015Y-10909674D02*
X14746015Y-10957293D01*
X14746015Y-10957293D02*
X14736491Y-10995389D01*
X14736491Y-10995389D02*
X14726967Y-11014436D01*
X14726967Y-11014436D02*
X14717444Y-11023960D01*
X14717444Y-11023960D02*
X14698396Y-11033484D01*
X14698396Y-11033484D02*
X14679348Y-11033484D01*
X14679348Y-11033484D02*
X14660301Y-11023960D01*
X14660301Y-11023960D02*
X14650777Y-11014436D01*
X14650777Y-11014436D02*
X14641253Y-10995389D01*
X14641253Y-10995389D02*
X14631729Y-10957293D01*
X14631729Y-10957293D02*
X14631729Y-10909674D01*
X14631729Y-10909674D02*
X14641253Y-10871579D01*
X14641253Y-10871579D02*
X14650777Y-10852531D01*
X14650777Y-10852531D02*
X14660301Y-10843008D01*
X14660301Y-10843008D02*
X14679348Y-10833484D01*
X14812682Y-10833484D02*
X14936491Y-10833484D01*
X14936491Y-10833484D02*
X14869825Y-10909674D01*
X14869825Y-10909674D02*
X14898396Y-10909674D01*
X14898396Y-10909674D02*
X14917444Y-10919198D01*
X14917444Y-10919198D02*
X14926967Y-10928722D01*
X14926967Y-10928722D02*
X14936491Y-10947770D01*
X14936491Y-10947770D02*
X14936491Y-10995389D01*
X14936491Y-10995389D02*
X14926967Y-11014436D01*
X14926967Y-11014436D02*
X14917444Y-11023960D01*
X14917444Y-11023960D02*
X14898396Y-11033484D01*
X14898396Y-11033484D02*
X14841253Y-11033484D01*
X14841253Y-11033484D02*
X14822206Y-11023960D01*
X14822206Y-11023960D02*
X14812682Y-11014436D01*
X15117444Y-10833484D02*
X15022206Y-10833484D01*
X15022206Y-10833484D02*
X15012682Y-10928722D01*
X15012682Y-10928722D02*
X15022206Y-10919198D01*
X15022206Y-10919198D02*
X15041253Y-10909674D01*
X15041253Y-10909674D02*
X15088872Y-10909674D01*
X15088872Y-10909674D02*
X15107920Y-10919198D01*
X15107920Y-10919198D02*
X15117444Y-10928722D01*
X15117444Y-10928722D02*
X15126967Y-10947770D01*
X15126967Y-10947770D02*
X15126967Y-10995389D01*
X15126967Y-10995389D02*
X15117444Y-11014436D01*
X15117444Y-11014436D02*
X15107920Y-11023960D01*
X15107920Y-11023960D02*
X15088872Y-11033484D01*
X15088872Y-11033484D02*
X15041253Y-11033484D01*
X15041253Y-11033484D02*
X15022206Y-11023960D01*
X15022206Y-11023960D02*
X15012682Y-11014436D01*
X15298396Y-10900150D02*
X15298396Y-11033484D01*
X15250777Y-10823960D02*
X15203158Y-10966817D01*
X15203158Y-10966817D02*
X15326967Y-10966817D01*
X15393634Y-10833484D02*
X15393634Y-10871579D01*
X15469825Y-10833484D02*
X15469825Y-10871579D01*
X15765063Y-11109674D02*
X15755539Y-11100150D01*
X15755539Y-11100150D02*
X15736491Y-11071579D01*
X15736491Y-11071579D02*
X15726968Y-11052531D01*
X15726968Y-11052531D02*
X15717444Y-11023960D01*
X15717444Y-11023960D02*
X15707920Y-10976341D01*
X15707920Y-10976341D02*
X15707920Y-10938246D01*
X15707920Y-10938246D02*
X15717444Y-10890627D01*
X15717444Y-10890627D02*
X15726968Y-10862055D01*
X15726968Y-10862055D02*
X15736491Y-10843008D01*
X15736491Y-10843008D02*
X15755539Y-10814436D01*
X15755539Y-10814436D02*
X15765063Y-10804912D01*
X15926968Y-10900150D02*
X15926968Y-11033484D01*
X15879348Y-10823960D02*
X15831729Y-10966817D01*
X15831729Y-10966817D02*
X15955539Y-10966817D01*
X16184110Y-11033484D02*
X16184110Y-10833484D01*
X16269825Y-11033484D02*
X16269825Y-10928722D01*
X16269825Y-10928722D02*
X16260301Y-10909674D01*
X16260301Y-10909674D02*
X16241253Y-10900150D01*
X16241253Y-10900150D02*
X16212682Y-10900150D01*
X16212682Y-10900150D02*
X16193634Y-10909674D01*
X16193634Y-10909674D02*
X16184110Y-10919198D01*
X16393634Y-11033484D02*
X16374587Y-11023960D01*
X16374587Y-11023960D02*
X16365063Y-11014436D01*
X16365063Y-11014436D02*
X16355539Y-10995389D01*
X16355539Y-10995389D02*
X16355539Y-10938246D01*
X16355539Y-10938246D02*
X16365063Y-10919198D01*
X16365063Y-10919198D02*
X16374587Y-10909674D01*
X16374587Y-10909674D02*
X16393634Y-10900150D01*
X16393634Y-10900150D02*
X16422206Y-10900150D01*
X16422206Y-10900150D02*
X16441253Y-10909674D01*
X16441253Y-10909674D02*
X16450777Y-10919198D01*
X16450777Y-10919198D02*
X16460301Y-10938246D01*
X16460301Y-10938246D02*
X16460301Y-10995389D01*
X16460301Y-10995389D02*
X16450777Y-11014436D01*
X16450777Y-11014436D02*
X16441253Y-11023960D01*
X16441253Y-11023960D02*
X16422206Y-11033484D01*
X16422206Y-11033484D02*
X16393634Y-11033484D01*
X16574587Y-11033484D02*
X16555539Y-11023960D01*
X16555539Y-11023960D02*
X16546015Y-11004912D01*
X16546015Y-11004912D02*
X16546015Y-10833484D01*
X16726968Y-11023960D02*
X16707920Y-11033484D01*
X16707920Y-11033484D02*
X16669825Y-11033484D01*
X16669825Y-11033484D02*
X16650777Y-11023960D01*
X16650777Y-11023960D02*
X16641253Y-11004912D01*
X16641253Y-11004912D02*
X16641253Y-10928722D01*
X16641253Y-10928722D02*
X16650777Y-10909674D01*
X16650777Y-10909674D02*
X16669825Y-10900150D01*
X16669825Y-10900150D02*
X16707920Y-10900150D01*
X16707920Y-10900150D02*
X16726968Y-10909674D01*
X16726968Y-10909674D02*
X16736491Y-10928722D01*
X16736491Y-10928722D02*
X16736491Y-10947770D01*
X16736491Y-10947770D02*
X16641253Y-10966817D01*
X16812682Y-11023960D02*
X16831730Y-11033484D01*
X16831730Y-11033484D02*
X16869825Y-11033484D01*
X16869825Y-11033484D02*
X16888873Y-11023960D01*
X16888873Y-11023960D02*
X16898396Y-11004912D01*
X16898396Y-11004912D02*
X16898396Y-10995389D01*
X16898396Y-10995389D02*
X16888873Y-10976341D01*
X16888873Y-10976341D02*
X16869825Y-10966817D01*
X16869825Y-10966817D02*
X16841253Y-10966817D01*
X16841253Y-10966817D02*
X16822206Y-10957293D01*
X16822206Y-10957293D02*
X16812682Y-10938246D01*
X16812682Y-10938246D02*
X16812682Y-10928722D01*
X16812682Y-10928722D02*
X16822206Y-10909674D01*
X16822206Y-10909674D02*
X16841253Y-10900150D01*
X16841253Y-10900150D02*
X16869825Y-10900150D01*
X16869825Y-10900150D02*
X16888873Y-10909674D01*
X16965063Y-11109674D02*
X16974587Y-11100150D01*
X16974587Y-11100150D02*
X16993634Y-11071579D01*
X16993634Y-11071579D02*
X17003158Y-11052531D01*
X17003158Y-11052531D02*
X17012682Y-11023960D01*
X17012682Y-11023960D02*
X17022206Y-10976341D01*
X17022206Y-10976341D02*
X17022206Y-10938246D01*
X17022206Y-10938246D02*
X17012682Y-10890627D01*
X17012682Y-10890627D02*
X17003158Y-10862055D01*
X17003158Y-10862055D02*
X16993634Y-10843008D01*
X16993634Y-10843008D02*
X16974587Y-10814436D01*
X16974587Y-10814436D02*
X16965063Y-10804912D01*
D11*
X12140000Y-11256000D02*
X12190000Y-11206000D01*
X12140000Y-11156000D01*
X12090000Y-11206000D01*
X12140000Y-11256000D01*
D10*
X12555539Y-11297484D02*
X12441253Y-11297484D01*
X12498396Y-11297484D02*
X12498396Y-11097484D01*
X12498396Y-11097484D02*
X12479348Y-11126055D01*
X12479348Y-11126055D02*
X12460301Y-11145103D01*
X12460301Y-11145103D02*
X12441253Y-11154627D01*
X12641253Y-11278436D02*
X12650777Y-11287960D01*
X12650777Y-11287960D02*
X12641253Y-11297484D01*
X12641253Y-11297484D02*
X12631729Y-11287960D01*
X12631729Y-11287960D02*
X12641253Y-11278436D01*
X12641253Y-11278436D02*
X12641253Y-11297484D01*
X12774586Y-11097484D02*
X12793634Y-11097484D01*
X12793634Y-11097484D02*
X12812682Y-11107008D01*
X12812682Y-11107008D02*
X12822205Y-11116531D01*
X12822205Y-11116531D02*
X12831729Y-11135579D01*
X12831729Y-11135579D02*
X12841253Y-11173674D01*
X12841253Y-11173674D02*
X12841253Y-11221293D01*
X12841253Y-11221293D02*
X12831729Y-11259388D01*
X12831729Y-11259388D02*
X12822205Y-11278436D01*
X12822205Y-11278436D02*
X12812682Y-11287960D01*
X12812682Y-11287960D02*
X12793634Y-11297484D01*
X12793634Y-11297484D02*
X12774586Y-11297484D01*
X12774586Y-11297484D02*
X12755539Y-11287960D01*
X12755539Y-11287960D02*
X12746015Y-11278436D01*
X12746015Y-11278436D02*
X12736491Y-11259388D01*
X12736491Y-11259388D02*
X12726967Y-11221293D01*
X12726967Y-11221293D02*
X12726967Y-11173674D01*
X12726967Y-11173674D02*
X12736491Y-11135579D01*
X12736491Y-11135579D02*
X12746015Y-11116531D01*
X12746015Y-11116531D02*
X12755539Y-11107008D01*
X12755539Y-11107008D02*
X12774586Y-11097484D01*
X12965062Y-11097484D02*
X12984110Y-11097484D01*
X12984110Y-11097484D02*
X13003158Y-11107008D01*
X13003158Y-11107008D02*
X13012682Y-11116531D01*
X13012682Y-11116531D02*
X13022205Y-11135579D01*
X13022205Y-11135579D02*
X13031729Y-11173674D01*
X13031729Y-11173674D02*
X13031729Y-11221293D01*
X13031729Y-11221293D02*
X13022205Y-11259388D01*
X13022205Y-11259388D02*
X13012682Y-11278436D01*
X13012682Y-11278436D02*
X13003158Y-11287960D01*
X13003158Y-11287960D02*
X12984110Y-11297484D01*
X12984110Y-11297484D02*
X12965062Y-11297484D01*
X12965062Y-11297484D02*
X12946015Y-11287960D01*
X12946015Y-11287960D02*
X12936491Y-11278436D01*
X12936491Y-11278436D02*
X12926967Y-11259388D01*
X12926967Y-11259388D02*
X12917443Y-11221293D01*
X12917443Y-11221293D02*
X12917443Y-11173674D01*
X12917443Y-11173674D02*
X12926967Y-11135579D01*
X12926967Y-11135579D02*
X12936491Y-11116531D01*
X12936491Y-11116531D02*
X12946015Y-11107008D01*
X12946015Y-11107008D02*
X12965062Y-11097484D01*
X13155539Y-11097484D02*
X13174586Y-11097484D01*
X13174586Y-11097484D02*
X13193634Y-11107008D01*
X13193634Y-11107008D02*
X13203158Y-11116531D01*
X13203158Y-11116531D02*
X13212682Y-11135579D01*
X13212682Y-11135579D02*
X13222205Y-11173674D01*
X13222205Y-11173674D02*
X13222205Y-11221293D01*
X13222205Y-11221293D02*
X13212682Y-11259388D01*
X13212682Y-11259388D02*
X13203158Y-11278436D01*
X13203158Y-11278436D02*
X13193634Y-11287960D01*
X13193634Y-11287960D02*
X13174586Y-11297484D01*
X13174586Y-11297484D02*
X13155539Y-11297484D01*
X13155539Y-11297484D02*
X13136491Y-11287960D01*
X13136491Y-11287960D02*
X13126967Y-11278436D01*
X13126967Y-11278436D02*
X13117443Y-11259388D01*
X13117443Y-11259388D02*
X13107920Y-11221293D01*
X13107920Y-11221293D02*
X13107920Y-11173674D01*
X13107920Y-11173674D02*
X13117443Y-11135579D01*
X13117443Y-11135579D02*
X13126967Y-11116531D01*
X13126967Y-11116531D02*
X13136491Y-11107008D01*
X13136491Y-11107008D02*
X13155539Y-11097484D01*
X13307920Y-11297484D02*
X13307920Y-11164150D01*
X13307920Y-11183198D02*
X13317443Y-11173674D01*
X13317443Y-11173674D02*
X13336491Y-11164150D01*
X13336491Y-11164150D02*
X13365063Y-11164150D01*
X13365063Y-11164150D02*
X13384110Y-11173674D01*
X13384110Y-11173674D02*
X13393634Y-11192722D01*
X13393634Y-11192722D02*
X13393634Y-11297484D01*
X13393634Y-11192722D02*
X13403158Y-11173674D01*
X13403158Y-11173674D02*
X13422205Y-11164150D01*
X13422205Y-11164150D02*
X13450777Y-11164150D01*
X13450777Y-11164150D02*
X13469824Y-11173674D01*
X13469824Y-11173674D02*
X13479348Y-11192722D01*
X13479348Y-11192722D02*
X13479348Y-11297484D01*
X13574586Y-11297484D02*
X13574586Y-11164150D01*
X13574586Y-11183198D02*
X13584110Y-11173674D01*
X13584110Y-11173674D02*
X13603158Y-11164150D01*
X13603158Y-11164150D02*
X13631729Y-11164150D01*
X13631729Y-11164150D02*
X13650777Y-11173674D01*
X13650777Y-11173674D02*
X13660301Y-11192722D01*
X13660301Y-11192722D02*
X13660301Y-11297484D01*
X13660301Y-11192722D02*
X13669824Y-11173674D01*
X13669824Y-11173674D02*
X13688872Y-11164150D01*
X13688872Y-11164150D02*
X13717443Y-11164150D01*
X13717443Y-11164150D02*
X13736491Y-11173674D01*
X13736491Y-11173674D02*
X13746015Y-11192722D01*
X13746015Y-11192722D02*
X13746015Y-11297484D01*
X14136491Y-11087960D02*
X13965063Y-11345103D01*
X14393634Y-11097484D02*
X14412682Y-11097484D01*
X14412682Y-11097484D02*
X14431729Y-11107008D01*
X14431729Y-11107008D02*
X14441253Y-11116531D01*
X14441253Y-11116531D02*
X14450777Y-11135579D01*
X14450777Y-11135579D02*
X14460301Y-11173674D01*
X14460301Y-11173674D02*
X14460301Y-11221293D01*
X14460301Y-11221293D02*
X14450777Y-11259388D01*
X14450777Y-11259388D02*
X14441253Y-11278436D01*
X14441253Y-11278436D02*
X14431729Y-11287960D01*
X14431729Y-11287960D02*
X14412682Y-11297484D01*
X14412682Y-11297484D02*
X14393634Y-11297484D01*
X14393634Y-11297484D02*
X14374586Y-11287960D01*
X14374586Y-11287960D02*
X14365063Y-11278436D01*
X14365063Y-11278436D02*
X14355539Y-11259388D01*
X14355539Y-11259388D02*
X14346015Y-11221293D01*
X14346015Y-11221293D02*
X14346015Y-11173674D01*
X14346015Y-11173674D02*
X14355539Y-11135579D01*
X14355539Y-11135579D02*
X14365063Y-11116531D01*
X14365063Y-11116531D02*
X14374586Y-11107008D01*
X14374586Y-11107008D02*
X14393634Y-11097484D01*
X14546015Y-11278436D02*
X14555539Y-11287960D01*
X14555539Y-11287960D02*
X14546015Y-11297484D01*
X14546015Y-11297484D02*
X14536491Y-11287960D01*
X14536491Y-11287960D02*
X14546015Y-11278436D01*
X14546015Y-11278436D02*
X14546015Y-11297484D01*
X14679348Y-11097484D02*
X14698396Y-11097484D01*
X14698396Y-11097484D02*
X14717444Y-11107008D01*
X14717444Y-11107008D02*
X14726967Y-11116531D01*
X14726967Y-11116531D02*
X14736491Y-11135579D01*
X14736491Y-11135579D02*
X14746015Y-11173674D01*
X14746015Y-11173674D02*
X14746015Y-11221293D01*
X14746015Y-11221293D02*
X14736491Y-11259388D01*
X14736491Y-11259388D02*
X14726967Y-11278436D01*
X14726967Y-11278436D02*
X14717444Y-11287960D01*
X14717444Y-11287960D02*
X14698396Y-11297484D01*
X14698396Y-11297484D02*
X14679348Y-11297484D01*
X14679348Y-11297484D02*
X14660301Y-11287960D01*
X14660301Y-11287960D02*
X14650777Y-11278436D01*
X14650777Y-11278436D02*
X14641253Y-11259388D01*
X14641253Y-11259388D02*
X14631729Y-11221293D01*
X14631729Y-11221293D02*
X14631729Y-11173674D01*
X14631729Y-11173674D02*
X14641253Y-11135579D01*
X14641253Y-11135579D02*
X14650777Y-11116531D01*
X14650777Y-11116531D02*
X14660301Y-11107008D01*
X14660301Y-11107008D02*
X14679348Y-11097484D01*
X14812682Y-11097484D02*
X14936491Y-11097484D01*
X14936491Y-11097484D02*
X14869825Y-11173674D01*
X14869825Y-11173674D02*
X14898396Y-11173674D01*
X14898396Y-11173674D02*
X14917444Y-11183198D01*
X14917444Y-11183198D02*
X14926967Y-11192722D01*
X14926967Y-11192722D02*
X14936491Y-11211769D01*
X14936491Y-11211769D02*
X14936491Y-11259388D01*
X14936491Y-11259388D02*
X14926967Y-11278436D01*
X14926967Y-11278436D02*
X14917444Y-11287960D01*
X14917444Y-11287960D02*
X14898396Y-11297484D01*
X14898396Y-11297484D02*
X14841253Y-11297484D01*
X14841253Y-11297484D02*
X14822206Y-11287960D01*
X14822206Y-11287960D02*
X14812682Y-11278436D01*
X15031729Y-11297484D02*
X15069825Y-11297484D01*
X15069825Y-11297484D02*
X15088872Y-11287960D01*
X15088872Y-11287960D02*
X15098396Y-11278436D01*
X15098396Y-11278436D02*
X15117444Y-11249865D01*
X15117444Y-11249865D02*
X15126967Y-11211769D01*
X15126967Y-11211769D02*
X15126967Y-11135579D01*
X15126967Y-11135579D02*
X15117444Y-11116531D01*
X15117444Y-11116531D02*
X15107920Y-11107008D01*
X15107920Y-11107008D02*
X15088872Y-11097484D01*
X15088872Y-11097484D02*
X15050777Y-11097484D01*
X15050777Y-11097484D02*
X15031729Y-11107008D01*
X15031729Y-11107008D02*
X15022206Y-11116531D01*
X15022206Y-11116531D02*
X15012682Y-11135579D01*
X15012682Y-11135579D02*
X15012682Y-11183198D01*
X15012682Y-11183198D02*
X15022206Y-11202246D01*
X15022206Y-11202246D02*
X15031729Y-11211769D01*
X15031729Y-11211769D02*
X15050777Y-11221293D01*
X15050777Y-11221293D02*
X15088872Y-11221293D01*
X15088872Y-11221293D02*
X15107920Y-11211769D01*
X15107920Y-11211769D02*
X15117444Y-11202246D01*
X15117444Y-11202246D02*
X15126967Y-11183198D01*
X15298396Y-11164150D02*
X15298396Y-11297484D01*
X15250777Y-11087960D02*
X15203158Y-11230817D01*
X15203158Y-11230817D02*
X15326967Y-11230817D01*
X15393634Y-11097484D02*
X15393634Y-11135579D01*
X15469825Y-11097484D02*
X15469825Y-11135579D01*
X15765063Y-11373674D02*
X15755539Y-11364150D01*
X15755539Y-11364150D02*
X15736491Y-11335579D01*
X15736491Y-11335579D02*
X15726968Y-11316531D01*
X15726968Y-11316531D02*
X15717444Y-11287960D01*
X15717444Y-11287960D02*
X15707920Y-11240341D01*
X15707920Y-11240341D02*
X15707920Y-11202246D01*
X15707920Y-11202246D02*
X15717444Y-11154627D01*
X15717444Y-11154627D02*
X15726968Y-11126055D01*
X15726968Y-11126055D02*
X15736491Y-11107008D01*
X15736491Y-11107008D02*
X15755539Y-11078436D01*
X15755539Y-11078436D02*
X15765063Y-11068912D01*
X15946015Y-11297484D02*
X15831729Y-11297484D01*
X15888872Y-11297484D02*
X15888872Y-11097484D01*
X15888872Y-11097484D02*
X15869825Y-11126055D01*
X15869825Y-11126055D02*
X15850777Y-11145103D01*
X15850777Y-11145103D02*
X15831729Y-11154627D01*
X16012682Y-11097484D02*
X16136491Y-11097484D01*
X16136491Y-11097484D02*
X16069825Y-11173674D01*
X16069825Y-11173674D02*
X16098396Y-11173674D01*
X16098396Y-11173674D02*
X16117444Y-11183198D01*
X16117444Y-11183198D02*
X16126968Y-11192722D01*
X16126968Y-11192722D02*
X16136491Y-11211769D01*
X16136491Y-11211769D02*
X16136491Y-11259388D01*
X16136491Y-11259388D02*
X16126968Y-11278436D01*
X16126968Y-11278436D02*
X16117444Y-11287960D01*
X16117444Y-11287960D02*
X16098396Y-11297484D01*
X16098396Y-11297484D02*
X16041253Y-11297484D01*
X16041253Y-11297484D02*
X16022206Y-11287960D01*
X16022206Y-11287960D02*
X16012682Y-11278436D01*
X16374587Y-11297484D02*
X16374587Y-11097484D01*
X16460301Y-11297484D02*
X16460301Y-11192722D01*
X16460301Y-11192722D02*
X16450777Y-11173674D01*
X16450777Y-11173674D02*
X16431730Y-11164150D01*
X16431730Y-11164150D02*
X16403158Y-11164150D01*
X16403158Y-11164150D02*
X16384110Y-11173674D01*
X16384110Y-11173674D02*
X16374587Y-11183198D01*
X16584110Y-11297484D02*
X16565063Y-11287960D01*
X16565063Y-11287960D02*
X16555539Y-11278436D01*
X16555539Y-11278436D02*
X16546015Y-11259388D01*
X16546015Y-11259388D02*
X16546015Y-11202246D01*
X16546015Y-11202246D02*
X16555539Y-11183198D01*
X16555539Y-11183198D02*
X16565063Y-11173674D01*
X16565063Y-11173674D02*
X16584110Y-11164150D01*
X16584110Y-11164150D02*
X16612682Y-11164150D01*
X16612682Y-11164150D02*
X16631730Y-11173674D01*
X16631730Y-11173674D02*
X16641253Y-11183198D01*
X16641253Y-11183198D02*
X16650777Y-11202246D01*
X16650777Y-11202246D02*
X16650777Y-11259388D01*
X16650777Y-11259388D02*
X16641253Y-11278436D01*
X16641253Y-11278436D02*
X16631730Y-11287960D01*
X16631730Y-11287960D02*
X16612682Y-11297484D01*
X16612682Y-11297484D02*
X16584110Y-11297484D01*
X16765063Y-11297484D02*
X16746015Y-11287960D01*
X16746015Y-11287960D02*
X16736491Y-11268912D01*
X16736491Y-11268912D02*
X16736491Y-11097484D01*
X16917444Y-11287960D02*
X16898396Y-11297484D01*
X16898396Y-11297484D02*
X16860301Y-11297484D01*
X16860301Y-11297484D02*
X16841253Y-11287960D01*
X16841253Y-11287960D02*
X16831730Y-11268912D01*
X16831730Y-11268912D02*
X16831730Y-11192722D01*
X16831730Y-11192722D02*
X16841253Y-11173674D01*
X16841253Y-11173674D02*
X16860301Y-11164150D01*
X16860301Y-11164150D02*
X16898396Y-11164150D01*
X16898396Y-11164150D02*
X16917444Y-11173674D01*
X16917444Y-11173674D02*
X16926968Y-11192722D01*
X16926968Y-11192722D02*
X16926968Y-11211769D01*
X16926968Y-11211769D02*
X16831730Y-11230817D01*
X17003158Y-11287960D02*
X17022206Y-11297484D01*
X17022206Y-11297484D02*
X17060301Y-11297484D01*
X17060301Y-11297484D02*
X17079349Y-11287960D01*
X17079349Y-11287960D02*
X17088873Y-11268912D01*
X17088873Y-11268912D02*
X17088873Y-11259388D01*
X17088873Y-11259388D02*
X17079349Y-11240341D01*
X17079349Y-11240341D02*
X17060301Y-11230817D01*
X17060301Y-11230817D02*
X17031730Y-11230817D01*
X17031730Y-11230817D02*
X17012682Y-11221293D01*
X17012682Y-11221293D02*
X17003158Y-11202246D01*
X17003158Y-11202246D02*
X17003158Y-11192722D01*
X17003158Y-11192722D02*
X17012682Y-11173674D01*
X17012682Y-11173674D02*
X17031730Y-11164150D01*
X17031730Y-11164150D02*
X17060301Y-11164150D01*
X17060301Y-11164150D02*
X17079349Y-11173674D01*
X17155539Y-11373674D02*
X17165063Y-11364150D01*
X17165063Y-11364150D02*
X17184111Y-11335579D01*
X17184111Y-11335579D02*
X17193634Y-11316531D01*
X17193634Y-11316531D02*
X17203158Y-11287960D01*
X17203158Y-11287960D02*
X17212682Y-11240341D01*
X17212682Y-11240341D02*
X17212682Y-11202246D01*
X17212682Y-11202246D02*
X17203158Y-11154627D01*
X17203158Y-11154627D02*
X17193634Y-11126055D01*
X17193634Y-11126055D02*
X17184111Y-11107008D01*
X17184111Y-11107008D02*
X17165063Y-11078436D01*
X17165063Y-11078436D02*
X17155539Y-11068912D01*
D12*
X12080000Y-11415000D02*
X12190000Y-11525000D01*
X12190000Y-11415000D02*
X12080000Y-11525000D01*
X12190000Y-11470000D02*
G75*
G02*
X12080000Y-11470000I-55000J0D01*
G01*
X12080000Y-11470000D02*
G75*
G02*
X12190000Y-11470000I55000J0D01*
G01*
D10*
X12555539Y-11561484D02*
X12441253Y-11561484D01*
X12498396Y-11561484D02*
X12498396Y-11361484D01*
X12498396Y-11361484D02*
X12479348Y-11390055D01*
X12479348Y-11390055D02*
X12460301Y-11409103D01*
X12460301Y-11409103D02*
X12441253Y-11418627D01*
X12641253Y-11542436D02*
X12650777Y-11551960D01*
X12650777Y-11551960D02*
X12641253Y-11561484D01*
X12641253Y-11561484D02*
X12631729Y-11551960D01*
X12631729Y-11551960D02*
X12641253Y-11542436D01*
X12641253Y-11542436D02*
X12641253Y-11561484D01*
X12841253Y-11561484D02*
X12726967Y-11561484D01*
X12784110Y-11561484D02*
X12784110Y-11361484D01*
X12784110Y-11361484D02*
X12765062Y-11390055D01*
X12765062Y-11390055D02*
X12746015Y-11409103D01*
X12746015Y-11409103D02*
X12726967Y-11418627D01*
X12965062Y-11361484D02*
X12984110Y-11361484D01*
X12984110Y-11361484D02*
X13003158Y-11371008D01*
X13003158Y-11371008D02*
X13012682Y-11380531D01*
X13012682Y-11380531D02*
X13022205Y-11399579D01*
X13022205Y-11399579D02*
X13031729Y-11437674D01*
X13031729Y-11437674D02*
X13031729Y-11485293D01*
X13031729Y-11485293D02*
X13022205Y-11523388D01*
X13022205Y-11523388D02*
X13012682Y-11542436D01*
X13012682Y-11542436D02*
X13003158Y-11551960D01*
X13003158Y-11551960D02*
X12984110Y-11561484D01*
X12984110Y-11561484D02*
X12965062Y-11561484D01*
X12965062Y-11561484D02*
X12946015Y-11551960D01*
X12946015Y-11551960D02*
X12936491Y-11542436D01*
X12936491Y-11542436D02*
X12926967Y-11523388D01*
X12926967Y-11523388D02*
X12917443Y-11485293D01*
X12917443Y-11485293D02*
X12917443Y-11437674D01*
X12917443Y-11437674D02*
X12926967Y-11399579D01*
X12926967Y-11399579D02*
X12936491Y-11380531D01*
X12936491Y-11380531D02*
X12946015Y-11371008D01*
X12946015Y-11371008D02*
X12965062Y-11361484D01*
X13155539Y-11361484D02*
X13174586Y-11361484D01*
X13174586Y-11361484D02*
X13193634Y-11371008D01*
X13193634Y-11371008D02*
X13203158Y-11380531D01*
X13203158Y-11380531D02*
X13212682Y-11399579D01*
X13212682Y-11399579D02*
X13222205Y-11437674D01*
X13222205Y-11437674D02*
X13222205Y-11485293D01*
X13222205Y-11485293D02*
X13212682Y-11523388D01*
X13212682Y-11523388D02*
X13203158Y-11542436D01*
X13203158Y-11542436D02*
X13193634Y-11551960D01*
X13193634Y-11551960D02*
X13174586Y-11561484D01*
X13174586Y-11561484D02*
X13155539Y-11561484D01*
X13155539Y-11561484D02*
X13136491Y-11551960D01*
X13136491Y-11551960D02*
X13126967Y-11542436D01*
X13126967Y-11542436D02*
X13117443Y-11523388D01*
X13117443Y-11523388D02*
X13107920Y-11485293D01*
X13107920Y-11485293D02*
X13107920Y-11437674D01*
X13107920Y-11437674D02*
X13117443Y-11399579D01*
X13117443Y-11399579D02*
X13126967Y-11380531D01*
X13126967Y-11380531D02*
X13136491Y-11371008D01*
X13136491Y-11371008D02*
X13155539Y-11361484D01*
X13307920Y-11561484D02*
X13307920Y-11428150D01*
X13307920Y-11447198D02*
X13317443Y-11437674D01*
X13317443Y-11437674D02*
X13336491Y-11428150D01*
X13336491Y-11428150D02*
X13365063Y-11428150D01*
X13365063Y-11428150D02*
X13384110Y-11437674D01*
X13384110Y-11437674D02*
X13393634Y-11456722D01*
X13393634Y-11456722D02*
X13393634Y-11561484D01*
X13393634Y-11456722D02*
X13403158Y-11437674D01*
X13403158Y-11437674D02*
X13422205Y-11428150D01*
X13422205Y-11428150D02*
X13450777Y-11428150D01*
X13450777Y-11428150D02*
X13469824Y-11437674D01*
X13469824Y-11437674D02*
X13479348Y-11456722D01*
X13479348Y-11456722D02*
X13479348Y-11561484D01*
X13574586Y-11561484D02*
X13574586Y-11428150D01*
X13574586Y-11447198D02*
X13584110Y-11437674D01*
X13584110Y-11437674D02*
X13603158Y-11428150D01*
X13603158Y-11428150D02*
X13631729Y-11428150D01*
X13631729Y-11428150D02*
X13650777Y-11437674D01*
X13650777Y-11437674D02*
X13660301Y-11456722D01*
X13660301Y-11456722D02*
X13660301Y-11561484D01*
X13660301Y-11456722D02*
X13669824Y-11437674D01*
X13669824Y-11437674D02*
X13688872Y-11428150D01*
X13688872Y-11428150D02*
X13717443Y-11428150D01*
X13717443Y-11428150D02*
X13736491Y-11437674D01*
X13736491Y-11437674D02*
X13746015Y-11456722D01*
X13746015Y-11456722D02*
X13746015Y-11561484D01*
X14136491Y-11351960D02*
X13965063Y-11609103D01*
X14393634Y-11361484D02*
X14412682Y-11361484D01*
X14412682Y-11361484D02*
X14431729Y-11371008D01*
X14431729Y-11371008D02*
X14441253Y-11380531D01*
X14441253Y-11380531D02*
X14450777Y-11399579D01*
X14450777Y-11399579D02*
X14460301Y-11437674D01*
X14460301Y-11437674D02*
X14460301Y-11485293D01*
X14460301Y-11485293D02*
X14450777Y-11523388D01*
X14450777Y-11523388D02*
X14441253Y-11542436D01*
X14441253Y-11542436D02*
X14431729Y-11551960D01*
X14431729Y-11551960D02*
X14412682Y-11561484D01*
X14412682Y-11561484D02*
X14393634Y-11561484D01*
X14393634Y-11561484D02*
X14374586Y-11551960D01*
X14374586Y-11551960D02*
X14365063Y-11542436D01*
X14365063Y-11542436D02*
X14355539Y-11523388D01*
X14355539Y-11523388D02*
X14346015Y-11485293D01*
X14346015Y-11485293D02*
X14346015Y-11437674D01*
X14346015Y-11437674D02*
X14355539Y-11399579D01*
X14355539Y-11399579D02*
X14365063Y-11380531D01*
X14365063Y-11380531D02*
X14374586Y-11371008D01*
X14374586Y-11371008D02*
X14393634Y-11361484D01*
X14546015Y-11542436D02*
X14555539Y-11551960D01*
X14555539Y-11551960D02*
X14546015Y-11561484D01*
X14546015Y-11561484D02*
X14536491Y-11551960D01*
X14536491Y-11551960D02*
X14546015Y-11542436D01*
X14546015Y-11542436D02*
X14546015Y-11561484D01*
X14679348Y-11361484D02*
X14698396Y-11361484D01*
X14698396Y-11361484D02*
X14717444Y-11371008D01*
X14717444Y-11371008D02*
X14726967Y-11380531D01*
X14726967Y-11380531D02*
X14736491Y-11399579D01*
X14736491Y-11399579D02*
X14746015Y-11437674D01*
X14746015Y-11437674D02*
X14746015Y-11485293D01*
X14746015Y-11485293D02*
X14736491Y-11523388D01*
X14736491Y-11523388D02*
X14726967Y-11542436D01*
X14726967Y-11542436D02*
X14717444Y-11551960D01*
X14717444Y-11551960D02*
X14698396Y-11561484D01*
X14698396Y-11561484D02*
X14679348Y-11561484D01*
X14679348Y-11561484D02*
X14660301Y-11551960D01*
X14660301Y-11551960D02*
X14650777Y-11542436D01*
X14650777Y-11542436D02*
X14641253Y-11523388D01*
X14641253Y-11523388D02*
X14631729Y-11485293D01*
X14631729Y-11485293D02*
X14631729Y-11437674D01*
X14631729Y-11437674D02*
X14641253Y-11399579D01*
X14641253Y-11399579D02*
X14650777Y-11380531D01*
X14650777Y-11380531D02*
X14660301Y-11371008D01*
X14660301Y-11371008D02*
X14679348Y-11361484D01*
X14917444Y-11428150D02*
X14917444Y-11561484D01*
X14869825Y-11351960D02*
X14822206Y-11494817D01*
X14822206Y-11494817D02*
X14946015Y-11494817D01*
X15003158Y-11361484D02*
X15126967Y-11361484D01*
X15126967Y-11361484D02*
X15060301Y-11437674D01*
X15060301Y-11437674D02*
X15088872Y-11437674D01*
X15088872Y-11437674D02*
X15107920Y-11447198D01*
X15107920Y-11447198D02*
X15117444Y-11456722D01*
X15117444Y-11456722D02*
X15126967Y-11475769D01*
X15126967Y-11475769D02*
X15126967Y-11523388D01*
X15126967Y-11523388D02*
X15117444Y-11542436D01*
X15117444Y-11542436D02*
X15107920Y-11551960D01*
X15107920Y-11551960D02*
X15088872Y-11561484D01*
X15088872Y-11561484D02*
X15031729Y-11561484D01*
X15031729Y-11561484D02*
X15012682Y-11551960D01*
X15012682Y-11551960D02*
X15003158Y-11542436D01*
X15193634Y-11361484D02*
X15317444Y-11361484D01*
X15317444Y-11361484D02*
X15250777Y-11437674D01*
X15250777Y-11437674D02*
X15279348Y-11437674D01*
X15279348Y-11437674D02*
X15298396Y-11447198D01*
X15298396Y-11447198D02*
X15307920Y-11456722D01*
X15307920Y-11456722D02*
X15317444Y-11475769D01*
X15317444Y-11475769D02*
X15317444Y-11523388D01*
X15317444Y-11523388D02*
X15307920Y-11542436D01*
X15307920Y-11542436D02*
X15298396Y-11551960D01*
X15298396Y-11551960D02*
X15279348Y-11561484D01*
X15279348Y-11561484D02*
X15222206Y-11561484D01*
X15222206Y-11561484D02*
X15203158Y-11551960D01*
X15203158Y-11551960D02*
X15193634Y-11542436D01*
X15393634Y-11361484D02*
X15393634Y-11399579D01*
X15469825Y-11361484D02*
X15469825Y-11399579D01*
X15765063Y-11637674D02*
X15755539Y-11628150D01*
X15755539Y-11628150D02*
X15736491Y-11599579D01*
X15736491Y-11599579D02*
X15726968Y-11580531D01*
X15726968Y-11580531D02*
X15717444Y-11551960D01*
X15717444Y-11551960D02*
X15707920Y-11504341D01*
X15707920Y-11504341D02*
X15707920Y-11466246D01*
X15707920Y-11466246D02*
X15717444Y-11418627D01*
X15717444Y-11418627D02*
X15726968Y-11390055D01*
X15726968Y-11390055D02*
X15736491Y-11371008D01*
X15736491Y-11371008D02*
X15755539Y-11342436D01*
X15755539Y-11342436D02*
X15765063Y-11332912D01*
X15946015Y-11561484D02*
X15831729Y-11561484D01*
X15888872Y-11561484D02*
X15888872Y-11361484D01*
X15888872Y-11361484D02*
X15869825Y-11390055D01*
X15869825Y-11390055D02*
X15850777Y-11409103D01*
X15850777Y-11409103D02*
X15831729Y-11418627D01*
X16022206Y-11380531D02*
X16031729Y-11371008D01*
X16031729Y-11371008D02*
X16050777Y-11361484D01*
X16050777Y-11361484D02*
X16098396Y-11361484D01*
X16098396Y-11361484D02*
X16117444Y-11371008D01*
X16117444Y-11371008D02*
X16126968Y-11380531D01*
X16126968Y-11380531D02*
X16136491Y-11399579D01*
X16136491Y-11399579D02*
X16136491Y-11418627D01*
X16136491Y-11418627D02*
X16126968Y-11447198D01*
X16126968Y-11447198D02*
X16012682Y-11561484D01*
X16012682Y-11561484D02*
X16136491Y-11561484D01*
X16374587Y-11561484D02*
X16374587Y-11361484D01*
X16460301Y-11561484D02*
X16460301Y-11456722D01*
X16460301Y-11456722D02*
X16450777Y-11437674D01*
X16450777Y-11437674D02*
X16431730Y-11428150D01*
X16431730Y-11428150D02*
X16403158Y-11428150D01*
X16403158Y-11428150D02*
X16384110Y-11437674D01*
X16384110Y-11437674D02*
X16374587Y-11447198D01*
X16584110Y-11561484D02*
X16565063Y-11551960D01*
X16565063Y-11551960D02*
X16555539Y-11542436D01*
X16555539Y-11542436D02*
X16546015Y-11523388D01*
X16546015Y-11523388D02*
X16546015Y-11466246D01*
X16546015Y-11466246D02*
X16555539Y-11447198D01*
X16555539Y-11447198D02*
X16565063Y-11437674D01*
X16565063Y-11437674D02*
X16584110Y-11428150D01*
X16584110Y-11428150D02*
X16612682Y-11428150D01*
X16612682Y-11428150D02*
X16631730Y-11437674D01*
X16631730Y-11437674D02*
X16641253Y-11447198D01*
X16641253Y-11447198D02*
X16650777Y-11466246D01*
X16650777Y-11466246D02*
X16650777Y-11523388D01*
X16650777Y-11523388D02*
X16641253Y-11542436D01*
X16641253Y-11542436D02*
X16631730Y-11551960D01*
X16631730Y-11551960D02*
X16612682Y-11561484D01*
X16612682Y-11561484D02*
X16584110Y-11561484D01*
X16765063Y-11561484D02*
X16746015Y-11551960D01*
X16746015Y-11551960D02*
X16736491Y-11532912D01*
X16736491Y-11532912D02*
X16736491Y-11361484D01*
X16917444Y-11551960D02*
X16898396Y-11561484D01*
X16898396Y-11561484D02*
X16860301Y-11561484D01*
X16860301Y-11561484D02*
X16841253Y-11551960D01*
X16841253Y-11551960D02*
X16831730Y-11532912D01*
X16831730Y-11532912D02*
X16831730Y-11456722D01*
X16831730Y-11456722D02*
X16841253Y-11437674D01*
X16841253Y-11437674D02*
X16860301Y-11428150D01*
X16860301Y-11428150D02*
X16898396Y-11428150D01*
X16898396Y-11428150D02*
X16917444Y-11437674D01*
X16917444Y-11437674D02*
X16926968Y-11456722D01*
X16926968Y-11456722D02*
X16926968Y-11475769D01*
X16926968Y-11475769D02*
X16831730Y-11494817D01*
X17003158Y-11551960D02*
X17022206Y-11561484D01*
X17022206Y-11561484D02*
X17060301Y-11561484D01*
X17060301Y-11561484D02*
X17079349Y-11551960D01*
X17079349Y-11551960D02*
X17088873Y-11532912D01*
X17088873Y-11532912D02*
X17088873Y-11523388D01*
X17088873Y-11523388D02*
X17079349Y-11504341D01*
X17079349Y-11504341D02*
X17060301Y-11494817D01*
X17060301Y-11494817D02*
X17031730Y-11494817D01*
X17031730Y-11494817D02*
X17012682Y-11485293D01*
X17012682Y-11485293D02*
X17003158Y-11466246D01*
X17003158Y-11466246D02*
X17003158Y-11456722D01*
X17003158Y-11456722D02*
X17012682Y-11437674D01*
X17012682Y-11437674D02*
X17031730Y-11428150D01*
X17031730Y-11428150D02*
X17060301Y-11428150D01*
X17060301Y-11428150D02*
X17079349Y-11437674D01*
X17155539Y-11637674D02*
X17165063Y-11628150D01*
X17165063Y-11628150D02*
X17184111Y-11599579D01*
X17184111Y-11599579D02*
X17193634Y-11580531D01*
X17193634Y-11580531D02*
X17203158Y-11551960D01*
X17203158Y-11551960D02*
X17212682Y-11504341D01*
X17212682Y-11504341D02*
X17212682Y-11466246D01*
X17212682Y-11466246D02*
X17203158Y-11418627D01*
X17203158Y-11418627D02*
X17193634Y-11390055D01*
X17193634Y-11390055D02*
X17184111Y-11371008D01*
X17184111Y-11371008D02*
X17165063Y-11342436D01*
X17165063Y-11342436D02*
X17155539Y-11332912D01*
D13*
X12050000Y-11664000D02*
X12190000Y-11804000D01*
X12190000Y-11664000D02*
X12050000Y-11804000D01*
X12120000Y-11664000D02*
X12120000Y-11804000D01*
X12050000Y-11734000D02*
X12190000Y-11734000D01*
D10*
X12555539Y-11825484D02*
X12441253Y-11825484D01*
X12498396Y-11825484D02*
X12498396Y-11625484D01*
X12498396Y-11625484D02*
X12479348Y-11654055D01*
X12479348Y-11654055D02*
X12460301Y-11673103D01*
X12460301Y-11673103D02*
X12441253Y-11682627D01*
X12641253Y-11806436D02*
X12650777Y-11815960D01*
X12650777Y-11815960D02*
X12641253Y-11825484D01*
X12641253Y-11825484D02*
X12631729Y-11815960D01*
X12631729Y-11815960D02*
X12641253Y-11806436D01*
X12641253Y-11806436D02*
X12641253Y-11825484D01*
X12822205Y-11692150D02*
X12822205Y-11825484D01*
X12774586Y-11615960D02*
X12726967Y-11758817D01*
X12726967Y-11758817D02*
X12850777Y-11758817D01*
X12965062Y-11625484D02*
X12984110Y-11625484D01*
X12984110Y-11625484D02*
X13003158Y-11635008D01*
X13003158Y-11635008D02*
X13012682Y-11644531D01*
X13012682Y-11644531D02*
X13022205Y-11663579D01*
X13022205Y-11663579D02*
X13031729Y-11701674D01*
X13031729Y-11701674D02*
X13031729Y-11749293D01*
X13031729Y-11749293D02*
X13022205Y-11787388D01*
X13022205Y-11787388D02*
X13012682Y-11806436D01*
X13012682Y-11806436D02*
X13003158Y-11815960D01*
X13003158Y-11815960D02*
X12984110Y-11825484D01*
X12984110Y-11825484D02*
X12965062Y-11825484D01*
X12965062Y-11825484D02*
X12946015Y-11815960D01*
X12946015Y-11815960D02*
X12936491Y-11806436D01*
X12936491Y-11806436D02*
X12926967Y-11787388D01*
X12926967Y-11787388D02*
X12917443Y-11749293D01*
X12917443Y-11749293D02*
X12917443Y-11701674D01*
X12917443Y-11701674D02*
X12926967Y-11663579D01*
X12926967Y-11663579D02*
X12936491Y-11644531D01*
X12936491Y-11644531D02*
X12946015Y-11635008D01*
X12946015Y-11635008D02*
X12965062Y-11625484D01*
X13155539Y-11625484D02*
X13174586Y-11625484D01*
X13174586Y-11625484D02*
X13193634Y-11635008D01*
X13193634Y-11635008D02*
X13203158Y-11644531D01*
X13203158Y-11644531D02*
X13212682Y-11663579D01*
X13212682Y-11663579D02*
X13222205Y-11701674D01*
X13222205Y-11701674D02*
X13222205Y-11749293D01*
X13222205Y-11749293D02*
X13212682Y-11787388D01*
X13212682Y-11787388D02*
X13203158Y-11806436D01*
X13203158Y-11806436D02*
X13193634Y-11815960D01*
X13193634Y-11815960D02*
X13174586Y-11825484D01*
X13174586Y-11825484D02*
X13155539Y-11825484D01*
X13155539Y-11825484D02*
X13136491Y-11815960D01*
X13136491Y-11815960D02*
X13126967Y-11806436D01*
X13126967Y-11806436D02*
X13117443Y-11787388D01*
X13117443Y-11787388D02*
X13107920Y-11749293D01*
X13107920Y-11749293D02*
X13107920Y-11701674D01*
X13107920Y-11701674D02*
X13117443Y-11663579D01*
X13117443Y-11663579D02*
X13126967Y-11644531D01*
X13126967Y-11644531D02*
X13136491Y-11635008D01*
X13136491Y-11635008D02*
X13155539Y-11625484D01*
X13307920Y-11825484D02*
X13307920Y-11692150D01*
X13307920Y-11711198D02*
X13317443Y-11701674D01*
X13317443Y-11701674D02*
X13336491Y-11692150D01*
X13336491Y-11692150D02*
X13365063Y-11692150D01*
X13365063Y-11692150D02*
X13384110Y-11701674D01*
X13384110Y-11701674D02*
X13393634Y-11720722D01*
X13393634Y-11720722D02*
X13393634Y-11825484D01*
X13393634Y-11720722D02*
X13403158Y-11701674D01*
X13403158Y-11701674D02*
X13422205Y-11692150D01*
X13422205Y-11692150D02*
X13450777Y-11692150D01*
X13450777Y-11692150D02*
X13469824Y-11701674D01*
X13469824Y-11701674D02*
X13479348Y-11720722D01*
X13479348Y-11720722D02*
X13479348Y-11825484D01*
X13574586Y-11825484D02*
X13574586Y-11692150D01*
X13574586Y-11711198D02*
X13584110Y-11701674D01*
X13584110Y-11701674D02*
X13603158Y-11692150D01*
X13603158Y-11692150D02*
X13631729Y-11692150D01*
X13631729Y-11692150D02*
X13650777Y-11701674D01*
X13650777Y-11701674D02*
X13660301Y-11720722D01*
X13660301Y-11720722D02*
X13660301Y-11825484D01*
X13660301Y-11720722D02*
X13669824Y-11701674D01*
X13669824Y-11701674D02*
X13688872Y-11692150D01*
X13688872Y-11692150D02*
X13717443Y-11692150D01*
X13717443Y-11692150D02*
X13736491Y-11701674D01*
X13736491Y-11701674D02*
X13746015Y-11720722D01*
X13746015Y-11720722D02*
X13746015Y-11825484D01*
X14136491Y-11615960D02*
X13965063Y-11873103D01*
X14393634Y-11625484D02*
X14412682Y-11625484D01*
X14412682Y-11625484D02*
X14431729Y-11635008D01*
X14431729Y-11635008D02*
X14441253Y-11644531D01*
X14441253Y-11644531D02*
X14450777Y-11663579D01*
X14450777Y-11663579D02*
X14460301Y-11701674D01*
X14460301Y-11701674D02*
X14460301Y-11749293D01*
X14460301Y-11749293D02*
X14450777Y-11787388D01*
X14450777Y-11787388D02*
X14441253Y-11806436D01*
X14441253Y-11806436D02*
X14431729Y-11815960D01*
X14431729Y-11815960D02*
X14412682Y-11825484D01*
X14412682Y-11825484D02*
X14393634Y-11825484D01*
X14393634Y-11825484D02*
X14374586Y-11815960D01*
X14374586Y-11815960D02*
X14365063Y-11806436D01*
X14365063Y-11806436D02*
X14355539Y-11787388D01*
X14355539Y-11787388D02*
X14346015Y-11749293D01*
X14346015Y-11749293D02*
X14346015Y-11701674D01*
X14346015Y-11701674D02*
X14355539Y-11663579D01*
X14355539Y-11663579D02*
X14365063Y-11644531D01*
X14365063Y-11644531D02*
X14374586Y-11635008D01*
X14374586Y-11635008D02*
X14393634Y-11625484D01*
X14546015Y-11806436D02*
X14555539Y-11815960D01*
X14555539Y-11815960D02*
X14546015Y-11825484D01*
X14546015Y-11825484D02*
X14536491Y-11815960D01*
X14536491Y-11815960D02*
X14546015Y-11806436D01*
X14546015Y-11806436D02*
X14546015Y-11825484D01*
X14679348Y-11625484D02*
X14698396Y-11625484D01*
X14698396Y-11625484D02*
X14717444Y-11635008D01*
X14717444Y-11635008D02*
X14726967Y-11644531D01*
X14726967Y-11644531D02*
X14736491Y-11663579D01*
X14736491Y-11663579D02*
X14746015Y-11701674D01*
X14746015Y-11701674D02*
X14746015Y-11749293D01*
X14746015Y-11749293D02*
X14736491Y-11787388D01*
X14736491Y-11787388D02*
X14726967Y-11806436D01*
X14726967Y-11806436D02*
X14717444Y-11815960D01*
X14717444Y-11815960D02*
X14698396Y-11825484D01*
X14698396Y-11825484D02*
X14679348Y-11825484D01*
X14679348Y-11825484D02*
X14660301Y-11815960D01*
X14660301Y-11815960D02*
X14650777Y-11806436D01*
X14650777Y-11806436D02*
X14641253Y-11787388D01*
X14641253Y-11787388D02*
X14631729Y-11749293D01*
X14631729Y-11749293D02*
X14631729Y-11701674D01*
X14631729Y-11701674D02*
X14641253Y-11663579D01*
X14641253Y-11663579D02*
X14650777Y-11644531D01*
X14650777Y-11644531D02*
X14660301Y-11635008D01*
X14660301Y-11635008D02*
X14679348Y-11625484D01*
X14926967Y-11625484D02*
X14831729Y-11625484D01*
X14831729Y-11625484D02*
X14822206Y-11720722D01*
X14822206Y-11720722D02*
X14831729Y-11711198D01*
X14831729Y-11711198D02*
X14850777Y-11701674D01*
X14850777Y-11701674D02*
X14898396Y-11701674D01*
X14898396Y-11701674D02*
X14917444Y-11711198D01*
X14917444Y-11711198D02*
X14926967Y-11720722D01*
X14926967Y-11720722D02*
X14936491Y-11739769D01*
X14936491Y-11739769D02*
X14936491Y-11787388D01*
X14936491Y-11787388D02*
X14926967Y-11806436D01*
X14926967Y-11806436D02*
X14917444Y-11815960D01*
X14917444Y-11815960D02*
X14898396Y-11825484D01*
X14898396Y-11825484D02*
X14850777Y-11825484D01*
X14850777Y-11825484D02*
X14831729Y-11815960D01*
X14831729Y-11815960D02*
X14822206Y-11806436D01*
X15117444Y-11625484D02*
X15022206Y-11625484D01*
X15022206Y-11625484D02*
X15012682Y-11720722D01*
X15012682Y-11720722D02*
X15022206Y-11711198D01*
X15022206Y-11711198D02*
X15041253Y-11701674D01*
X15041253Y-11701674D02*
X15088872Y-11701674D01*
X15088872Y-11701674D02*
X15107920Y-11711198D01*
X15107920Y-11711198D02*
X15117444Y-11720722D01*
X15117444Y-11720722D02*
X15126967Y-11739769D01*
X15126967Y-11739769D02*
X15126967Y-11787388D01*
X15126967Y-11787388D02*
X15117444Y-11806436D01*
X15117444Y-11806436D02*
X15107920Y-11815960D01*
X15107920Y-11815960D02*
X15088872Y-11825484D01*
X15088872Y-11825484D02*
X15041253Y-11825484D01*
X15041253Y-11825484D02*
X15022206Y-11815960D01*
X15022206Y-11815960D02*
X15012682Y-11806436D01*
X15317444Y-11825484D02*
X15203158Y-11825484D01*
X15260301Y-11825484D02*
X15260301Y-11625484D01*
X15260301Y-11625484D02*
X15241253Y-11654055D01*
X15241253Y-11654055D02*
X15222206Y-11673103D01*
X15222206Y-11673103D02*
X15203158Y-11682627D01*
X15393634Y-11625484D02*
X15393634Y-11663579D01*
X15469825Y-11625484D02*
X15469825Y-11663579D01*
X15765063Y-11901674D02*
X15755539Y-11892150D01*
X15755539Y-11892150D02*
X15736491Y-11863579D01*
X15736491Y-11863579D02*
X15726968Y-11844531D01*
X15726968Y-11844531D02*
X15717444Y-11815960D01*
X15717444Y-11815960D02*
X15707920Y-11768341D01*
X15707920Y-11768341D02*
X15707920Y-11730246D01*
X15707920Y-11730246D02*
X15717444Y-11682627D01*
X15717444Y-11682627D02*
X15726968Y-11654055D01*
X15726968Y-11654055D02*
X15736491Y-11635008D01*
X15736491Y-11635008D02*
X15755539Y-11606436D01*
X15755539Y-11606436D02*
X15765063Y-11596912D01*
X15946015Y-11825484D02*
X15831729Y-11825484D01*
X15888872Y-11825484D02*
X15888872Y-11625484D01*
X15888872Y-11625484D02*
X15869825Y-11654055D01*
X15869825Y-11654055D02*
X15850777Y-11673103D01*
X15850777Y-11673103D02*
X15831729Y-11682627D01*
X16117444Y-11625484D02*
X16079348Y-11625484D01*
X16079348Y-11625484D02*
X16060301Y-11635008D01*
X16060301Y-11635008D02*
X16050777Y-11644531D01*
X16050777Y-11644531D02*
X16031729Y-11673103D01*
X16031729Y-11673103D02*
X16022206Y-11711198D01*
X16022206Y-11711198D02*
X16022206Y-11787388D01*
X16022206Y-11787388D02*
X16031729Y-11806436D01*
X16031729Y-11806436D02*
X16041253Y-11815960D01*
X16041253Y-11815960D02*
X16060301Y-11825484D01*
X16060301Y-11825484D02*
X16098396Y-11825484D01*
X16098396Y-11825484D02*
X16117444Y-11815960D01*
X16117444Y-11815960D02*
X16126968Y-11806436D01*
X16126968Y-11806436D02*
X16136491Y-11787388D01*
X16136491Y-11787388D02*
X16136491Y-11739769D01*
X16136491Y-11739769D02*
X16126968Y-11720722D01*
X16126968Y-11720722D02*
X16117444Y-11711198D01*
X16117444Y-11711198D02*
X16098396Y-11701674D01*
X16098396Y-11701674D02*
X16060301Y-11701674D01*
X16060301Y-11701674D02*
X16041253Y-11711198D01*
X16041253Y-11711198D02*
X16031729Y-11720722D01*
X16031729Y-11720722D02*
X16022206Y-11739769D01*
X16374587Y-11825484D02*
X16374587Y-11625484D01*
X16460301Y-11825484D02*
X16460301Y-11720722D01*
X16460301Y-11720722D02*
X16450777Y-11701674D01*
X16450777Y-11701674D02*
X16431730Y-11692150D01*
X16431730Y-11692150D02*
X16403158Y-11692150D01*
X16403158Y-11692150D02*
X16384110Y-11701674D01*
X16384110Y-11701674D02*
X16374587Y-11711198D01*
X16584110Y-11825484D02*
X16565063Y-11815960D01*
X16565063Y-11815960D02*
X16555539Y-11806436D01*
X16555539Y-11806436D02*
X16546015Y-11787388D01*
X16546015Y-11787388D02*
X16546015Y-11730246D01*
X16546015Y-11730246D02*
X16555539Y-11711198D01*
X16555539Y-11711198D02*
X16565063Y-11701674D01*
X16565063Y-11701674D02*
X16584110Y-11692150D01*
X16584110Y-11692150D02*
X16612682Y-11692150D01*
X16612682Y-11692150D02*
X16631730Y-11701674D01*
X16631730Y-11701674D02*
X16641253Y-11711198D01*
X16641253Y-11711198D02*
X16650777Y-11730246D01*
X16650777Y-11730246D02*
X16650777Y-11787388D01*
X16650777Y-11787388D02*
X16641253Y-11806436D01*
X16641253Y-11806436D02*
X16631730Y-11815960D01*
X16631730Y-11815960D02*
X16612682Y-11825484D01*
X16612682Y-11825484D02*
X16584110Y-11825484D01*
X16765063Y-11825484D02*
X16746015Y-11815960D01*
X16746015Y-11815960D02*
X16736491Y-11796912D01*
X16736491Y-11796912D02*
X16736491Y-11625484D01*
X16917444Y-11815960D02*
X16898396Y-11825484D01*
X16898396Y-11825484D02*
X16860301Y-11825484D01*
X16860301Y-11825484D02*
X16841253Y-11815960D01*
X16841253Y-11815960D02*
X16831730Y-11796912D01*
X16831730Y-11796912D02*
X16831730Y-11720722D01*
X16831730Y-11720722D02*
X16841253Y-11701674D01*
X16841253Y-11701674D02*
X16860301Y-11692150D01*
X16860301Y-11692150D02*
X16898396Y-11692150D01*
X16898396Y-11692150D02*
X16917444Y-11701674D01*
X16917444Y-11701674D02*
X16926968Y-11720722D01*
X16926968Y-11720722D02*
X16926968Y-11739769D01*
X16926968Y-11739769D02*
X16831730Y-11758817D01*
X17003158Y-11815960D02*
X17022206Y-11825484D01*
X17022206Y-11825484D02*
X17060301Y-11825484D01*
X17060301Y-11825484D02*
X17079349Y-11815960D01*
X17079349Y-11815960D02*
X17088873Y-11796912D01*
X17088873Y-11796912D02*
X17088873Y-11787388D01*
X17088873Y-11787388D02*
X17079349Y-11768341D01*
X17079349Y-11768341D02*
X17060301Y-11758817D01*
X17060301Y-11758817D02*
X17031730Y-11758817D01*
X17031730Y-11758817D02*
X17012682Y-11749293D01*
X17012682Y-11749293D02*
X17003158Y-11730246D01*
X17003158Y-11730246D02*
X17003158Y-11720722D01*
X17003158Y-11720722D02*
X17012682Y-11701674D01*
X17012682Y-11701674D02*
X17031730Y-11692150D01*
X17031730Y-11692150D02*
X17060301Y-11692150D01*
X17060301Y-11692150D02*
X17079349Y-11701674D01*
X17155539Y-11901674D02*
X17165063Y-11892150D01*
X17165063Y-11892150D02*
X17184111Y-11863579D01*
X17184111Y-11863579D02*
X17193634Y-11844531D01*
X17193634Y-11844531D02*
X17203158Y-11815960D01*
X17203158Y-11815960D02*
X17212682Y-11768341D01*
X17212682Y-11768341D02*
X17212682Y-11730246D01*
X17212682Y-11730246D02*
X17203158Y-11682627D01*
X17203158Y-11682627D02*
X17193634Y-11654055D01*
X17193634Y-11654055D02*
X17184111Y-11635008D01*
X17184111Y-11635008D02*
X17165063Y-11606436D01*
X17165063Y-11606436D02*
X17155539Y-11596912D01*
D14*
X12040000Y-11923000D02*
X12190000Y-12073000D01*
X12190000Y-11923000D02*
X12040000Y-12073000D01*
X12168033Y-12051033D02*
X12168033Y-11944966D01*
X12061966Y-11944966D01*
X12061966Y-12051033D01*
X12168033Y-12051033D01*
D10*
X12555539Y-12089484D02*
X12441253Y-12089484D01*
X12498396Y-12089484D02*
X12498396Y-11889484D01*
X12498396Y-11889484D02*
X12479348Y-11918055D01*
X12479348Y-11918055D02*
X12460301Y-11937103D01*
X12460301Y-11937103D02*
X12441253Y-11946627D01*
X12641253Y-12070436D02*
X12650777Y-12079960D01*
X12650777Y-12079960D02*
X12641253Y-12089484D01*
X12641253Y-12089484D02*
X12631729Y-12079960D01*
X12631729Y-12079960D02*
X12641253Y-12070436D01*
X12641253Y-12070436D02*
X12641253Y-12089484D01*
X12831729Y-11889484D02*
X12736491Y-11889484D01*
X12736491Y-11889484D02*
X12726967Y-11984722D01*
X12726967Y-11984722D02*
X12736491Y-11975198D01*
X12736491Y-11975198D02*
X12755539Y-11965674D01*
X12755539Y-11965674D02*
X12803158Y-11965674D01*
X12803158Y-11965674D02*
X12822205Y-11975198D01*
X12822205Y-11975198D02*
X12831729Y-11984722D01*
X12831729Y-11984722D02*
X12841253Y-12003769D01*
X12841253Y-12003769D02*
X12841253Y-12051388D01*
X12841253Y-12051388D02*
X12831729Y-12070436D01*
X12831729Y-12070436D02*
X12822205Y-12079960D01*
X12822205Y-12079960D02*
X12803158Y-12089484D01*
X12803158Y-12089484D02*
X12755539Y-12089484D01*
X12755539Y-12089484D02*
X12736491Y-12079960D01*
X12736491Y-12079960D02*
X12726967Y-12070436D01*
X12965062Y-11889484D02*
X12984110Y-11889484D01*
X12984110Y-11889484D02*
X13003158Y-11899008D01*
X13003158Y-11899008D02*
X13012682Y-11908531D01*
X13012682Y-11908531D02*
X13022205Y-11927579D01*
X13022205Y-11927579D02*
X13031729Y-11965674D01*
X13031729Y-11965674D02*
X13031729Y-12013293D01*
X13031729Y-12013293D02*
X13022205Y-12051388D01*
X13022205Y-12051388D02*
X13012682Y-12070436D01*
X13012682Y-12070436D02*
X13003158Y-12079960D01*
X13003158Y-12079960D02*
X12984110Y-12089484D01*
X12984110Y-12089484D02*
X12965062Y-12089484D01*
X12965062Y-12089484D02*
X12946015Y-12079960D01*
X12946015Y-12079960D02*
X12936491Y-12070436D01*
X12936491Y-12070436D02*
X12926967Y-12051388D01*
X12926967Y-12051388D02*
X12917443Y-12013293D01*
X12917443Y-12013293D02*
X12917443Y-11965674D01*
X12917443Y-11965674D02*
X12926967Y-11927579D01*
X12926967Y-11927579D02*
X12936491Y-11908531D01*
X12936491Y-11908531D02*
X12946015Y-11899008D01*
X12946015Y-11899008D02*
X12965062Y-11889484D01*
X13155539Y-11889484D02*
X13174586Y-11889484D01*
X13174586Y-11889484D02*
X13193634Y-11899008D01*
X13193634Y-11899008D02*
X13203158Y-11908531D01*
X13203158Y-11908531D02*
X13212682Y-11927579D01*
X13212682Y-11927579D02*
X13222205Y-11965674D01*
X13222205Y-11965674D02*
X13222205Y-12013293D01*
X13222205Y-12013293D02*
X13212682Y-12051388D01*
X13212682Y-12051388D02*
X13203158Y-12070436D01*
X13203158Y-12070436D02*
X13193634Y-12079960D01*
X13193634Y-12079960D02*
X13174586Y-12089484D01*
X13174586Y-12089484D02*
X13155539Y-12089484D01*
X13155539Y-12089484D02*
X13136491Y-12079960D01*
X13136491Y-12079960D02*
X13126967Y-12070436D01*
X13126967Y-12070436D02*
X13117443Y-12051388D01*
X13117443Y-12051388D02*
X13107920Y-12013293D01*
X13107920Y-12013293D02*
X13107920Y-11965674D01*
X13107920Y-11965674D02*
X13117443Y-11927579D01*
X13117443Y-11927579D02*
X13126967Y-11908531D01*
X13126967Y-11908531D02*
X13136491Y-11899008D01*
X13136491Y-11899008D02*
X13155539Y-11889484D01*
X13307920Y-12089484D02*
X13307920Y-11956150D01*
X13307920Y-11975198D02*
X13317443Y-11965674D01*
X13317443Y-11965674D02*
X13336491Y-11956150D01*
X13336491Y-11956150D02*
X13365063Y-11956150D01*
X13365063Y-11956150D02*
X13384110Y-11965674D01*
X13384110Y-11965674D02*
X13393634Y-11984722D01*
X13393634Y-11984722D02*
X13393634Y-12089484D01*
X13393634Y-11984722D02*
X13403158Y-11965674D01*
X13403158Y-11965674D02*
X13422205Y-11956150D01*
X13422205Y-11956150D02*
X13450777Y-11956150D01*
X13450777Y-11956150D02*
X13469824Y-11965674D01*
X13469824Y-11965674D02*
X13479348Y-11984722D01*
X13479348Y-11984722D02*
X13479348Y-12089484D01*
X13574586Y-12089484D02*
X13574586Y-11956150D01*
X13574586Y-11975198D02*
X13584110Y-11965674D01*
X13584110Y-11965674D02*
X13603158Y-11956150D01*
X13603158Y-11956150D02*
X13631729Y-11956150D01*
X13631729Y-11956150D02*
X13650777Y-11965674D01*
X13650777Y-11965674D02*
X13660301Y-11984722D01*
X13660301Y-11984722D02*
X13660301Y-12089484D01*
X13660301Y-11984722D02*
X13669824Y-11965674D01*
X13669824Y-11965674D02*
X13688872Y-11956150D01*
X13688872Y-11956150D02*
X13717443Y-11956150D01*
X13717443Y-11956150D02*
X13736491Y-11965674D01*
X13736491Y-11965674D02*
X13746015Y-11984722D01*
X13746015Y-11984722D02*
X13746015Y-12089484D01*
X14136491Y-11879960D02*
X13965063Y-12137103D01*
X14393634Y-11889484D02*
X14412682Y-11889484D01*
X14412682Y-11889484D02*
X14431729Y-11899008D01*
X14431729Y-11899008D02*
X14441253Y-11908531D01*
X14441253Y-11908531D02*
X14450777Y-11927579D01*
X14450777Y-11927579D02*
X14460301Y-11965674D01*
X14460301Y-11965674D02*
X14460301Y-12013293D01*
X14460301Y-12013293D02*
X14450777Y-12051388D01*
X14450777Y-12051388D02*
X14441253Y-12070436D01*
X14441253Y-12070436D02*
X14431729Y-12079960D01*
X14431729Y-12079960D02*
X14412682Y-12089484D01*
X14412682Y-12089484D02*
X14393634Y-12089484D01*
X14393634Y-12089484D02*
X14374586Y-12079960D01*
X14374586Y-12079960D02*
X14365063Y-12070436D01*
X14365063Y-12070436D02*
X14355539Y-12051388D01*
X14355539Y-12051388D02*
X14346015Y-12013293D01*
X14346015Y-12013293D02*
X14346015Y-11965674D01*
X14346015Y-11965674D02*
X14355539Y-11927579D01*
X14355539Y-11927579D02*
X14365063Y-11908531D01*
X14365063Y-11908531D02*
X14374586Y-11899008D01*
X14374586Y-11899008D02*
X14393634Y-11889484D01*
X14546015Y-12070436D02*
X14555539Y-12079960D01*
X14555539Y-12079960D02*
X14546015Y-12089484D01*
X14546015Y-12089484D02*
X14536491Y-12079960D01*
X14536491Y-12079960D02*
X14546015Y-12070436D01*
X14546015Y-12070436D02*
X14546015Y-12089484D01*
X14679348Y-11889484D02*
X14698396Y-11889484D01*
X14698396Y-11889484D02*
X14717444Y-11899008D01*
X14717444Y-11899008D02*
X14726967Y-11908531D01*
X14726967Y-11908531D02*
X14736491Y-11927579D01*
X14736491Y-11927579D02*
X14746015Y-11965674D01*
X14746015Y-11965674D02*
X14746015Y-12013293D01*
X14746015Y-12013293D02*
X14736491Y-12051388D01*
X14736491Y-12051388D02*
X14726967Y-12070436D01*
X14726967Y-12070436D02*
X14717444Y-12079960D01*
X14717444Y-12079960D02*
X14698396Y-12089484D01*
X14698396Y-12089484D02*
X14679348Y-12089484D01*
X14679348Y-12089484D02*
X14660301Y-12079960D01*
X14660301Y-12079960D02*
X14650777Y-12070436D01*
X14650777Y-12070436D02*
X14641253Y-12051388D01*
X14641253Y-12051388D02*
X14631729Y-12013293D01*
X14631729Y-12013293D02*
X14631729Y-11965674D01*
X14631729Y-11965674D02*
X14641253Y-11927579D01*
X14641253Y-11927579D02*
X14650777Y-11908531D01*
X14650777Y-11908531D02*
X14660301Y-11899008D01*
X14660301Y-11899008D02*
X14679348Y-11889484D01*
X14926967Y-11889484D02*
X14831729Y-11889484D01*
X14831729Y-11889484D02*
X14822206Y-11984722D01*
X14822206Y-11984722D02*
X14831729Y-11975198D01*
X14831729Y-11975198D02*
X14850777Y-11965674D01*
X14850777Y-11965674D02*
X14898396Y-11965674D01*
X14898396Y-11965674D02*
X14917444Y-11975198D01*
X14917444Y-11975198D02*
X14926967Y-11984722D01*
X14926967Y-11984722D02*
X14936491Y-12003769D01*
X14936491Y-12003769D02*
X14936491Y-12051388D01*
X14936491Y-12051388D02*
X14926967Y-12070436D01*
X14926967Y-12070436D02*
X14917444Y-12079960D01*
X14917444Y-12079960D02*
X14898396Y-12089484D01*
X14898396Y-12089484D02*
X14850777Y-12089484D01*
X14850777Y-12089484D02*
X14831729Y-12079960D01*
X14831729Y-12079960D02*
X14822206Y-12070436D01*
X15031729Y-12089484D02*
X15069825Y-12089484D01*
X15069825Y-12089484D02*
X15088872Y-12079960D01*
X15088872Y-12079960D02*
X15098396Y-12070436D01*
X15098396Y-12070436D02*
X15117444Y-12041865D01*
X15117444Y-12041865D02*
X15126967Y-12003769D01*
X15126967Y-12003769D02*
X15126967Y-11927579D01*
X15126967Y-11927579D02*
X15117444Y-11908531D01*
X15117444Y-11908531D02*
X15107920Y-11899008D01*
X15107920Y-11899008D02*
X15088872Y-11889484D01*
X15088872Y-11889484D02*
X15050777Y-11889484D01*
X15050777Y-11889484D02*
X15031729Y-11899008D01*
X15031729Y-11899008D02*
X15022206Y-11908531D01*
X15022206Y-11908531D02*
X15012682Y-11927579D01*
X15012682Y-11927579D02*
X15012682Y-11975198D01*
X15012682Y-11975198D02*
X15022206Y-11994246D01*
X15022206Y-11994246D02*
X15031729Y-12003769D01*
X15031729Y-12003769D02*
X15050777Y-12013293D01*
X15050777Y-12013293D02*
X15088872Y-12013293D01*
X15088872Y-12013293D02*
X15107920Y-12003769D01*
X15107920Y-12003769D02*
X15117444Y-11994246D01*
X15117444Y-11994246D02*
X15126967Y-11975198D01*
X15317444Y-12089484D02*
X15203158Y-12089484D01*
X15260301Y-12089484D02*
X15260301Y-11889484D01*
X15260301Y-11889484D02*
X15241253Y-11918055D01*
X15241253Y-11918055D02*
X15222206Y-11937103D01*
X15222206Y-11937103D02*
X15203158Y-11946627D01*
X15393634Y-11889484D02*
X15393634Y-11927579D01*
X15469825Y-11889484D02*
X15469825Y-11927579D01*
X15765063Y-12165674D02*
X15755539Y-12156150D01*
X15755539Y-12156150D02*
X15736491Y-12127579D01*
X15736491Y-12127579D02*
X15726968Y-12108531D01*
X15726968Y-12108531D02*
X15717444Y-12079960D01*
X15717444Y-12079960D02*
X15707920Y-12032341D01*
X15707920Y-12032341D02*
X15707920Y-11994246D01*
X15707920Y-11994246D02*
X15717444Y-11946627D01*
X15717444Y-11946627D02*
X15726968Y-11918055D01*
X15726968Y-11918055D02*
X15736491Y-11899008D01*
X15736491Y-11899008D02*
X15755539Y-11870436D01*
X15755539Y-11870436D02*
X15765063Y-11860912D01*
X15831729Y-11908531D02*
X15841253Y-11899008D01*
X15841253Y-11899008D02*
X15860301Y-11889484D01*
X15860301Y-11889484D02*
X15907920Y-11889484D01*
X15907920Y-11889484D02*
X15926968Y-11899008D01*
X15926968Y-11899008D02*
X15936491Y-11908531D01*
X15936491Y-11908531D02*
X15946015Y-11927579D01*
X15946015Y-11927579D02*
X15946015Y-11946627D01*
X15946015Y-11946627D02*
X15936491Y-11975198D01*
X15936491Y-11975198D02*
X15822206Y-12089484D01*
X15822206Y-12089484D02*
X15946015Y-12089484D01*
X16184110Y-12089484D02*
X16184110Y-11889484D01*
X16269825Y-12089484D02*
X16269825Y-11984722D01*
X16269825Y-11984722D02*
X16260301Y-11965674D01*
X16260301Y-11965674D02*
X16241253Y-11956150D01*
X16241253Y-11956150D02*
X16212682Y-11956150D01*
X16212682Y-11956150D02*
X16193634Y-11965674D01*
X16193634Y-11965674D02*
X16184110Y-11975198D01*
X16393634Y-12089484D02*
X16374587Y-12079960D01*
X16374587Y-12079960D02*
X16365063Y-12070436D01*
X16365063Y-12070436D02*
X16355539Y-12051388D01*
X16355539Y-12051388D02*
X16355539Y-11994246D01*
X16355539Y-11994246D02*
X16365063Y-11975198D01*
X16365063Y-11975198D02*
X16374587Y-11965674D01*
X16374587Y-11965674D02*
X16393634Y-11956150D01*
X16393634Y-11956150D02*
X16422206Y-11956150D01*
X16422206Y-11956150D02*
X16441253Y-11965674D01*
X16441253Y-11965674D02*
X16450777Y-11975198D01*
X16450777Y-11975198D02*
X16460301Y-11994246D01*
X16460301Y-11994246D02*
X16460301Y-12051388D01*
X16460301Y-12051388D02*
X16450777Y-12070436D01*
X16450777Y-12070436D02*
X16441253Y-12079960D01*
X16441253Y-12079960D02*
X16422206Y-12089484D01*
X16422206Y-12089484D02*
X16393634Y-12089484D01*
X16574587Y-12089484D02*
X16555539Y-12079960D01*
X16555539Y-12079960D02*
X16546015Y-12060912D01*
X16546015Y-12060912D02*
X16546015Y-11889484D01*
X16726968Y-12079960D02*
X16707920Y-12089484D01*
X16707920Y-12089484D02*
X16669825Y-12089484D01*
X16669825Y-12089484D02*
X16650777Y-12079960D01*
X16650777Y-12079960D02*
X16641253Y-12060912D01*
X16641253Y-12060912D02*
X16641253Y-11984722D01*
X16641253Y-11984722D02*
X16650777Y-11965674D01*
X16650777Y-11965674D02*
X16669825Y-11956150D01*
X16669825Y-11956150D02*
X16707920Y-11956150D01*
X16707920Y-11956150D02*
X16726968Y-11965674D01*
X16726968Y-11965674D02*
X16736491Y-11984722D01*
X16736491Y-11984722D02*
X16736491Y-12003769D01*
X16736491Y-12003769D02*
X16641253Y-12022817D01*
X16812682Y-12079960D02*
X16831730Y-12089484D01*
X16831730Y-12089484D02*
X16869825Y-12089484D01*
X16869825Y-12089484D02*
X16888873Y-12079960D01*
X16888873Y-12079960D02*
X16898396Y-12060912D01*
X16898396Y-12060912D02*
X16898396Y-12051388D01*
X16898396Y-12051388D02*
X16888873Y-12032341D01*
X16888873Y-12032341D02*
X16869825Y-12022817D01*
X16869825Y-12022817D02*
X16841253Y-12022817D01*
X16841253Y-12022817D02*
X16822206Y-12013293D01*
X16822206Y-12013293D02*
X16812682Y-11994246D01*
X16812682Y-11994246D02*
X16812682Y-11984722D01*
X16812682Y-11984722D02*
X16822206Y-11965674D01*
X16822206Y-11965674D02*
X16841253Y-11956150D01*
X16841253Y-11956150D02*
X16869825Y-11956150D01*
X16869825Y-11956150D02*
X16888873Y-11965674D01*
X16965063Y-12165674D02*
X16974587Y-12156150D01*
X16974587Y-12156150D02*
X16993634Y-12127579D01*
X16993634Y-12127579D02*
X17003158Y-12108531D01*
X17003158Y-12108531D02*
X17012682Y-12079960D01*
X17012682Y-12079960D02*
X17022206Y-12032341D01*
X17022206Y-12032341D02*
X17022206Y-11994246D01*
X17022206Y-11994246D02*
X17012682Y-11946627D01*
X17012682Y-11946627D02*
X17003158Y-11918055D01*
X17003158Y-11918055D02*
X16993634Y-11899008D01*
X16993634Y-11899008D02*
X16974587Y-11870436D01*
X16974587Y-11870436D02*
X16965063Y-11860912D01*
X11990000Y-12168000D02*
X12190000Y-12368000D01*
X12190000Y-12168000D02*
X11990000Y-12368000D01*
X12090000Y-12368000D02*
X12190000Y-12268000D01*
X12090000Y-12168000D01*
X11990000Y-12268000D01*
X12090000Y-12368000D01*
X12431729Y-12159484D02*
X12555539Y-12159484D01*
X12555539Y-12159484D02*
X12488872Y-12235674D01*
X12488872Y-12235674D02*
X12517443Y-12235674D01*
X12517443Y-12235674D02*
X12536491Y-12245198D01*
X12536491Y-12245198D02*
X12546015Y-12254722D01*
X12546015Y-12254722D02*
X12555539Y-12273769D01*
X12555539Y-12273769D02*
X12555539Y-12321388D01*
X12555539Y-12321388D02*
X12546015Y-12340436D01*
X12546015Y-12340436D02*
X12536491Y-12349960D01*
X12536491Y-12349960D02*
X12517443Y-12359484D01*
X12517443Y-12359484D02*
X12460301Y-12359484D01*
X12460301Y-12359484D02*
X12441253Y-12349960D01*
X12441253Y-12349960D02*
X12431729Y-12340436D01*
X12641253Y-12340436D02*
X12650777Y-12349960D01*
X12650777Y-12349960D02*
X12641253Y-12359484D01*
X12641253Y-12359484D02*
X12631729Y-12349960D01*
X12631729Y-12349960D02*
X12641253Y-12340436D01*
X12641253Y-12340436D02*
X12641253Y-12359484D01*
X12726967Y-12178531D02*
X12736491Y-12169008D01*
X12736491Y-12169008D02*
X12755539Y-12159484D01*
X12755539Y-12159484D02*
X12803158Y-12159484D01*
X12803158Y-12159484D02*
X12822205Y-12169008D01*
X12822205Y-12169008D02*
X12831729Y-12178531D01*
X12831729Y-12178531D02*
X12841253Y-12197579D01*
X12841253Y-12197579D02*
X12841253Y-12216627D01*
X12841253Y-12216627D02*
X12831729Y-12245198D01*
X12831729Y-12245198D02*
X12717443Y-12359484D01*
X12717443Y-12359484D02*
X12841253Y-12359484D01*
X12965062Y-12159484D02*
X12984110Y-12159484D01*
X12984110Y-12159484D02*
X13003158Y-12169008D01*
X13003158Y-12169008D02*
X13012682Y-12178531D01*
X13012682Y-12178531D02*
X13022205Y-12197579D01*
X13022205Y-12197579D02*
X13031729Y-12235674D01*
X13031729Y-12235674D02*
X13031729Y-12283293D01*
X13031729Y-12283293D02*
X13022205Y-12321388D01*
X13022205Y-12321388D02*
X13012682Y-12340436D01*
X13012682Y-12340436D02*
X13003158Y-12349960D01*
X13003158Y-12349960D02*
X12984110Y-12359484D01*
X12984110Y-12359484D02*
X12965062Y-12359484D01*
X12965062Y-12359484D02*
X12946015Y-12349960D01*
X12946015Y-12349960D02*
X12936491Y-12340436D01*
X12936491Y-12340436D02*
X12926967Y-12321388D01*
X12926967Y-12321388D02*
X12917443Y-12283293D01*
X12917443Y-12283293D02*
X12917443Y-12235674D01*
X12917443Y-12235674D02*
X12926967Y-12197579D01*
X12926967Y-12197579D02*
X12936491Y-12178531D01*
X12936491Y-12178531D02*
X12946015Y-12169008D01*
X12946015Y-12169008D02*
X12965062Y-12159484D01*
X13155539Y-12159484D02*
X13174586Y-12159484D01*
X13174586Y-12159484D02*
X13193634Y-12169008D01*
X13193634Y-12169008D02*
X13203158Y-12178531D01*
X13203158Y-12178531D02*
X13212682Y-12197579D01*
X13212682Y-12197579D02*
X13222205Y-12235674D01*
X13222205Y-12235674D02*
X13222205Y-12283293D01*
X13222205Y-12283293D02*
X13212682Y-12321388D01*
X13212682Y-12321388D02*
X13203158Y-12340436D01*
X13203158Y-12340436D02*
X13193634Y-12349960D01*
X13193634Y-12349960D02*
X13174586Y-12359484D01*
X13174586Y-12359484D02*
X13155539Y-12359484D01*
X13155539Y-12359484D02*
X13136491Y-12349960D01*
X13136491Y-12349960D02*
X13126967Y-12340436D01*
X13126967Y-12340436D02*
X13117443Y-12321388D01*
X13117443Y-12321388D02*
X13107920Y-12283293D01*
X13107920Y-12283293D02*
X13107920Y-12235674D01*
X13107920Y-12235674D02*
X13117443Y-12197579D01*
X13117443Y-12197579D02*
X13126967Y-12178531D01*
X13126967Y-12178531D02*
X13136491Y-12169008D01*
X13136491Y-12169008D02*
X13155539Y-12159484D01*
X13307920Y-12359484D02*
X13307920Y-12226150D01*
X13307920Y-12245198D02*
X13317443Y-12235674D01*
X13317443Y-12235674D02*
X13336491Y-12226150D01*
X13336491Y-12226150D02*
X13365063Y-12226150D01*
X13365063Y-12226150D02*
X13384110Y-12235674D01*
X13384110Y-12235674D02*
X13393634Y-12254722D01*
X13393634Y-12254722D02*
X13393634Y-12359484D01*
X13393634Y-12254722D02*
X13403158Y-12235674D01*
X13403158Y-12235674D02*
X13422205Y-12226150D01*
X13422205Y-12226150D02*
X13450777Y-12226150D01*
X13450777Y-12226150D02*
X13469824Y-12235674D01*
X13469824Y-12235674D02*
X13479348Y-12254722D01*
X13479348Y-12254722D02*
X13479348Y-12359484D01*
X13574586Y-12359484D02*
X13574586Y-12226150D01*
X13574586Y-12245198D02*
X13584110Y-12235674D01*
X13584110Y-12235674D02*
X13603158Y-12226150D01*
X13603158Y-12226150D02*
X13631729Y-12226150D01*
X13631729Y-12226150D02*
X13650777Y-12235674D01*
X13650777Y-12235674D02*
X13660301Y-12254722D01*
X13660301Y-12254722D02*
X13660301Y-12359484D01*
X13660301Y-12254722D02*
X13669824Y-12235674D01*
X13669824Y-12235674D02*
X13688872Y-12226150D01*
X13688872Y-12226150D02*
X13717443Y-12226150D01*
X13717443Y-12226150D02*
X13736491Y-12235674D01*
X13736491Y-12235674D02*
X13746015Y-12254722D01*
X13746015Y-12254722D02*
X13746015Y-12359484D01*
X14136491Y-12149960D02*
X13965063Y-12407103D01*
X14393634Y-12159484D02*
X14412682Y-12159484D01*
X14412682Y-12159484D02*
X14431729Y-12169008D01*
X14431729Y-12169008D02*
X14441253Y-12178531D01*
X14441253Y-12178531D02*
X14450777Y-12197579D01*
X14450777Y-12197579D02*
X14460301Y-12235674D01*
X14460301Y-12235674D02*
X14460301Y-12283293D01*
X14460301Y-12283293D02*
X14450777Y-12321388D01*
X14450777Y-12321388D02*
X14441253Y-12340436D01*
X14441253Y-12340436D02*
X14431729Y-12349960D01*
X14431729Y-12349960D02*
X14412682Y-12359484D01*
X14412682Y-12359484D02*
X14393634Y-12359484D01*
X14393634Y-12359484D02*
X14374586Y-12349960D01*
X14374586Y-12349960D02*
X14365063Y-12340436D01*
X14365063Y-12340436D02*
X14355539Y-12321388D01*
X14355539Y-12321388D02*
X14346015Y-12283293D01*
X14346015Y-12283293D02*
X14346015Y-12235674D01*
X14346015Y-12235674D02*
X14355539Y-12197579D01*
X14355539Y-12197579D02*
X14365063Y-12178531D01*
X14365063Y-12178531D02*
X14374586Y-12169008D01*
X14374586Y-12169008D02*
X14393634Y-12159484D01*
X14546015Y-12340436D02*
X14555539Y-12349960D01*
X14555539Y-12349960D02*
X14546015Y-12359484D01*
X14546015Y-12359484D02*
X14536491Y-12349960D01*
X14536491Y-12349960D02*
X14546015Y-12340436D01*
X14546015Y-12340436D02*
X14546015Y-12359484D01*
X14746015Y-12359484D02*
X14631729Y-12359484D01*
X14688872Y-12359484D02*
X14688872Y-12159484D01*
X14688872Y-12159484D02*
X14669825Y-12188055D01*
X14669825Y-12188055D02*
X14650777Y-12207103D01*
X14650777Y-12207103D02*
X14631729Y-12216627D01*
X14822206Y-12178531D02*
X14831729Y-12169008D01*
X14831729Y-12169008D02*
X14850777Y-12159484D01*
X14850777Y-12159484D02*
X14898396Y-12159484D01*
X14898396Y-12159484D02*
X14917444Y-12169008D01*
X14917444Y-12169008D02*
X14926967Y-12178531D01*
X14926967Y-12178531D02*
X14936491Y-12197579D01*
X14936491Y-12197579D02*
X14936491Y-12216627D01*
X14936491Y-12216627D02*
X14926967Y-12245198D01*
X14926967Y-12245198D02*
X14812682Y-12359484D01*
X14812682Y-12359484D02*
X14936491Y-12359484D01*
X15107920Y-12159484D02*
X15069825Y-12159484D01*
X15069825Y-12159484D02*
X15050777Y-12169008D01*
X15050777Y-12169008D02*
X15041253Y-12178531D01*
X15041253Y-12178531D02*
X15022206Y-12207103D01*
X15022206Y-12207103D02*
X15012682Y-12245198D01*
X15012682Y-12245198D02*
X15012682Y-12321388D01*
X15012682Y-12321388D02*
X15022206Y-12340436D01*
X15022206Y-12340436D02*
X15031729Y-12349960D01*
X15031729Y-12349960D02*
X15050777Y-12359484D01*
X15050777Y-12359484D02*
X15088872Y-12359484D01*
X15088872Y-12359484D02*
X15107920Y-12349960D01*
X15107920Y-12349960D02*
X15117444Y-12340436D01*
X15117444Y-12340436D02*
X15126967Y-12321388D01*
X15126967Y-12321388D02*
X15126967Y-12273769D01*
X15126967Y-12273769D02*
X15117444Y-12254722D01*
X15117444Y-12254722D02*
X15107920Y-12245198D01*
X15107920Y-12245198D02*
X15088872Y-12235674D01*
X15088872Y-12235674D02*
X15050777Y-12235674D01*
X15050777Y-12235674D02*
X15031729Y-12245198D01*
X15031729Y-12245198D02*
X15022206Y-12254722D01*
X15022206Y-12254722D02*
X15012682Y-12273769D01*
X15250777Y-12159484D02*
X15269825Y-12159484D01*
X15269825Y-12159484D02*
X15288872Y-12169008D01*
X15288872Y-12169008D02*
X15298396Y-12178531D01*
X15298396Y-12178531D02*
X15307920Y-12197579D01*
X15307920Y-12197579D02*
X15317444Y-12235674D01*
X15317444Y-12235674D02*
X15317444Y-12283293D01*
X15317444Y-12283293D02*
X15307920Y-12321388D01*
X15307920Y-12321388D02*
X15298396Y-12340436D01*
X15298396Y-12340436D02*
X15288872Y-12349960D01*
X15288872Y-12349960D02*
X15269825Y-12359484D01*
X15269825Y-12359484D02*
X15250777Y-12359484D01*
X15250777Y-12359484D02*
X15231729Y-12349960D01*
X15231729Y-12349960D02*
X15222206Y-12340436D01*
X15222206Y-12340436D02*
X15212682Y-12321388D01*
X15212682Y-12321388D02*
X15203158Y-12283293D01*
X15203158Y-12283293D02*
X15203158Y-12235674D01*
X15203158Y-12235674D02*
X15212682Y-12197579D01*
X15212682Y-12197579D02*
X15222206Y-12178531D01*
X15222206Y-12178531D02*
X15231729Y-12169008D01*
X15231729Y-12169008D02*
X15250777Y-12159484D01*
X15393634Y-12159484D02*
X15393634Y-12197579D01*
X15469825Y-12159484D02*
X15469825Y-12197579D01*
X15765063Y-12435674D02*
X15755539Y-12426150D01*
X15755539Y-12426150D02*
X15736491Y-12397579D01*
X15736491Y-12397579D02*
X15726968Y-12378531D01*
X15726968Y-12378531D02*
X15717444Y-12349960D01*
X15717444Y-12349960D02*
X15707920Y-12302341D01*
X15707920Y-12302341D02*
X15707920Y-12264246D01*
X15707920Y-12264246D02*
X15717444Y-12216627D01*
X15717444Y-12216627D02*
X15726968Y-12188055D01*
X15726968Y-12188055D02*
X15736491Y-12169008D01*
X15736491Y-12169008D02*
X15755539Y-12140436D01*
X15755539Y-12140436D02*
X15765063Y-12130912D01*
X15926968Y-12226150D02*
X15926968Y-12359484D01*
X15879348Y-12149960D02*
X15831729Y-12292817D01*
X15831729Y-12292817D02*
X15955539Y-12292817D01*
X16184110Y-12359484D02*
X16184110Y-12159484D01*
X16269825Y-12359484D02*
X16269825Y-12254722D01*
X16269825Y-12254722D02*
X16260301Y-12235674D01*
X16260301Y-12235674D02*
X16241253Y-12226150D01*
X16241253Y-12226150D02*
X16212682Y-12226150D01*
X16212682Y-12226150D02*
X16193634Y-12235674D01*
X16193634Y-12235674D02*
X16184110Y-12245198D01*
X16393634Y-12359484D02*
X16374587Y-12349960D01*
X16374587Y-12349960D02*
X16365063Y-12340436D01*
X16365063Y-12340436D02*
X16355539Y-12321388D01*
X16355539Y-12321388D02*
X16355539Y-12264246D01*
X16355539Y-12264246D02*
X16365063Y-12245198D01*
X16365063Y-12245198D02*
X16374587Y-12235674D01*
X16374587Y-12235674D02*
X16393634Y-12226150D01*
X16393634Y-12226150D02*
X16422206Y-12226150D01*
X16422206Y-12226150D02*
X16441253Y-12235674D01*
X16441253Y-12235674D02*
X16450777Y-12245198D01*
X16450777Y-12245198D02*
X16460301Y-12264246D01*
X16460301Y-12264246D02*
X16460301Y-12321388D01*
X16460301Y-12321388D02*
X16450777Y-12340436D01*
X16450777Y-12340436D02*
X16441253Y-12349960D01*
X16441253Y-12349960D02*
X16422206Y-12359484D01*
X16422206Y-12359484D02*
X16393634Y-12359484D01*
X16574587Y-12359484D02*
X16555539Y-12349960D01*
X16555539Y-12349960D02*
X16546015Y-12330912D01*
X16546015Y-12330912D02*
X16546015Y-12159484D01*
X16726968Y-12349960D02*
X16707920Y-12359484D01*
X16707920Y-12359484D02*
X16669825Y-12359484D01*
X16669825Y-12359484D02*
X16650777Y-12349960D01*
X16650777Y-12349960D02*
X16641253Y-12330912D01*
X16641253Y-12330912D02*
X16641253Y-12254722D01*
X16641253Y-12254722D02*
X16650777Y-12235674D01*
X16650777Y-12235674D02*
X16669825Y-12226150D01*
X16669825Y-12226150D02*
X16707920Y-12226150D01*
X16707920Y-12226150D02*
X16726968Y-12235674D01*
X16726968Y-12235674D02*
X16736491Y-12254722D01*
X16736491Y-12254722D02*
X16736491Y-12273769D01*
X16736491Y-12273769D02*
X16641253Y-12292817D01*
X16812682Y-12349960D02*
X16831730Y-12359484D01*
X16831730Y-12359484D02*
X16869825Y-12359484D01*
X16869825Y-12359484D02*
X16888873Y-12349960D01*
X16888873Y-12349960D02*
X16898396Y-12330912D01*
X16898396Y-12330912D02*
X16898396Y-12321388D01*
X16898396Y-12321388D02*
X16888873Y-12302341D01*
X16888873Y-12302341D02*
X16869825Y-12292817D01*
X16869825Y-12292817D02*
X16841253Y-12292817D01*
X16841253Y-12292817D02*
X16822206Y-12283293D01*
X16822206Y-12283293D02*
X16812682Y-12264246D01*
X16812682Y-12264246D02*
X16812682Y-12254722D01*
X16812682Y-12254722D02*
X16822206Y-12235674D01*
X16822206Y-12235674D02*
X16841253Y-12226150D01*
X16841253Y-12226150D02*
X16869825Y-12226150D01*
X16869825Y-12226150D02*
X16888873Y-12235674D01*
X16965063Y-12435674D02*
X16974587Y-12426150D01*
X16974587Y-12426150D02*
X16993634Y-12397579D01*
X16993634Y-12397579D02*
X17003158Y-12378531D01*
X17003158Y-12378531D02*
X17012682Y-12349960D01*
X17012682Y-12349960D02*
X17022206Y-12302341D01*
X17022206Y-12302341D02*
X17022206Y-12264246D01*
X17022206Y-12264246D02*
X17012682Y-12216627D01*
X17012682Y-12216627D02*
X17003158Y-12188055D01*
X17003158Y-12188055D02*
X16993634Y-12169008D01*
X16993634Y-12169008D02*
X16974587Y-12140436D01*
X16974587Y-12140436D02*
X16965063Y-12130912D01*
M02*
