%TF.GenerationSoftware,KiCad,Pcbnew,8.0.1*%
%TF.CreationDate,2024-12-11T12:45:41-03:00*%
%TF.ProjectId,AdeJiga,4164654a-6967-4612-9e6b-696361645f70,rev?*%
%TF.SameCoordinates,Original*%
%TF.FileFunction,Copper,L1,Top*%
%TF.FilePolarity,Positive*%
%FSLAX46Y46*%
G04 Gerber Fmt 4.6, Leading zero omitted, Abs format (unit mm)*
G04 Created by KiCad (PCBNEW 8.0.1) date 2024-12-11 12:45:41*
%MOMM*%
%LPD*%
G01*
G04 APERTURE LIST*
%TA.AperFunction,ComponentPad*%
%ADD10C,2.800000*%
%TD*%
%TA.AperFunction,ComponentPad*%
%ADD11C,1.600000*%
%TD*%
%TA.AperFunction,ComponentPad*%
%ADD12O,1.600000X1.600000*%
%TD*%
%TA.AperFunction,ComponentPad*%
%ADD13R,1.700000X1.700000*%
%TD*%
%TA.AperFunction,ComponentPad*%
%ADD14C,2.000000*%
%TD*%
%TA.AperFunction,ComponentPad*%
%ADD15R,2.200000X2.200000*%
%TD*%
%TA.AperFunction,ComponentPad*%
%ADD16O,2.200000X2.200000*%
%TD*%
%TA.AperFunction,ComponentPad*%
%ADD17R,2.500000X2.500000*%
%TD*%
%TA.AperFunction,ComponentPad*%
%ADD18C,1.400000*%
%TD*%
%TA.AperFunction,ComponentPad*%
%ADD19O,1.400000X1.400000*%
%TD*%
%TA.AperFunction,ComponentPad*%
%ADD20C,3.200000*%
%TD*%
%TA.AperFunction,ComponentPad*%
%ADD21R,2.000000X1.905000*%
%TD*%
%TA.AperFunction,ComponentPad*%
%ADD22O,2.000000X1.905000*%
%TD*%
%TA.AperFunction,ComponentPad*%
%ADD23C,2.250000*%
%TD*%
%TA.AperFunction,ComponentPad*%
%ADD24C,2.100000*%
%TD*%
%TA.AperFunction,ComponentPad*%
%ADD25R,1.800000X1.800000*%
%TD*%
%TA.AperFunction,ComponentPad*%
%ADD26C,1.800000*%
%TD*%
%TA.AperFunction,ComponentPad*%
%ADD27R,2.800000X2.800000*%
%TD*%
%TA.AperFunction,ComponentPad*%
%ADD28R,1.600000X1.600000*%
%TD*%
G04 APERTURE END LIST*
D10*
%TO.P,J1,1,Pin_1*%
%TO.N,Net-(J1-Pin_1)*%
X115320000Y-121980000D03*
%TO.P,J1,2,Pin_2*%
%TO.N,Net-(J1-Pin_2)*%
X115320000Y-116980000D03*
%TO.P,J1,3,Pin_3*%
%TO.N,Net-(J1-Pin_3)*%
X115320000Y-111980000D03*
%TD*%
D11*
%TO.P,R3,1*%
%TO.N,REL2*%
X141830000Y-139150000D03*
D12*
%TO.P,R3,2*%
%TO.N,Net-(Q3-B)*%
X141830000Y-128990000D03*
%TD*%
D10*
%TO.P,J3,1,Pin_1*%
%TO.N,Net-(J3-Pin_1)*%
X115350000Y-139020000D03*
%TO.P,J3,2,Pin_2*%
%TO.N,Net-(J3-Pin_2)*%
X115350000Y-134020000D03*
%TO.P,J3,3,Pin_3*%
%TO.N,Net-(J3-Pin_3)*%
X115350000Y-129020000D03*
%TD*%
D13*
%TO.P,J5,1,Pin_1*%
%TO.N,GND*%
X158750000Y-130730000D03*
D14*
%TO.P,J5,2,Pin_2*%
%TO.N,boot*%
X158750000Y-128190000D03*
%TD*%
D13*
%TO.P,J6,1,Pin_1*%
%TO.N,Net-(J6-Pin_1)*%
X174250000Y-124700000D03*
D14*
%TO.P,J6,2,Pin_2*%
%TO.N,RX*%
X174250000Y-127240000D03*
%TO.P,J6,3,Pin_3*%
%TO.N,TX*%
X174250000Y-129780000D03*
%TD*%
D15*
%TO.P,D6,1,K*%
%TO.N,+5V*%
X137500000Y-145820000D03*
D16*
%TO.P,D6,2,A*%
%TO.N,Ativa_Rel\u00E9_3*%
X137500000Y-155980000D03*
%TD*%
D17*
%TO.P,M1,IN+,IN+*%
%TO.N,+24V*%
X128396000Y-159558000D03*
%TO.P,M1,IN-,IN-*%
%TO.N,GND*%
X128396000Y-176830000D03*
%TO.P,M1,OUT+,OUT+*%
%TO.N,+5V*%
X168020000Y-159558000D03*
%TO.P,M1,OUT-,OUT-*%
%TO.N,GND*%
X168020000Y-176830000D03*
%TD*%
D18*
%TO.P,R5,1*%
%TO.N,GND*%
X178000000Y-121730000D03*
D19*
%TO.P,R5,2*%
%TO.N,Net-(J6-Pin_1)*%
X172920000Y-121730000D03*
%TD*%
D13*
%TO.P,J7,1,Pin_1*%
%TO.N,GND*%
X175500000Y-175980000D03*
D14*
%TO.P,J7,2,Pin_2*%
%TO.N,+3.3V*%
X175500000Y-173440000D03*
%TD*%
D13*
%TO.P,J4,1,Pin_1*%
%TO.N,GPIOC*%
X151660000Y-102980000D03*
D14*
%TO.P,J4,2,Pin_2*%
%TO.N,GPIOB*%
X149120000Y-102980000D03*
%TO.P,J4,3,Pin_3*%
%TO.N,GPIOA*%
X146580000Y-102980000D03*
%TO.P,J4,4,Pin_4*%
%TO.N,GND*%
X144040000Y-102980000D03*
%TO.P,J4,5,Pin_5*%
%TO.N,+5V*%
X141500000Y-102980000D03*
%TD*%
D20*
%TO.P,H1,*%
%TO.N,*%
X112000000Y-175230000D03*
%TD*%
D15*
%TO.P,D1,1,K*%
%TO.N,+5V*%
X137500000Y-112400000D03*
D16*
%TO.P,D1,2,A*%
%TO.N,Ativa_Rel\u00E9_1*%
X137500000Y-122560000D03*
%TD*%
D21*
%TO.P,Q1,1,B*%
%TO.N,Net-(Q1-B)*%
X145305000Y-113730000D03*
D22*
%TO.P,Q1,2,C*%
%TO.N,Ativa_Rel\u00E9_1*%
X145305000Y-116270000D03*
%TO.P,Q1,3,E*%
%TO.N,GND*%
X145305000Y-118810000D03*
%TD*%
D11*
%TO.P,R4,1*%
%TO.N,Net-(D5-A)*%
X155080000Y-139980000D03*
D12*
%TO.P,R4,2*%
%TO.N,REL2*%
X144920000Y-139980000D03*
%TD*%
D11*
%TO.P,R2,1*%
%TO.N,Net-(D3-A)*%
X154830000Y-123230000D03*
D12*
%TO.P,R2,2*%
%TO.N,REL1*%
X144670000Y-123230000D03*
%TD*%
D23*
%TO.P,K3,1*%
%TO.N,Net-(J12-Pin_2)*%
X134550000Y-149730000D03*
D24*
%TO.P,K3,2*%
%TO.N,Ativa_Rel\u00E9_3*%
X132050000Y-154730000D03*
%TO.P,K3,3*%
%TO.N,Net-(J12-Pin_3)*%
X121850000Y-144730000D03*
%TO.P,K3,4*%
%TO.N,Net-(J12-Pin_1)*%
X121850000Y-154730000D03*
%TO.P,K3,5*%
%TO.N,+5V*%
X132050000Y-144730000D03*
%TD*%
D13*
%TO.P,J9,1,Pin_1*%
%TO.N,GND*%
X162900000Y-102980000D03*
D14*
%TO.P,J9,2,Pin_2*%
%TO.N,GPIOF*%
X160360000Y-102980000D03*
%TO.P,J9,3,Pin_3*%
%TO.N,GPIOE*%
X157820000Y-102980000D03*
%TO.P,J9,4,Pin_4*%
%TO.N,GPIOD*%
X155280000Y-102980000D03*
%TD*%
D23*
%TO.P,K1,1*%
%TO.N,Net-(J1-Pin_2)*%
X134500000Y-116980000D03*
D24*
%TO.P,K1,2*%
%TO.N,Ativa_Rel\u00E9_1*%
X132000000Y-121980000D03*
%TO.P,K1,3*%
%TO.N,Net-(J1-Pin_3)*%
X121800000Y-111980000D03*
%TO.P,K1,4*%
%TO.N,Net-(J1-Pin_1)*%
X121800000Y-121980000D03*
%TO.P,K1,5*%
%TO.N,+5V*%
X132000000Y-111980000D03*
%TD*%
D13*
%TO.P,J11,1,Pin_1*%
%TO.N,Net-(D4-A)*%
X118475000Y-162730000D03*
D14*
%TO.P,J11,2,Pin_2*%
%TO.N,Net-(J11-Pin_2)*%
X121015000Y-162730000D03*
%TD*%
D25*
%TO.P,D3,1,K*%
%TO.N,GND*%
X152000000Y-115190000D03*
D26*
%TO.P,D3,2,A*%
%TO.N,Net-(D3-A)*%
X152000000Y-117730000D03*
%TD*%
D25*
%TO.P,D7,1,K*%
%TO.N,GND*%
X151750000Y-151755000D03*
D26*
%TO.P,D7,2,A*%
%TO.N,Net-(D7-A)*%
X151750000Y-149215000D03*
%TD*%
D27*
%TO.P,J2,1,Pin_1*%
%TO.N,GND*%
X118750000Y-174980000D03*
D10*
%TO.P,J2,2,Pin_2*%
%TO.N,Net-(J11-Pin_2)*%
X123750000Y-174980000D03*
%TD*%
D15*
%TO.P,D2,1,K*%
%TO.N,+5V*%
X137500000Y-129300000D03*
D16*
%TO.P,D2,2,A*%
%TO.N,Ativa_Rel\u00E9_2*%
X137500000Y-139460000D03*
%TD*%
D20*
%TO.P,H3,*%
%TO.N,*%
X112000000Y-104730000D03*
%TD*%
%TO.P,H2,*%
%TO.N,*%
X181000000Y-175730000D03*
%TD*%
D21*
%TO.P,Q3,1,B*%
%TO.N,Net-(Q3-B)*%
X145100000Y-130580000D03*
D22*
%TO.P,Q3,2,C*%
%TO.N,Ativa_Rel\u00E9_2*%
X145100000Y-133120000D03*
%TO.P,Q3,3,E*%
%TO.N,GND*%
X145100000Y-135660000D03*
%TD*%
D28*
%TO.P,C3,1*%
%TO.N,+3.3V*%
X174000000Y-166480000D03*
D11*
%TO.P,C3,2*%
%TO.N,GND*%
X176500000Y-166480000D03*
%TD*%
D13*
%TO.P,J10,1,Pin_1*%
%TO.N,GND*%
X171750000Y-176005000D03*
D14*
%TO.P,J10,2,Pin_2*%
%TO.N,+5V*%
X171750000Y-173465000D03*
%TD*%
D21*
%TO.P,Q2,1,B*%
%TO.N,Net-(Q2-B)*%
X145000000Y-147480000D03*
D22*
%TO.P,Q2,2,C*%
%TO.N,Ativa_Rel\u00E9_3*%
X145000000Y-150020000D03*
%TO.P,Q2,3,E*%
%TO.N,GND*%
X145000000Y-152560000D03*
%TD*%
D27*
%TO.P,J12,1,Pin_1*%
%TO.N,Net-(J12-Pin_1)*%
X115250000Y-155980000D03*
D10*
%TO.P,J12,2,Pin_2*%
%TO.N,Net-(J12-Pin_2)*%
X115250000Y-150980000D03*
%TO.P,J12,3,Pin_3*%
%TO.N,Net-(J12-Pin_3)*%
X115250000Y-145980000D03*
%TD*%
D11*
%TO.P,R1,1*%
%TO.N,REL1*%
X142000000Y-122230000D03*
D12*
%TO.P,R1,2*%
%TO.N,Net-(Q1-B)*%
X142000000Y-112070000D03*
%TD*%
D13*
%TO.P,J8,1,Pin_1*%
%TO.N,GND*%
X171690000Y-102980000D03*
D14*
%TO.P,J8,2,Pin_2*%
%TO.N,GPIOG*%
X169150000Y-102980000D03*
%TO.P,J8,3,Pin_3*%
%TO.N,GPIOH*%
X166610000Y-102980000D03*
%TD*%
D23*
%TO.P,K2,1*%
%TO.N,Net-(J3-Pin_2)*%
X134480000Y-133960000D03*
D24*
%TO.P,K2,2*%
%TO.N,Ativa_Rel\u00E9_2*%
X131980000Y-138960000D03*
%TO.P,K2,3*%
%TO.N,Net-(J3-Pin_3)*%
X121780000Y-128960000D03*
%TO.P,K2,4*%
%TO.N,Net-(J3-Pin_1)*%
X121780000Y-138960000D03*
%TO.P,K2,5*%
%TO.N,+5V*%
X131980000Y-128960000D03*
%TD*%
D25*
%TO.P,D5,1,K*%
%TO.N,GND*%
X152080000Y-132205000D03*
D26*
%TO.P,D5,2,A*%
%TO.N,Net-(D5-A)*%
X152080000Y-134745000D03*
%TD*%
D11*
%TO.P,R8,1*%
%TO.N,REL3*%
X141750000Y-156140000D03*
D12*
%TO.P,R8,2*%
%TO.N,Net-(Q2-B)*%
X141750000Y-145980000D03*
%TD*%
D15*
%TO.P,D4,1,K*%
%TO.N,+24V*%
X124830000Y-166230000D03*
D16*
%TO.P,D4,2,A*%
%TO.N,Net-(D4-A)*%
X114670000Y-166230000D03*
%TD*%
D20*
%TO.P,H4,*%
%TO.N,*%
X181000000Y-104730000D03*
%TD*%
D11*
%TO.P,R7,1*%
%TO.N,Net-(D7-A)*%
X145000000Y-156980000D03*
D12*
%TO.P,R7,2*%
%TO.N,REL3*%
X155160000Y-156980000D03*
%TD*%
%TO.P,R4,2*%
%TO.N,REL2*%
X144920000Y-57500000D03*
D11*
%TO.P,R4,1*%
%TO.N,Net-(D5-A)*%
X155080000Y-57500000D03*
%TD*%
D14*
%TO.P,J5,2,Pin_2*%
%TO.N,boot*%
X158750000Y-45710000D03*
D13*
%TO.P,J5,1,Pin_1*%
%TO.N,GND*%
X158750000Y-48250000D03*
%TD*%
D10*
%TO.P,J1,3,Pin_3*%
%TO.N,Net-(J1-Pin_3)*%
X115320000Y-29500000D03*
%TO.P,J1,2,Pin_2*%
%TO.N,Net-(J1-Pin_2)*%
X115320000Y-34500000D03*
%TO.P,J1,1,Pin_1*%
%TO.N,Net-(J1-Pin_1)*%
X115320000Y-39500000D03*
%TD*%
D16*
%TO.P,D6,2,A*%
%TO.N,Ativa_Rel\u00E9_3*%
X137500000Y-73500000D03*
D15*
%TO.P,D6,1,K*%
%TO.N,+5V*%
X137500000Y-63340000D03*
%TD*%
D14*
%TO.P,J6,3,Pin_3*%
%TO.N,TX*%
X174250000Y-47300000D03*
%TO.P,J6,2,Pin_2*%
%TO.N,RX*%
X174250000Y-44760000D03*
D13*
%TO.P,J6,1,Pin_1*%
%TO.N,Net-(J6-Pin_1)*%
X174250000Y-42220000D03*
%TD*%
D10*
%TO.P,J3,3,Pin_3*%
%TO.N,Net-(J3-Pin_3)*%
X115350000Y-46540000D03*
%TO.P,J3,2,Pin_2*%
%TO.N,Net-(J3-Pin_2)*%
X115350000Y-51540000D03*
%TO.P,J3,1,Pin_1*%
%TO.N,Net-(J3-Pin_1)*%
X115350000Y-56540000D03*
%TD*%
D12*
%TO.P,R3,2*%
%TO.N,Net-(Q3-B)*%
X141830000Y-46510000D03*
D11*
%TO.P,R3,1*%
%TO.N,REL2*%
X141830000Y-56670000D03*
%TD*%
D22*
%TO.P,Q1,3,E*%
%TO.N,GND*%
X145305000Y-36330000D03*
%TO.P,Q1,2,C*%
%TO.N,Ativa_Rel\u00E9_1*%
X145305000Y-33790000D03*
D21*
%TO.P,Q1,1,B*%
%TO.N,Net-(Q1-B)*%
X145305000Y-31250000D03*
%TD*%
D16*
%TO.P,D1,2,A*%
%TO.N,Ativa_Rel\u00E9_1*%
X137500000Y-40080000D03*
D15*
%TO.P,D1,1,K*%
%TO.N,+5V*%
X137500000Y-29920000D03*
%TD*%
D20*
%TO.P,H1,*%
%TO.N,*%
X112000000Y-92750000D03*
%TD*%
D13*
%TO.P,J4,1,Pin_1*%
%TO.N,GPIOC*%
X151660000Y-20500000D03*
D14*
%TO.P,J4,2,Pin_2*%
%TO.N,GPIOB*%
X149120000Y-20500000D03*
%TO.P,J4,3,Pin_3*%
%TO.N,GPIOA*%
X146580000Y-20500000D03*
%TO.P,J4,4,Pin_4*%
%TO.N,GND*%
X144040000Y-20500000D03*
%TO.P,J4,5,Pin_5*%
%TO.N,+5V*%
X141500000Y-20500000D03*
%TD*%
%TO.P,J7,2,Pin_2*%
%TO.N,+3.3V*%
X175500000Y-90960000D03*
D13*
%TO.P,J7,1,Pin_1*%
%TO.N,GND*%
X175500000Y-93500000D03*
%TD*%
D19*
%TO.P,R5,2*%
%TO.N,Net-(J6-Pin_1)*%
X172920000Y-39250000D03*
D18*
%TO.P,R5,1*%
%TO.N,GND*%
X178000000Y-39250000D03*
%TD*%
D17*
%TO.P,M1,OUT-,OUT-*%
%TO.N,GND*%
X168020000Y-94350000D03*
%TO.P,M1,OUT+,OUT+*%
%TO.N,+5V*%
X168020000Y-77078000D03*
%TO.P,M1,IN-,IN-*%
%TO.N,GND*%
X128396000Y-94350000D03*
%TO.P,M1,IN+,IN+*%
%TO.N,+24V*%
X128396000Y-77078000D03*
%TD*%
D12*
%TO.P,R1,2*%
%TO.N,Net-(Q1-B)*%
X142000000Y-29590000D03*
D11*
%TO.P,R1,1*%
%TO.N,REL1*%
X142000000Y-39750000D03*
%TD*%
D10*
%TO.P,J12,3,Pin_3*%
%TO.N,Net-(J12-Pin_3)*%
X115250000Y-63500000D03*
%TO.P,J12,2,Pin_2*%
%TO.N,Net-(J12-Pin_2)*%
X115250000Y-68500000D03*
D27*
%TO.P,J12,1,Pin_1*%
%TO.N,Net-(J12-Pin_1)*%
X115250000Y-73500000D03*
%TD*%
D22*
%TO.P,Q2,3,E*%
%TO.N,GND*%
X145000000Y-70080000D03*
%TO.P,Q2,2,C*%
%TO.N,Ativa_Rel\u00E9_3*%
X145000000Y-67540000D03*
D21*
%TO.P,Q2,1,B*%
%TO.N,Net-(Q2-B)*%
X145000000Y-65000000D03*
%TD*%
D12*
%TO.P,R7,2*%
%TO.N,REL3*%
X155160000Y-74500000D03*
D11*
%TO.P,R7,1*%
%TO.N,Net-(D7-A)*%
X145000000Y-74500000D03*
%TD*%
D24*
%TO.P,K2,5*%
%TO.N,+5V*%
X131980000Y-46480000D03*
%TO.P,K2,4*%
%TO.N,Net-(J3-Pin_1)*%
X121780000Y-56480000D03*
%TO.P,K2,3*%
%TO.N,Net-(J3-Pin_3)*%
X121780000Y-46480000D03*
%TO.P,K2,2*%
%TO.N,Ativa_Rel\u00E9_2*%
X131980000Y-56480000D03*
D23*
%TO.P,K2,1*%
%TO.N,Net-(J3-Pin_2)*%
X134480000Y-51480000D03*
%TD*%
D14*
%TO.P,J10,2,Pin_2*%
%TO.N,+5V*%
X171750000Y-90985000D03*
D13*
%TO.P,J10,1,Pin_1*%
%TO.N,GND*%
X171750000Y-93525000D03*
%TD*%
D22*
%TO.P,Q3,3,E*%
%TO.N,GND*%
X145100000Y-53180000D03*
%TO.P,Q3,2,C*%
%TO.N,Ativa_Rel\u00E9_2*%
X145100000Y-50640000D03*
D21*
%TO.P,Q3,1,B*%
%TO.N,Net-(Q3-B)*%
X145100000Y-48100000D03*
%TD*%
D11*
%TO.P,C3,2*%
%TO.N,GND*%
X176500000Y-84000000D03*
D28*
%TO.P,C3,1*%
%TO.N,+3.3V*%
X174000000Y-84000000D03*
%TD*%
D20*
%TO.P,H4,*%
%TO.N,*%
X181000000Y-22250000D03*
%TD*%
%TO.P,H2,*%
%TO.N,*%
X181000000Y-93250000D03*
%TD*%
D13*
%TO.P,J8,1,Pin_1*%
%TO.N,GND*%
X171690000Y-20500000D03*
D14*
%TO.P,J8,2,Pin_2*%
%TO.N,GPIOG*%
X169150000Y-20500000D03*
%TO.P,J8,3,Pin_3*%
%TO.N,GPIOH*%
X166610000Y-20500000D03*
%TD*%
D20*
%TO.P,H3,*%
%TO.N,*%
X112000000Y-22250000D03*
%TD*%
D16*
%TO.P,D2,2,A*%
%TO.N,Ativa_Rel\u00E9_2*%
X137500000Y-56980000D03*
D15*
%TO.P,D2,1,K*%
%TO.N,+5V*%
X137500000Y-46820000D03*
%TD*%
D16*
%TO.P,D4,2,A*%
%TO.N,Net-(D4-A)*%
X114670000Y-83750000D03*
D15*
%TO.P,D4,1,K*%
%TO.N,+24V*%
X124830000Y-83750000D03*
%TD*%
D10*
%TO.P,J2,2,Pin_2*%
%TO.N,Net-(J11-Pin_2)*%
X123750000Y-92500000D03*
D27*
%TO.P,J2,1,Pin_1*%
%TO.N,GND*%
X118750000Y-92500000D03*
%TD*%
D12*
%TO.P,R8,2*%
%TO.N,Net-(Q2-B)*%
X141750000Y-63500000D03*
D11*
%TO.P,R8,1*%
%TO.N,REL3*%
X141750000Y-73660000D03*
%TD*%
D26*
%TO.P,D7,2,A*%
%TO.N,Net-(D7-A)*%
X151750000Y-66735000D03*
D25*
%TO.P,D7,1,K*%
%TO.N,GND*%
X151750000Y-69275000D03*
%TD*%
D26*
%TO.P,D5,2,A*%
%TO.N,Net-(D5-A)*%
X152080000Y-52265000D03*
D25*
%TO.P,D5,1,K*%
%TO.N,GND*%
X152080000Y-49725000D03*
%TD*%
D26*
%TO.P,D3,2,A*%
%TO.N,Net-(D3-A)*%
X152000000Y-35250000D03*
D25*
%TO.P,D3,1,K*%
%TO.N,GND*%
X152000000Y-32710000D03*
%TD*%
D14*
%TO.P,J11,2,Pin_2*%
%TO.N,Net-(J11-Pin_2)*%
X121015000Y-80250000D03*
D13*
%TO.P,J11,1,Pin_1*%
%TO.N,Net-(D4-A)*%
X118475000Y-80250000D03*
%TD*%
%TO.P,J9,1,Pin_1*%
%TO.N,GND*%
X162900000Y-20500000D03*
D14*
%TO.P,J9,2,Pin_2*%
%TO.N,GPIOF*%
X160360000Y-20500000D03*
%TO.P,J9,3,Pin_3*%
%TO.N,GPIOE*%
X157820000Y-20500000D03*
%TO.P,J9,4,Pin_4*%
%TO.N,GPIOD*%
X155280000Y-20500000D03*
%TD*%
D12*
%TO.P,R2,2*%
%TO.N,REL1*%
X144670000Y-40750000D03*
D11*
%TO.P,R2,1*%
%TO.N,Net-(D3-A)*%
X154830000Y-40750000D03*
%TD*%
D24*
%TO.P,K3,5*%
%TO.N,+5V*%
X132050000Y-62250000D03*
%TO.P,K3,4*%
%TO.N,Net-(J12-Pin_1)*%
X121850000Y-72250000D03*
%TO.P,K3,3*%
%TO.N,Net-(J12-Pin_3)*%
X121850000Y-62250000D03*
%TO.P,K3,2*%
%TO.N,Ativa_Rel\u00E9_3*%
X132050000Y-72250000D03*
D23*
%TO.P,K3,1*%
%TO.N,Net-(J12-Pin_2)*%
X134550000Y-67250000D03*
%TD*%
D24*
%TO.P,K1,5*%
%TO.N,+5V*%
X132000000Y-29500000D03*
%TO.P,K1,4*%
%TO.N,Net-(J1-Pin_1)*%
X121800000Y-39500000D03*
%TO.P,K1,3*%
%TO.N,Net-(J1-Pin_3)*%
X121800000Y-29500000D03*
%TO.P,K1,2*%
%TO.N,Ativa_Rel\u00E9_1*%
X132000000Y-39500000D03*
D23*
%TO.P,K1,1*%
%TO.N,Net-(J1-Pin_2)*%
X134500000Y-34500000D03*
%TD*%
M02*
