%TF.GenerationSoftware,KiCad,Pcbnew,8.0.1*%
%TF.CreationDate,2024-09-28T14:19:56-03:00*%
%TF.ProjectId,AdeJiga,4164654a-6967-4612-9e6b-696361645f70,rev?*%
%TF.SameCoordinates,Original*%
%TF.FileFunction,Copper,L1,Top*%
%TF.FilePolarity,Positive*%
%FSLAX46Y46*%
G04 Gerber Fmt 4.6, Leading zero omitted, Abs format (unit mm)*
G04 Created by KiCad (PCBNEW 8.0.1) date 2024-09-28 14:19:56*
%MOMM*%
%LPD*%
G01*
G04 APERTURE LIST*
%TA.AperFunction,ComponentPad*%
%ADD10C,1.600000*%
%TD*%
%TA.AperFunction,ComponentPad*%
%ADD11O,1.600000X1.600000*%
%TD*%
%TA.AperFunction,ComponentPad*%
%ADD12R,1.700000X1.700000*%
%TD*%
%TA.AperFunction,ComponentPad*%
%ADD13C,2.000000*%
%TD*%
%TA.AperFunction,ComponentPad*%
%ADD14C,2.800000*%
%TD*%
%TA.AperFunction,ComponentPad*%
%ADD15R,1.905000X2.000000*%
%TD*%
%TA.AperFunction,ComponentPad*%
%ADD16O,1.905000X2.000000*%
%TD*%
%TA.AperFunction,ComponentPad*%
%ADD17R,2.200000X2.200000*%
%TD*%
%TA.AperFunction,ComponentPad*%
%ADD18O,2.200000X2.200000*%
%TD*%
%TA.AperFunction,ComponentPad*%
%ADD19C,3.200000*%
%TD*%
%TA.AperFunction,ComponentPad*%
%ADD20C,1.400000*%
%TD*%
%TA.AperFunction,ComponentPad*%
%ADD21O,1.400000X1.400000*%
%TD*%
%TA.AperFunction,ComponentPad*%
%ADD22R,2.500000X2.500000*%
%TD*%
%TA.AperFunction,ComponentPad*%
%ADD23C,2.250000*%
%TD*%
%TA.AperFunction,ComponentPad*%
%ADD24C,2.100000*%
%TD*%
%TA.AperFunction,ComponentPad*%
%ADD25R,1.600000X1.600000*%
%TD*%
%TA.AperFunction,ComponentPad*%
%ADD26R,2.800000X2.800000*%
%TD*%
%TA.AperFunction,ComponentPad*%
%ADD27R,1.800000X1.800000*%
%TD*%
%TA.AperFunction,ComponentPad*%
%ADD28C,1.800000*%
%TD*%
G04 APERTURE END LIST*
D10*
%TO.P,R4,1*%
%TO.N,Net-(D5-A)*%
X135000000Y-83360000D03*
D11*
%TO.P,R4,2*%
%TO.N,GPIO17*%
X135000000Y-73200000D03*
%TD*%
D12*
%TO.P,J5,1,Pin_1*%
%TO.N,GND*%
X145100000Y-50875000D03*
D13*
%TO.P,J5,2,Pin_2*%
%TO.N,boot*%
X145100000Y-48335000D03*
%TD*%
D14*
%TO.P,J1,1,Pin_1*%
%TO.N,Net-(J1-Pin_1)*%
X150040000Y-87600000D03*
%TO.P,J1,2,Pin_2*%
%TO.N,Net-(J1-Pin_2)*%
X145040000Y-87600000D03*
%TO.P,J1,3,Pin_3*%
%TO.N,Net-(J1-Pin_3)*%
X140040000Y-87600000D03*
%TD*%
D12*
%TO.P,J6,1,Pin_1*%
%TO.N,Net-(J6-Pin_1)*%
X138720000Y-34250000D03*
D13*
%TO.P,J6,2,Pin_2*%
%TO.N,RX*%
X141260000Y-34250000D03*
%TO.P,J6,3,Pin_3*%
%TO.N,TX*%
X143800000Y-34250000D03*
%TD*%
D14*
%TO.P,J3,1,Pin_1*%
%TO.N,Net-(J3-Pin_1)*%
X166400000Y-87600000D03*
%TO.P,J3,2,Pin_2*%
%TO.N,Net-(J3-Pin_2)*%
X161400000Y-87600000D03*
%TO.P,J3,3,Pin_3*%
%TO.N,Net-(J3-Pin_3)*%
X156400000Y-87600000D03*
%TD*%
D10*
%TO.P,R3,1*%
%TO.N,GPIO17*%
X155300000Y-56000000D03*
D11*
%TO.P,R3,2*%
%TO.N,Net-(Q3-B)*%
X165460000Y-56000000D03*
%TD*%
D15*
%TO.P,Q1,1,B*%
%TO.N,Net-(Q1-B)*%
X150000000Y-60250000D03*
D16*
%TO.P,Q1,2,C*%
%TO.N,Ativa_Rel\u00E9_1*%
X147460000Y-60250000D03*
%TO.P,Q1,3,E*%
%TO.N,GND*%
X144920000Y-60250000D03*
%TD*%
D17*
%TO.P,D1,1,K*%
%TO.N,+5V*%
X140170000Y-65250000D03*
D18*
%TO.P,D1,2,A*%
%TO.N,Ativa_Rel\u00E9_1*%
X150330000Y-65250000D03*
%TD*%
D19*
%TO.P,H1,*%
%TO.N,*%
X190750000Y-91750000D03*
%TD*%
D12*
%TO.P,J4,1,Pin_1*%
%TO.N,GPIOC*%
X127000000Y-56990000D03*
D13*
%TO.P,J4,2,Pin_2*%
%TO.N,GPIOB*%
X127000000Y-59530000D03*
%TO.P,J4,3,Pin_3*%
%TO.N,GPIOA*%
X127000000Y-62070000D03*
%TO.P,J4,4,Pin_4*%
%TO.N,GND*%
X127000000Y-64610000D03*
%TO.P,J4,5,Pin_5*%
%TO.N,+5V*%
X127000000Y-67150000D03*
%TD*%
D12*
%TO.P,J7,1,Pin_1*%
%TO.N,GND*%
X184750000Y-26060000D03*
D13*
%TO.P,J7,2,Pin_2*%
%TO.N,+3.3V*%
X184750000Y-28600000D03*
%TD*%
D20*
%TO.P,R5,1*%
%TO.N,GND*%
X135750000Y-30500000D03*
D21*
%TO.P,R5,2*%
%TO.N,Net-(J6-Pin_1)*%
X135750000Y-35580000D03*
%TD*%
D22*
%TO.P,M1,IN+,IN+*%
%TO.N,+24V*%
X172828000Y-80024000D03*
%TO.P,M1,IN-,IN-*%
%TO.N,GND*%
X190100000Y-80024000D03*
%TO.P,M1,OUT+,OUT+*%
%TO.N,+5V*%
X172828000Y-40400000D03*
%TO.P,M1,OUT-,OUT-*%
%TO.N,GND*%
X190100000Y-40400000D03*
%TD*%
D10*
%TO.P,R1,1*%
%TO.N,GPIO16*%
X141840000Y-56000000D03*
D11*
%TO.P,R1,2*%
%TO.N,Net-(Q1-B)*%
X152000000Y-56000000D03*
%TD*%
D23*
%TO.P,K2,1*%
%TO.N,Net-(J3-Pin_2)*%
X161340000Y-68370000D03*
D24*
%TO.P,K2,2*%
%TO.N,Ativa_Rel\u00E9_2*%
X166340000Y-70870000D03*
%TO.P,K2,3*%
%TO.N,Net-(J3-Pin_3)*%
X156340000Y-81070000D03*
%TO.P,K2,4*%
%TO.N,Net-(J3-Pin_1)*%
X166340000Y-81070000D03*
%TO.P,K2,5*%
%TO.N,+5V*%
X156340000Y-70870000D03*
%TD*%
D12*
%TO.P,J10,1,Pin_1*%
%TO.N,GND*%
X190250000Y-34250000D03*
D13*
%TO.P,J10,2,Pin_2*%
%TO.N,+5V*%
X187710000Y-34250000D03*
%TD*%
D15*
%TO.P,Q3,1,B*%
%TO.N,Net-(Q3-B)*%
X161580000Y-60250000D03*
D16*
%TO.P,Q3,2,C*%
%TO.N,Ativa_Rel\u00E9_2*%
X159040000Y-60250000D03*
%TO.P,Q3,3,E*%
%TO.N,GND*%
X156500000Y-60250000D03*
%TD*%
D25*
%TO.P,C3,1*%
%TO.N,+3.3V*%
X180500000Y-35000000D03*
D10*
%TO.P,C3,2*%
%TO.N,GND*%
X180500000Y-32500000D03*
%TD*%
D19*
%TO.P,H4,*%
%TO.N,*%
X125250000Y-26250000D03*
%TD*%
%TO.P,H2,*%
%TO.N,*%
X190750000Y-26250000D03*
%TD*%
D12*
%TO.P,J8,1,Pin_1*%
%TO.N,GND*%
X127000000Y-33960000D03*
D13*
%TO.P,J8,2,Pin_2*%
%TO.N,GPIOG*%
X127000000Y-36500000D03*
%TO.P,J8,3,Pin_3*%
%TO.N,GPIOH*%
X127000000Y-39040000D03*
%TD*%
D19*
%TO.P,H3,*%
%TO.N,*%
X125250000Y-91750000D03*
%TD*%
D17*
%TO.P,D2,1,K*%
%TO.N,+5V*%
X156180000Y-65250000D03*
D18*
%TO.P,D2,2,A*%
%TO.N,Ativa_Rel\u00E9_2*%
X166340000Y-65250000D03*
%TD*%
D17*
%TO.P,D4,1,K*%
%TO.N,+24V*%
X172800000Y-83320000D03*
D18*
%TO.P,D4,2,A*%
%TO.N,Net-(D4-A)*%
X172800000Y-93480000D03*
%TD*%
D14*
%TO.P,J2,2,Pin_2*%
%TO.N,Net-(J11-Pin_2)*%
X182500000Y-87750000D03*
D26*
%TO.P,J2,1,Pin_1*%
%TO.N,GND*%
X177500000Y-87750000D03*
%TD*%
D27*
%TO.P,D5,1,K*%
%TO.N,GND*%
X124460000Y-75750000D03*
D28*
%TO.P,D5,2,A*%
%TO.N,Net-(D5-A)*%
X127000000Y-75750000D03*
%TD*%
D27*
%TO.P,D3,1,K*%
%TO.N,GND*%
X124460000Y-82250000D03*
D28*
%TO.P,D3,2,A*%
%TO.N,Net-(D3-A)*%
X127000000Y-82250000D03*
%TD*%
D12*
%TO.P,J11,1,Pin_1*%
%TO.N,Net-(D4-A)*%
X190400000Y-84000000D03*
D13*
%TO.P,J11,2,Pin_2*%
%TO.N,Net-(J11-Pin_2)*%
X187860000Y-84000000D03*
%TD*%
D12*
%TO.P,J9,1,Pin_1*%
%TO.N,GND*%
X127000000Y-44240000D03*
D13*
%TO.P,J9,2,Pin_2*%
%TO.N,GPIOF*%
X127000000Y-46780000D03*
%TO.P,J9,3,Pin_3*%
%TO.N,GPIOE*%
X127000000Y-49320000D03*
%TO.P,J9,4,Pin_4*%
%TO.N,GPIOD*%
X127000000Y-51860000D03*
%TD*%
D10*
%TO.P,R2,1*%
%TO.N,Net-(D3-A)*%
X132000000Y-83360000D03*
D11*
%TO.P,R2,2*%
%TO.N,GPIO16*%
X132000000Y-73200000D03*
%TD*%
D23*
%TO.P,K1,1*%
%TO.N,Net-(J1-Pin_2)*%
X145040000Y-68420000D03*
D24*
%TO.P,K1,2*%
%TO.N,Ativa_Rel\u00E9_1*%
X150040000Y-70920000D03*
%TO.P,K1,3*%
%TO.N,Net-(J1-Pin_3)*%
X140040000Y-81120000D03*
%TO.P,K1,4*%
%TO.N,Net-(J1-Pin_1)*%
X150040000Y-81120000D03*
%TO.P,K1,5*%
%TO.N,+5V*%
X140040000Y-70920000D03*
%TD*%
M02*
