%TF.GenerationSoftware,KiCad,Pcbnew,8.0.1*%
%TF.CreationDate,2024-12-11T12:45:41-03:00*%
%TF.ProjectId,AdeJiga,4164654a-6967-4612-9e6b-696361645f70,rev?*%
%TF.SameCoordinates,Original*%
%TF.FileFunction,Legend,Bot*%
%TF.FilePolarity,Positive*%
%FSLAX46Y46*%
G04 Gerber Fmt 4.6, Leading zero omitted, Abs format (unit mm)*
G04 Created by KiCad (PCBNEW 8.0.1) date 2024-12-11 12:45:41*
%MOMM*%
%LPD*%
G01*
G04 APERTURE LIST*
%ADD10C,0.150000*%
%ADD11C,0.120000*%
G04 APERTURE END LIST*
D10*
X178154819Y-157718095D02*
X178964342Y-157718095D01*
X178964342Y-157718095D02*
X179059580Y-157765714D01*
X179059580Y-157765714D02*
X179107200Y-157813333D01*
X179107200Y-157813333D02*
X179154819Y-157908571D01*
X179154819Y-157908571D02*
X179154819Y-158099047D01*
X179154819Y-158099047D02*
X179107200Y-158194285D01*
X179107200Y-158194285D02*
X179059580Y-158241904D01*
X179059580Y-158241904D02*
X178964342Y-158289523D01*
X178964342Y-158289523D02*
X178154819Y-158289523D01*
X178488152Y-159194285D02*
X179154819Y-159194285D01*
X178107200Y-158956190D02*
X178821485Y-158718095D01*
X178821485Y-158718095D02*
X178821485Y-159337142D01*
X169761904Y-140184819D02*
X169761904Y-140994342D01*
X169761904Y-140994342D02*
X169714285Y-141089580D01*
X169714285Y-141089580D02*
X169666666Y-141137200D01*
X169666666Y-141137200D02*
X169571428Y-141184819D01*
X169571428Y-141184819D02*
X169380952Y-141184819D01*
X169380952Y-141184819D02*
X169285714Y-141137200D01*
X169285714Y-141137200D02*
X169238095Y-141089580D01*
X169238095Y-141089580D02*
X169190476Y-140994342D01*
X169190476Y-140994342D02*
X169190476Y-140184819D01*
X168761904Y-140280057D02*
X168714285Y-140232438D01*
X168714285Y-140232438D02*
X168619047Y-140184819D01*
X168619047Y-140184819D02*
X168380952Y-140184819D01*
X168380952Y-140184819D02*
X168285714Y-140232438D01*
X168285714Y-140232438D02*
X168238095Y-140280057D01*
X168238095Y-140280057D02*
X168190476Y-140375295D01*
X168190476Y-140375295D02*
X168190476Y-140470533D01*
X168190476Y-140470533D02*
X168238095Y-140613390D01*
X168238095Y-140613390D02*
X168809523Y-141184819D01*
X168809523Y-141184819D02*
X168190476Y-141184819D01*
X178154819Y-75238095D02*
X178964342Y-75238095D01*
X178964342Y-75238095D02*
X179059580Y-75285714D01*
X179059580Y-75285714D02*
X179107200Y-75333333D01*
X179107200Y-75333333D02*
X179154819Y-75428571D01*
X179154819Y-75428571D02*
X179154819Y-75619047D01*
X179154819Y-75619047D02*
X179107200Y-75714285D01*
X179107200Y-75714285D02*
X179059580Y-75761904D01*
X179059580Y-75761904D02*
X178964342Y-75809523D01*
X178964342Y-75809523D02*
X178154819Y-75809523D01*
X178488152Y-76714285D02*
X179154819Y-76714285D01*
X178107200Y-76476190D02*
X178821485Y-76238095D01*
X178821485Y-76238095D02*
X178821485Y-76857142D01*
X169761904Y-57704819D02*
X169761904Y-58514342D01*
X169761904Y-58514342D02*
X169714285Y-58609580D01*
X169714285Y-58609580D02*
X169666666Y-58657200D01*
X169666666Y-58657200D02*
X169571428Y-58704819D01*
X169571428Y-58704819D02*
X169380952Y-58704819D01*
X169380952Y-58704819D02*
X169285714Y-58657200D01*
X169285714Y-58657200D02*
X169238095Y-58609580D01*
X169238095Y-58609580D02*
X169190476Y-58514342D01*
X169190476Y-58514342D02*
X169190476Y-57704819D01*
X168761904Y-57800057D02*
X168714285Y-57752438D01*
X168714285Y-57752438D02*
X168619047Y-57704819D01*
X168619047Y-57704819D02*
X168380952Y-57704819D01*
X168380952Y-57704819D02*
X168285714Y-57752438D01*
X168285714Y-57752438D02*
X168238095Y-57800057D01*
X168238095Y-57800057D02*
X168190476Y-57895295D01*
X168190476Y-57895295D02*
X168190476Y-57990533D01*
X168190476Y-57990533D02*
X168238095Y-58133390D01*
X168238095Y-58133390D02*
X168809523Y-58704819D01*
X168809523Y-58704819D02*
X168190476Y-58704819D01*
D11*
%TO.C,U4*%
X170790000Y-156570000D02*
X170790000Y-160330000D01*
X172050000Y-156570000D02*
X170790000Y-156570000D01*
X176350000Y-156570000D02*
X177610000Y-156570000D01*
X177610000Y-156570000D02*
X177610000Y-160330000D01*
X177840000Y-161850000D02*
X177510000Y-161610000D01*
X177840000Y-161370000D01*
X177840000Y-161850000D01*
G36*
X177840000Y-161850000D02*
G01*
X177510000Y-161610000D01*
X177840000Y-161370000D01*
X177840000Y-161850000D01*
G37*
%TO.C,U2*%
X159372500Y-133205000D02*
X160152500Y-133205000D01*
X159372500Y-134205000D02*
X159372500Y-133205000D01*
X159372500Y-150445000D02*
X159372500Y-151445000D01*
X159372500Y-151445000D02*
X160152500Y-151445000D01*
X178697500Y-133205000D02*
X185112500Y-133205000D01*
X178952500Y-151445000D02*
X185112500Y-151445000D01*
X185112500Y-133205000D02*
X185112500Y-151445000D01*
X178227500Y-151950000D02*
X178227500Y-151450000D01*
X178727500Y-151450000D01*
X178227500Y-151950000D01*
G36*
X178227500Y-151950000D02*
G01*
X178227500Y-151450000D01*
X178727500Y-151450000D01*
X178227500Y-151950000D01*
G37*
%TO.C,U4*%
X177840000Y-79370000D02*
X177510000Y-79130000D01*
X177840000Y-78890000D01*
X177840000Y-79370000D01*
G36*
X177840000Y-79370000D02*
G01*
X177510000Y-79130000D01*
X177840000Y-78890000D01*
X177840000Y-79370000D01*
G37*
X170790000Y-74090000D02*
X170790000Y-77850000D01*
X172050000Y-74090000D02*
X170790000Y-74090000D01*
X176350000Y-74090000D02*
X177610000Y-74090000D01*
X177610000Y-74090000D02*
X177610000Y-77850000D01*
%TO.C,U2*%
X178227500Y-69470000D02*
X178227500Y-68970000D01*
X178727500Y-68970000D01*
X178227500Y-69470000D01*
G36*
X178227500Y-69470000D02*
G01*
X178227500Y-68970000D01*
X178727500Y-68970000D01*
X178227500Y-69470000D01*
G37*
X159372500Y-68965000D02*
X160152500Y-68965000D01*
X178952500Y-68965000D02*
X185112500Y-68965000D01*
X159372500Y-67965000D02*
X159372500Y-68965000D01*
X159372500Y-51725000D02*
X159372500Y-50725000D01*
X159372500Y-50725000D02*
X160152500Y-50725000D01*
X178697500Y-50725000D02*
X185112500Y-50725000D01*
X185112500Y-50725000D02*
X185112500Y-68965000D01*
%TD*%
M02*
